<?xml version="1.0" standalone="no"?>
<!DOCTYPE svg PUBLIC "-//W3C//DTD SVG 1.1//EN" "http://www.w3.org/Graphics/SVG/1.1/DTD/svg11.dtd" >
<svg xmlns="http://www.w3.org/2000/svg" xmlns:xlink="http://www.w3.org/1999/xlink" version="1.1">
<metadata>
Created by FontForge 20141024 at Mon Jun  1 19:17:53 2015
 By System Administrator
(c) 2007 Adobe Systems Incorporated. All Rights Reserved.
</metadata>
<defs>
<font id="ArnoPro-LightDisplay" horiz-adv-x="466" >
  <font-face 
    font-family="Arno Pro"
    font-weight="300"
    font-stretch="normal"
    units-per-em="1000"
    panose-1="2 2 4 2 5 5 6 2 4 3"
    ascent="688"
    descent="-312"
    x-height="384"
    cap-height="616"
    bbox="-159.222 -381.5 1331.89 840"
    underline-thickness="50"
    underline-position="-50"
    unicode-range="U+0020-FB06"
  />
<missing-glyph horiz-adv-x="495" 
d="M50 94l168 253l-168 252v-505zM416 50l-168 252l-169 -252h337zM446 94v505l-169 -252zM416 644h-337l169 -253zM0 693h495v-693h-495v693z" />
    <glyph glyph-name=".notdef" horiz-adv-x="495" 
d="M50 94l168 253l-168 252v-505zM416 50l-168 252l-169 -252h337zM446 94v505l-169 -252zM416 644h-337l169 -253zM0 693h495v-693h-495v693z" />
    <glyph glyph-name=".null" horiz-adv-x="0" 
 />
    <glyph glyph-name="nonmarkingreturn" horiz-adv-x="160" 
 />
    <glyph glyph-name="space" unicode=" " horiz-adv-x="160" 
 />
    <glyph glyph-name="numbersign" unicode="#" horiz-adv-x="393" 
d="M164 408q-3 0 -4 -3l-20 -96q0 -4 2 -4h82l22 103h-82zM282 577q3 2 13 6t13 5q4 0 4 -3l-29 -130q0 -3 3 -3q24 0 47 1t39 4q1 -2 -2 -11.5t-5 -12.5q-14 -14 -34 -19.5t-55 -5.5q-4 0 -4 -4l-21 -95q0 -4 3 -4h44t40 4q1 -2 0 -9t-3 -10q-17 -19 -38 -25.5t-52 -6.5
q-2 0 -4 -5l-27 -133q0 -2 -2 -2h-4t-9 7t-8 9q2 9 5.5 25.5t7 35t7 35.5t5.5 28h-84q-4 0 -4 -4l-30 -135q-1 -2 -3 -2h-3q-4 2 -10 8.5t-7 8.5q5 29 13 62.5t13 61.5q-71 0 -81 3q-1 1 0.5 9t4.5 16.5t6 15.5t5 8q15 -2 35 -3.5t41 -1.5l21 103h-18.5t-23.5 0.5t-22 1
t-14 0.5q0 2 1.5 9t4.5 14.5t6 14t5 7.5q15 -1 34 -1.5t37 -0.5l24 115q0 1 4 2.5t8.5 3.5t9 3.5t5.5 1.5t3 -2l-25 -119q0 -5 3 -5l81 -1z" />
    <glyph glyph-name="dollar" unicode="$" horiz-adv-x="440" 
d="M123 474q0 -26 8.5 -45t22 -34t30 -26.5t31.5 -20.5q2 -1 2.5 -2t2.5 4l22 226q0 4 -3 4q-60 -2 -88 -32t-28 -74zM208 25q0 -3 2 -3q23 0 44.5 7t38 20t27 33.5t11.5 47.5q2 42 -18 74t-75 63q-5 2 -5 -2zM182 -4q0 5 -3 5q-20 1 -40 4.5t-37.5 8.5t-31 10t-20.5 8
q-3 3 -5.5 18t-4.5 34t-3.5 37t-2.5 26q2 2 8.5 4.5t8.5 0.5q8 -38 19.5 -61.5t27.5 -37.5t37 -20.5t47 -10.5q4 0 4 3l24 251q0 4 -3 6q-27 16 -52 33t-44 37t-30.5 43.5t-11.5 53.5q0 37 13 65.5t36 47t54.5 28t68.5 9.5q4 0 4 4l7 71q3 2 11.5 3.5t12.5 1.5l-8 -77
q0 -1 1 -2q0 -1 2 -1q23 -2 36 -4t24 -4l51 -7q-5 -19 -9.5 -48.5t-7.5 -61.5q-2 -3 -8.5 -3.5t-8.5 2.5q-1 29 -5.5 48t-14.5 31t-24.5 18t-34.5 9q-3 0 -3 -3l-25 -236q1 -7 1.5 -7t2.5 -1q25 -13 51 -28.5t47.5 -35t35.5 -44t14 -56.5q0 -67 -45 -113.5t-140 -52.5
q-3 0 -3 -4l-8 -82l-23 -3z" />
    <glyph glyph-name="percent" unicode="%" horiz-adv-x="612" 
d="M151 556q-19 0 -31 -11t-19.5 -28t-10.5 -37.5t-3 -38.5q0 -41 7.5 -67.5t19.5 -43t26.5 -23t28.5 -6.5q20 0 33.5 8.5t21 23.5t10.5 35.5t3 44.5t-5.5 49.5t-16.5 46.5t-27 34t-37 13zM183 583q23 0 41 -12t30 -31t18 -43.5t6 -48.5q0 -57 -16.5 -91t-31.5 -48
q-23 -23 -44.5 -31.5t-47.5 -8.5q-23 0 -41 11.5t-30.5 30t-19.5 43.5t-7 52q0 47 11.5 77.5t31.5 52.5q18 18 44.5 32.5t55.5 14.5zM446 323q-19 0 -31.5 -11t-20 -27.5t-10.5 -36.5t-3 -38q0 -41 7 -68t18.5 -43t26 -23t28.5 -7q40 0 55 32.5t15 79.5q0 25 -4.5 50
t-14.5 45.5t-26.5 33.5t-39.5 13zM477 352q23 0 41 -11.5t30 -30t18 -43t6 -50.5q0 -60 -16 -92t-31 -46q-43 -42 -93 -42q-23 0 -41 11.5t-30.5 30.5t-19.5 43.5t-7 51.5q0 48 11.5 78t31.5 53q18 17 44.5 32t55.5 15zM114 41q94 143 182 280.5t182 280.5q6 4 15 6t14 2
q3 0 3 -4q-9 -11 -36.5 -53t-65 -100t-80.5 -125t-83 -128.5t-72 -111t-48 -72.5q-4 -2 -6 0q-2 4 -4 11.5t-1 13.5z" />
    <glyph glyph-name="ampersand" unicode="&#x26;" horiz-adv-x="686" 
d="M278 607q49 0 82 -31t33 -82q0 -19 -5.5 -36t-20 -34t-38 -37t-59.5 -45q-4 -2 -1 -5q9 -10 31.5 -30.5t51 -45t59 -49.5t55.5 -44q2 -3 5 0q14 19 32 55t29 71q5 13 3.5 22.5t-12.5 14.5q-7 3 -19 5.5t-29 4.5q-3 1 -2 7.5t3 8.5q9 0 31 -1.5t54 -1.5q35 0 57 1.5
t29 1.5q2 -1 2.5 -7.5t-1.5 -8.5q-8 -2 -18.5 -3.5t-15.5 -3.5q-17 -5 -26 -14t-17 -22q-26 -45 -44 -81t-37 -61q-1 0 -0.5 -2t1.5 -2q21 -16 44.5 -34t45 -35t38 -31t23.5 -22q0 -7 -4.5 -15.5t-10.5 -17t-12 -16t-9 -10.5q-2 -1 -5 -1.5t-5 1.5q-4 8 -12.5 15.5
t-13.5 13.5q-26 23 -56.5 47t-61.5 50q-2 2 -4 0q-45 -60 -98.5 -85.5t-107.5 -25.5q-42 0 -75.5 13t-57 35.5t-36.5 53.5t-13 67q0 21 7 39t23 37t42 40.5t64 48.5q3 2 1 4q-26 29 -42.5 61.5t-16.5 77.5q0 31 11.5 57t31 45.5t44.5 30.5t53 11zM213 305h-2h-3
q-16 -13 -31.5 -26t-27.5 -28.5t-19 -34.5t-7 -43q0 -33 12 -59.5t32 -44.5t47.5 -27.5t57.5 -9.5q43 0 84 18t72 58q3 4 1 6q-27 22 -58 48t-60 51.5t-54.5 49t-43.5 42.5zM263 586q-30 0 -54.5 -24t-24.5 -72q0 -35 17.5 -71t48.5 -64q1 -1 2 -1q2 0 3 1q89 64 89 137
q0 15 -4.5 31.5t-14.5 30.5t-25 23t-37 9z" />
    <glyph glyph-name="quoteright" unicode="&#x2019;" horiz-adv-x="166" 
d="M93 572q0 14 -11.5 26t-27.5 17q-4 2 -1 8q1 3 6 8.5t11 11t12 9.5t11 4q19 0 31 -16t12 -39t-9.5 -42.5t-24.5 -35.5t-32.5 -27.5t-33.5 -16.5q-1 0 -4 5t-2 7q21 11 33.5 22t19 21.5t8.5 20t2 17.5z" />
    <glyph glyph-name="parenleft" unicode="(" horiz-adv-x="367" 
d="M80 266q0 86 18 159.5t50 135t75.5 110t94.5 84.5q3 -1 7 -6t3 -7q-87 -70 -140.5 -185.5t-53.5 -272.5q0 -69 11.5 -137.5t34.5 -131t57.5 -116t80.5 -91.5q1 -2 -3.5 -7.5t-7.5 -5.5q-25 11 -63.5 48t-75 97.5t-62.5 142.5t-26 183z" />
    <glyph glyph-name="parenright" unicode=")" horiz-adv-x="367" 
d="M287 284q0 -87 -18 -161t-50 -135t-75.5 -109t-94.5 -84q-2 1 -6.5 6.5t-3.5 7.5q43 35 79 79.5t61.5 100.5t39.5 124.5t14 152.5q0 64 -9 129t-30 127t-56.5 118t-88.5 102q-1 2 4 7t7 6q25 -12 63.5 -49t75 -97t62.5 -142t26 -183z" />
    <glyph glyph-name="asterisk" unicode="*" horiz-adv-x="317" 
d="M186 539q8 3 23 8t31.5 11.5t32.5 13t27 11.5l2 -2q3 -3 1 -5q-5 -8 -11 -13.5t-11 -8.5q-19 -10 -46.5 -20t-45.5 -17q5 -6 18.5 -17.5t29.5 -23.5t31 -22.5t23 -13.5q2 -4 -5 -8q-7 -2 -18 -2t-18 4q-26 15 -45 30t-31 24q-3 -11 -7 -30.5t-7.5 -39t-6.5 -35.5t-3 -20
q-2 -2 -5 0l-10.5 10.5t-6.5 19.5q1 8 3 21.5t5 29l6 31t5 26.5l-120 -42q-2 0 -2 4q3 6 13.5 15t15.5 11q13 6 22 9.5t17.5 6.5t18.5 6.5t25 9.5q-5 4 -16 14.5t-24 22.5t-25 23.5t-18 17.5q-4 4 -1 7q9 6 18 8t12 2q5 -7 14 -16.5t19.5 -19.5t21.5 -20t20 -18
q8 38 15 69.5t9 38.5q0 1 4.5 3t9.5 3.5t9.5 3t5.5 1.5q5 0 5 -4q-4 -10 -8.5 -27t-9 -35t-8 -33.5t-4.5 -22.5z" />
    <glyph glyph-name="plus" unicode="+" horiz-adv-x="460" 
d="M424 231q-1 -3 -4.5 -15t-8.5 -13q-3 -1 -20.5 -1h-41.5h-50t-47 -1q-2 0 -4 -3t-2 -4q0 -20 -0.5 -47t-0.5 -52.5v-44v-20.5q-1 -4 -12.5 -9.5t-18.5 -7.5l-7 1v22.5v44.5v57.5v62.5h-171v8l10 33q6 -2 34 -1.5t66 0.5h61v61v34t-0.5 32t-1 26t-0.5 16q7 2 20 6t17 4
q2 0 3 -4t1 -25v-25v-35.5v-41v-40.5q0 -2 1.5 -5t3.5 -3h173v-10z" />
    <glyph glyph-name="comma" unicode="," horiz-adv-x="142" 
d="M-11 -146q-2 1 0 3q30 28 51 64t19 75q-2 16 -8 34.5t-14 32.5q1 3 6 10.5t11.5 16t13 15t10.5 8.5q1 1 5 1.5t6 -1.5q4 -4 10 -19t8 -42q1 -33 -8.5 -64t-25.5 -58t-35 -48.5t-36 -33.5q-5 1 -9 3t-4 3z" />
    <glyph glyph-name="hyphen" unicode="-" horiz-adv-x="250" 
d="M40 217q10 0 34.5 0.5t52.5 1.5t53.5 2t36.5 1l1 -5q-1 -8 -3.5 -20.5t-6.5 -13.5q-3 -1 -28 -2t-55 -2t-57 -1.5t-35 -0.5l-1 6q0 2 0.5 7.5t1.5 11.5t2.5 10.5t3.5 4.5z" />
    <glyph glyph-name="period" unicode="." horiz-adv-x="142" 
d="M72 76q8 0 14.5 -3t11.5 -7q8 -8 10.5 -16.5t2.5 -16.5q0 -5 -3 -14t-9 -14q-11 -12 -30 -12q-14 0 -25 11q-12 12 -12 30q0 17 13 30q12 12 27 12z" />
    <glyph glyph-name="slash" unicode="/" horiz-adv-x="429" 
d="M389 684q-2 -5 -14 -37.5t-31.5 -83t-44.5 -114t-51.5 -131.5t-53.5 -134.5t-50.5 -123.5t-41.5 -98.5t-28 -59.5q-2 -3 -12.5 -10t-16.5 -9q-4 0 -4 3q20 43 49.5 112.5t62 150.5t65.5 165t61.5 157.5t49 128.5t28.5 76q1 2 12 6t18 4z" />
    <glyph glyph-name="zero" unicode="0" horiz-adv-x="440" 
d="M214 580q-26 0 -43 -12.5t-26 -24.5q-11 -15 -20 -38.5t-15.5 -52t-10 -60.5t-3.5 -64q0 -147 32 -230t103 -83q21 0 35 7.5t24 19.5q22 29 37 87t15 156q0 146 -34.5 220.5t-93.5 74.5zM237 604q22 0 40 -5.5t30.5 -13t21 -15.5t13.5 -13q10 -13 22 -32.5t21.5 -48.5
t16 -68.5t6.5 -92.5q0 -107 -24 -174.5t-64 -106.5q-15 -15 -31 -24t-30 -13.5t-26 -6t-20 -1.5q-34 0 -59 11t-44 30q-14 13 -27.5 34.5t-25 52.5t-18.5 72t-7 94q0 79 15 140.5t52 109.5q29 36 65.5 53.5t72.5 17.5z" />
    <glyph glyph-name="one" unicode="1" horiz-adv-x="440" 
d="M338 11q1 -2 0 -7.5t-3 -6.5q-13 0 -37 1.5t-71 1.5q-45 0 -73.5 -1.5t-36.5 -1.5q-2 2 -2 7.5t2 7.5q13 2 20.5 2.5t20.5 2.5q9 1 15.5 4t11 9.5t6.5 17.5t2 28q1 17 1.5 42.5t0.5 55.5v63.5v66.5v73t-0.5 63t-1 47.5t-1.5 25.5q-2 10 -5.5 19.5t-15.5 10.5
q-10 1 -22.5 1h-29.5q-2 2 -1 7t2 7q33 4 69.5 17t59.5 29h4q4 0 4 -2q-1 -9 -2 -21.5t-1.5 -41t-0.5 -80v-140.5v-32.5t0.5 -44.5t0.5 -50t0.5 -48.5t1 -39.5t0.5 -24q2 -33 7 -44t20 -16q12 -4 22 -5t33 -4z" />
    <glyph glyph-name="two" unicode="2" horiz-adv-x="440" 
d="M162 550q-31 0 -61 -16.5t-61 -55.5q-2 0 -6.5 5t-4.5 7q7 11 21.5 30t36 38t49 32.5t59.5 13.5q31 0 58 -12.5t46.5 -35t30.5 -54t11 -70.5q0 -54 -32.5 -113t-80.5 -116q-20 -24 -34.5 -41.5t-28 -33.5t-27 -31.5t-31.5 -36.5q-1 -1 0 -2.5t2 -1.5q14 -2 46 -3.5
t67.5 -2.5t66 -0.5t42.5 1.5q6 0 12.5 2.5t15 10.5t18 24t20.5 43q2 1 8 -1t6 -4q-3 -12 -9 -30t-13 -37t-14 -34.5t-13 -21.5q-3 -3 -12.5 -4.5t-21.5 -1.5q-28 0 -60 0.5t-65 1.5t-65.5 1.5t-62.5 0.5q-11 0 -22.5 -1t-19.5 -2q-2 2 -3 6t-1 6q30 30 49.5 50t35.5 38.5
t32 39t40 51.5q45 57 68.5 115t23.5 111q0 25 -6 49t-20 43t-36 31t-54 12z" />
    <glyph glyph-name="three" unicode="3" horiz-adv-x="440" 
d="M218 604q24 0 46 -10t39 -27.5t27 -41t10 -51.5q0 -27 -8.5 -49t-22 -40t-29 -32t-29.5 -24q-2 -2 0 -4q25 -7 50 -19t45 -31t32.5 -45t12.5 -61q0 -54 -22.5 -93t-59.5 -67q-31 -23 -68 -37t-81 -14q-32 0 -51 5t-35 14q-9 5 -15 12t-11 23q-6 17 -8.5 37.5t-2.5 27.5
q1 2 5.5 4t6.5 2q9 -27 19 -43.5t25 -29.5q16 -13 39 -20t63 -7q22 0 45.5 8.5t42.5 26.5t31 45t12 64q0 31 -8.5 58.5t-26.5 48t-45.5 32.5t-64.5 12q-5 0 -15 -0.5t-22 -2.5q-1 1 0 5.5t3 9t4 8.5t4 5q69 15 98.5 54t29.5 84q0 21 -5.5 41.5t-18 37t-32 26.5t-46.5 10
q-60 0 -111 -57q-2 -1 -6 6t-3 9q13 15 30 31t37 29t42.5 21.5t47.5 8.5z" />
    <glyph glyph-name="four" unicode="4" horiz-adv-x="440" 
d="M65 218q10 -1 22 -1h41h124q5 0 5 5l3 281q0 2 -1.5 2t-2.5 -1q-7 -9 -22.5 -31.5t-35.5 -52t-42 -62t-41 -60.5t-33 -49l-18 -27q-1 -1 -0.5 -2.5t1.5 -1.5zM425 171q-26 0 -53 0.5t-53 0.5q-4 0 -4 -5q0 -48 0.5 -97t1.5 -96q-11 0 -30.5 -3.5t-32.5 -7.5q1 48 2 100
t1 103q0 5 -4 5l-139 1h-105q0 4 1 11.5t2 10.5q15 22 40 56.5t53.5 75t58.5 82.5t56 79.5t45 65.5t26 40q2 2 12 3t12 0v-374q0 -3 2 -3h116q-2 -10 -5 -23t-3 -25z" />
    <glyph glyph-name="five" unicode="5" horiz-adv-x="440" 
d="M344 607q2 0 5.5 -3t2.5 -5q-5 -11 -15 -28t-24 -28q-13 -9 -28 -9q-34 0 -61 2.5t-37 2.5q-5 0 -8 -3.5t-5 -5.5q-3 -6 -9 -20t-12 -29t-11.5 -29.5t-7.5 -22.5q-1 -3 0.5 -7t3.5 -5q48 -26 93.5 -53t82.5 -55q41 -31 59 -64t18 -79q0 -45 -19.5 -83t-51 -65.5
t-71 -43.5t-78.5 -16q-43 0 -70 11.5t-45 28.5q-7 7 -12 17t-5 16q0 7 3.5 17t8.5 19q1 1 4 2t4 0q9 -14 21.5 -28t29.5 -26t40.5 -19.5t55.5 -7.5q56 0 92.5 36.5t36.5 96.5q0 27 -5 47.5t-16 38.5t-28 34t-41 33q-20 15 -41.5 28t-41 24.5t-36.5 21t-29 17.5q-4 8 -2 18
q6 18 17 48t23 60.5t24 56t19 35.5q2 3 7.5 8.5t8.5 5.5q6 0 19.5 -1t29.5 -2t31.5 -2t26.5 0q14 0 23.5 2.5t19.5 12.5z" />
    <glyph glyph-name="six" unicode="6" horiz-adv-x="440" 
d="M216 331q-23 0 -42.5 -6.5t-38.5 -17.5q-22 -13 -28 -38q-3 -15 -4 -26t-1 -25q0 -54 11.5 -92.5t31 -63t45.5 -36.5t54 -12q50 0 77.5 39.5t27.5 111.5q0 39 -11 70t-30 52.5t-43 32.5t-49 11zM422 633q-68 -31 -118.5 -68.5t-86.5 -77.5t-59 -81t-35 -78
q-1 -2 -0.5 -2.5t0.5 -1.5t1 -2q33 17 71 33t73 16q29 0 54.5 -13t45 -36t31 -54.5t11.5 -67.5q0 -65 -24.5 -107.5t-67.5 -73.5q-10 -7 -23 -13t-27 -10t-28 -6.5t-24 -2.5q-47 0 -81 17t-56.5 46.5t-33 68t-10.5 81.5q0 72 28 140.5t78.5 127t120.5 105t154 75.5
q2 -1 4.5 -7t1.5 -8z" />
    <glyph glyph-name="seven" unicode="7" horiz-adv-x="440" 
d="M411 594q2 -4 2 -8q-7 -24 -27 -73t-46 -110.5t-55.5 -129t-56 -127.5t-46.5 -106t-27 -65q-1 -2 -5 -2q-5 1 -12.5 6t-9.5 7q-1 1 -1.5 4t0.5 5q13 29 34.5 74t46 97t50.5 107.5t48 105t38.5 89t22.5 59.5q0 4 -1 5h-33.5t-46 0.5t-52.5 0.5h-51.5t-44.5 -1t-31 -2
t-19 -4.5t-14.5 -11t-13.5 -20t-15 -31.5q-2 -2 -8.5 0.5t-6.5 4.5q9 31 17 65t13 67q11 -5 32.5 -6.5t45.5 -1.5h179q26 0 53.5 0.5t40.5 1.5z" />
    <glyph glyph-name="eight" unicode="8" horiz-adv-x="440" 
d="M237 12q19 0 37 6t32 18.5t22.5 31.5t8.5 45q0 29 -8 51t-25.5 41.5t-44 38t-62.5 41.5q-2 1 -6 1.5t-6 -1.5q-43 -34 -63.5 -66t-20.5 -71q0 -26 9 -50.5t26.5 -43.5t42.5 -30.5t58 -11.5zM215 581q-43 0 -68 -26.5t-25 -74.5q0 -26 9 -46.5t25.5 -38t39 -33.5t49.5 -32
q5 -4 9 0q42 32 56.5 64t14.5 61q0 28 -9 51.5t-24 40t-35 25.5t-42 9zM236 604q30 0 55 -10.5t44 -29.5t29.5 -45t10.5 -56q0 -36 -23 -68.5t-83 -74.5q-3 -3 -1 -5q33 -22 57 -40.5t39 -37t22.5 -39t7.5 -46.5q0 -32 -14.5 -61t-38.5 -52t-56.5 -36.5t-68.5 -13.5
q-46 0 -78.5 14t-52.5 35.5t-29.5 47.5t-9.5 50q0 16 5 32t19 34.5t38.5 41t62.5 51.5q5 3 2 6q-57 40 -79 74.5t-22 74.5q0 30 13.5 59.5t37.5 49.5q22 20 52 32.5t61 12.5z" />
    <glyph glyph-name="nine" unicode="9" horiz-adv-x="440" 
d="M198 578q-48 0 -78 -38.5t-30 -100.5q0 -44 12.5 -75.5t33 -51.5t46.5 -29.5t52 -9.5q20 0 44.5 7.5t40.5 20.5q10 8 13 19q4 14 5 29.5t1 26.5q0 40 -10 77t-28.5 64.5t-44.5 44t-57 16.5zM51 -61q-2 0 -5 6.5t-2 8.5q62 28 109 65t81.5 79.5t57.5 89t35 93.5q2 7 -4 3
q-14 -10 -32.5 -20t-39 -18.5t-41 -13.5t-38.5 -5q-24 0 -49 12t-45.5 34.5t-33 55t-12.5 73.5q0 48 20 90.5t60 71.5q24 17 55 28.5t63 11.5q40 0 72.5 -17.5t55 -48.5t34.5 -72.5t12 -89.5q0 -77 -28.5 -145t-76.5 -124t-112 -99t-136 -69z" />
    <glyph glyph-name="colon" unicode=":" horiz-adv-x="219" 
d="M110 326q8 0 14.5 -3t11.5 -7q8 -8 10.5 -16.5t2.5 -16.5q0 -5 -3 -14t-9 -14q-11 -12 -30 -12q-14 0 -25 11q-12 12 -12 30q0 17 13 30q12 12 27 12zM110 76q8 0 14.5 -3t11.5 -7q8 -8 10.5 -16.5t2.5 -16.5q0 -5 -3 -14t-9 -14q-11 -12 -30 -12q-14 0 -25 11
q-12 12 -12 30q0 17 13 30q12 12 27 12z" />
    <glyph glyph-name="semicolon" unicode=";" horiz-adv-x="219" 
d="M20 -146q-2 1 0 3q31 28 54.5 64t22.5 75q-2 16 -9.5 35.5t-13.5 31.5q1 3 6 10.5t11.5 16t13 15t10.5 8.5q1 1 5 1t6 -1q3 -2 9.5 -18t8.5 -43q1 -32 -9.5 -63t-27 -58t-36.5 -49t-38 -34q-5 1 -9 3t-4 3zM110 326q8 0 14.5 -3t11.5 -7q8 -8 10.5 -16.5t2.5 -16.5
q0 -5 -3 -14t-9 -14q-11 -12 -30 -12q-14 0 -25 11q-12 12 -12 30q0 17 13 30q12 12 27 12z" />
    <glyph glyph-name="less" unicode="&#x3c;" horiz-adv-x="460" 
d="M389 367q-5 -4 -22 -14.5t-41.5 -24.5t-53 -29.5t-56 -30t-50 -27t-35.5 -18.5q-2 -1 -2 -3q0 -1 1 -2q7 -4 28.5 -15t49.5 -26t59 -31.5t58.5 -32t48 -27.5t26.5 -17q1 -1 -0.5 -5.5l-3.5 -10.5t-5 -11t-5 -8q-1 -1 -2.5 -2t-2.5 0q-9 7 -31 20.5t-52 30t-65 35
t-68.5 35.5t-63.5 31t-49 22q0 3 4.5 13t6.5 12q19 8 49 23.5t64.5 33.5t71 37.5t67 37t53 30.5t29.5 19q1 0 3 -2q0 -2 -1 -8.5t-3 -13.5t-4 -13.5t-3 -7.5z" />
    <glyph glyph-name="equal" unicode="=" horiz-adv-x="460" 
d="M39 124q-3 1 -3 8q1 5 4.5 17.5t5.5 17.5q6 -2 32.5 -2.5t64.5 -0.5h279q2 -1 2 -7q-1 -6 -7 -19t-8 -14h-370zM39 277q-2 1 -3 3.5t0 4.5q1 5 4.5 17t5.5 17q6 -2 32.5 -2h64.5h280q2 -2 2 -4v-3q-1 -5 -6 -18t-8 -15h-372z" />
    <glyph glyph-name="greater" unicode="&#x3e;" horiz-adv-x="460" 
d="M68 76q4 4 21.5 14.5t42 24.5t53 29.5t56 30t50 26.5t35.5 19q2 0 2 3q0 1 -1 2q-8 4 -29 15t-49 26t-59.5 31.5t-58.5 32t-47.5 27.5t-26.5 17q-1 1 0.5 5.5l3.5 10.5t5 11t5 8q3 3 5 2q8 -7 30.5 -20.5t52.5 -30t65 -35t68.5 -35.5t63.5 -31t49 -22q0 -3 -4.5 -13
t-6.5 -12q-19 -9 -49 -24t-64.5 -33t-71 -37.5t-67 -37t-53 -30.5t-29.5 -19q-1 0 -3 2q0 2 1 8.5t3 13.5t3.5 13t3.5 8z" />
    <glyph glyph-name="question" unicode="?" horiz-adv-x="333" 
d="M158 70q17 0 27 -10q8 -8 10.5 -16.5t2.5 -16.5q0 -5 -2.5 -13t-8.5 -14q-6 -7 -14.5 -9.5t-17.5 -2.5q-6 0 -13 2.5t-13 7.5q-11 12 -11 31q0 16 12 30q13 11 28 11zM139 253q0 -6 9.5 -24t33.5 -35q3 -3 -1 -9q-2 -3 -10.5 -9.5t-14.5 -8.5q-12 -4 -23 0q-18 8 -31 25
t-13 37q0 11 3 20t5 11q6 6 21.5 19.5t33 28.5t34 29.5t24.5 22.5q14 14 21.5 27.5t7.5 30.5q0 13 -4.5 32t-17.5 38t-35.5 36t-58.5 26q-8 2 -18 3.5t-16 3.5q-16 3 -16 12q0 6 5 16.5t11 18.5q3 5 10 7.5t12 2.5q28 0 54 -10.5t49 -27.5q31 -23 50.5 -57.5t19.5 -67.5
q0 -27 -6.5 -45.5t-14.5 -27.5q-9 -9 -24 -22.5t-32 -27.5t-33 -27t-25 -23q-10 -10 -10 -25z" />
    <glyph glyph-name="at" unicode="@" horiz-adv-x="747" 
d="M295 50q21 0 53.5 28.5t71.5 91.5q11 19 18 38.5t12 41.5q3 10 6.5 25t7.5 30t8 28t8 20q-8 4 -19.5 6t-34.5 2q-43 0 -73 -24t-47 -55q-20 -35 -31.5 -79t-11.5 -87q0 -29 7.5 -47.5t24.5 -18.5zM499 34q22 0 49 12.5t51 39.5t40 68.5t16 100.5q0 72 -21.5 124t-57 86
t-80.5 50.5t-91 16.5q-25 0 -57 -7t-65.5 -24t-66 -45.5t-58 -72.5t-41 -104t-15.5 -141q0 -65 14.5 -115t38 -86t54 -58t62.5 -31q16 -5 30 -6t26 -1q2 -1 2 -6t-3 -7q-19 -8 -42 -8q-13 0 -35.5 7t-48.5 22t-52.5 39.5t-48.5 59t-35.5 80t-13.5 103.5q0 91 28.5 164
t77.5 130q58 66 129.5 102t154.5 36q62 0 110 -24.5t80.5 -63.5t49.5 -88t17 -98q0 -75 -26.5 -130.5t-64.5 -93t-80.5 -55.5t-75.5 -18q-16 0 -26.5 14.5t-6.5 56.5q2 17 5.5 40t8.5 46q1 2 -0.5 2.5t-2.5 -1.5q-22 -34 -47.5 -63t-50 -50.5t-46 -33.5t-34.5 -12
q-14 0 -22 9.5t-12.5 24t-6 30.5t-1.5 28q0 28 6 59.5t17.5 62t28 58.5t38.5 51q9 10 27 24t41 27t50 22t53 9q23 0 37.5 -2.5t31.5 -5.5q-13 -28 -16.5 -41.5t-5.5 -18.5q-6 -22 -13.5 -59t-14.5 -76t-11.5 -73.5t-4.5 -50.5q0 -17 6 -26t21 -9z" />
    <glyph glyph-name="A" unicode="A" horiz-adv-x="558" 
d="M272 536q-4 0 -4 -1q-6 -16 -17.5 -48.5t-23.5 -68.5l-23 -69t-17 -49q0 -6 4 -7q7 -1 27 -1h61h19h20.5t17 0.5t9.5 0.5q4 0 2 7q-9 28 -19.5 62.5t-21 67.5t-19.5 61t-15 45zM-33 12q26 3 42.5 7.5t27.5 13.5t20 25.5t21 44.5q15 36 32.5 80t34.5 90l34 92t31 85
t24.5 69t16.5 45q11 32 14 50q1 0 6.5 -0.5t16.5 -0.5t16.5 0.5t6.5 0.5q2 -7 4.5 -18.5t7.5 -25.5q4 -13 16 -48.5t28 -83.5t33.5 -103t34.5 -105t31 -89.5t21 -58.5q10 -22 17 -34.5t16.5 -19.5t24 -10t39.5 -6q2 -2 1 -7.5t-3 -7.5q-9 0 -23.5 0.5t-29.5 1t-29 1t-23 0.5
h-24.5t-32 -0.5t-31.5 -1t-23 -1.5q-1 2 -1.5 7.5t1.5 7.5q15 2 27 4t23 6q12 5 13.5 11t-1.5 17q-4 16 -12.5 42.5t-18.5 55.5t-20 57.5t-17 49.5q-1 1 -3 2q-1 0 -3 2l-1 1q-8 1 -27 1h-66h-39.5h-23t-12 -0.5t-7.5 -0.5q-6 0 -8 -7q-8 -20 -18.5 -48t-20 -56t-17.5 -52
t-9 -35q-2 -14 1 -25t28 -17q9 -2 17.5 -4t24.5 -4q2 -2 1.5 -7.5t-2.5 -7.5q-7 0 -19.5 0.5t-28 1t-33 1t-33.5 0.5q-37 0 -60 -1.5t-34 -1.5q-2 1 -2 7t2 8z" />
    <glyph glyph-name="B" unicode="B" horiz-adv-x="513" 
d="M266 20q75 0 107 36t32 108q0 80 -52 120t-136 40q-22 0 -32.5 -0.5t-12.5 -1.5q-4 -2 -4 -4v-60.5t0.5 -76.5t1 -72t2.5 -47q1 -8 5.5 -14.5t10.5 -11.5q14 -9 38 -12.5t40 -3.5zM216 593q-27 0 -37 -4q-4 -2 -6 -7t-2 -10t-0.5 -29t-1 -56.5t-1 -68.5t-0.5 -65
q0 -2 1 -4t3 -2q6 -1 16.5 -1.5t33.5 -0.5q25 0 42 1t28.5 3t18 5t11.5 6q24 17 34.5 43t10.5 56q0 66 -36.5 100t-114.5 34zM25 601q-2 1 -2 7.5t2 7.5q15 0 28 -0.5t25 -1t25 -1t29 -0.5q18 0 30.5 0.5t26.5 0.5t32 0.5t47 0.5q21 0 49.5 -4t54 -18t43.5 -41t18 -72
q0 -44 -27 -79t-73 -55q-2 -2 0 -3q30 -7 55.5 -20t44.5 -32t30 -44.5t11 -58.5q0 -60 -32.5 -104.5t-89.5 -67.5q-34 -14 -70.5 -17.5t-70.5 -3.5q-17 0 -40 0.5t-49 1.5t-53 1t-51 -1q-2 2 -2 8t2 7q14 2 29.5 3t29.5 5q15 4 20.5 15.5t7.5 41.5q1 12 1.5 31t1 47t0.5 66
v89v98v67t-0.5 44.5t-1.5 30.5q-2 20 -7.5 29t-16.5 13t-28 6t-29 3z" />
    <glyph glyph-name="C" unicode="C" horiz-adv-x="642" 
d="M557 468q-4 31 -8.5 51t-11.5 33t-15.5 20t-20.5 13q-47 23 -127 23q-59 0 -106 -20t-79 -57.5t-49 -90.5t-17 -119q0 -72 20 -129.5t57 -97.5t89.5 -61.5t118.5 -21.5q11 0 25.5 1t30.5 5t32.5 12.5t31.5 22.5q20 20 34 40t31 50q2 1 8 -2t6 -6q-5 -20 -14.5 -41.5
t-20.5 -40t-21.5 -32.5t-18.5 -17q-21 -7 -59.5 -14t-83.5 -7q-80 0 -143 22t-106.5 64t-66.5 103.5t-23 140.5q0 82 37 155t119 117q40 22 89.5 34.5t114.5 12.5q59 0 104 -8.5t79 -11.5q-3 -11 -6 -29t-5.5 -38t-4.5 -39.5t-2 -34.5q-2 -2 -10 -3.5t-8 1.5z" />
    <glyph glyph-name="D" unicode="D" horiz-adv-x="680" 
d="M172 78q1 -11 5.5 -21t16.5 -17q14 -8 46 -13t78 -5q41 0 82.5 11t76.5 44q37 34 59 87t22 140q0 76 -25.5 137.5t-87.5 105.5q-35 25 -86 35.5t-117 10.5q-16 0 -32.5 -1.5t-24.5 -3.5q-4 -2 -8 -6t-5 -16q-1 -9 -1.5 -37.5t-0.5 -65v-76.5v-73v-70.5v-69.5t0.5 -58.5
t1.5 -37.5zM27 601q-2 2 -1 8t3 7q9 0 23.5 -0.5t30 -1t30 -1t24.5 -0.5q25 0 46 0.5t43 1.5t45.5 1.5t52.5 0.5q66 0 120.5 -17.5t94.5 -52.5q48 -42 69.5 -99.5t21.5 -126.5q0 -56 -13.5 -100t-34.5 -77t-46.5 -56.5t-50.5 -38.5q-46 -28 -97 -42t-114 -14
q-21 0 -38.5 0.5t-36 1t-41 1.5t-54.5 1h-14.5h-23.5h-25.5h-21.5q-2 1 -2 8t2 7q15 2 28.5 4t24.5 5q6 2 11.5 4t10 7.5t7.5 14.5t4 25q2 51 2.5 117.5t0.5 129.5v50v63t-0.5 60.5t-1.5 41.5q-2 31 -6.5 42.5t-24.5 16.5q-9 2 -20 4t-28 4z" />
    <glyph glyph-name="E" unicode="E" horiz-adv-x="498" 
d="M29 602q-2 2 -1.5 7t2.5 7q17 0 40.5 -1.5t65.5 -1.5h193h29.5t29.5 0.5t25 1t17 1.5q3 0 3 -3q-3 -12 -6 -29t-5.5 -34.5t-4 -34.5t-2.5 -29q-2 -2 -8 -2.5t-8 1.5q-2 21 -4 35t-4 24q-5 18 -15 29t-42 13q-10 0 -33 0.5t-47.5 0.5h-45.5t-27 -1q-5 -1 -7.5 -5.5
t-2.5 -8.5q-1 -9 -1 -29.5t-0.5 -45.5t-0.5 -52.5v-50.5v-39v-18q0 -8 3 -8q9 -1 31.5 -1h47t47.5 0.5t34 1.5q24 2 31.5 12t11.5 21q3 8 5.5 17.5t4.5 19.5q2 2 9 1.5t8 -2.5q-2 -12 -4.5 -38.5t-2.5 -50.5q0 -32 1 -50.5t1 -29.5q-2 -3 -8.5 -3.5t-8.5 2.5q-2 11 -3 18.5
t-3 15.5q-2 9 -9 21t-32 14q-11 1 -33.5 1.5t-47.5 0.5h-47t-32 -1q-2 0 -3 -3.5t-1 -4.5v-34v-63t0.5 -70.5t1.5 -57.5q1 -20 8.5 -27t15.5 -9q15 -3 44 -4.5t83 -1.5q23 0 37.5 2t23.5 6t14.5 8.5t10.5 9.5q11 10 26.5 35.5t27.5 54.5q2 1 6.5 -2t6.5 -5q-2 -12 -7 -30.5
t-11 -37t-12.5 -34.5t-10.5 -23q-2 -4 -4.5 -6t-8.5 -3t-17 -1.5t-30 -0.5t-36.5 0.5t-42.5 1t-62.5 1t-95.5 0.5q-25 0 -43 -0.5t-32.5 -1t-27 -1t-26.5 -0.5q-2 2 -2 7.5t2 7.5q19 2 34 3t29 5q18 5 25.5 16t9.5 42q0 6 0.5 29t1 57.5t0.5 77.5v87v72.5t-0.5 64t-1 48
t-0.5 25.5q-2 30 -7 40t-24 15q-9 2 -20 4t-26 4z" />
    <glyph glyph-name="F" unicode="F" horiz-adv-x="474" 
d="M29 602q-2 0 -2 6.5t2 7.5q13 0 40.5 -1.5t65.5 -1.5h219q32 0 51.5 1.5t33.5 5.5q1 0 3 -4q-7 -18 -10.5 -56t-5.5 -76q-1 -2 -8 -2.5t-9 1.5q-2 26 -6 44t-6 25q-9 31 -43 33q-12 1 -38 1h-53.5h-50t-28.5 -1t-9 -6.5t-3 -11.5q-1 -15 -1.5 -46.5t-0.5 -67.5v-71.5
v-59.5q0 -3 5 -3h30h47.5t48.5 0.5t34 0.5q28 1 37.5 9.5t13.5 17.5q5 11 8 23t5 22q2 2 8.5 1t7.5 -3q-2 -14 -4.5 -39t-2.5 -54q0 -26 1 -45.5t1 -33.5q-1 -2 -7.5 -3t-8.5 0q-2 17 -4.5 25.5t-5.5 16.5q-10 27 -32 29q-14 1 -41.5 2t-56 1h-51.5t-29 -1q-2 0 -3 -2t-1 -3
v-52v-58t0.5 -54.5t1.5 -40.5q2 -23 6 -38t26 -20q11 -2 23.5 -4t33.5 -4q1 -2 1.5 -7t-1.5 -8q-20 0 -52 1.5t-70 1.5q-37 0 -64 -1.5t-49 -1.5q-2 2 -1.5 7.5t1.5 7.5q33 3 48 7q20 5 25.5 17t6.5 42q1 28 1.5 83t0.5 151v76v65.5t-0.5 50.5t-1.5 32q-2 23 -3.5 35.5
t-18.5 20.5q-9 4 -21.5 5.5t-33.5 4.5z" />
    <glyph glyph-name="G" unicode="G" horiz-adv-x="663" 
d="M600 32q1 -2 0.5 -7t-2.5 -7q-9 -2 -30 -7.5t-49 -12t-60 -11.5t-63 -5q-170 0 -258 82.5t-88 247.5q0 95 45.5 169t126.5 111q42 19 86.5 29t104.5 10q54 0 97.5 -8.5t82.5 -12.5q-2 -10 -4.5 -26.5t-4.5 -36.5t-3.5 -41t-2.5 -39q-2 -3 -8 -3.5t-10 1.5q-3 29 -7 48.5
t-10 32.5t-14 21t-20 14q-24 12 -57 18.5t-78 6.5q-66 0 -113 -21.5t-77.5 -60.5t-45 -92t-14.5 -116q0 -65 18 -121.5t53.5 -98.5t88.5 -66.5t124 -24.5q23 0 46 3t34 8q14 6 20.5 17t8.5 33q2 24 3 55.5t-1 56.5q-2 27 -9.5 37.5t-31.5 14.5q-12 2 -20.5 3t-28.5 3
q-2 2 -2 7.5t2 7.5q28 0 58.5 -1.5t61.5 -1.5t50.5 0.5t38.5 2.5q2 -2 1.5 -7.5t-2.5 -7.5q-24 -4 -34 -8q-14 -4 -18 -16t-6 -34q-1 -12 -1.5 -28t-1 -33t0 -32.5t1.5 -24.5q2 -14 5 -18.5t17 -9.5z" />
    <glyph glyph-name="H" unicode="H" horiz-adv-x="699" 
d="M25 601q-2 2 -2 7.5t2 7.5q12 0 27 -0.5t31 -1t30.5 -1t26.5 -0.5q40 0 61.5 1t41.5 2q2 -2 1.5 -7.5t-2.5 -7.5q-9 -1 -21 -3t-20 -4q-15 -5 -21.5 -12t-7.5 -32q-2 -30 -2 -82v-130q0 -6 4 -8q1 0 6 -0.5t24 -1t55.5 -0.5h100.5h117t49 1q2 0 3 2t1 3v52v67t-0.5 63
t-1.5 41q-1 28 -20 35q-14 4 -25.5 5.5t-25.5 3.5q-2 2 -2 7.5t2 7.5q14 0 43 -1.5t64 -1.5q31 0 62.5 1.5t43.5 1.5q2 -2 2 -7.5t-2 -7.5q-14 -2 -25.5 -4t-19.5 -5q-16 -5 -22.5 -15t-7.5 -42q-1 -21 -2 -81t-1 -146v-70.5t0.5 -71.5t1 -61t1.5 -38q2 -20 7 -30t19 -15
q10 -4 21.5 -6t33.5 -4q2 -2 1.5 -7.5t-3.5 -7.5q-30 0 -53 1.5t-57 1.5q-35 0 -64.5 -1t-47.5 -2q-2 3 -2 8t2 7q13 2 24.5 3t25.5 5q16 5 21 14t6 36q0 9 0.5 36t0.5 60v66.5v56.5q0 7 -4 7q-5 0 -24.5 0.5t-45 0.5h-52h-46.5h-56.5h-57.5t-46.5 -0.5t-23.5 -0.5
q-2 0 -3 -2.5t-1 -3.5v-51.5t0.5 -65t1 -58t0.5 -31.5q2 -26 4.5 -41t20.5 -20q11 -3 20.5 -5.5t34.5 -5.5q2 -2 0.5 -8t-3.5 -7q-23 1 -50.5 2t-56.5 1q-14 0 -31 -0.5t-33 -1t-30 -1t-23 -0.5q-2 2 -2 7.5t2 7.5q16 2 29 4.5t22 5.5q22 7 25.5 25t5.5 52q0 14 0.5 38.5
t0.5 54.5v64v66v74t-0.5 70.5t-1 55t-0.5 27.5q-2 23 -8.5 31.5t-17.5 11.5t-23.5 4.5t-31.5 4.5z" />
    <glyph glyph-name="I" unicode="I" horiz-adv-x="277" 
d="M27 601q-2 2 -1.5 7.5t2.5 7.5q14 0 47.5 -1.5t68.5 -1.5q32 0 55 1.5t41 1.5q2 -2 2.5 -7.5t-1.5 -7.5q-11 -2 -22.5 -3t-18.5 -3q-17 -5 -21.5 -17t-6.5 -35q-1 -16 -1.5 -41.5t-1 -56t-0.5 -64.5v-67v-72t0.5 -70t1 -58.5t0.5 -37.5q2 -23 6.5 -36.5t23.5 -18.5
q20 -6 51 -9q2 -2 1.5 -7.5t-2.5 -7.5q-16 0 -42 1.5t-59 1.5q-18 0 -32 -0.5t-27.5 -1t-28 -1t-33.5 -0.5q-2 2 -2 7.5t2 7.5q11 1 23.5 3t21.5 4q19 4 24 15t7 28q1 9 1.5 42t1 75.5t0.5 87v75.5v110.5t-2 88.5q-2 18 -5 32t-20 19q-8 2 -22 4.5t-32 4.5z" />
    <glyph glyph-name="J" unicode="J" horiz-adv-x="275" 
d="M27 601q-2 2 -2 7.5t2 7.5q23 0 53 -1.5t64 -1.5q38 0 63.5 1.5t47.5 1.5q2 -2 2 -7.5t-3 -7.5q-25 -3 -37 -5.5t-20 -7.5q-11 -6 -12 -17t-3 -19q0 -6 -0.5 -36.5t-0.5 -74.5t-0.5 -95.5t-1 -99.5t-1 -87.5t-0.5 -58.5q-2 -52 -7 -97t-22 -82q-32 -71 -79.5 -109
t-92.5 -38q-23 0 -39.5 9t-21.5 21v11q2 10 6 25.5t8 21.5q27 -20 50.5 -28.5t37.5 -8.5q21 0 33 5.5t26 19.5q18 19 29 64.5t11 114.5q0 29 0.5 74.5t0.5 97.5t-0.5 105.5t-1 99.5t-1 79t-1.5 43q0 10 -1 20t-4 18.5t-9 15.5t-17 10q-11 4 -22.5 5t-33.5 4z" />
    <glyph glyph-name="K" unicode="K" horiz-adv-x="585" 
d="M356 601q-2 2 -1.5 7.5t2.5 7.5q23 0 46 -1.5t51 -1.5q39 0 61.5 0.5t43.5 2.5q2 -2 2.5 -7.5t-2.5 -7.5q-20 -3 -34.5 -6.5t-26.5 -10.5t-24.5 -18.5t-28.5 -29.5q-48 -53 -99 -108.5t-92 -96.5v-3q3 -7 19.5 -27.5t40.5 -48.5t53 -60t57 -61.5t52 -53t39 -34.5
q16 -12 30 -19q13 -6 30.5 -8.5t52.5 -3.5q2 -1 1.5 -7.5t-3.5 -7.5q-14 -1 -35.5 -1.5t-44 0t-41 1.5t-26.5 4q-8 2 -18.5 8t-28.5 21q-11 9 -28.5 27.5t-39 42t-45 50t-46 52.5t-42 50t-33.5 41q-3 4 -7.5 7.5t-8.5 5.5q0 2 0.5 4.5t2.5 4.5q18 6 44.5 27.5t56 52t59.5 65
t55 66.5q14 17 19 28.5t5 20.5q0 11 -22 17q-9 2 -19 4.5t-27 4.5zM169 327q0 -65 0.5 -124t1.5 -116q1 -38 8 -51t28 -17q13 -3 23.5 -4t24.5 -3q2 -2 1 -7.5t-3 -7.5q-24 0 -56.5 1.5t-66.5 1.5q-15 0 -31.5 -0.5t-32 -1t-27.5 -1t-16 -0.5q-2 2 -2 7.5t2 7.5q17 2 28 3.5
t21 3.5q23 5 27.5 19.5t6.5 41.5q1 24 1.5 53.5t0.5 61v64v62.5v115t-2 106q-1 16 -3 26t-6 15.5t-10.5 8t-15.5 4.5t-21.5 3t-20.5 2q-2 2 -2 7.5t2 7.5q18 0 45.5 -1.5t63.5 -1.5q26 0 54.5 1.5t45.5 1.5q2 -2 2 -7.5t-2 -7.5q-11 -2 -25.5 -4t-19.5 -4q-16 -5 -18.5 -17
t-4.5 -44q0 -15 -0.5 -45t-0.5 -61.5v-59.5v-39z" />
    <glyph glyph-name="L" unicode="L" horiz-adv-x="505" 
d="M23 601q-2 1 -1 7.5t3 7.5q16 0 42.5 -1.5t68.5 -1.5q37 0 64 1.5t40 1.5q2 -1 2.5 -7.5t-2.5 -7.5q-15 -2 -23.5 -3.5t-18.5 -3.5q-18 -5 -21.5 -15t-4.5 -29q0 -12 -0.5 -38.5t-0.5 -59t-0.5 -68t-0.5 -66.5v-69.5v-71.5t0.5 -65.5t1.5 -50.5q1 -12 6 -19.5t10 -9.5
q7 -4 30.5 -6t52 -2.5t56 0t42.5 1.5q30 1 55 32q11 13 27 40.5t30 62.5q2 2 8 0t7 -5q-3 -15 -8.5 -36t-12 -42t-13 -40t-11.5 -29q-4 -5 -11 -8.5t-20 -3.5q-19 0 -60 0.5t-86 1.5t-84.5 1.5t-55.5 0.5q-15 0 -33 -0.5t-34.5 -1t-29.5 -1t-19 -0.5q-2 2 -2 7.5t2 7.5
q17 2 29.5 3.5t23.5 3.5q16 4 24 12t10 33q1 10 1.5 22.5t1 40.5t0.5 78.5v137.5v123t-1 61q-1 19 -2 30.5t-4.5 19t-10 11t-18.5 6.5q-9 2 -25 4z" />
    <glyph glyph-name="M" unicode="M" horiz-adv-x="813" 
d="M38 601q-2 2 -1.5 8t2.5 7q11 0 46 -1.5t107 -1.5q2 -16 7 -27.5t13 -28.5q19 -43 40.5 -91t43.5 -95t42 -90.5t36.5 -78t27.5 -57t14 -27.5q2 -2 4 1l17 34t33.5 68t42.5 88t45 94.5t41 87t31 65.5q7 15 11.5 27.5t6.5 29.5q34 0 56.5 0.5t38 1t27 1t23.5 0.5
q2 -2 2 -7.5t-2 -7.5q-23 -3 -35 -5t-23 -5q-22 -5 -26.5 -17t-4.5 -22q-1 -15 -0.5 -50.5t1.5 -82.5t2 -99t2.5 -100t3 -86.5t2.5 -57.5q2 -26 8.5 -39t28.5 -18q18 -4 50 -7q2 -2 2 -7t-2 -8q-6 0 -18.5 0.5t-28 1t-32.5 1t-33 0.5q-41 0 -70 -1t-46 -2q-2 1 -2 7t2 8
q18 3 28 5t18 4q17 5 23 15.5t6 32.5v48t-0.5 75.5t-1.5 90t-1.5 92t-1.5 82t-1 58.5q-2 2 -4 0q-6 -13 -24 -50.5l-42 -87.5t-51 -107.5t-51.5 -111.5t-44 -98t-27.5 -68q-2 -1 -7 -1t-7 1q-5 16 -17.5 48t-29 73t-36.5 87.5t-40 92.5l-104 234q-3 3 -3 -1q-2 -23 -4 -59
t-4.5 -78.5t-4.5 -88t-3.5 -85.5t-2.5 -71.5t-1 -47.5q0 -32 5 -51t27 -24q11 -3 21 -4.5l30 -4.5q2 -2 1.5 -8t-2.5 -7q-12 0 -37.5 1.5t-60.5 1.5q-39 0 -70 -1.5t-40 -1.5q-2 2 -2 7.5t2 7.5l39 6q24 4 33 20.5t15 61.5q2 15 5 48t6.5 75.5t6.5 89.5t6 91t5.5 81t3.5 58
q0 11 -4 24.5t-24 20.5q-11 4 -25 7t-38 6z" />
    <glyph glyph-name="N" unicode="N" horiz-adv-x="697" 
d="M8 601q-1 2 -0.5 7.5t2.5 7.5q5 0 15.5 -0.5t23.5 -1t26.5 -1t25.5 -0.5h25t17 1q2 -5 10.5 -17t28.5 -37q29 -36 66.5 -81.5t78 -94.5t80 -97t73 -88.5t58 -69.5t33.5 -39l3 2v75v84.5v87t-0.5 82t-1.5 68.5t-2 48q-2 20 -7.5 33.5t-26.5 20.5q-13 4 -28.5 6t-32.5 4
q-2 2 -1.5 7.5t2.5 7.5q19 0 49 -1.5t65 -1.5q10 0 24 0.5t27.5 1t24.5 1t15 0.5q2 -2 2 -7.5t-2 -7.5q-14 -2 -21.5 -3.5t-17.5 -4.5q-19 -5 -25 -19.5t-7 -31.5q-2 -28 -3 -77.5t-1.5 -107.5t-0.5 -119t-1 -111q0 -34 0.5 -71.5t1.5 -60.5q-7 1 -24.5 1t-25.5 -1
q-13 19 -45 60.5t-74 94.5t-89 110.5t-88.5 109t-73 89.5t-42.5 52q-1 1 -2.5 0.5t-1.5 -1.5q0 -25 -0.5 -61.5t-0.5 -79v-86t0.5 -82t0.5 -69t1 -44.5q2 -38 12 -50t26 -17q11 -4 25 -5.5t28 -3.5q2 -1 1.5 -7.5t-2.5 -7.5q-14 0 -44.5 1.5t-68.5 1.5q-34 0 -58 -1.5
t-39 -1.5q-2 2 -2 8t2 7q14 2 22.5 3t18.5 4q17 4 28 17t13 52q1 17 2 58.5t2 100t2 130.5t2 151q0 7 -4 19t-14 23q-16 18 -35 22.5t-50 8.5z" />
    <glyph glyph-name="O" unicode="O" horiz-adv-x="716" 
d="M390 14q35 0 65.5 10t52.5 28q51 42 71.5 102t20.5 132q0 39 -7 78t-22 74.5t-38 66t-55 52.5q-29 21 -64 33t-79 12q-29 0 -54 -6.5t-46 -17.5q-30 -17 -51 -42.5t-35 -57.5t-20.5 -69t-6.5 -76q0 -38 7.5 -78t23.5 -77.5t41 -70t60 -55.5q27 -18 60.5 -28t75.5 -10z
M351 -18q-65 0 -121.5 26t-94.5 68q-44 49 -64.5 110.5t-20.5 126.5q0 54 14.5 100t40.5 85q21 30 51 55t65 42t73.5 26.5t74.5 9.5q74 0 129.5 -26t93 -69.5t56 -100t18.5 -117.5q0 -63 -15 -111.5t-44 -91.5q-21 -33 -50 -57.5t-62.5 -41.5t-70 -25.5t-73.5 -8.5z" />
    <glyph glyph-name="P" unicode="P" horiz-adv-x="490" 
d="M217 261q-3 3 -6 8t-3 7q0 1 1 3t2 2q8 -2 18 -3t27 -1q25 0 41.5 4t32.5 13q38 22 50 57t12 77q0 34 -8.5 64.5t-29 53t-53.5 35.5t-82 13q-8 0 -21.5 -1t-18.5 -3q-6 -2 -7 -13q-1 -18 -2 -75t-1 -160q0 -24 -0.5 -56.5t-0.5 -67.5v-69.5t1 -64.5q0 -21 2.5 -32.5
t7 -18t12 -9.5t19.5 -5q11 -2 23 -3.5t23 -3.5q3 -2 3 -8t-2 -7q-9 0 -24 0.5t-31.5 1t-33.5 1t-30 0.5q-17 0 -34.5 -0.5t-33 -1t-28.5 -1t-19 -0.5q-2 2 -2.5 7.5t1.5 7.5q14 2 26 3.5t21 3.5q8 2 14 4t10.5 7.5t7 17t3.5 32.5q1 11 1.5 28t1 44t1 66t0.5 95v57v67.5v61
t-1 38.5q-2 26 -7 38.5t-24 17.5q-10 2 -22 4t-28 4q-1 2 0 8t3 7q13 0 43 -1.5t65 -1.5q36 0 65.5 1t70.5 1q13 0 29.5 -1.5t34 -6t34 -11.5t30.5 -18q23 -19 40.5 -49t18.5 -78q0 -35 -8.5 -63t-23 -49.5t-33.5 -36.5t-39 -25q-23 -11 -45.5 -16t-49.5 -5q-11 0 -23.5 1
t-20.5 4z" />
    <glyph glyph-name="Q" unicode="Q" horiz-adv-x="716" 
d="M334 603q-55 0 -95 -22.5t-66 -60t-38.5 -86.5t-12.5 -103q0 -60 17 -118t51.5 -103.5t86.5 -73.5t122 -28q30 0 65.5 15t65.5 48.5t50 86.5t20 129q0 62 -16.5 119.5t-49.5 101t-83 69.5t-117 26zM910 -107q-45 -37 -95.5 -52.5t-92.5 -15.5q-32 0 -62 8t-67 26
q-25 12 -44.5 22t-36.5 19.5t-32.5 19t-31.5 18.5q-30 17 -57.5 29.5t-63.5 17.5q-95 12 -159 60q-33 25 -55.5 57t-36.5 67.5t-20 71.5t-6 69q0 54 14 101t40 85q42 62 114 98.5t154 36.5q67 0 121.5 -24t92.5 -66t59 -100t21 -125q0 -78 -24 -137t-65 -102
q-29 -30 -65 -52t-71 -33q9 -2 22 -7t26 -10.5t24 -10.5t17 -8q46 -22 82 -36.5t64.5 -23.5t52 -13t45.5 -4q38 0 73 7t58 23q2 -1 4.5 -7t0.5 -9z" />
    <glyph glyph-name="R" unicode="R" horiz-adv-x="566" 
d="M210 593q-8 0 -17.5 -1t-15.5 -3q-2 -1 -3.5 -5t-1.5 -7q-1 -13 -1.5 -46.5t-1 -73t-0.5 -79v-64.5q0 -5 4 -5q12 -2 29.5 -3t34.5 -1t33 1.5t25 4.5q13 4 27 13.5t26 25t19.5 39t7.5 55.5q0 72 -40.5 110.5t-124.5 38.5zM26 601q-2 2 -1.5 8t2.5 7q9 0 21.5 -0.5t26 -1
t26.5 -1t23 -0.5q50 0 85.5 1t61.5 1q42 0 73.5 -12t52.5 -33t31.5 -48.5t10.5 -57.5q0 -33 -10.5 -58.5t-27 -45t-37 -33.5t-41.5 -23q-3 -3 -1 -5q15 -24 36.5 -56t45 -65t46.5 -62.5t40 -46.5q18 -18 31.5 -28.5t25.5 -16.5t25 -8.5t30 -3.5q1 -2 0.5 -8t-2.5 -7
q-13 -1 -31.5 -0.5t-38 2.5t-37 5.5t-28.5 8.5t-21.5 13t-24.5 24q-14 15 -33.5 43t-39.5 59t-39.5 61t-34.5 50q-11 16 -23 16h-16.5h-21.5t-21.5 -0.5t-16.5 -0.5q-2 0 -3 -2.5t-1 -4.5v-47.5v-55.5t0.5 -52.5t1.5 -38.5q1 -32 7 -41.5t20 -13.5q11 -3 24.5 -5.5
t27.5 -4.5q2 -2 1.5 -7.5t-2.5 -7.5q-5 0 -17 0.5t-27.5 1t-33 1t-33.5 0.5q-47 0 -74 -1.5t-38 -1.5q-3 1 -3 7.5t3 7.5q15 2 28 4t21 4q18 5 24 17t7 40q0 10 0.5 38.5t1 63t0.5 68v53.5v58.5v75t-0.5 71t-1.5 46.5q-1 19 -7 29.5t-25 14.5q-10 2 -22.5 3.5t-25.5 2.5z
" />
    <glyph glyph-name="S" unicode="S" horiz-adv-x="443" 
d="M52 151q12 -46 28 -75.5t39 -44.5q19 -14 43 -19.5t57 -5.5q23 0 44 7t36.5 22t25 37t9.5 52q0 27 -9 48t-26 39.5t-42.5 36.5t-58.5 38q-28 17 -53 36t-43.5 41t-29.5 47.5t-11 57.5q0 37 14.5 67.5t39 51.5t58.5 32.5t73 11.5q44 0 75 -6t61 -9q-5 -24 -9.5 -57.5
t-7.5 -68.5q-2 -2 -8.5 -2.5t-8.5 1.5q-2 26 -4.5 43.5t-7.5 29.5t-11.5 19.5t-15.5 12.5q-30 17 -77 17q-28 0 -49 -9t-35.5 -24.5t-22 -36t-7.5 -42.5q-1 -44 19 -72t49 -50q29 -20 60.5 -38t53.5 -32q16 -11 33 -24.5t31.5 -31t23.5 -40t9 -51.5q0 -36 -14 -68.5t-41 -57
t-65.5 -38.5t-86.5 -14q-41 0 -78.5 9.5t-53.5 20.5q-4 5 -7.5 23t-6.5 39t-5 41.5t-3 31.5q2 3 8 4.5t8 -0.5z" />
    <glyph glyph-name="T" unicode="T" horiz-adv-x="598" 
d="M415 12q2 -2 1 -8t-3 -7q-11 0 -26.5 0.5t-32 1t-32.5 1t-29 0.5q-42 0 -78 -1.5t-58 -1.5q-2 3 -2 8t2 7q48 4 66 9q23 4 28.5 21t7.5 51q0 7 0.5 34.5t0.5 68t0.5 90.5t0.5 101.5v101v90.5q0 3 -2 5t-4 2q-7 0 -28.5 0.5t-45.5 0.5t-45.5 -0.5t-29.5 -1.5
q-22 0 -36 -24q-10 -14 -19.5 -39t-17.5 -49q-2 -2 -8.5 -0.5t-7.5 3.5q3 15 5.5 35t5 41t4.5 40.5t3 34.5q1 1 2 1h3q11 -6 33.5 -10.5t41.5 -4.5h371q26 0 44 2t41 10q4 0 4 -2q-3 -11 -6 -28t-5.5 -37t-5 -41t-3.5 -40q-1 -3 -8.5 -2.5t-8.5 2.5q-2 18 -5 41t-9 38
q-10 27 -38 28q-15 1 -37.5 1.5t-46 0.5t-43.5 -0.5t-29 -0.5q-5 -2 -5 -9q0 -54 0.5 -129t1 -148t1 -130t1.5 -75q1 -24 4 -37.5t7.5 -21t11 -10.5t14.5 -5q11 -3 22 -4.5t27 -3.5z" />
    <glyph glyph-name="U" unicode="U" horiz-adv-x="663" 
d="M23 601q-2 2 -2 7.5t2 7.5q5 0 16 -0.5t26 -1t32 -1t34 -0.5q32 0 56.5 1.5t40.5 1.5q2 -2 2 -7.5t-2 -7.5q-15 -3 -24 -4.5t-18 -4.5q-13 -5 -17.5 -14.5t-6.5 -41.5q-1 -31 -1.5 -77t-0.5 -93t0.5 -87.5t1.5 -60.5q2 -28 5 -48.5t8 -36.5t11.5 -28t15.5 -22
q26 -32 69.5 -47.5t88.5 -15.5q36 0 68 8.5t56 30t39 60t17 98.5q1 28 2 63.5t1.5 75t0 81t-1.5 82.5q0 24 -3.5 38t-9.5 21.5t-13.5 10.5t-16.5 5q-11 2 -19 3t-23 3q-2 2 -1.5 7.5t2.5 7.5q11 0 36 -1t69 -1q29 0 52.5 1t34.5 1q2 -2 2 -7.5t-2 -7.5q-11 -2 -20 -3.5
t-17 -3.5q-19 -5 -25.5 -21t-7.5 -60q-2 -99 -3 -159t-2.5 -97t-4 -59.5t-7.5 -46.5q-10 -50 -33 -82t-54.5 -51.5t-68 -27t-73.5 -7.5q-211 0 -232 182q-2 15 -3 45t-1.5 67t-0.5 78v77.5v65t-1 41.5q-1 20 -3.5 34t-19.5 20q-8 3 -24 5t-26 4z" />
    <glyph glyph-name="V" unicode="V" horiz-adv-x="586" 
d="M-23 601q-2 2 -1 8t3 7q14 0 45 -1.5t62 -1.5q44 0 66.5 1t38.5 2q2 -2 2 -7.5t-2 -7.5l-44 -9q-23 -5 -15 -27q8 -24 23.5 -65t34 -89.5t37.5 -100t36 -95.5t29.5 -76.5t17.5 -42.5q2 1 2 0t2 0q3 7 15 36t29 71t36.5 91t38 96t33.5 86t23 61q8 24 5.5 37.5t-25.5 18.5
q-12 2 -21.5 4t-25.5 4q-1 2 -0.5 7.5t2.5 7.5q18 0 43 -1.5t57 -1.5t56 1.5t38 1.5q1 -2 1 -7.5t-1 -7.5q-9 -1 -20 -3t-20 -4q-11 -3 -18.5 -8t-15 -15.5t-15.5 -27.5t-19 -44q-11 -26 -30.5 -73.5t-43 -103.5t-47 -113.5t-41.5 -103.5q-13 -33 -22 -60.5t-16 -51.5
q-8 2 -20 2t-18 -2q-8 29 -19 63.5t-26 73.5q-19 51 -41 109.5t-43.5 115t-40 104.5t-30.5 77q-14 33 -24.5 44.5t-28.5 14.5z" />
    <glyph glyph-name="W" unicode="W" horiz-adv-x="852" 
d="M-26 601q-2 2 -1.5 8t3.5 8q30 0 57.5 -2t59.5 -2q37 1 58.5 1.5t37.5 1.5q2 -2 2 -7.5t-2 -7.5q-18 -4 -24.5 -5t-14.5 -4q-11 -4 -14 -14.5t3 -33.5q8 -35 23 -90.5t32 -117t34.5 -122.5t31.5 -107q0 -1 3 2q8 23 22 62.5t30.5 87.5t34 99t33 97.5t27 83t15.5 54.5
q5 -1 18.5 -1t17.5 1q4 -19 15.5 -56t26.5 -83.5t33 -98.5t35 -100t31.5 -87.5t22.5 -61.5q1 0 1.5 0.5t1.5 0.5q6 18 16 50t22 71t24.5 82t24 83t20.5 74.5t13 56.5q5 26 3.5 44t-20.5 23q-11 3 -22 5.5t-31 4.5q-2 2 -2 7.5t2 7.5q15 0 45.5 -1.5t58.5 -1.5q44 0 65.5 1
t35.5 2q2 -2 2 -7.5t-2 -7.5q-36 -6 -50 -12q-16 -8 -25.5 -22t-20.5 -44q-10 -28 -24 -71t-29.5 -94t-32.5 -105.5t-31.5 -104t-26 -90.5t-17.5 -64h-7h-11h-11t-7 -1q-6 22 -16.5 57t-24.5 77.5t-30 90.5t-32.5 95.5t-32 92.5t-28.5 81l-4 -2q-8 -25 -22 -66t-30.5 -89
t-34 -99.5t-33 -97.5t-27.5 -82.5t-17 -55.5q-2 0 -7 0.5t-11.5 0.5t-12 -0.5t-7.5 -1.5q-7 28 -18 71t-24.5 93.5t-28 104t-28 102t-25.5 89t-20 63.5q-7 22 -13 36t-12.5 22t-14.5 11.5t-18 6.5q-11 3 -21 4.5t-23 3.5z" />
    <glyph glyph-name="X" unicode="X" horiz-adv-x="587" 
d="M604 14q2 -2 2 -8.5t-3 -8.5q-14 0 -53.5 2.5t-91.5 0.5q-10 0 -24 -1t-27 -1.5t-23 -1t-13 -0.5q-2 2 -2.5 8t1.5 8q8 2 19 3.5t22 4.5q15 4 8 20q-5 11 -20.5 39.5t-35 63.5t-40.5 70.5t-36 61.5q-2 4 -4 0q-24 -35 -46.5 -69.5t-41 -64.5t-32.5 -53.5t-21 -36.5
q-4 -7 -3.5 -16.5t15.5 -13.5q10 -2 21.5 -4t22.5 -4q1 -2 0.5 -8t-2.5 -8q-18 0 -47 1.5t-54 1.5q-38 0 -63.5 -1.5l-42.5 -2.5q-2 2 -2 8t2 8q14 2 29 4t28 5q23 6 39.5 22t34.5 41q16 23 35.5 51t39.5 57.5t38.5 57.5t33.5 51q2 3 0 8q-13 23 -28.5 51t-32 57t-32.5 56.5
t-29 49.5q-7 12 -12.5 22t-13 18.5t-17 15t-23.5 11.5q-12 4 -30 6.5t-35 4.5q-2 2 -2 7.5t2 7.5q16 0 29 -0.5t27 -1t30.5 -1t39.5 -0.5q38 0 58 1t28 2q2 -2 2.5 -7.5t-1.5 -7.5q-11 -2 -18.5 -3.5t-13.5 -3.5q-10 -4 -5 -16q4 -10 19 -37t34 -60t38 -65t30 -53
q0 -1 1.5 -1t2.5 1q18 29 38 61t36.5 60.5t29 50t15.5 29.5q4 10 3.5 17t-14.5 11q-16 5 -27 6t-22 3q-1 2 -0.5 7.5t2.5 7.5q15 0 38 -1.5t55 -1.5q39 0 68.5 1.5t40.5 1.5q1 -3 1.5 -8t-1.5 -7l-27 -4.5t-26 -5.5t-19.5 -6.5t-18 -12.5t-22.5 -25t-31 -44q-25 -38 -52 -81
t-52 -84q-2 -2 0 -8q12 -21 28.5 -50t34 -59.5t34 -59t28.5 -49.5q17 -29 29 -45.5t22.5 -26t21 -13.5t22.5 -7q14 -3 26.5 -3.5t27.5 -2.5z" />
    <glyph glyph-name="Y" unicode="Y" horiz-adv-x="535" 
d="M-13 601q-2 2 -1.5 7.5t2.5 7.5q22 0 51.5 -1.5t67.5 -1.5q10 0 23.5 0.5t25.5 1t22 1t15 0.5q3 -2 3 -7.5t-2 -7.5q-8 -1 -17 -2.5t-15 -3.5q-11 -3 -14 -10.5t6 -25.5q10 -22 29.5 -60t40.5 -77.5t39 -73.5t26 -48h4q13 23 32 56t38 68.5t36 68t26 54.5q8 20 4 31
t-27 16q-10 2 -18.5 3.5t-23.5 3.5q-2 2 -1.5 8t3.5 7q23 -1 49.5 -2t49.5 -1q29 0 50 0.5t51 2.5q2 -2 1.5 -7.5t-1.5 -7.5l-43 -8q-26 -5 -38 -21.5t-24 -36.5q-16 -27 -38.5 -65.5t-44.5 -77.5t-39.5 -71.5t-23.5 -46.5q-2 -5 -4 -15t-2 -15l2 -156q1 -32 7 -49t29 -22
q12 -2 19.5 -3.5t27.5 -3.5q1 -2 0.5 -7t-2.5 -6q-14 0 -49 1.5t-70 1.5q-38 0 -67 -1.5t-52 -1.5q-2 2 -2 6.5t2 6.5q17 2 31.5 4t25.5 4q22 5 27.5 20t6.5 39l2 141q0 11 -1.5 26t-4.5 22q-8 19 -22.5 48.5t-32 62.5t-35 66.5t-32.5 60.5q-16 29 -27 45.5t-19 25.5
t-16 12.5t-18 6.5t-20.5 4t-27.5 3z" />
    <glyph glyph-name="Z" unicode="Z" horiz-adv-x="550" 
d="M540 156q-2 -10 -7 -32.5t-11.5 -47t-13.5 -45.5t-13 -28q-2 -2 -8.5 -4.5t-29.5 -2.5q-129 0 -215 1.5t-114 1.5q-23 0 -49.5 -0.5t-44.5 -2.5q-2 1 -2 4.5t1 5.5q26 36 61.5 86.5t73.5 107.5t76.5 115.5t71.5 110.5t57.5 92.5t35.5 62.5q4 6 0 6h-55h-78.5t-80 -0.5
t-59.5 -1.5q-17 -1 -29 -6.5t-23 -20.5q-10 -14 -21.5 -38.5t-22.5 -53.5q-2 -2 -9.5 1t-7.5 5q6 27 13.5 66.5t12.5 82.5q0 2 2 3t4 0q12 -8 35 -9.5t53 -1.5h198q42 0 82 0.5t68 3.5q2 0 3 -2t1 -4q-12 -21 -38.5 -64.5t-61 -98.5t-74 -116.5t-76 -118.5t-67.5 -104.5
t-49 -74.5q-3 -5 1 -5q13 -2 47 -3t75.5 -2t83.5 -1t71 1q9 0 22 3.5t27 16.5q17 14 34 44.5t35 72.5q2 0 7.5 -1.5t7.5 -3.5z" />
    <glyph glyph-name="bracketleft" unicode="[" horiz-adv-x="324" 
d="M277 739q1 0 1 -4.5t-0.5 -10t-1.5 -9.5t-2 -4h-29.5t-38 -0.5t-36.5 -0.5h-25q-2 0 -4 -2.5t-2 -4.5q-1 -6 -2 -28t-1.5 -69.5t-1 -125.5t-0.5 -195q0 -118 0.5 -191.5t1 -118t1 -67.5t0.5 -40q0 -5 2.5 -10.5t7.5 -7.5q8 -2 23.5 -3.5t34.5 -2t39 -0.5h38q1 -1 1.5 -5
t0 -9t-2 -9.5t-3.5 -4.5q-23 -2 -62 -2t-80 2q-19 1 -27.5 4t-10.5 5l2 908q0 2 1.5 4t3.5 2h172z" />
    <glyph glyph-name="backslash" unicode="\" horiz-adv-x="407" 
d="M59 691q1 0 1 -0.5t1 -0.5q14 -39 37.5 -102.5t52 -139.5t60 -158t61 -157.5t55.5 -139t44 -101.5q-2 -4 -5 -4q-8 1 -16.5 3t-10.5 6q-9 18 -31 71.5t-50.5 127t-61.5 159t-63.5 165.5t-56.5 147t-41 105q2 3 11 10t13 9z" />
    <glyph glyph-name="bracketright" unicode="]" horiz-adv-x="327" 
d="M49 -187q-1 0 -1 4.5t1 10t3 10t5 4.5h29t37 0.5t35.5 1t24.5 1.5q2 0 4 3t2 5q1 7 2 31.5t1.5 59t0.5 77t0.5 86t0.5 85v75.5v144t-0.5 124.5t-1.5 94.5t-2 55q-1 5 -3 12t-7 8q-8 1 -24 1.5t-35.5 0.5h-40.5h-39q-2 5 0 16.5t7 11.5q14 1 38 1.5t49 0.5h46.5h29.5h9
t9 -3l-1 -915q0 -2 -1.5 -4t-3.5 -2h-174z" />
    <glyph glyph-name="asciicircum" unicode="^" horiz-adv-x="380" 
d="M75 318q-5 -7 -15.5 -9t-17.5 -2q-8 0 -8 5q4 6 15.5 26t25.5 47t30 58.5t30.5 60t25 51t14.5 32.5q0 1 3.5 2.5t8 3t8.5 2.5t5 1q6 -14 18 -38l26 -52t30 -57.5t30 -55.5t25.5 -45.5t16.5 -27.5v-1q0 -1 -0.5 -1.5t-0.5 -1.5q-2 -2 -8 -5t-12 -5t-11 -3.5t-6 -0.5
q-5 4 -14.5 20.5t-22 39t-26 48t-25.5 48.5t-21 40t-12 23q-2 1 -3 1q-3 0 -3 -1q-8 -15 -23.5 -46.5t-32 -64.5t-31 -59.5t-19.5 -32.5z" />
    <glyph glyph-name="underscore" unicode="_" horiz-adv-x="565" 
d="M567 -233h-569v51h569v-51z" />
    <glyph glyph-name="quoteleft" unicode="&#x2018;" horiz-adv-x="166" 
d="M73 564q0 -14 11.5 -26.5t27.5 -17.5q4 -2 1 -8q-1 -3 -6 -8.5t-11 -11t-12.5 -9.5t-10.5 -4q-19 0 -31 17.5t-12 40.5q0 22 9.5 41.5t24.5 35t32.5 26.5t33.5 16q1 0 4 -5t2 -7q-23 -11 -35.5 -22t-18.5 -21.5t-7.5 -19.5t-1.5 -17z" />
    <glyph glyph-name="a" unicode="a" horiz-adv-x="368" 
d="M237 187q0 2 -3 2q-19 -6 -40.5 -13.5t-40.5 -15t-33.5 -14t-19.5 -11.5q-2 -2 -4.5 -12.5t-2.5 -15.5q0 -30 19 -51t52 -21q11 0 28 4.5t33 14.5q4 2 7 7.5t3 12.5q0 12 0.5 29t1 33.5t0.5 30.5v20zM238 262q0 14 -5 30.5t-13 27.5q-28 39 -81 39q-11 0 -18 -2t-13 -6
q-8 -5 -20 -24t-23 -53q-2 -2 -10.5 4.5t-8.5 14.5q0 10 7 26t11 20q15 12 32 22t34 17.5t31.5 12t24.5 4.5q54 0 85 -48q12 -19 16 -46t4 -51q0 -21 -0.5 -45t-1 -47t-1 -44t-0.5 -34q0 -14 7 -29.5t30 -15.5q14 0 21 1.5t15 4.5q0 -3 -1 -10t-3 -9q-17 -20 -37 -27t-34 -7
q-29 0 -43 22q-3 5 -5 14t-3 14q0 2 -1.5 3t-2.5 0q-16 -10 -32.5 -19.5t-32 -17t-28.5 -12t-21 -4.5q-27 0 -49 22q-14 15 -23 36t-9 46q0 3 1 9t2.5 13.5t3 14t3.5 10.5q10 6 36.5 15.5t56 19t56 19t38.5 15.5q2 1 3.5 4t1.5 4q1 10 0.5 22.5t-0.5 23.5z" />
    <glyph glyph-name="b" unicode="b" horiz-adv-x="447" 
d="M218 351q-26 0 -50.5 -10t-36.5 -18q-3 -2 -5 -4.5t-3 -7.5q-1 -6 -1.5 -28t-0.5 -49.5t0.5 -56t1.5 -47.5q0 -26 2 -40.5t4.5 -22t6 -11l6.5 -6.5q32 -26 81 -26q28 0 49 7.5t40 27.5t29.5 53.5t10.5 73.5q0 38 -9 66.5t-24 48.5q-21 27 -45 38.5t-56 11.5zM263 395
q38 0 64 -14.5t45 -37.5q24 -29 31.5 -63t7.5 -56q0 -66 -26 -113t-66 -74q-13 -10 -30 -19t-35 -15.5t-35.5 -10.5t-32.5 -4q-18 0 -40 4.5t-41 10.5q-10 3 -18.5 3.5t-18.5 -3.5q-2 -1 -3.5 1t-1.5 4q1 10 1.5 27.5t1 45t1 67t0.5 92.5v99t-1 112t-2 99t-2 60
q-2 17 -3.5 22t-8.5 9q-8 5 -22.5 6.5t-30.5 2.5q-2 2 -1 7t3 6q36 2 71 11.5t58 17.5q1 0 2 -2t1 -4q-3 -4 -4.5 -12.5t-3 -29t-2 -56.5t-0.5 -94v-99t2 -53q0 -5 5 -2q40 26 78 40.5t57 14.5z" />
    <glyph glyph-name="c" unicode="c" horiz-adv-x="371" 
d="M356 65q-40 -46 -81 -61.5t-70 -15.5q-46 0 -77 17t-54 49q-19 26 -28.5 59.5t-9.5 68.5q0 54 23.5 99t73.5 75q13 7 28.5 14.5t31.5 12.5t31.5 8.5t28.5 3.5q26 0 42 -3.5t30 -9.5q6 -3 16 -9.5t12 -14.5q0 -5 -2 -11q-5 -8 -13 -17t-13 -11t-9 0q-14 14 -39.5 29
t-64.5 15q-30 0 -52 -13t-36.5 -33t-22 -46t-7.5 -51q0 -42 9.5 -75.5t28.5 -54.5q24 -29 51.5 -41t62.5 -12q25 0 55.5 11.5t54.5 37.5q3 0 3 -3t-0.5 -9t-2.5 -9z" />
    <glyph glyph-name="d" unicode="d" horiz-adv-x="455" 
d="M220 362q-22 0 -44.5 -7.5t-39.5 -24.5q-25 -25 -34 -57t-9 -70q0 -42 11 -73.5t30 -53t44 -32t52 -10.5q25 0 47 6t41 23q8 7 10 20q1 9 1.5 37.5t1 62t0.5 64.5t-1 45q-1 16 -3.5 25t-18.5 21q-32 24 -88 24zM447 36q1 -2 0.5 -7t-2.5 -7q-5 -3 -20 -9.5t-32.5 -13.5
t-34 -12t-23.5 -6q-5 0 -7 13q-1 6 -1 22v29q0 4 -4 2q-15 -11 -33 -21.5t-36.5 -18.5t-37 -13.5t-33.5 -5.5q-26 0 -54.5 12.5t-48.5 37.5q-44 53 -44 137q0 45 18 86.5t50 69.5t79 46t92 18q16 0 30.5 -2.5t21.5 -4.5q3 0 3 3v100.5v63.5t-0.5 37t-1.5 23q-2 17 -6.5 23.5
t-15.5 9.5t-23.5 5t-23.5 3q-1 2 0 7.5t2 6.5q49 0 81.5 7t52.5 15q2 -1 2.5 -3.5t0.5 -4.5q-6 -11 -7 -26.5t-3 -52.5q-1 -20 -1.5 -54.5t-1 -76t-1 -87.5t-0.5 -90v-102t0.5 -64.5t1 -37.5t0.5 -22q1 -26 6 -31t13 -6q23 -2 42 2z" />
    <glyph glyph-name="e" unicode="e" horiz-adv-x="378" 
d="M187 369q-36 0 -63 -31t-32 -92q0 -6 3 -6q11 -1 38.5 -0.5t57.5 1.5t55.5 2.5t34.5 3.5q2 1 4 3t2 5q-2 18 -9 38t-19.5 37t-30 28t-41.5 11zM349 80q3 0 3 -2q1 -4 0 -9.5t-2 -7.5q-37 -38 -77 -55.5t-73 -17.5q-37 0 -65.5 12.5t-48.5 35.5q-28 32 -39 72.5t-11 78.5
q0 62 22 106t62 70q9 6 22.5 12t27.5 10.5t27 7t22 2.5q34 0 57 -15t38 -36t22 -44.5t10 -40.5q1 -2 3 -4t10 -3q1 -2 -0.5 -7t-3.5 -6q-16 -5 -47.5 -9t-68.5 -7t-75.5 -4.5t-68.5 -2.5q-3 0 -4.5 -3.5t-1.5 -7.5q0 -32 10 -63.5t27 -51.5q23 -29 52 -41t61 -12
q29 0 55 8.5t55 34.5z" />
    <glyph glyph-name="f" unicode="f" horiz-adv-x="219" 
d="M15 12q24 3 36 6q13 4 17.5 12.5t4.5 25.5t0.5 46t1 66t1 80t0.5 89q0 2 -1 5t-3 3l-51 2q0 4 2.5 10t4.5 9q12 2 26 6.5t19 7.5q3 3 3 6q0 48 5 87.5t17 72t32.5 59.5t52.5 50q23 17 48 27t40 10q27 0 47 -11.5t25 -24.5v-6q-1 -3 -4.5 -10t-8 -13.5t-9 -12.5t-7.5 -8
q-3 -3 -6 -1q-6 5 -14.5 12t-20 13.5t-24.5 11t-28 4.5q-27 0 -47 -19q-15 -14 -23.5 -39.5t-12.5 -56.5t-5.5 -64t-1.5 -62v-18q0 -1 1 -3.5t3 -2.5q39 0 65 1t33 2q-2 -8 -4.5 -20.5t-3.5 -19.5q-7 0 -20 0.5t-27 0.5h-26.5h-17.5q-1 0 -2.5 -3.5t-1.5 -5.5v-75v-80
t0.5 -72.5t1.5 -53.5q2 -30 29 -36q10 -2 18 -3.5t27 -3.5q1 -2 0.5 -7.5t-2.5 -7.5q-17 0 -44 1.5t-57 1.5q-17 0 -44 -1.5t-44 -1.5q-2 1 -2 7t2 8z" />
    <glyph glyph-name="g" unicode="g" horiz-adv-x="395" 
d="M170 367q-20 0 -34.5 -9t-24.5 -25t-14.5 -36.5t-4.5 -43.5q0 -24 7 -48.5t20.5 -44.5t34.5 -33t49 -13q13 0 26.5 4t24.5 15q29 29 29 95q0 22 -5.5 46.5t-18.5 45t-35 34t-54 13.5zM215 -248q37 0 62.5 9.5t41.5 25t22.5 35.5t6.5 42q0 35 -17.5 53.5t-37.5 26.5
q-12 4 -28.5 7.5t-33 5t-31 2.5t-22.5 1q-21 0 -37 -10q-32 -22 -48.5 -43.5t-16.5 -46.5q0 -21 9 -40.5t29 -36.5q23 -18 47.5 -24.5t53.5 -6.5zM207 395q18 0 36.5 -4.5t35.5 -11.5q12 -5 28.5 -7.5t30.5 -2.5q29 0 39.5 4.5t19.5 13.5q1 1 4 -0.5t3 -3.5q0 -3 -2 -9.5
t-6 -14t-8.5 -14.5t-8.5 -10q-5 -3 -11 -5t-20 -2h-8.5t-16.5 1q-5 0 -2 -5q4 -8 9 -26.5t5 -43.5q0 -51 -17 -80t-40 -47q-33 -26 -61 -34t-45 -10l-10 -2q-9 -2 -21.5 -9.5t-12.5 -21.5q0 -16 13.5 -23t23.5 -9q13 -2 35.5 -4t46.5 -4t46 -5t34 -7q27 -9 48.5 -31
t21.5 -65q0 -51 -31.5 -93.5t-81.5 -69.5q-30 -17 -56.5 -22.5t-51.5 -5.5q-65 0 -108 34q-24 19 -36 44t-12 52q0 5 2 17.5t5 16.5q4 6 14.5 16t24.5 22t30.5 25t32.5 25v1l-1 2q-31 8 -48.5 28t-17.5 35q0 3 2 11q6 3 14.5 8t17.5 11t17.5 11.5t13.5 9.5q4 4 -1 6
q-17 6 -32.5 18t-28 29.5t-20 42t-7.5 56.5t12.5 63t40.5 54q11 9 26.5 17.5t31.5 15t31 10t27 3.5z" />
    <glyph glyph-name="h" unicode="h" horiz-adv-x="453" 
d="M6 647q-2 2 -1.5 7t1.5 6q42 4 71.5 12.5t52.5 19.5q2 -1 3 -3.5t1 -4.5q-2 -4 -3.5 -9t-2.5 -14t-1.5 -23.5t-1.5 -38.5q-1 -27 -1 -67v-80.5t0.5 -74t0.5 -45.5q0 -3 4 -1q43 34 77 49t63 15q54 0 84 -41t30 -114v-46.5v-53.5t0.5 -52.5t0.5 -41.5q0 -2 1 -7.5t6 -10.5
q13 -10 25 -11.5t29 -4.5q1 -2 0 -8t-3 -7q-8 0 -35 1.5t-56 1.5q-32 0 -54.5 -1t-30.5 -2q-2 2 -2 7.5t2 7.5q14 2 26 4t17 5q4 2 7 4.5t5 8t3.5 16t1.5 28.5q0 17 0.5 43t0.5 54.5t-1.5 55.5t-4.5 46q-2 10 -7.5 23.5t-16.5 24.5t-29 19t-44 8q-23 0 -45 -8t-40 -25
q-7 -6 -10.5 -13.5t-3.5 -12.5v-60.5v-70t0.5 -62t1.5 -37.5q2 -24 8 -32.5t20 -12.5q9 -2 16 -3t19 -3q2 -2 2 -7t-2 -7q-7 0 -31.5 1t-66.5 1q-30 0 -49 -1.5t-31 -1.5q-1 2 -1 7.5t2 7.5q11 2 19 3t15 3q13 4 17 14t5 32q0 7 0.5 32t1 53t0.5 52v30v171t-1 111t-2 66.5
t-2 37.5q-2 11 -6 17.5t-15 8.5q-8 2 -17 2t-22 2z" />
    <glyph glyph-name="i" unicode="i" horiz-adv-x="202" 
d="M193 12q0 -2 -0.5 -8t-2.5 -7q-14 0 -40.5 1.5t-47.5 1.5q-29 0 -52.5 -1.5t-34.5 -1.5q-2 2 -2 7.5t2 7.5q11 2 22 3.5t19 5.5t12 11t6 30q1 9 1.5 28t0.5 42v48v46q0 30 -0.5 53t-0.5 36q0 5 -0.5 8.5t-4.5 9.5q-8 8 -18.5 12t-24.5 7q-2 2 -1.5 7.5t1.5 7.5
q23 2 51.5 8.5t54.5 19.5q0 -11 -0.5 -30t-1 -42t-0.5 -48.5v-48.5v-89t1 -84q0 -26 21 -33q9 -3 16 -4.5t24 -3.5zM133 539q0 -14 -5.5 -24t-13.5 -13q-3 -2 -14.5 -3t-16.5 1q-8 4 -13.5 13t-5.5 21q0 13 5 19q5 5 14.5 9.5t18.5 4.5q8 0 14.5 -3t8.5 -5q5 -4 6.5 -10
t1.5 -10z" />
    <glyph glyph-name="j" unicode="j" horiz-adv-x="200" 
d="M137 395q-1 -15 -1.5 -43.5t-1 -63.5t-1 -74t-1 -73.5t-0.5 -62v-39.5q0 -14 -1 -37t-3 -46q-4 -42 -18 -80t-33 -69t-40.5 -54t-40.5 -35q-9 0 -15 6q-1 1 -1 5q26 20 44.5 43.5t30 55t17 72.5t5.5 96q0 145 0.5 221.5t-2.5 96.5q-2 10 -5 15.5t-13 10.5q-8 4 -17 6
t-25 4q-2 2 -2 7.5t2 7.5q27 2 62.5 10t59.5 20zM134 548q0 -7 -2.5 -19t-9.5 -19q-1 -1 -5.5 -2.5t-10 -3t-10.5 -2t-7 0.5q-8 3 -15 12.5t-7 23.5q0 5 1 10.5t3 7.5q5 5 14.5 9.5t20.5 4.5q6 0 13 -1.5t10 -5.5q5 -5 5 -16z" />
    <glyph glyph-name="k" unicode="k" horiz-adv-x="407" 
d="M219 365q-1 2 -1 8t2 8q43 0 85.5 1.5t77.5 7.5q2 -2 2.5 -8.5t-1.5 -8.5q-23 -5 -42 -13t-35 -24l-110 -111q-3 -3 0 -6q13 -19 34 -46t44.5 -54.5t45.5 -50.5t37 -35q20 -16 34.5 -18.5t36.5 -2.5q2 -2 1.5 -7.5t-2.5 -7.5q-2 -1 -12.5 -1h-23.5h-24.5h-16.5
q-20 0 -32.5 5.5t-18.5 10.5q-13 11 -30 31t-36 44t-38 49t-36 45q-4 5 -11.5 7.5t-24.5 2.5v-69.5t2 -61.5q1 -23 6.5 -30.5t20.5 -11.5q14 -3 37 -6q2 -2 1.5 -7.5t-2.5 -7.5q-13 0 -38 1.5t-52 1.5q-31 0 -55 -1.5t-32 -1.5q-2 2 -2 7.5t2 7.5q10 2 18.5 3t17.5 4
q11 5 15.5 12.5t5.5 20.5q1 12 1.5 29.5t0.5 37.5v40.5v38.5q0 175 -0.5 284t-2.5 136q-1 11 -4 17.5t-15 10.5q-8 2 -18.5 3t-22.5 2q-2 2 -2 7t2 7q26 3 44.5 5.5t32.5 5.5t24.5 7t21.5 9q4 0 4 -5q-8 -13 -9 -92q-2 -66 -2 -167.5v-223.5q11 2 23 7t26 17q13 11 30.5 29
t33.5 36t27 33t11 20q0 4 -3 7.5t-12 5.5q-5 2 -16.5 3.5t-24.5 2.5z" />
    <glyph glyph-name="l" unicode="l" horiz-adv-x="195" 
d="M9 -3q-2 3 -2 8t1 7q12 2 23.5 3.5t20.5 6.5q15 9 16 25q1 15 1.5 34t1 49.5t0.5 75.5v112v39.5t-0.5 55.5t-0.5 62t-0.5 59t-1 47t-1.5 26q-2 12 -4 18.5t-11 9.5q-11 4 -42 7q-2 2 -2 7t2 6q29 3 59.5 13t59.5 24q4 -2 4 -5q-5 -14 -7 -39t-2 -74v-49v-64.5v-70v-66.5
q0 -119 0.5 -178.5t2.5 -76.5q2 -23 5.5 -33t14.5 -15q16 -7 43 -9q1 -2 0.5 -7.5t-2.5 -7.5q-10 0 -34 1.5t-52 1.5q-13 0 -27.5 -0.5t-27.5 -1t-23.5 -1t-14.5 -0.5z" />
    <glyph glyph-name="m" unicode="m" horiz-adv-x="704" 
d="M15 12q28 4 39 8q13 4 16 16.5t4 28.5q1 21 1.5 48.5t1 57.5t0.5 60v57q0 5 -1.5 16.5t-7.5 19.5q-8 9 -21 13t-23 6q-1 2 0.5 7.5t3.5 6.5q26 2 55.5 14.5t46.5 23.5q3 0 3 -3v-10.5t-0.5 -17.5t-0.5 -19v-15q0 -2 1.5 -3t2.5 0q41 32 76 50t58 18q35 0 61 -19.5
t39 -48.5q1 -2 3.5 -2t3.5 1q38 29 75 49t67 20q57 0 84 -40t29 -112q0 -20 0.5 -47t0.5 -55v-52.5v-39.5q0 -8 1.5 -14t6.5 -10q8 -6 19.5 -8.5t33.5 -4.5q1 -2 0 -7.5t-3 -7.5q-16 0 -40.5 1.5t-48.5 1.5q-35 0 -54.5 -1t-30.5 -2q-2 2 -2 7.5t2 7.5q17 3 26 4.5t20 6.5
q10 4 11.5 20.5t1.5 51.5v52v50.5t-1 42.5t-3 30q-3 15 -9 30t-17.5 26t-28.5 18t-41 7q-22 0 -45.5 -9.5t-48.5 -32.5q-2 -1 -2.5 -4t-0.5 -5q2 -14 3 -29.5t1 -38.5v-46v-52.5t0.5 -50.5t1.5 -39q1 -19 15 -24q9 -3 17.5 -4.5t25.5 -3.5q2 -2 1 -7.5t-3 -7.5
q-19 0 -39 1.5t-49 1.5q-25 0 -48.5 -1.5t-34.5 -1.5q-2 2 -2 7.5t2 7.5q14 2 21 3.5t17 4.5q9 3 12 11t5 30q1 17 1.5 48.5t0 65.5t-1.5 62.5t-3 39.5q-2 10 -7.5 23t-16 24t-26.5 19t-40 8q-14 0 -36 -6.5t-42 -22.5q-8 -7 -15 -14.5t-7 -18.5v-57v-67.5t0.5 -64.5
t0.5 -48q0 -11 3 -19.5t15 -12.5q8 -2 18 -4t24 -4q2 -2 1 -8t-3 -7q-14 0 -36.5 1.5t-48.5 1.5q-36 0 -55 -1.5t-36 -1.5q-2 2 -2 8t2 7z" />
    <glyph glyph-name="n" unicode="n" horiz-adv-x="458" 
d="M18 12q11 2 20 3.5t17 4.5q11 5 14.5 16t4.5 23q2 28 2 72.5v95.5q0 43 -1 64t-2 26q-2 10 -10.5 15t-37.5 13q-1 2 0 7t3 6q25 4 55.5 15t48.5 22q3 0 3 -4q-2 -16 -2.5 -31t-1.5 -28q0 -2 1 -4t3 0q49 38 83.5 52.5t57.5 14.5q29 0 50.5 -13.5t36.5 -36.5
q14 -21 19 -49.5t5 -65.5v-45t0.5 -50t0.5 -48.5v-39.5q0 -11 3 -17t12 -9q11 -4 21 -5.5t22 -3.5q2 -2 1 -7.5t-3 -7.5q-11 0 -30 1.5t-54 1.5t-57.5 -1t-35.5 -2q-2 2 -2 7.5t2 7.5q31 3 42 7q12 4 16 11.5t5 17.5q1 17 1 47.5v62t-1 59.5t-2 40q-2 12 -7.5 33t-20.5 35
q-11 11 -26 18.5t-41 7.5q-52 0 -91 -39q-6 -6 -8.5 -14.5t-2.5 -28.5v-59.5v-56.5t0.5 -50.5t1.5 -39.5q1 -21 4.5 -29t11.5 -12q7 -3 20.5 -5t25.5 -4q1 -2 1 -8t-2 -8q-8 0 -28.5 1.5t-61.5 1.5t-58.5 -1.5t-27.5 -1.5q-2 2 -2 7.5t2 7.5z" />
    <glyph glyph-name="o" unicode="o" horiz-adv-x="455" 
d="M208 367q-12 0 -28.5 -4t-26.5 -12q-19 -12 -37 -43t-18 -90q0 -42 11 -78.5t31 -63.5t47.5 -42.5t61.5 -15.5q16 0 35.5 5.5t33.5 19.5q24 24 32 54.5t8 72.5t-10 78t-29 62.5t-47 41.5t-64 15zM244 395q42 0 75 -15t55 -41.5t33.5 -61.5t11.5 -75q0 -52 -22.5 -100.5
t-68.5 -77.5q-19 -13 -47.5 -24.5t-58.5 -11.5q-53 0 -88 19t-57 49t-31 66.5t-9 72.5q0 57 23 96t61 65q26 17 58 28t65 11z" />
    <glyph glyph-name="p" unicode="p" horiz-adv-x="447" 
d="M230 351q-27 0 -50 -9.5t-44 -26.5q-4 -3 -8 -9.5t-4 -13.5q-1 -8 -1.5 -35.5t-0.5 -59.5t0.5 -60t0.5 -36q1 -25 7 -36.5t18 -19.5q13 -9 31.5 -14t44.5 -5q23 0 44 8t37 22q49 42 49 135q0 38 -10 68.5t-26 49.5q-36 42 -88 42zM11 345q-2 2 -1 7t3 7q11 2 25.5 7
t29.5 11.5t29 13.5t24 15q2 1 4.5 -1.5t1.5 -4.5q-1 -4 -1.5 -12.5t-1 -18.5t-0.5 -20v-18q0 -1 2 -1h2q50 35 84.5 50t60.5 15q29 0 53 -13t41 -32q23 -26 33.5 -60.5t10.5 -63.5q0 -110 -87 -180q-17 -14 -37 -24.5t-40.5 -18t-40 -11.5t-35.5 -4q-8 0 -20.5 2.5
t-23.5 5.5q-1 0 -2 -1q-2 -2 -2 -3q0 -43 0.5 -73.5t1 -53t1 -38.5t0.5 -30q2 -25 8.5 -31t24.5 -9q10 -2 21 -2.5t28 -2.5q2 -2 1 -8.5t-3 -7.5h-53q-65 -1 -98 -6t-50 -6q-2 2 -2 8.5t2 8.5l20 5t20 6q13 5 17.5 14t5.5 29q1 14 1.5 35t1 52t0.5 73v97v105.5t-0.5 70
t-1 44t-1.5 27.5t-2.5 19.5t-8.5 13.5q-12 8 -46 13z" />
    <glyph glyph-name="q" unicode="q" horiz-adv-x="448" 
d="M217 362q-55 0 -89 -42t-34 -110q0 -42 12.5 -75t34.5 -55.5t50.5 -34.5t60.5 -12q37 0 67 17q3 2 4.5 6t1.5 6v84t-0.5 77t-1.5 60t-2 34q0 3 -3 12t-5 11q-11 8 -33 15t-63 7zM455 -262h-37.5t-35.5 -1q-54 -2 -85 -6.5t-48 -5.5q-1 2 -1.5 7.5t1.5 7.5q13 2 25 5.5
t20 5.5q13 5 19.5 15t7.5 34q2 29 3 86t1 146q0 1 -1.5 2t-2.5 0q-13 -9 -30 -17t-34.5 -14.5t-34 -10.5t-28.5 -4q-33 0 -61.5 14.5t-50 40.5t-34 62t-12.5 80q0 51 23 91t57 66q35 25 82 39t90 14q26 0 54.5 -5t51.5 -12q-5 -10 -7 -20.5t-3 -24.5q-2 -21 -3 -57t-1 -87
v-57v-73t0.5 -79.5t1 -76t1 -63t1.5 -39.5q2 -20 7 -29.5t21 -12.5t45 -6q1 -2 0.5 -7.5t-2.5 -7.5z" />
    <glyph glyph-name="r" unicode="r" horiz-adv-x="283" 
d="M244 395q12 0 23 -5t16 -14q1 -2 1 -6.5t-1 -7.5q-2 -8 -11 -23t-16 -22l-7 -3q-11 11 -26 17t-27 6q-17 0 -31 -15t-25 -35q-4 -8 -7 -21t-3 -26v-51t0.5 -56.5t1 -49.5t1.5 -30q1 -27 19 -32q14 -5 27 -6.5t27 -2.5q2 -2 1 -7.5t-3 -7.5q-4 0 -14 0.5t-23.5 1t-28 1
t-26.5 0.5q-10 0 -23.5 -0.5l-27 -1t-25 -1t-17.5 -0.5q-2 2 -2 7.5t2 7.5q8 1 19 3.5t18 4.5t11 7t6 17q1 6 2 24.5t1.5 44.5t0.5 56v59v52t-2 32q0 3 -1.5 8t-7 10t-15.5 10t-27 9q0 2 0.5 6.5t2.5 5.5q9 1 22.5 4.5t28 8t28 10.5t21.5 11q4 0 4 -3q0 -7 -0.5 -18
t-0.5 -23v-23.5v-18.5q0 -1 1.5 -1.5t2.5 0.5q13 17 28 35t33 32q12 9 23.5 14.5t25.5 5.5z" />
    <glyph glyph-name="s" unicode="s" horiz-adv-x="310" 
d="M265 386q-6 -26 -7.5 -46t-3.5 -47q-1 -2 -7.5 -2.5t-8.5 1.5q-4 35 -11.5 51.5t-21.5 23.5q-11 5 -22 7t-23 2q-24 0 -44 -16.5t-20 -48.5q0 -13 3 -24.5t12 -22.5t25 -22.5t42 -24.5q30 -15 49.5 -29t30.5 -27.5t15 -28t4 -30.5q0 -24 -10 -45t-28.5 -36t-44 -24
t-55.5 -9q-22 0 -48 5t-45 13q-3 7 -5.5 21t-5 29t-3.5 29t-1 21q1 2 7.5 4t8.5 0q10 -44 26.5 -64t34.5 -29q11 -5 21.5 -7t21.5 -2q30 0 50.5 17.5t20.5 46.5q0 30 -16 49t-58 42q-30 16 -50 31t-31.5 30t-16 30.5t-4.5 33.5q0 21 8.5 40.5t25 34t41 23.5t56.5 9
q16 0 29.5 -1.5t24.5 -3.5q8 -2 19 -3t15 -1z" />
    <glyph glyph-name="t" unicode="t" horiz-adv-x="255" 
d="M233 344q-23 0 -51.5 0.5t-51.5 0.5q-2 0 -3.5 -2t-1.5 -4q0 -23 -0.5 -54t-0.5 -62t0.5 -59t0.5 -44q1 -25 3 -37.5t4 -18.5q8 -17 22.5 -25.5t33.5 -8.5q20 0 32.5 4.5t23.5 12.5q1 -1 0 -8t-2 -9q-17 -21 -40 -31t-46 -10q-22 0 -42.5 9t-31.5 33q-8 17 -10 40.5
t-2 71.5v48t0.5 55t0.5 52.5v39.5q0 5 -4 6q-3 1 -9.5 1.5t-14 1t-15.5 1t-13 0.5q0 3 3.5 12t4.5 11q9 2 24.5 4.5t20.5 4.5q3 1 3 5v77q4 3 11.5 9t15 13.5t14 15t8.5 11.5q2 1 6 0t5 -2q-2 -11 -4 -41.5t-2 -81.5q0 -5 4 -5q41 -1 72.5 0.5t39.5 3.5q-2 -8 -4.5 -20.5
t-3.5 -20.5z" />
    <glyph glyph-name="u" unicode="u" horiz-adv-x="446" 
d="M8 360q-1 2 0 8t3 7q14 0 31.5 1.5t34.5 4t31 5t21 5.5q-1 -6 -2 -14t-1.5 -27.5t-1 -55.5t-0.5 -97q0 -26 1 -55.5t5 -44.5q6 -25 25 -45t62 -20q31 0 50.5 9.5t36.5 23.5q12 9 14 31q0 7 0.5 37t0 66.5t-1 71t-1.5 51.5q-1 8 -4 16.5t-16 12.5q-10 3 -27 4.5t-39 3.5
q-2 2 -1 8.5t3 7.5q17 0 38.5 1.5t42.5 4t38 5t26 5.5q-2 -14 -3 -42t-1 -62l1 -201q0 -36 6.5 -44t24.5 -8q11 0 16 0.5t13 2.5q1 -2 1 -8.5t-2 -8.5q-13 -3 -29 -8t-31 -10t-28.5 -10.5t-22.5 -9.5q-2 -1 -4 1.5t-2 6.5q0 10 0.5 27.5t0.5 29.5q0 2 -2 3.5t-4 -0.5
q-44 -37 -76 -49.5t-53 -12.5q-37 0 -59.5 12t-34.5 31.5t-16 43.5t-4 49v44v53.5v53t-1 42.5q-1 12 -3 21t-10 13q-6 3 -19 5t-27 4z" />
    <glyph glyph-name="v" unicode="v" horiz-adv-x="377" 
d="M-13 369q-2 2 -1.5 7.5t2.5 7.5q4 0 14 -0.5t22.5 -1l25 -1t21.5 -0.5q28 0 49.5 1t34.5 2q2 -2 2 -7.5t-1 -7.5q-29 -5 -39 -9q-5 -2 -5.5 -7t0.5 -7q3 -11 11 -34t18 -51t21.5 -58t21.5 -55.5t16.5 -42.5t7.5 -19q0 -1 2 -1q1 0 2 1q8 20 20 52t24 65t22 62.5t15 44.5
q9 30 6.5 38t-10.5 11q-11 5 -23 6.5t-23 3.5q-1 2 0 7.5t3 7.5q9 0 33 -1.5t50 -1.5q20 0 42 1t29 2q2 -1 2 -7t-2 -8q-8 -2 -17 -3t-17 -4q-13 -5 -20.5 -13.5t-12.5 -20.5q-9 -20 -21.5 -49.5t-26 -63.5t-27 -70t-25.5 -67t-18 -50t-11 -34h-14.5t-11.5 -2
q-5 19 -10.5 35.5l-13.5 40.5q-9 26 -20 56t-22 59.5t-21 55t-17 42.5q-9 23 -14.5 37.5t-10.5 23t-10.5 13t-15.5 7.5q-9 3 -17.5 4t-18.5 3z" />
    <glyph glyph-name="w" unicode="w" horiz-adv-x="585" 
d="M-12 369q-1 2 -0.5 7.5t2.5 7.5q5 0 10.5 -0.5t15 -1t23.5 -1t36 -0.5t46.5 1t37.5 2q2 -2 2 -7.5t-2 -7.5q-8 -2 -17 -3t-14 -3q-17 -4 -14 -20q2 -8 8 -27.5t14 -46t17 -55.5t17.5 -55t15 -46t8.5 -27l3 1q8 20 23.5 58.5t31.5 80t29.5 79.5t18.5 56q4 -1 14 -0.5
t15 1.5q2 -11 8.5 -29t16.5 -45q10 -28 22.5 -62t23.5 -64.5t19.5 -52.5t10.5 -25q1 0 2 -1t2 1q5 12 16.5 44.5t24 70.5t23.5 74t16 56q2 13 -1 21t-16 11q-9 2 -20.5 4t-21.5 4q-1 2 0 7.5t3 7.5q10 0 30 -1.5t55 -1.5q25 0 39.5 1t29.5 2q2 -2 2 -7.5t-2 -7.5
q-4 -1 -7 -1t-8 -2q-12 -3 -19.5 -6t-13 -8t-9.5 -12.5t-9 -19.5q-9 -21 -25.5 -66.5t-35 -96t-34.5 -96t-23 -67.5q-5 1 -13.5 1t-13.5 -2q-5 15 -13 38.5t-18.5 51.5t-21.5 57t-21 55.5t-18 47t-12 30.5q-2 2 -4 0q-4 -11 -12 -32t-18.5 -47t-22 -55.5t-22 -56.5
t-19 -50.5t-12.5 -37.5q-5 1 -13.5 1t-13.5 -1q-8 32 -20.5 75.5t-26.5 87.5t-27 83t-22 63q-7 19 -12 30.5t-10 17.5t-11 9t-15 5q-8 2 -15.5 2.5t-12.5 1.5z" />
    <glyph glyph-name="x" unicode="x" horiz-adv-x="356" 
d="M-16 12q23 4 37 8t23.5 10t17 15t18.5 24q10 13 20.5 29t21 31.5t19.5 29.5t15 23q2 2 0 6l-66 118q-13 21 -22 33t-18.5 18t-22 8t-32.5 4q-1 2 -0.5 8t2.5 7q10 0 19 -0.5t19 -1t23 -1t31 -0.5q29 0 48.5 1t28.5 2q1 -1 1.5 -7t-0.5 -8q-10 -2 -17.5 -3t-12.5 -3
q-12 -5 -7 -16q4 -9 11 -23t15.5 -29.5t18 -31.5t17.5 -29q1 -4 4 0q19 28 36 56.5t25 44.5q10 20 -9 26q-5 2 -13.5 3.5t-23.5 3.5q-2 2 -2 8t2 8q5 0 15 -0.5t21 -1t21.5 -1t16.5 -0.5q33 0 50 1t28 2q2 -1 2.5 -7t-0.5 -8q-19 -4 -31.5 -7t-22.5 -9t-19 -16.5t-22 -29.5
l-60 -92q-3 -3 -1 -7q14 -26 33.5 -60t32.5 -57q16 -27 27.5 -42t22.5 -22.5t23.5 -10t31.5 -4.5q2 -2 1.5 -7.5t-2.5 -7.5q-8 0 -34.5 1.5t-57.5 1.5q-27 0 -49 -1.5t-36 -1.5q-2 2 -2 7.5t1 7.5q11 2 18 3t14 3q8 3 9 8.5t-1 9.5q-2 6 -10 20.5t-18.5 33t-21.5 37.5
t-19 33q-2 4 -4 0q-27 -42 -43.5 -68.5t-24.5 -42.5q-5 -9 -2.5 -17t9.5 -10t19 -5t26 -5q1 -2 0.5 -7.5t-2.5 -7.5q-4 0 -14.5 0.5t-23 1.5t-26 1h-23.5l-79 -3q-2 2 -2 7.5t2 7.5z" />
    <glyph glyph-name="y" unicode="y" horiz-adv-x="384" 
d="M-11 369q-2 2 -1 8t3 7q13 0 29 -1.5t53 -1.5q27 0 52 1.5t30 1.5q2 -2 2.5 -7.5t-1.5 -7.5q-11 -2 -19 -4t-15 -4q-10 -4 -7 -14q2 -9 10 -32t19 -53t23 -62t22.5 -59t17.5 -45.5t8 -19.5h2q13 29 27.5 64t27.5 70t22.5 67t13.5 55q2 8 -0.5 16.5t-19.5 13.5
q-6 2 -15.5 3.5t-21.5 3.5q-2 2 -1 7.5t3 7.5q7 0 31.5 -1.5t47.5 -1.5q25 0 39.5 1t34.5 2q2 -2 2 -7.5t-2 -7.5q-20 -3 -28 -6q-12 -3 -20.5 -10.5t-15.5 -25.5q-27 -75 -54 -143.5t-56.5 -134.5t-62 -131t-70.5 -134q-8 -14 -18.5 -30t-15.5 -26l-5 -2q-9 2 -19.5 9.5
t-15.5 13.5q0 2 -1 4.5t0 4.5q13 17 33 44.5t42.5 60.5t44 69.5t37.5 71.5q1 -1 -2 6t-4 9q-7 20 -19 52.5t-25.5 69t-27.5 73t-26 65.5q-17 43 -26.5 60t-25.5 22q-7 2 -14.5 4t-21.5 4z" />
    <glyph glyph-name="z" unicode="z" horiz-adv-x="341" 
d="M309 384q1 0 2 -3.5t1 -5.5q-20 -35 -46.5 -80t-54.5 -92.5t-55 -92t-47 -77.5q-2 -3 -1 -5t3 -2q12 -2 32 -3.5t42 -2t40.5 -0.5h27.5q4 0 11 3t16 12.5t19 26.5t22 44q2 2 8 2.5t8 0.5l2 -2q-9 -37 -19 -60t-15 -36q-5 -11 -11 -14t-9 -3q-25 0 -62.5 1t-75 2.5t-69 2
t-44.5 0.5q-2 1 -3 5t-1 6q19 29 46.5 73t57.5 92.5t57.5 95.5t46.5 82q2 5 -1 5h-32t-42.5 -0.5t-40 -1t-25.5 -1.5t-13.5 -3t-14 -9.5t-16 -23t-19.5 -42.5q-2 -1 -8.5 0.5t-8.5 4.5q8 29 14 57.5t10 49.5q13 -5 28.5 -7t35.5 -2h136q20 0 38 0.5t30 2.5z" />
    <glyph glyph-name="braceleft" unicode="{" horiz-adv-x="370" 
d="M42 284q42 1 63.5 13.5t30.5 34t9 50.5t-2 63q0 7 -1.5 21t-2.5 29t-2 27.5t-1 17.5q0 52 12 88.5t35.5 60.5t57 37t75.5 18q2 -1 3 -7.5t0 -8.5q-41 -6 -67 -19.5t-41 -33t-21 -44.5t-6 -55q0 -18 2 -39t4 -42.5t4 -43.5t2 -41q0 -16 -2.5 -36t-12.5 -39.5t-31 -35.5
t-58 -23v-3q42 -4 64.5 -19t33 -34.5t12.5 -41t2 -38.5q0 -45 -6 -91t-6 -82q0 -35 10 -59.5t28 -40.5t43 -24.5t56 -11.5q1 -2 0 -9t-3 -8q-39 1 -72.5 11t-57.5 29t-38 48t-14 69q0 18 1.5 39.5t4.5 59.5q3 40 5 72.5t-7 57.5t-34.5 41t-77.5 24q-1 2 1.5 10t4.5 9z" />
    <glyph glyph-name="bar" unicode="|" horiz-adv-x="251" 
d="M149 710v-1020h-47v1020h47z" />
    <glyph glyph-name="braceright" unicode="}" horiz-adv-x="371" 
d="M328 264q-42 -1 -64.5 -14t-32 -34.5t-9 -50.5t4.5 -63q1 -7 2 -18.5t2 -24t2 -23t1 -15.5q0 -103 -46 -151t-132 -57q-3 2 -5 8t-1 8q40 6 66.5 19t42 32t21.5 43.5t6 54.5q0 35 -6 78t-6 81q0 16 1 35.5t10.5 38t30.5 35t60 26.5v3q-41 5 -63 19.5t-32.5 34t-12.5 40.5
t-2 38q0 22 2 47.5t4 50t4 47.5t2 41q0 35 -10 59.5t-28.5 40.5t-43.5 24.5t-55 11.5q-1 2 0.5 7.5t3.5 7.5q38 -2 71 -12t57.5 -29t38.5 -48t14 -69q0 -18 -1 -38.5t-5 -60.5t-6 -75t7 -62t35 -44.5t78 -23.5q0 -4 -1.5 -10t-4.5 -8z" />
    <glyph glyph-name="asciitilde" unicode="~" horiz-adv-x="460" 
d="M169 269q17 0 35.5 -6t47.5 -20q19 -9 35 -15t32 -6q20 0 47 11t54 42q0 1 2 0.5t3 -2.5q0 -4 -2 -11t-4 -11q-6 -11 -18 -23.5t-28.5 -23.5t-36.5 -18.5t-41 -7.5q-17 0 -37.5 8t-46.5 22q-20 9 -35.5 13.5t-32.5 4.5q-12 0 -27 -6.5t-30 -15.5t-27 -18.5t-18 -15.5
q-1 -1 -2.5 0.5t-1.5 3.5q0 5 3.5 14t5.5 11q8 11 23 23t32.5 22.5t35.5 17.5t32 7z" />
    <glyph glyph-name="exclamdown" unicode="&#xa1;" horiz-adv-x="237" 
d="M110 320q-17 0 -27 10q-8 8 -10.5 16.5t-2.5 16.5q0 5 2.5 13t8.5 14q11 12 31 12q6 0 13 -2.5t13 -7.5q12 -14 12 -31t-12 -30q-13 -11 -28 -11zM97 -223q-3 0 -11 1.5t-8 5.5q0 8 2 42t5 89.5t7.5 130.5t9.5 166q2 2 9 0.5t9 -3.5q5 -71 10.5 -138.5t9.5 -122.5
t6.5 -93t2.5 -50q0 -5 -3 -11.5t-8 -8.5q-9 -3 -23 -5.5t-18 -2.5z" />
    <glyph glyph-name="cent" unicode="&#xa2;" horiz-adv-x="440" 
d="M58 256q0 52 24.5 97.5t76.5 74.5q19 11 44 19t51 12l7 69q5 2 11 3.5t13 2.5l-8 -72q26 0 44.5 -2.5t34.5 -9.5q6 -2 16.5 -8.5t14.5 -15.5q1 -2 0 -6.5t-2 -6.5q-6 -8 -11.5 -13.5t-10.5 -8.5q-4 -2 -6 0q-11 10 -31.5 23.5t-48.5 16.5q-4 0 -4 -4l-32 -312
q10 -2 26 -2q31 0 62.5 12.5t56.5 38.5q2 -2 3 -7t1 -10q-19 -20 -39.5 -34.5t-40.5 -24t-38 -14.5t-33 -6h-1.5t-2.5 -4l-7 -70q-2 -1 -11.5 -2.5t-10.5 -0.5l8 74q-1 5 -4 5q-34 5 -62 19.5t-52 44.5q-18 23 -28 55t-10 67zM250 430q-2 4 -4 4q-31 0 -55 -11.5
t-40.5 -31.5t-25.5 -46t-9 -55q0 -65 24 -106t78 -63z" />
    <glyph glyph-name="sterling" unicode="&#xa3;" horiz-adv-x="440" 
d="M280 -25q-23 0 -45 7t-60 21q-52 20 -76 20q-12 0 -27 -7.5t-38 -31.5q-6 0 -8 4q0 1 1 6.5t2.5 12t3 11.5t3.5 7q9 9 20.5 17t19.5 13q8 4 15 16.5t12 37.5t7 63.5t-1 95.5h-13h-23t-22.5 0.5t-12.5 0.5q-2 1 -1.5 2.5t0.5 3.5q1 3 6 12t8 11q8 -1 20 -1.5t38 -0.5
q0 25 1.5 54t6 58t14 57t26.5 51q20 27 42 44t40.5 27t32 13.5t17.5 3.5q38 0 57.5 -12.5t19.5 -19.5q-1 -7 -6.5 -22.5t-9.5 -20.5q-1 -1 -3.5 -1.5t-3.5 0.5q-15 14 -37 26t-50 12q-22 0 -37 -12.5t-20 -22.5q-9 -17 -14 -37.5t-7.5 -47.5t-3.5 -62.5t-1 -82.5q0 -5 4 -5
h49t35 0.5t28 1t28 1.5q1 -1 0.5 -4.5t-1.5 -4.5q-6 -7 -17 -12t-18 -7q-6 -1 -19.5 -2t-29.5 -1.5t-31.5 -0.5h-25.5q-4 0 -4 -5q-2 -24 -5 -49.5t-9.5 -51t-18.5 -50.5t-32 -48q20 4 47.5 0t56.5 -11q9 -2 21 -5t25 -6t25 -5t21 -2q19 0 33 2.5t25.5 12t22.5 29t24 52.5
q2 2 5 0q1 -1 3 -7t3 -11q-13 -40 -33 -66.5t-40.5 -42t-38 -22t-26.5 -6.5z" />
    <glyph glyph-name="fraction" unicode="&#x2044;" horiz-adv-x="100" 
d="M235 631q1 1 9 0.5t12 -2.5v-2q-3 -4 -20.5 -34t-44.5 -76.5t-61 -105t-69.5 -120t-70.5 -121t-63 -108t-47.5 -81.5t-24.5 -41l-4 -1q-4 5 -7.5 9t-2.5 6t18 32t45 77.5t63 108t71 123t71 123t63 107.5t45 76t18 30z" />
    <glyph glyph-name="yen" unicode="&#xa5;" horiz-adv-x="440" 
d="M253 179q-4 0 -4 -4q0 -23 0.5 -52t0.5 -43q1 -32 5.5 -44.5t27.5 -17.5q12 -2 18.5 -3t26.5 -3q1 -2 0.5 -8t-2.5 -7q-14 0 -44 1.5t-65 1.5q-19 0 -32.5 -0.5t-25 -1t-21.5 -1t-22 -0.5q-2 2 -2 7.5t2 7.5q16 2 26 3t21 3q20 4 23.5 20.5t4.5 40.5q1 14 1 41v53
q0 6 -5 6q-25 0 -45 -0.5t-41 -0.5q1 7 2.5 14.5t3.5 9.5h82q3 0 3 4v57q0 1 -1 3t-3 2q-19 0 -42 -0.5t-39 -0.5q1 6 2.5 13.5t3.5 9.5h72q2 0 3 2t0 4q-16 36 -37 81t-51 108q-14 30 -22.5 46t-14.5 24.5t-12.5 11.5t-16.5 6q-11 3 -18 3.5t-16 2.5q-2 2 -2 7.5t2 7.5
q9 0 30 -1.5t59 -1.5q10 0 22.5 0.5t24 1t21 1t13.5 0.5q2 -2 2 -7.5t-1 -7.5q-7 -1 -15 -2.5t-14 -3.5q-11 -4 -10.5 -11t8.5 -26q9 -20 22.5 -51t27.5 -62.5t27 -59t21 -41.5h4q10 22 22.5 48.5t24.5 54.5t24 54.5t21 49.5q8 20 4 30t-23 15q-6 2 -14.5 2.5t-16.5 2.5
q-1 2 -1 8t2 7q23 -1 37.5 -2t37.5 -1h23.5t16 0.5t16 1t23.5 1.5q2 -2 1.5 -7.5t-1.5 -7.5q-6 -1 -13 -1.5t-18 -3.5q-18 -5 -30 -20.5t-22 -36.5q-13 -26 -28.5 -59t-30.5 -65t-27 -58.5t-18 -39.5q-2 -6 3 -6q15 0 29.5 0.5t27 1t21 0.5h10.5q0 -2 -1 -10.5t-3 -12.5h-86
q-4 0 -4 -4v-58q0 -4 3 -4h15t27.5 0.5t27.5 0.5h15q0 -2 -1 -10.5t-3 -13.5h-80z" />
    <glyph glyph-name="florin" unicode="&#x192;" horiz-adv-x="440" 
d="M188 304q0 4 -2 4q-20 0 -40.5 0.5t-30.5 1.5q0 1 2 5t4 9t4.5 9t3.5 5q8 -1 24.5 -1.5t33.5 -0.5q4 0 4 4q9 65 22.5 112t31 80.5t38 55.5t44.5 39q15 11 33.5 18t29.5 7q22 0 35 -10q2 -2 3 -5.5t1 -5.5q-2 -11 -9.5 -23.5t-12.5 -20.5q-1 -2 -5 -3t-6 1q-25 21 -50 21
q-20 0 -34.5 -15t-22.5 -38q-5 -14 -10 -31t-10 -42t-10 -59t-10 -82q0 -3 2 -3q47 0 69 0.5t29 2.5q0 -2 -0.5 -6.5t-2.5 -6.5q-8 -5 -22 -10t-31 -7q-11 -1 -21.5 -1h-21.5q-4 0 -4 -4q-4 -30 -8.5 -66t-9.5 -72t-9.5 -69.5t-8.5 -60.5q-10 -63 -30.5 -104t-45 -65
t-49 -33t-42.5 -9q-20 0 -32 7t-16 13q-2 2 -3 7t0 7q2 9 8 21t11 20q1 2 4 2.5t4 -0.5q20 -20 38.5 -28t36.5 -8t30.5 24t21.5 81t18.5 143.5t23.5 189.5z" />
    <glyph glyph-name="section" unicode="&#xa7;" horiz-adv-x="408" 
d="M230 -86q19 8 34 23t25.5 32.5t16 37t5.5 36.5q0 56 -19 101t-47 91q-12 20 -26.5 44.5t-27.5 50.5t-22 52.5t-10 51.5q-2 14 2 33.5t9 32.5q-15 -6 -30 -19.5t-27 -32.5t-19.5 -42.5t-7.5 -48.5q0 -53 18 -99.5t44 -90.5q11 -18 26.5 -43t30 -51t25 -52t10.5 -47
q1 -10 -1.5 -28.5t-8.5 -31.5zM209 505q-11 0 -14.5 -7t-4.5 -18q0 -14 7 -35t14 -35q14 -28 34 -64.5t54 -92.5q34 -53 44 -91t10 -63q0 -13 -0.5 -24.5t-3.5 -24.5t-9 -28.5t-16 -35.5q-14 -24 -32.5 -45t-39.5 -36.5t-41.5 -24.5t-36.5 -9q-37 0 -61.5 13t-41.5 30
q-12 13 -12 25q0 5 5.5 19.5t8.5 20.5q1 1 5 1q15 -19 33 -32t34.5 -21.5t29 -12t18.5 -3.5q8 0 11 8.5t3 16.5q0 13 -8 32.5t-14 29.5q-11 18 -28.5 47t-37.5 61q-40 64 -57 113t-17 86q0 54 18.5 96t44.5 73q10 12 24 24t30 21.5t32.5 15.5t30.5 6q36 0 57.5 -15t31.5 -26
q6 -8 8 -13t2 -11q0 -5 -5.5 -13.5t-11.5 -15.5l-4 -1q-5 5 -17.5 15t-27 19.5t-28.5 17t-21 7.5z" />
    <glyph glyph-name="currency" unicode="&#xa4;" horiz-adv-x="440" 
d="M216 407q-24 0 -42 -9.5t-29.5 -26t-17 -37.5t-5.5 -45q0 -35 9.5 -60t25 -41t36 -24t43.5 -8q18 0 34.5 4.5t29 17.5t20.5 35t8 57q0 28 -8 52.5t-23 43.5t-35.5 30t-45.5 11zM240 437q24 0 44 -8.5t35 -17.5q3 -3 6 0q16 17 27.5 29.5t19.5 17.5q1 1 6.5 2.5t11.5 2.5
t11 2t6 1q4 0 2 -5q-19 -21 -38 -43t-27 -33q12 -17 21 -41.5t9 -52.5q0 -29 -11 -56.5t-26 -48.5q-3 -5 0 -9q7 -8 16 -18t18 -19.5t17 -17.5t14 -12q1 -1 0.5 -3.5t-2.5 -3.5q-4 -1 -10 -1.5l-12 -1t-11.5 0t-8.5 2.5q-5 4 -12.5 11t-15.5 14.5t-15 14.5t-11 12
q-20 -17 -43.5 -26t-49.5 -9t-50 10t-40 24l-14.5 -14.5t-16.5 -17t-14.5 -16t-10.5 -12.5q-3 -3 -6 0q-2 5 -3 19t2 19q8 12 20 25t21 23v3v3q-9 15 -15.5 35.5t-6.5 46.5t8 54.5t24 48.5q-10 11 -24 26.5t-22 26.5q-3 3 -3 10q0 1 1.5 6t3.5 10.5t5 11t5 7.5q3 3 6 0
q12 -15 27.5 -33t27.5 -32q3 -1 8 0q22 16 49.5 24.5t46.5 8.5z" />
    <glyph glyph-name="quotesingle" unicode="'" horiz-adv-x="137" 
d="M94 631q0 -15 -1.5 -39t-4 -48t-5.5 -43.5t-5 -25.5q-2 -8 -6.5 -17.5t-9.5 -14.5q-4 -4 -9 -1q0 25 -0.5 54.5t-1.5 55.5t-3 46.5t-4 28.5q1 2 6.5 7t12 10.5t13 10t9.5 5.5q1 1 3.5 0.5t3.5 -1.5q2 -5 2 -28z" />
    <glyph glyph-name="quotedblleft" unicode="&#x201c;" horiz-adv-x="278" 
d="M184 564q0 -14 11 -27.5t27 -18.5q4 -2 1 -8q-1 -3 -5.5 -8t-10.5 -10.5t-12 -9t-10 -3.5q-19 0 -31 16.5t-12 39.5q0 21 9.5 41t24.5 36t32.5 27.5t33.5 16.5q1 0 4 -5.5t2 -7.5q-23 -11 -35.5 -22t-19 -21t-8 -19t-1.5 -17zM72 564q0 -14 11 -27.5t27 -18.5q4 -2 1 -8
q-2 -3 -6.5 -8t-10 -10.5t-11.5 -9t-10 -3.5q-20 0 -31.5 17t-11.5 40q0 21 9.5 40.5t24.5 35.5t32.5 27.5t32.5 16.5q2 0 5 -5.5t2 -7.5q-23 -11 -35.5 -22t-19 -21t-8 -19t-1.5 -17z" />
    <glyph glyph-name="guillemotleft" unicode="&#xab;" horiz-adv-x="557" 
d="M306 186q12 -7 35.5 -22.5t49.5 -34t49.5 -36.5t35.5 -30q2 -2 2.5 -8.5t-0.5 -11.5q-2 -2 -3 -2q-9 9 -39 29t-67 41.5t-73 41.5t-58 29q0 2 1.5 5.5t3.5 5.5q40 17 81 39t75.5 43t58.5 37t31 22q1 0 3 -4q-1 -2 -4 -9t-5 -9q-11 -10 -33 -26t-48.5 -34t-52 -34.5
t-43.5 -27.5q-1 -1 0 -4zM134 186q11 -6 32.5 -21t45.5 -32t45.5 -34.5t33.5 -28.5q2 -2 2.5 -8.5t0.5 -10.5q0 -3 -4 -3q-9 9 -37 27.5t-62.5 39.5t-69 39.5t-56.5 27.5q0 2 1 5.5t3 5.5q36 16 74.5 36.5t71.5 40.5t56.5 35.5t30.5 21.5q3 -2 3 -4q0 -3 -3 -9.5t-5 -8.5
q-9 -9 -29.5 -24.5t-44.5 -32t-48 -32.5t-41 -26q-2 -2 0 -4z" />
    <glyph glyph-name="guilsinglleft" unicode="&#x2039;" horiz-adv-x="406" 
d="M142 187q13 -7 39 -22.5t54.5 -34.5t54 -37t39.5 -30q0 -1 2 -7.5t1 -10.5q0 -4 -4 -4q-11 9 -44 29t-74 41.5t-81 41.5t-64 29q0 2 1.5 6t3.5 5q43 17 87.5 39t82 43t64.5 37t35 22q2 0 2 -3q0 -2 -3 -9.5t-5 -9.5q-11 -10 -35 -26t-52 -33.5t-56.5 -34l-47.5 -27.5
q-2 -2 0 -4z" />
    <glyph glyph-name="guilsinglright" unicode="&#x203a;" horiz-adv-x="400" 
d="M262 189q-12 7 -38.5 22.5t-55.5 34t-56.5 36.5t-40.5 30q0 1 -1 9t-1 11q0 2 3 2q7 -6 25 -17t41.5 -25t51.5 -28.5t54.5 -28.5t50.5 -25t40 -17q0 -2 -1.5 -5.5t-3.5 -5.5q-43 -17 -86 -39t-79.5 -43t-62.5 -37t-34 -22q-3 0 -3 4q2 5 4.5 10.5t4.5 7.5q12 10 36 26
l51 34t54 34.5t47 27.5q2 2 0 4z" />
    <glyph glyph-name="endash" unicode="&#x2013;" horiz-adv-x="500" 
d="M39 203q1 0 33 0.5t79.5 0.5h102.5h102.5h79.5h34v-2q-1 -8 -2.5 -15.5t-3.5 -8.5t-33.5 -1t-78.5 -0.5t-101.5 -0.5h-102t-80.5 0.5t-37 0.5l-1 2q0 4 3.5 13.5t5.5 10.5z" />
    <glyph glyph-name="dagger" unicode="&#x2020;" horiz-adv-x="397" 
d="M164 486q5 2 23 8.5t31 12.5q5 2 5 -2q-2 -16 -4 -42.5t-3 -54.5t-2 -52t-1 -34q0 -2 1.5 -5t3.5 -3h42q28 0 57 0.5t40 4.5q2 0 2 -3.5t-2 -5.5q-3 -5 -10.5 -10t-16.5 -9q-8 -3 -24.5 -5.5t-40.5 -3.5q-14 -1 -25.5 -1h-22.5q-1 0 -3 -2q-1 -1 -1 -2q-1 -21 -2 -53.5
t-2 -69.5t-2 -76.5t-1.5 -73.5t-1 -59.5t-1.5 -36.5q0 -2 -4 -2q-2 0 -10 4t-8 11q0 6 -0.5 34t-1 67t-1.5 83.5t-1.5 82.5t-1 63.5t-0.5 28.5h-15q-6 0 -26 -0.5t-42 -0.5t-40.5 0.5t-21.5 2.5q5 7 10 18.5t8 19.5q9 -3 35 -4.5t56 -1.5h36q-2 54 -4.5 101t-6.5 71z" />
    <glyph glyph-name="daggerdbl" unicode="&#x2021;" horiz-adv-x="398" 
d="M177 155q0 8 -0.5 27t-0.5 40.5v41t-1 29.5l-138 -3q-2 2 -2 5q6 14 10.5 22.5t6.5 10.5q9 -2 23 -3.5t31 -2.5t34.5 -1t32.5 1q0 25 -0.5 52.5t-1.5 51t-1.5 40.5t-1.5 22q14 3 28 8t23 9q1 0 1.5 -0.5t1.5 -0.5q-1 -10 -2 -30.5t-2 -46t-2 -52t-2 -47.5q0 -2 1.5 -4
t3.5 -1q53 0 91.5 1.5t46.5 3.5q1 -2 0.5 -6t-2.5 -6q-8 -8 -26.5 -15t-50.5 -7q-14 0 -33.5 -0.5t-26.5 -1.5q-2 0 -4 -3.5t-2 -5.5q0 -34 -1.5 -70t-1.5 -54q0 -5 3 -5q63 0 92.5 1t40.5 4q1 -2 0.5 -6t-2.5 -6q-10 -14 -50 -18q-8 -1 -19.5 -1.5t-23.5 -1t-22.5 -0.5
h-15.5q-4 0 -4 -5q0 -19 -1 -52.5t-1.5 -67t-1 -59t-0.5 -28.5q-2 -2 -10 -5.5t-11 -3.5q-1 20 -1.5 53t-1.5 67t-1.5 62.5t-0.5 38.5q-12 0 -32 -0.5t-41.5 -1t-41.5 -1t-31 -0.5q-2 2 -2 4q6 11 13 21t9 13q11 -5 38.5 -5.5t86.5 -0.5z" />
    <glyph glyph-name="periodcentered" unicode="&#xb7;" horiz-adv-x="159" 
d="M80 229q8 0 14.5 -3t11.5 -7q8 -8 10.5 -16.5t2.5 -16.5q0 -5 -3 -14t-9 -14q-6 -7 -13.5 -9.5t-14.5 -2.5q-6 0 -13.5 2.5t-13.5 8.5q-12 12 -12 30q0 17 13 30q12 12 27 12z" />
    <glyph glyph-name="paragraph" unicode="&#xb6;" horiz-adv-x="533" 
d="M250 363q0 -35 5.5 -69.5t18 -62t32.5 -46.5t49 -23q-1 15 -2 55.5t-1.5 87.5t-1 92.5t-0.5 71.5v22.5t1 27.5t3 27t6 21q-26 -3 -46.5 -14.5t-34.5 -35t-21.5 -61.5t-7.5 -93zM485 588q-14 -2 -31 -3.5t-30 -5.5q-11 -3 -18 -7t-11 -21.5t-5.5 -54.5t-0.5 -106l2 -321
q0 -94 -19 -149t-45 -84t-52.5 -37.5t-42.5 -8.5q-23 0 -41 10t-25 25q-5 11 -7 24.5t-2 21.5l6 8q18 -18 42 -29.5t58 -11.5q30 0 49 17t29 54t13 95t2 140q-16 -7 -39 -13.5t-43 -7.5q-55 7 -97.5 28t-71.5 53.5t-44 74.5t-15 90q0 54 20.5 93.5t53 66t71.5 41.5t77 20
q63 8 122 10.5t94 6.5q6 -8 1 -19z" />
    <glyph glyph-name="bullet" unicode="&#x2022;" horiz-adv-x="311" 
d="M155 268q32 0 55 -20q14 -14 18 -30t4 -30t-5 -29.5t-16 -27.5q-23 -22 -60 -22q-11 0 -27 5t-27 16q-12 13 -16.5 27.5t-4.5 31.5q0 16 5 29.5t19 27.5q24 22 55 22z" />
    <glyph glyph-name="quotesinglbase" unicode="&#x201a;" horiz-adv-x="142" 
d="M-28 -139q-2 1 0 3q15 13 30 29.5t27 34.5t19.5 36t7.5 35q0 15 -7.5 32.5t-12.5 28.5q1 3 6 10t11.5 15t13 14t10.5 8q1 1 5 1t5 -1t8 -16.5t7 -41.5q0 -29 -12 -58t-29.5 -55.5t-37.5 -47t-37 -32.5q-5 1 -9.5 2.5t-4.5 2.5z" />
    <glyph glyph-name="quotedblbase" unicode="&#x201e;" horiz-adv-x="254" 
d="M98 -139q-2 1 0 3q15 13 29 29.5t24.5 34.5t16.5 36t6 35q0 15 -7.5 32.5t-12.5 28.5q1 3 6 10t11.5 15t13 14t10.5 8q1 1 5 1t5 -1t8 -16.5t7 -41.5q0 -29 -10.5 -58t-26.5 -55.5t-35.5 -47t-36.5 -32.5q-4 1 -8.5 2.5t-4.5 2.5zM-20 -139q-2 1 0 3q15 13 29 29.5
t24.5 34.5t16.5 36t6 35q0 15 -7.5 32.5t-12.5 28.5q1 3 6 10t11.5 15t13 14t10.5 8q1 1 5 1t5 -1t8 -16.5t7 -41.5q0 -29 -10.5 -58t-26.5 -55.5t-35.5 -47t-36.5 -32.5q-4 1 -8.5 2.5t-4.5 2.5z" />
    <glyph glyph-name="quotedblright" unicode="&#x201d;" horiz-adv-x="278" 
d="M94 571q0 14 -11.5 27t-27.5 18q-4 2 -1 8q1 3 6 8.5t11 10.5t12 9t10 4q19 0 31 -17t12 -40t-9.5 -42.5t-24.5 -35t-32.5 -26.5t-33.5 -16q-1 0 -4 5.5t-2 7.5q22 11 35 22t19.5 21t8 19t1.5 17zM206 571q0 14 -11.5 27t-27.5 18q-4 2 -1 8q1 3 6 8.5t11 10.5t12 9t10 4
q20 0 31.5 -17t11.5 -40t-9.5 -42.5t-24.5 -35t-32.5 -26.5t-32.5 -16q-2 0 -5 5.5t-2 7.5q22 11 35 22t19.5 21t8 19t1.5 17z" />
    <glyph glyph-name="guillemotright" unicode="&#xbb;" horiz-adv-x="555" 
d="M250 189q-12 7 -35.5 22.5t-50 34t-50 36.5t-35.5 30q-2 4 -2.5 11t0.5 9q0 2 3 2q9 -9 39 -29t67 -41.5t73 -41.5t58 -29q1 -2 -1 -6t-4 -5q-39 -17 -79.5 -38.5t-75 -42.5t-59.5 -37.5t-32 -22.5q-3 0 -3 4q1 2 4 9t5 9q11 10 33.5 26t49 34t52 34.5t43.5 27.5q3 3 0 4
zM422 189q-11 6 -33 21t-46 32t-45.5 34.5t-33.5 28.5q0 1 -1 8.5t-1 11.5q0 2 3 2q9 -9 38 -27.5t63.5 -39.5t68.5 -39.5t55 -27.5q0 -2 -1 -5.5t-3 -5.5q-36 -15 -74.5 -35.5t-71.5 -40.5t-56.5 -36t-30.5 -22q-2 0 -2 3q1 4 3 10.5t4 8.5q10 9 31 24.5t45 32t47.5 32.5
t40.5 26q3 3 0 4z" />
    <glyph glyph-name="ellipsis" unicode="&#x2026;" horiz-adv-x="1000" 
d="M753 76q8 0 14.5 -3t11.5 -7q8 -8 10.5 -16.5t2.5 -16.5q0 -5 -3 -14t-9 -14q-11 -12 -30 -12q-14 0 -25 11q-12 12 -12 30q0 17 13 30q12 12 27 12zM498 76q8 0 14.5 -3t11.5 -7q8 -8 10.5 -16.5t2.5 -16.5q0 -5 -3 -14t-9 -14q-11 -12 -30 -12q-6 0 -13 2t-13 8
q-11 11 -11 31q0 17 13 30q12 12 27 12zM248 76q8 0 14.5 -3t11.5 -7q8 -8 10.5 -16.5t2.5 -16.5q0 -5 -3 -14t-9 -14q-14 -12 -30 -12q-14 0 -25 11q-12 12 -12 30q0 17 13 30q12 12 27 12z" />
    <glyph glyph-name="perthousand" unicode="&#x2030;" horiz-adv-x="882" 
d="M151 556q-19 0 -31 -11t-19.5 -28t-10.5 -37.5t-3 -38.5q0 -41 7.5 -67.5t19.5 -43t26.5 -23t28.5 -6.5q20 0 33.5 8.5t21 23.5t10.5 35.5t3 44.5t-5.5 49.5t-16.5 46.5t-27 34t-37 13zM183 583q23 0 41 -12t30 -31t18 -43.5t6 -48.5q0 -57 -16.5 -91t-31.5 -48
q-23 -23 -44.5 -31.5t-47.5 -8.5q-23 0 -41 11.5t-30.5 30t-19.5 43.5t-7 52q0 47 11.5 77.5t31.5 52.5q18 18 44.5 32.5t55.5 14.5zM446 323q-19 0 -31.5 -11t-20 -27.5t-10.5 -36.5t-3 -38q0 -41 7 -68t18.5 -43t26 -23t28.5 -7q40 0 55 32.5t15 79.5q0 25 -4.5 50
t-14.5 45.5t-26.5 33.5t-39.5 13zM477 352q23 0 41 -11.5t30 -30t18 -43t6 -50.5q0 -60 -16 -92t-31 -46q-43 -42 -93 -42q-23 0 -41 11.5t-30.5 30.5t-19.5 43.5t-7 51.5q0 48 11.5 78t31.5 53q18 17 44.5 32t55.5 15zM114 41q94 143 182 280.5t182 280.5q6 4 15 6t14 2
q3 0 3 -4q-9 -11 -36.5 -53t-65 -100t-80.5 -125t-83 -128.5t-72 -111t-48 -72.5q-4 -2 -6 0q-2 4 -4 11.5t-1 13.5zM716 324q-19 0 -31.5 -11t-20 -27.5t-10.5 -37t-3 -38.5q0 -41 7 -68t18.5 -43t26 -23t28.5 -7q40 0 55 32.5t15 79.5q0 25 -4.5 50.5t-14.5 46t-26.5 33.5
t-39.5 13zM747 352q23 0 41 -11.5t30 -30t18 -43t6 -50.5q0 -60 -16 -92t-31 -46q-43 -42 -93 -42q-23 0 -41 11.5t-30.5 30.5t-19.5 43.5t-7 51.5q0 48 11.5 78t31.5 53q18 17 44.5 32t55.5 15z" />
    <glyph glyph-name="questiondown" unicode="&#xbf;" horiz-adv-x="313" 
d="M167 314q-17 0 -27 10q-8 8 -10.5 16.5t-2.5 16.5q0 5 2.5 13t8.5 14q6 7 14.5 9.5t17.5 2.5q6 0 13 -2.5t13 -7.5q11 -12 11 -31q0 -17 -12 -30q-13 -11 -28 -11zM186 131q0 6 -9.5 24t-33.5 35q-3 3 2 10q9 12 24 17q12 4 23 0q18 -8 31 -25t13 -37q0 -11 -3 -19.5
t-5 -10.5q-6 -6 -22 -19.5t-34.5 -29t-36 -30t-25.5 -22.5q-14 -14 -21.5 -28t-7.5 -31q0 -15 5.5 -33.5t19 -37.5t37 -35t59.5 -25q8 -2 18 -3.5t16 -3.5q16 -3 16 -12q0 -6 -5 -16.5t-11 -18.5q-3 -5 -10 -7.5t-12 -2.5q-28 0 -54 10.5t-49 27.5q-31 23 -50.5 57.5
t-19.5 67.5q0 27 6.5 45.5t14.5 27.5q9 9 24 22.5t32 27.5t33 27t25 23q6 6 8 11.5t2 13.5z" />
    <glyph glyph-name="grave" unicode="`" horiz-adv-x="400" 
d="M164 590q3 -8 10 -25.5t15.5 -39.5t17 -45t15.5 -42q-1 -2 -6 -4t-7 -1q-8 11 -22 32t-29 44t-28 43t-19 29v2q0 2 1 3q2 1 8.5 2t15 2t16.5 1t12 -1z" />
    <glyph glyph-name="acute" unicode="&#xb4;" horiz-adv-x="400" 
d="M245 579q4 1 12 2.5t16.5 2t15.5 1t9 -0.5t2.5 -3.5t-0.5 -3.5q-6 -9 -20.5 -29t-32 -42.5t-33.5 -43.5t-24 -31q-2 0 -6 3t-5 5q9 19 18.5 40.5t18.5 41t16.5 35t12.5 23.5z" />
    <glyph glyph-name="circumflex" unicode="&#x2c6;" horiz-adv-x="400" 
d="M190 539q-6 -11 -14.5 -25t-17.5 -27.5t-16.5 -24t-11.5 -13.5q-4 -4 -11.5 -6.5t-8.5 -2.5q-3 0 -3 3q6 10 17.5 29t24 41t24 43t16.5 34q1 2 7 4.5t9 2.5q4 -13 15 -35t23 -45t23.5 -42.5t16.5 -26.5q-2 -4 -13 -5.5t-14 -0.5q-2 1 -10 12.5t-17.5 26.5t-19 31
t-15.5 27q-2 2 -4 0z" />
    <glyph glyph-name="tilde" unicode="&#x2dc;" horiz-adv-x="400" 
d="M255 527q8 0 22 4.5t34 23.5q2 -2 2 -3q0 -3 -0.5 -7.5t-1.5 -5.5q-4 -7 -13 -15t-20 -15.5t-22.5 -12.5t-20.5 -5q-12 0 -24.5 3t-32.5 9q-8 2 -16.5 4t-16.5 2q-11 0 -24 -5.5t-28 -19.5q-1 -1 -3 1q-1 3 0 8t2 6q3 5 11.5 12.5t19 15t21.5 13t20 5.5q11 0 21.5 -2
t24.5 -6q12 -3 24.5 -6.5t20.5 -3.5z" />
    <glyph glyph-name="macron" unicode="&#xaf;" horiz-adv-x="400" 
d="M117 535q2 0 10.5 -0.5t27.5 -0.5h138q0 -8 -4.5 -19.5t-6.5 -12.5q-4 -1 -21.5 -1.5t-40 -0.5h-47h-42.5q-21 0 -25 1q1 7 5.5 19.5t5.5 14.5z" />
    <glyph glyph-name="breve" unicode="&#x2d8;" horiz-adv-x="400" 
d="M210 499q23 0 41.5 10.5t33.5 38.5q2 2 7.5 6.5t7.5 4.5q4 0 4 -4q-6 -19 -16.5 -36t-25 -30t-33 -20.5t-39.5 -7.5q-30 0 -54 18t-24 48q0 7 7.5 16t16.5 15q1 0 3.5 -0.5t2.5 -1.5q13 -57 68 -57z" />
    <glyph glyph-name="dotaccent" unicode="&#x2d9;" horiz-adv-x="400" 
d="M234 539q0 -14 -5.5 -24t-13.5 -13q-3 -2 -14.5 -3t-16.5 1q-8 4 -13.5 13t-5.5 21q0 13 5 19q5 5 14.5 9.5t18.5 4.5q8 0 14.5 -3t8.5 -5q5 -4 6.5 -10t1.5 -10z" />
    <glyph glyph-name="dieresis" unicode="&#xa8;" horiz-adv-x="400" 
d="M304 539q0 -13 -5 -23t-13 -12q-3 -2 -14 -3t-15 1q-18 7 -18 32q0 11 4 18q5 5 14 9t18 4q8 0 14 -2.5t8 -4.5q4 -4 5.5 -10t1.5 -9zM160 539q0 -13 -5 -23t-13 -12q-3 -2 -14 -3t-15 1q-18 7 -18 32q0 11 4 18q5 5 14 9t18 4q8 0 14 -2.5t8 -4.5q4 -4 5.5 -10t1.5 -9z
" />
    <glyph glyph-name="ring" unicode="&#x2da;" horiz-adv-x="400" 
d="M198 551q-20 0 -30.5 -10.5t-10.5 -27.5t14 -26t31 -9t29 9.5t12 24.5q0 18 -10.5 28.5t-34.5 10.5zM202 579q28 0 43.5 -18.5t15.5 -44.5q0 -31 -17.5 -48.5t-45.5 -17.5q-8 0 -18.5 3.5t-19.5 11t-15.5 19.5t-6.5 29q0 29 18 47.5t46 18.5z" />
    <glyph glyph-name="cedilla" unicode="&#xb8;" horiz-adv-x="397" 
d="M234 3l-27 -37q14 -8 23.5 -14.5t17.5 -14.5q20 -18 20 -42q0 -18 -10.5 -33t-25 -25.5t-30 -16.5t-25.5 -6q-16 0 -27.5 7.5t-18.5 18.5q-2 8 3 13q14 -8 29 -11t28 -3q17 0 27.5 9t10.5 22t-13.5 28.5t-49.5 31.5v3v4q0 1 6.5 9.5t14.5 19.5t16.5 21.5t12.5 15.5h18z
" />
    <glyph glyph-name="hungarumlaut" unicode="&#x2dd;" horiz-adv-x="400" 
d="M281 596q8 2 22.5 3.5t19.5 -0.5q1 -1 1 -5q-2 -5 -12 -24.5t-23 -42.5t-25.5 -46t-20.5 -35q-2 -2 -6.5 0.5t-5.5 5.5q5 14 12.5 35.5t15 42.5t13.5 39.5t9 26.5zM178 587q6 2 20.5 4t19.5 0q4 -2 2 -6q-3 -7 -13 -25t-22 -40t-24 -43.5t-21 -36.5q-2 -1 -6.5 1.5
t-5.5 4.5q6 18 14 40.5t15.5 43.5t13 36.5t7.5 20.5z" />
    <glyph glyph-name="ogonek" unicode="&#x2db;" horiz-adv-x="400" 
d="M252 4q-41 -34 -54 -58t-13 -42q0 -20 13 -27t28 -7q11 0 22 4t21 12q1 -2 0.5 -9t-1.5 -9q-17 -27 -38.5 -35.5t-36.5 -8.5q-21 0 -39 13.5t-18 45.5q0 18 12.5 37t29.5 36t33.5 30t25.5 18h15z" />
    <glyph glyph-name="caron" unicode="&#x2c7;" horiz-adv-x="400" 
d="M199 493q6 11 15 25t18 27.5t17 24.5t12 14q4 4 11.5 6.5t8.5 2.5q3 0 3 -3q-6 -10 -17.5 -29t-24 -41t-24 -43t-16.5 -34q-1 -2 -7 -4.5t-9 -2.5q-5 13 -15.5 35t-22.5 45t-23.5 42t-16.5 27q2 4 13 5.5t14 0.5q2 -2 9.5 -13t17 -26.5t18.5 -31.5t15 -27q2 -2 4 0z" />
    <glyph glyph-name="emdash" unicode="&#x2014;" horiz-adv-x="1000" 
d="M49 203h40.5t103 0.5t145 0.5h166.5h166h145h104h41v-2q-1 -8 -2.5 -15.5t-3.5 -8.5t-41.5 -1t-103 -0.5t-144.5 -0.5h-165.5h-165.5h-145t-104.5 0.5t-43.5 0.5l-1 2q0 4 3.5 13.5t5.5 10.5z" />
    <glyph glyph-name="AE" unicode="&#xc6;" horiz-adv-x="774" 
d="M358 583q-1 2 -3 2.5t-3 -0.5q-5 -11 -15 -32.5t-22.5 -48t-26.5 -56t-26.5 -56t-22 -47.5t-13.5 -32q0 -6 4 -7q7 -1 27 -1h61q14 0 30 -0.5t27 1.5q6 0 6 5q-3 34 -6.5 79t-7 86t-6 71t-3.5 36zM238 601q-2 2 -0.5 7.5t3.5 7.5q17 0 55.5 -1.5t80.5 -1.5h203h30
t30.5 0.5t26 1t17.5 1.5l1 -1l2 -2q-3 -13 -6 -30t-5.5 -34.5t-4 -34.5t-2.5 -29q-2 -2 -8 -2.5t-8 1.5q-2 14 -3.5 31t-6.5 31q-6 20 -15.5 29t-42.5 11q-10 0 -32.5 0.5t-47.5 0.5t-47.5 -0.5t-32.5 -0.5q-3 0 -4 -3t-1 -6q3 -26 6.5 -68t7 -83.5t6 -73.5t3.5 -39
q0 -3 2.5 -5.5t4.5 -2.5h79t61 2q26 2 33.5 9t13.5 23q4 11 6 22.5t3 18.5q2 2 9.5 1.5t8.5 -2.5q-1 -11 -2.5 -35.5t-1.5 -59.5q0 -26 2 -50t2 -34q-2 -1 -9 -1.5t-9 1.5l-8 35q-4 11 -10.5 23t-32.5 14q-12 1 -30 1.5t-38 0.5h-40h-37q-2 0 -2.5 -2.5t-0.5 -4.5
q0 -6 2 -28.5t5 -51.5t7 -60t7 -53q4 -29 12 -35.5t22 -8.5q17 -2 48.5 -2.5t85.5 -0.5q19 0 33 3.5t30 20.5q13 14 24 35t23 57q2 1 8 -1t8 -4q0 -5 -3 -22t-8 -37t-11.5 -40.5t-13.5 -32.5q-2 -5 -10 -7t-25 -2q-19 0 -38.5 0.5t-47 1t-67 1t-97.5 0.5q-25 0 -43 -0.5
t-32.5 -1t-27.5 -1t-27 -0.5q-2 1 -2.5 7t1.5 8q41 3 66 10q17 5 21.5 17t3.5 43q0 3 -1 20t-3.5 43t-5.5 58t-6 65l-5 4q-4 0 -8 0.5t-11.5 0.5h-21.5h-37h-40.5h-25t-14.5 -0.5t-9 -0.5t-7 -3.5t-4 -4.5q-9 -20 -23.5 -49.5t-28.5 -60t-25.5 -56t-15.5 -36.5
q-5 -14 -2 -26.5t26 -16.5l43 -7q1 -2 1 -7.5t-2 -7.5q-14 0 -46.5 1.5t-64.5 1.5q-36 0 -58.5 -1.5t-33.5 -1.5q-1 2 -1 8t1 7q26 3 42 7.5t28 13.5t22 25.5t24 44.5q35 68 69 137.5t64.5 132t55.5 115t41 87.5q2 3 1.5 7t-5.5 6q-8 1 -19 3t-21.5 4t-20 3.5t-15.5 2.5z
" />
    <glyph glyph-name="ordfeminine" unicode="&#xaa;" horiz-adv-x="238" 
d="M151 354l-1 1q-27 -10 -51 -19t-32 -16q-2 -2 -3.5 -8t-1.5 -10q0 -20 12.5 -31t33.5 -11q16 0 33 12q2 2 4.5 5.5t3.5 8.5q1 8 1.5 18t0.5 19.5v18v12.5zM236 263q0 -2 -1 -8.5t-2 -8.5q-9 -11 -23.5 -15t-24.5 -4q-20 0 -30 15q-2 3 -3.5 8.5t-2.5 8.5q0 5 -3 2
q-20 -13 -40.5 -23.5t-30.5 -10.5q-18 0 -32 14q-9 10 -15 23.5t-6 29.5q0 4 2 14.5t5 15.5q7 4 23.5 10t35.5 12t36 12t25 10q3 3 3 5q1 7 1 15.5v15.5q0 10 -3 20t-9 18q-16 23 -47 23q-7 0 -13 -1.5t-10 -3.5t-13.5 -14.5t-17.5 -29.5q-1 -2 -6 2t-5 6q0 4 4.5 16t6.5 13
q20 17 43 27.5t36 10.5q39 0 60 -32q8 -13 10.5 -27.5t2.5 -34.5q0 -12 -0.5 -27t-1.5 -30t-1.5 -29t-0.5 -23t4.5 -19t18.5 -10q16 0 25 4z" />
    <glyph glyph-name="Oslash" unicode="&#xd8;" horiz-adv-x="716" 
d="M209 84q66 -72 178 -72q35 0 65.5 10t52.5 28q51 42 73 103t22 133q0 56 -14 115.5t-56 112.5zM513 534q-12 11 -27.5 23t-36.5 22t-48 16.5t-62 6.5q-29 0 -54 -6.5t-46 -17.5q-60 -34 -87.5 -100.5t-27.5 -144.5q0 -43 5.5 -77t14.5 -61.5t21.5 -49.5t26.5 -41z
M127 -25q-2 -2 -10.5 1.5t-12.5 5.5v4l52 69q-29 27 -49.5 58t-33 64t-18 67.5t-5.5 68.5q0 54 14.5 100t40.5 85q21 30 51 55t65 42t73.5 26.5t74.5 9.5q48 0 89 -11.5t91 -40.5l41 55q2 2 11.5 0t12.5 -4l-1 -4l-48 -64q51 -43 76 -108.5t25 -135.5q0 -63 -15 -111.5
t-44 -91.5q-21 -33 -50 -57.5t-62.5 -41.5t-70 -25.5t-73.5 -8.5q-45 0 -91.5 14.5t-84.5 43.5z" />
    <glyph glyph-name="OE" unicode="&#x152;" horiz-adv-x="963" 
d="M864 -5q-17 0 -48.5 0.5t-71 1t-81.5 1t-79.5 1t-67 1t-41.5 0.5q-3 0 -9.5 -1t-9.5 -2q-51 -15 -104 -15q-65 0 -122 26t-95 68q-44 49 -64 110.5t-20 126.5q0 54 14.5 101t40.5 86q21 30 50.5 54.5t64.5 41.5t73 26t76 9q23 0 43.5 -2.5t40.5 -7.5q9 -2 24 -4t32 -3
h283h29.5t29.5 0.5t25 1t17 1.5q3 0 3 -3q-3 -12 -6 -30.5t-5.5 -38t-4 -38t-2.5 -30.5q-2 -2 -9 -2.5t-9 1.5q-1 15 -4.5 36.5t-6.5 31.5q-6 17 -15.5 28t-41.5 13q-7 0 -26.5 0.5t-46 1t-56 0.5h-55h-45t-25.5 -1q-2 0 -2.5 -1.5t1.5 -3.5q64 -45 94 -109.5t34 -137.5
q0 -4 3 -4h70t51 1q23 1 30.5 8.5t13.5 24.5q8 20 11 42q2 2 9.5 1.5t8.5 -2.5q-1 -6 -2 -18.5t-2 -27t-1.5 -28.5t-0.5 -22q0 -42 1 -60.5t1 -28.5q-2 -1 -9.5 -1.5t-8.5 1.5q-1 7 -2.5 15.5t-3.5 16.5q-5 20 -14.5 31.5t-30.5 12.5q-11 0 -21.5 0.5t-23.5 0.5h-30.5h-42.5
q-6 -2 -6 -6q-4 -80 -37.5 -143.5t-91.5 -108.5q-5 -4 -2.5 -6t4.5 -2q21 -2 54 -2.5t70 -1.5t71.5 -1h58.5q27 0 44 4.5t33 21.5q12 14 27.5 40.5t26.5 55.5q2 1 8 -2t8 -5q-1 -8 -6 -27t-11.5 -40t-13 -40.5t-11.5 -28.5q-2 -4 -9.5 -7t-24.5 -3zM391 14q71 0 116 37
q51 42 71.5 103.5t20.5 133.5q0 39 -6.5 77.5t-20.5 74t-36 65.5t-54 52q-29 21 -64 33t-79 12q-29 0 -54 -6.5t-46 -17.5q-60 -34 -88.5 -100.5t-28.5 -144.5q0 -38 7.5 -78t24 -77.5t41.5 -70t60 -55.5q27 -18 60.5 -28t75.5 -10z" />
    <glyph glyph-name="ordmasculine" unicode="&#xba;" horiz-adv-x="301" 
d="M137 473q-13 0 -25.5 -5t-22.5 -16t-16 -30t-6 -46t7 -50.5t19.5 -40.5t30.5 -27t40 -10q40 0 55.5 26t15.5 71q0 54 -25.5 91t-72.5 37zM161 491q28 0 49.5 -10t36.5 -27t23 -40t8 -49q0 -34 -14.5 -65t-43.5 -50q-12 -8 -32.5 -15.5t-40.5 -7.5q-34 0 -57.5 12
t-38.5 30.5t-21.5 42.5t-6.5 48q0 37 14.5 63t38.5 43q17 11 38 18t47 7z" />
    <glyph glyph-name="ae" unicode="&#xe6;" horiz-adv-x="571" 
d="M235 180q0 2 -3 2q-16 -5 -36 -11t-38.5 -12t-34 -11t-22.5 -9q-2 -1 -3 -5t-2.5 -9t-2 -10t-0.5 -8q0 -30 19 -50.5t52 -20.5q57 0 88 36q3 4 2 7q-9 23 -14 47.5t-5 53.5zM378 367q-20 0 -36.5 -10.5t-28.5 -29.5t-19 -45.5t-6 -58.5q0 -7 4 -6q17 4 43.5 11.5
t53.5 14.5t48.5 13.5t29.5 9.5q2 1 4 2.5t2 4.5q-2 13 -8.5 29.5t-18 31t-28.5 24t-40 9.5zM126 -11q-14 0 -30.5 6.5t-27.5 17.5q-14 15 -23 35t-9 45q0 3 1 9t2.5 13.5t3 14t3.5 10.5q10 6 36 15t55.5 18t55.5 16.5t38 12.5q2 1 3.5 3.5t1.5 3.5q1 10 1 26v27
q0 14 -5 32.5t-13 29.5q-14 19 -33 27.5t-42 8.5q-11 0 -19.5 -2.5t-14.5 -5.5t-19 -23.5t-24 -50.5q-1 -1 -4 0.5t-6.5 4.5t-6.5 5.5t-3 4.5q0 3 2 9.5t4 14t4.5 13t3.5 6.5q15 13 33.5 23.5t36 18.5t32.5 12.5t25 4.5q59 0 91 -61q3 -3 6 -1q18 19 36.5 31t35.5 19t31 9.5
t22 2.5q32 0 53 -12.5t34.5 -30t20 -36.5t9.5 -32q-1 0 3.5 -2.5t12.5 -3.5l-6 -12q-4 -2 -19.5 -6.5t-38 -11t-49.5 -14t-53 -14.5t-48.5 -13.5t-36.5 -10.5q-4 0 -4 -5q1 -23 9 -52t27 -53q19 -23 44.5 -37.5t58.5 -14.5q35 0 62 10.5t56 36.5q2 -2 2 -10t-1 -10
q-36 -40 -77 -56t-74 -16q-35 0 -67 14.5t-61 52.5q-3 3 -5 1q-15 -12 -32.5 -24t-36 -22t-36 -16t-31.5 -6z" />
    <glyph glyph-name="dotlessi" unicode="&#x131;" horiz-adv-x="202" 
d="M191 12q0 -2 -0.5 -8t-2.5 -7q-14 0 -39.5 1.5t-46.5 1.5q-29 0 -52.5 -1.5t-34.5 -1.5q-2 2 -2 7.5t2 7.5q11 2 22 3.5t19 5.5t12 11t6 30q1 9 1.5 28t0.5 42v48v46q0 30 -0.5 53t-0.5 36q0 5 -0.5 8.5t-4.5 9.5q-8 8 -18.5 12t-24.5 7q-2 2 -1.5 7.5t1.5 7.5
q23 2 51.5 8.5t54.5 19.5q0 -11 -0.5 -30t-1 -42t-0.5 -48.5v-48.5v-89t1 -84q0 -26 21 -33q9 -3 15 -4.5t23 -3.5z" />
    <glyph glyph-name="oslash" unicode="&#xf8;" horiz-adv-x="455" 
d="M211 367q-53 0 -84.5 -36.5t-31.5 -114.5q0 -32 8.5 -72t33.5 -69l167 258q-14 13 -36 23.5t-57 10.5zM249 18q31 0 52 13t34.5 34.5t19.5 49t6 56.5q0 32 -8.5 73t-33.5 74l-168 -260q11 -12 34.5 -26t63.5 -14zM244 395q25 0 46.5 -5.5t40.5 -15.5l25 39q2 1 8.5 -5
t7.5 -8l-25 -37q35 -26 53.5 -68t18.5 -93q0 -52 -22.5 -100.5t-68.5 -77.5q-19 -13 -47.5 -24.5t-58.5 -11.5q-31 0 -55.5 7t-44.5 19l-27 -43q-2 0 -9 5.5t-8 7.5l26 42q-37 31 -52 77t-15 92q0 57 23 96t61 65q26 17 58 28t65 11z" />
    <glyph glyph-name="oe" unicode="&#x153;" horiz-adv-x="703" 
d="M506 370q-35 0 -60 -31t-28 -89q0 -4 3 -4q14 1 40 3.5t53 5.5l49.5 5.5t30.5 4.5q2 1 4 4t2 6q-2 13 -9 30t-18.5 31t-28 24t-38.5 10zM208 368q-12 0 -29.5 -4.5t-27.5 -12.5q-19 -12 -36.5 -42.5t-17.5 -89.5q0 -42 11.5 -79t32 -64.5t48.5 -43.5t62 -16
q16 0 35.5 5.5t34.5 20.5q20 21 30.5 50.5t10.5 84.5q0 42 -11.5 77t-31.5 60.5t-48.5 39.5t-62.5 14zM390 63q-3 3 -7 1q-35 -38 -77.5 -57t-82.5 -19q-53 0 -88.5 18.5t-57.5 48t-31.5 66.5t-9.5 74q0 57 23 95t61 64q26 17 59 29t66 12q42 0 77.5 -15t66.5 -56q0 -1 4 -1
q1 0 2 1q11 13 27 26t34.5 23t38.5 16t40 6q33 0 55.5 -13.5t36.5 -32.5t21 -39.5t10 -33.5q-1 0 3.5 -2.5t12.5 -3.5l-6 -15q-4 -2 -20.5 -4.5t-40 -5.5t-51 -6t-54 -6t-47.5 -5t-32 -3q-6 0 -6 -10q1 -37 10 -71t28 -57t47.5 -37.5t61.5 -14.5q26 0 53 9.5t56 35.5
q1 -2 3.5 -7.5t1.5 -7.5q-36 -40 -81 -58t-78 -18q-36 0 -69.5 19.5t-59.5 54.5z" />
    <glyph glyph-name="germandbls" unicode="&#xdf;" horiz-adv-x="461" 
d="M22 349q-2 4 1 10.5t5 8.5q14 1 27.5 6t19.5 9q0 61 6.5 102.5t18.5 71.5t30 51t41 41t53 31.5t50 11.5q24 0 46 -9.5t38 -27.5t25.5 -44t9.5 -58q0 -21 -8.5 -41t-13.5 -29q-18 -27 -35.5 -50t-32.5 -41q-9 -11 -14 -17.5t-5 -14.5q0 -6 5 -13t15.5 -17t28 -25.5
t42.5 -37.5q20 -19 35.5 -44t15.5 -57q0 -30 -9.5 -55.5t-24 -45.5t-32 -34.5t-33.5 -23.5q-20 -11 -37.5 -15.5t-34.5 -4.5q-15 0 -34.5 6t-25.5 19q0 8 2 22t4 24q1 5 4 6q16 -15 39.5 -26t47.5 -11q35 0 59.5 20t24.5 74q0 20 -6 37.5t-14.5 32.5t-19 27t-19.5 21
q-13 12 -27.5 24t-27 22t-22 17.5t-12.5 10.5t-3.5 16.5t4.5 16.5q14 11 27.5 24t36.5 40q22 25 35.5 54.5t13.5 71.5q0 23 -7.5 44.5t-20.5 38.5t-31.5 27t-40.5 10q-24 0 -44.5 -9.5t-35.5 -39.5t-23.5 -86.5t-8.5 -149.5q-1 -63 -1 -110.5v-84.5t0.5 -65t1.5 -50
q1 -20 6 -29t16 -14q6 -2 13.5 -3t17.5 -3q2 -2 1.5 -7.5t-2.5 -7.5q-5 0 -14.5 0.5t-20.5 1t-22.5 1t-20.5 0.5q-8 0 -20 -0.5t-24.5 -1t-24.5 -1t-21 -0.5q-2 1 -2.5 7t1.5 8q10 1 17.5 2t13.5 3q17 5 22.5 13.5t5.5 24.5l2 292z" />
    <glyph glyph-name="logicalnot" unicode="&#xac;" horiz-adv-x="460" 
d="M73 267q-20 0 -25 1t-5 3q2 6 7 20t8 19q3 -1 9 -1.5t22 -1t46 -0.5h83h82t55.5 0.5t32 0.5h12.5t3.5 -2t1.5 -4v-25.5t-0.5 -41.5t-0.5 -48v-45q0 -29 0.5 -49t1.5 -28q-10 -3 -21.5 -6t-16.5 -3q-1 0 -3.5 2t-2.5 4v184q0 5 -2 13t-9 8h-278z" />
    <glyph glyph-name="mu" unicode="&#xb5;" horiz-adv-x="425" 
d="M68 373q4 5 21.5 12.5t31.5 9.5h4.5t4.5 -2q0 -8 -0.5 -28.5t-1.5 -48t-2 -58t-1.5 -58t-1 -49.5t-0.5 -31q0 -8 1.5 -19t3.5 -16q5 -14 15.5 -25t36.5 -11q14 0 28.5 4t29 16t29 34.5t29.5 59.5q2 4 4.5 15.5t2.5 23.5v71q0 29 -0.5 57.5t-0.5 44.5q6 7 23.5 13t28.5 7
q2 -2 5.5 -1.5t5.5 -1.5q-2 -15 -4 -44t-4 -61t-3.5 -60.5t-1.5 -42.5v-46q0 -49 6.5 -67.5t19.5 -18.5t23.5 3.5t27.5 17.5q2 -1 2.5 -5t-0.5 -9q-6 -16 -16 -29t-22.5 -22.5t-25.5 -14.5t-24 -5q-9 0 -16.5 5.5t-13 20.5t-8 42t-2.5 70h-3q-19 -35 -39 -61t-39 -43
t-35 -25.5t-26 -8.5q-23 0 -36.5 11.5t-19.5 25.5q-1 -12 -1.5 -34t-1 -45t-0.5 -43.5t1 -30.5q5 -56 29 -80t72 -32q2 -5 -3 -12q-4 -4 -12.5 -8.5t-19.5 -8.5t-23 -7t-22 -3t-18 5t-14 19.5t-10 39.5t-5 64q-1 18 -1.5 48t-1.5 66t-1.5 74.5t-0.5 73.5q0 32 -0.5 71.5
t-1 77.5t-1.5 68.5t-1 44.5z" />
    <glyph glyph-name="trademark" unicode="&#x2122;" horiz-adv-x="323" 
d="M90 493q0 -11 3.5 -14.5t21.5 -5.5q1 -2 0.5 -4.5t-1.5 -2.5q-5 0 -14.5 1t-20.5 1q-10 0 -20.5 -1t-13.5 -1q-3 3 0 6q15 3 18 6.5t4 11.5l2 85h-23q-4 0 -9 -5.5t-11 -19.5q-1 -1 -3.5 0t-2.5 2l7 37q10 -4 21 -4h70h11.5t12.5 2q-2 -5 -4 -17t-3 -21q-1 0 -4 -0.5
t-3 0.5q-2 16 -6.5 21t-9.5 5h-22v-82zM175 567q0 3 -3.5 6.5t-22.5 6.5q-2 3 1 6l41 -1q2 -5 2.5 -7.5t2.5 -5.5l36 -71q7 13 18 33.5t19 37.5q2 2 3 6t2 7l39 1q2 -2 0 -6q-16 -2 -19 -6t-3 -9v-78q0 -7 5 -9t16 -4q2 -1 2 -4t-2 -3q-8 0 -15 0.5t-15 0.5t-15.5 -0.5
t-16.5 -0.5q-1 1 -1 3.5t1 3.5q11 2 15.5 4t4.5 9l2 70q-3 -7 -9 -18.5t-12 -24l-12 -25t-10 -21.5h-7q-3 7 -7.5 18t-10.5 23.5t-11.5 24t-9.5 20.5q-1 -10 -1.5 -31.5t-0.5 -35.5q0 -5 3.5 -8t20.5 -5q1 -1 1 -3.5t-1 -3.5q-8 0 -15.5 0.5t-15.5 0.5t-14.5 -0.5
t-14.5 -0.5q-1 0 -1 2.5t1 4.5q14 2 17.5 4.5t5.5 9.5q1 5 2 16.5t2 23.5t2 23t1 16z" />
    <glyph glyph-name="plusminus" unicode="&#xb1;" horiz-adv-x="460" 
d="M39 28q-3 0 -3 7q1 4 4.5 17.5t5.5 17.5q6 -2 32.5 -1.5t64.5 0.5l280 -1q2 -2 2 -5q0 -2 -1.5 -7t-3.5 -10.5t-4.5 -10t-4.5 -4.5zM424 316q-1 -4 -4.5 -17t-8.5 -14q-3 0 -21 -0.5t-42.5 -0.5h-51h-47.5q-4 0 -4 -5v-45t-0.5 -50t-1 -41.5t-0.5 -19.5q-1 -5 -11.5 -10
t-17.5 -7l-7 1v23v45v55v54q-23 0 -43.5 -0.5t-40.5 -0.5h-40.5h-44.5q-1 1 -1.5 3.5t-0.5 4.5q1 5 4.5 17t5.5 17q6 -2 32.5 -2h64.5h64v66q0 34 -0.5 59t-1.5 34q7 3 20 7t17 4q2 0 3 -4.5t1 -25.5v-24.5t-0.5 -34.5t-0.5 -38.5v-36.5q0 -6 3 -6h173q3 -3 3 -7z" />
    <glyph glyph-name="divide" unicode="&#xf7;" horiz-adv-x="460" 
d="M264 362q0 -13 -5 -21.5t-12 -16.5q-1 -1 -6 -2.5t-10.5 -2t-11 0t-8.5 2.5q-9 7 -12 15t-3 13q0 2 2 11.5t3 10.5q5 5 16 8.5t19 3.5q17 0 23 -6q2 -2 3.5 -7t1.5 -9zM264 105q0 -12 -2.5 -19.5t-9.5 -15.5q-1 -1 -6 -2.5t-11.5 -2t-12.5 -0.5t-9 2q-8 7 -12.5 15.5
t-4.5 13.5q0 2 2 11t3 10q5 5 16 8.5t19 3.5q17 0 23 -6q2 -2 3.5 -8.5t1.5 -9.5zM40 201q-1 0 -1.5 3t-0.5 5l10 33q6 -2 32.5 -1.5t64.5 0.5h279q2 0 2.5 -4t-0.5 -6q-1 -3 -4.5 -15t-8.5 -13z" />
    <glyph glyph-name="degree" unicode="&#xb0;" horiz-adv-x="257" 
d="M126 551q-29 0 -49 -20t-20 -48q0 -20 6.5 -34t17 -22.5t23.5 -12.5t26 -4q28 0 49.5 14.5t21.5 52.5q0 28 -19.5 51t-55.5 23zM131 583q50 0 75.5 -30t25.5 -75q0 -22 -8.5 -40.5t-23 -32t-33 -21t-39.5 -7.5q-43 0 -73 27t-30 72q0 53 31.5 80t74.5 27z" />
    <glyph glyph-name="registered" unicode="&#xae;" horiz-adv-x="244" 
d="M110 503q6 0 12 0.5t11 2.5q7 3 7 15q0 9 -6 15.5t-18 6.5q-5 0 -5.5 -1.5t-0.5 -3.5v-35zM76 452q-1 4 0 6q11 2 13.5 3.5t2.5 6.5v67q0 5 -2 6t-13 3q-1 1 -0.5 4t1.5 3q5 0 10 -0.5t11 -0.5h31q16 0 22.5 -6.5t6.5 -17.5t-6 -16.5t-16 -9.5q5 -8 12 -18t12 -16
q5 -4 8.5 -6t11.5 -3v-3t-2 -3q-3 -1 -12 -0.5t-15 2.5q-3 1 -4.5 2t-5.5 6l-19 30q-5 6 -13 6v-28q0 -6 2.5 -7t13.5 -3q2 -2 0 -7q-4 0 -11.5 0.5t-14.5 0.5t-14 -0.5t-10 -0.5zM122 587q-17 0 -32.5 -7t-27 -19t-18 -28t-6.5 -34t6.5 -34t18 -28t27 -19t32.5 -7
q35 0 59 23t24 65q0 18 -6.5 34t-17.5 28t-26 19t-33 7zM122 598q42 0 70 -27.5t28 -71.5q0 -21 -7.5 -39t-21 -31.5t-31 -21t-38.5 -7.5q-41 0 -69.5 28t-28.5 71q0 20 7.5 38t21 31.5t31.5 21.5t38 8z" />
    <glyph glyph-name="copyright" unicode="&#xa9;" horiz-adv-x="721" 
d="M378 479q-34 0 -59 -13t-41 -34.5t-24 -51t-8 -62.5q0 -28 8 -58t25.5 -54.5t45.5 -40.5t67 -16q23 0 53 16.5t55 51.5q2 0 5.5 -3t4.5 -5q-3 -10 -10 -21.5t-14.5 -22t-14.5 -18.5t-10 -10q-14 -4 -30.5 -7t-39.5 -3q-97 0 -151.5 51t-54.5 135q0 33 12 65.5t37 59
t64 42.5t93 16q17 0 31.5 -1.5t33.5 -3.5q11 -2 23 -3.5t26 -0.5q-3 -19 -5.5 -45t-3.5 -47q-2 -1 -8.5 -1.5t-6.5 1.5q-4 29 -10 42.5t-20 23.5t-34.5 14t-38.5 4zM361 599q-59 0 -111 -22.5t-90.5 -61.5t-61 -92t-22.5 -113q0 -59 22.5 -111t61 -92t90.5 -63t111 -23
q58 0 109.5 21.5t90.5 60t61.5 91.5t22.5 116q0 60 -22.5 113t-61.5 92t-90.5 61.5t-109.5 22.5zM361 619q66 0 123 -24t98.5 -66t65 -98.5t23.5 -120.5q0 -65 -24.5 -122t-66.5 -99t-98.5 -66t-120.5 -24q-65 0 -121.5 23.5t-98.5 65t-66.5 98.5t-24.5 124q0 64 24.5 120.5
t66.5 98.5t98.5 66t121.5 24z" />
    <glyph glyph-name="Aacute" unicode="&#xc1;" horiz-adv-x="558" 
d="M361 762q8 -1 24 -7t22 -12q1 -1 1 -3.5t-1 -3.5q-4 -5 -25.5 -20t-46 -31.5t-45 -29.5t-23.5 -13t-6 5t-2 6q3 4 17 20t31 34.5t32.5 34.5t21.5 20zM272 536q-4 0 -4 -1q-6 -16 -17.5 -48.5t-23.5 -68.5l-23 -69t-17 -49q0 -6 4 -7q7 -1 27 -1h61h19h20.5t17 0.5
t9.5 0.5q4 0 2 7q-9 28 -19.5 62.5t-21 67.5t-19.5 61t-15 45zM-33 12q26 3 42.5 7.5t27.5 13.5t20 25.5t21 44.5q15 36 32.5 80t34.5 90l34 92t31 85t24.5 69t16.5 45q11 32 14 50q1 0 6.5 -0.5t16.5 -0.5t16.5 0.5t6.5 0.5q2 -7 4.5 -18.5t7.5 -25.5q4 -13 16 -48.5
t28 -83.5t33.5 -103t34.5 -105t31 -89.5t21 -58.5q10 -22 17 -34.5t16.5 -19.5t24 -10t39.5 -6q2 -2 1 -7.5t-3 -7.5q-9 0 -23.5 0.5t-29.5 1t-29 1t-23 0.5h-24.5t-32 -0.5t-31.5 -1t-23 -1.5q-1 2 -1.5 7.5t1.5 7.5q15 2 27 4t23 6q12 5 13.5 11t-1.5 17q-4 16 -12.5 42.5
t-18.5 55.5t-20 57.5t-17 49.5q-1 1 -3 2q-1 0 -3 2l-1 1q-8 1 -27 1h-66h-39.5h-23t-12 -0.5t-7.5 -0.5q-6 0 -8 -7q-8 -20 -18.5 -48t-20 -56t-17.5 -52t-9 -35q-2 -14 1 -25t28 -17q9 -2 17.5 -4t24.5 -4q2 -2 1.5 -7.5t-2.5 -7.5q-7 0 -19.5 0.5t-28 1t-33 1t-33.5 0.5
q-37 0 -60 -1.5t-34 -1.5q-2 1 -2 7t2 8z" />
    <glyph glyph-name="Acircumflex" unicode="&#xc2;" horiz-adv-x="558" 
d="M277 741q4 4 12 4q4 -5 20 -18t35 -28.5t37.5 -29.5t27.5 -20q0 -3 -3 -8t-5 -5t-18 6.5t-35.5 14.5t-37 16.5t-23.5 11.5q-7 2 -10 0q-7 -4 -23.5 -12t-34 -16.5t-32 -14.5t-16.5 -6t-4.5 4t-1.5 9q9 6 24.5 18.5t32.5 26.5t32 26.5t23 20.5zM272 536q-4 0 -4 -1
q-6 -16 -17.5 -48.5t-23.5 -68.5l-23 -69t-17 -49q0 -6 4 -7q7 -1 27 -1h61h19h20.5t17 0.5t9.5 0.5q4 0 2 7q-9 28 -19.5 62.5t-21 67.5t-19.5 61t-15 45zM-33 12q26 3 42.5 7.5t27.5 13.5t20 25.5t21 44.5q15 36 32.5 80t34.5 90l34 92t31 85t24.5 69t16.5 45q11 32 14 50
q1 0 6.5 -0.5t16.5 -0.5t16.5 0.5t6.5 0.5q2 -7 4.5 -18.5t7.5 -25.5q4 -13 16 -48.5t28 -83.5t33.5 -103t34.5 -105t31 -89.5t21 -58.5q10 -22 17 -34.5t16.5 -19.5t24 -10t39.5 -6q2 -2 1 -7.5t-3 -7.5q-9 0 -23.5 0.5t-29.5 1t-29 1t-23 0.5h-24.5t-32 -0.5t-31.5 -1
t-23 -1.5q-1 2 -1.5 7.5t1.5 7.5q15 2 27 4t23 6q12 5 13.5 11t-1.5 17q-4 16 -12.5 42.5t-18.5 55.5t-20 57.5t-17 49.5q-1 1 -3 2q-1 0 -3 2l-1 1q-8 1 -27 1h-66h-39.5h-23t-12 -0.5t-7.5 -0.5q-6 0 -8 -7q-8 -20 -18.5 -48t-20 -56t-17.5 -52t-9 -35q-2 -14 1 -25
t28 -17q9 -2 17.5 -4t24.5 -4q2 -2 1.5 -7.5t-2.5 -7.5q-7 0 -19.5 0.5t-28 1t-33 1t-33.5 0.5q-37 0 -60 -1.5t-34 -1.5q-2 1 -2 7t2 8z" />
    <glyph glyph-name="Adieresis" unicode="&#xc4;" horiz-adv-x="558" 
d="M395 686q0 -13 -5 -23t-13 -12q-3 -2 -14 -3t-15 1q-18 7 -18 32q0 11 4 18q5 5 14 9t18 4q8 0 14 -2.5t8 -4.5q4 -4 5.5 -10t1.5 -9zM247 686q0 -13 -5 -23t-13 -12q-3 -2 -14 -3t-15 1q-18 7 -18 32q0 11 4 18q5 5 14 9t18 4q8 0 14 -2.5t8 -4.5q4 -4 5.5 -10t1.5 -9z
M272 536q-4 0 -4 -1q-6 -16 -17.5 -48.5t-23.5 -68.5l-23 -69t-17 -49q0 -6 4 -7q7 -1 27 -1h61h19h20.5t17 0.5t9.5 0.5q4 0 2 7q-9 28 -19.5 62.5t-21 67.5t-19.5 61t-15 45zM-33 12q26 3 42.5 7.5t27.5 13.5t20 25.5t21 44.5q15 36 32.5 80t34.5 90l34 92t31 85t24.5 69
t16.5 45q11 32 14 50q1 0 6.5 -0.5t16.5 -0.5t16.5 0.5t6.5 0.5q2 -7 4.5 -18.5t7.5 -25.5q4 -13 16 -48.5t28 -83.5t33.5 -103t34.5 -105t31 -89.5t21 -58.5q10 -22 17 -34.5t16.5 -19.5t24 -10t39.5 -6q2 -2 1 -7.5t-3 -7.5q-9 0 -23.5 0.5t-29.5 1t-29 1t-23 0.5h-24.5
t-32 -0.5t-31.5 -1t-23 -1.5q-1 2 -1.5 7.5t1.5 7.5q15 2 27 4t23 6q12 5 13.5 11t-1.5 17q-4 16 -12.5 42.5t-18.5 55.5t-20 57.5t-17 49.5q-1 1 -3 2q-1 0 -3 2l-1 1q-8 1 -27 1h-66h-39.5h-23t-12 -0.5t-7.5 -0.5q-6 0 -8 -7q-8 -20 -18.5 -48t-20 -56t-17.5 -52t-9 -35
q-2 -14 1 -25t28 -17q9 -2 17.5 -4t24.5 -4q2 -2 1.5 -7.5t-2.5 -7.5q-7 0 -19.5 0.5t-28 1t-33 1t-33.5 0.5q-37 0 -60 -1.5t-34 -1.5q-2 1 -2 7t2 8z" />
    <glyph glyph-name="Agrave" unicode="&#xc0;" horiz-adv-x="558" 
d="M212 764q5 -4 19.5 -19t31 -33t31.5 -35t22 -25q1 -1 -3 -6t-8 -5q-1 0 -11.5 6t-26 15.5t-33 20t-33 20.5t-26.5 17.5t-13 9.5q-1 1 -0.5 4t1.5 4q3 3 9 7t13.5 8t15 7.5t11.5 3.5zM272 536q-4 0 -4 -1q-6 -16 -17.5 -48.5t-23.5 -68.5l-23 -69t-17 -49q0 -6 4 -7
q7 -1 27 -1h61h19h20.5t17 0.5t9.5 0.5q4 0 2 7q-9 28 -19.5 62.5t-21 67.5t-19.5 61t-15 45zM-33 12q26 3 42.5 7.5t27.5 13.5t20 25.5t21 44.5q15 36 32.5 80t34.5 90l34 92t31 85t24.5 69t16.5 45q11 32 14 50q1 0 6.5 -0.5t16.5 -0.5t16.5 0.5t6.5 0.5q2 -7 4.5 -18.5
t7.5 -25.5q4 -13 16 -48.5t28 -83.5t33.5 -103t34.5 -105t31 -89.5t21 -58.5q10 -22 17 -34.5t16.5 -19.5t24 -10t39.5 -6q2 -2 1 -7.5t-3 -7.5q-9 0 -23.5 0.5t-29.5 1t-29 1t-23 0.5h-24.5t-32 -0.5t-31.5 -1t-23 -1.5q-1 2 -1.5 7.5t1.5 7.5q15 2 27 4t23 6q12 5 13.5 11
t-1.5 17q-4 16 -12.5 42.5t-18.5 55.5t-20 57.5t-17 49.5q-1 1 -3 2q-1 0 -3 2l-1 1q-8 1 -27 1h-66h-39.5h-23t-12 -0.5t-7.5 -0.5q-6 0 -8 -7q-8 -20 -18.5 -48t-20 -56t-17.5 -52t-9 -35q-2 -14 1 -25t28 -17q9 -2 17.5 -4t24.5 -4q2 -2 1.5 -7.5t-2.5 -7.5
q-7 0 -19.5 0.5t-28 1t-33 1t-33.5 0.5q-37 0 -60 -1.5t-34 -1.5q-2 1 -2 7t2 8z" />
    <glyph glyph-name="Aring" unicode="&#xc5;" horiz-adv-x="558" 
d="M287 724q-20 0 -31.5 -10t-11.5 -26t14.5 -24.5t32.5 -8.5q17 0 30 9t13 23q0 17 -10.5 27t-36.5 10zM291 751q29 0 45.5 -18t16.5 -42q0 -29 -18.5 -46t-47.5 -17q-8 0 -19 3t-20.5 10t-16 18t-6.5 28q0 28 16 46t50 18zM272 536q-4 0 -4 -1q-6 -16 -17.5 -48.5
t-23.5 -68.5l-23 -69t-17 -49q0 -6 4 -7q7 -1 27 -1h61h19h20.5t17 0.5t9.5 0.5q4 0 2 7q-9 28 -19.5 62.5t-21 67.5t-19.5 61t-15 45zM-33 12q26 3 42.5 7.5t27.5 13.5t20 25.5t21 44.5q15 36 32.5 80t34.5 90l34 92t31 85t24.5 69t16.5 45q11 32 14 50q1 0 6.5 -0.5
t16.5 -0.5t16.5 0.5t6.5 0.5q2 -7 4.5 -18.5t7.5 -25.5q4 -13 16 -48.5t28 -83.5t33.5 -103t34.5 -105t31 -89.5t21 -58.5q10 -22 17 -34.5t16.5 -19.5t24 -10t39.5 -6q2 -2 1 -7.5t-3 -7.5q-9 0 -23.5 0.5t-29.5 1t-29 1t-23 0.5h-24.5t-32 -0.5t-31.5 -1t-23 -1.5
q-1 2 -1.5 7.5t1.5 7.5q15 2 27 4t23 6q12 5 13.5 11t-1.5 17q-4 16 -12.5 42.5t-18.5 55.5t-20 57.5t-17 49.5q-1 1 -3 2q-1 0 -3 2l-1 1q-8 1 -27 1h-66h-39.5h-23t-12 -0.5t-7.5 -0.5q-6 0 -8 -7q-8 -20 -18.5 -48t-20 -56t-17.5 -52t-9 -35q-2 -14 1 -25t28 -17
q9 -2 17.5 -4t24.5 -4q2 -2 1.5 -7.5t-2.5 -7.5q-7 0 -19.5 0.5t-28 1t-33 1t-33.5 0.5q-37 0 -60 -1.5t-34 -1.5q-2 1 -2 7t2 8z" />
    <glyph glyph-name="Atilde" unicode="&#xc3;" horiz-adv-x="558" 
d="M342 695q9 0 25 4t39 24q1 1 3 -5.5t1 -8.5q-5 -9 -15.5 -18t-23 -16.5t-26 -12.5t-25.5 -5q-10 0 -23 3t-36 9l-16 4t-17 2q-12 0 -26 -5t-31 -19q-2 -2 -5 5t-1 9q4 5 13.5 13t21.5 16t25 13.5t22 5.5q21 0 53 -9q13 -4 25 -6.5t17 -2.5zM272 536q-4 0 -4 -1
q-6 -16 -17.5 -48.5t-23.5 -68.5l-23 -69t-17 -49q0 -6 4 -7q7 -1 27 -1h61h19h20.5t17 0.5t9.5 0.5q4 0 2 7q-9 28 -19.5 62.5t-21 67.5t-19.5 61t-15 45zM-33 12q26 3 42.5 7.5t27.5 13.5t20 25.5t21 44.5q15 36 32.5 80t34.5 90l34 92t31 85t24.5 69t16.5 45q11 32 14 50
q1 0 6.5 -0.5t16.5 -0.5t16.5 0.5t6.5 0.5q2 -7 4.5 -18.5t7.5 -25.5q4 -13 16 -48.5t28 -83.5t33.5 -103t34.5 -105t31 -89.5t21 -58.5q10 -22 17 -34.5t16.5 -19.5t24 -10t39.5 -6q2 -2 1 -7.5t-3 -7.5q-9 0 -23.5 0.5t-29.5 1t-29 1t-23 0.5h-24.5t-32 -0.5t-31.5 -1
t-23 -1.5q-1 2 -1.5 7.5t1.5 7.5q15 2 27 4t23 6q12 5 13.5 11t-1.5 17q-4 16 -12.5 42.5t-18.5 55.5t-20 57.5t-17 49.5q-1 1 -3 2q-1 0 -3 2l-1 1q-8 1 -27 1h-66h-39.5h-23t-12 -0.5t-7.5 -0.5q-6 0 -8 -7q-8 -20 -18.5 -48t-20 -56t-17.5 -52t-9 -35q-2 -14 1 -25
t28 -17q9 -2 17.5 -4t24.5 -4q2 -2 1.5 -7.5t-2.5 -7.5q-7 0 -19.5 0.5t-28 1t-33 1t-33.5 0.5q-37 0 -60 -1.5t-34 -1.5q-2 1 -2 7t2 8z" />
    <glyph glyph-name="Ccedilla" unicode="&#xc7;" horiz-adv-x="642" 
d="M559 471q-4 31 -9.5 51t-12.5 33t-16 20.5t-21 12.5q-25 11 -53.5 15.5t-72.5 4.5q-59 0 -106 -20t-79 -57.5t-49 -90.5t-17 -119q0 -72 20 -129.5t57 -97.5t89.5 -61.5t118.5 -21.5q11 0 25.5 1t30.5 5t32.5 12.5t31.5 22.5q20 20 34 40t31 50q2 1 8 -2t6 -6
q-5 -20 -14.5 -41.5t-20.5 -40t-21.5 -32.5t-18.5 -17q-20 -6 -54.5 -12.5t-76.5 -8.5l-18 -25q11 -5 23.5 -12.5t20.5 -15.5q11 -9 15 -21.5t4 -23.5q0 -20 -11 -35.5t-26.5 -26.5t-31.5 -17t-26 -6q-17 0 -29 8t-17 18q-1 2 -1 8t2 8q15 -8 31.5 -11t30.5 -3q17 0 27 7.5
t10 21.5q0 12 -15 30t-55 31v3q0 1 2 5l14 20q6 8 12.5 18t13.5 19q-155 4 -241 89.5t-86 240.5q0 82 37 155t119 117q40 22 89.5 34.5t114.5 12.5q30 0 54.5 -2t54.5 -6q21 -3 41 -5.5t30 -3.5q-6 -28 -10 -67.5t-3 -73.5q-2 -2 -9 -3t-9 1z" />
    <glyph glyph-name="Eacute" unicode="&#xc9;" horiz-adv-x="498" 
d="M317 768q8 -1 24 -7t22 -12q1 -1 1 -3.5t-1 -3.5q-4 -5 -25.5 -20t-46 -31.5t-45 -29.5t-23.5 -13t-6 5t-2 6q3 4 17 20t31 34.5t32.5 34.5t21.5 20zM29 602q-2 2 -1.5 7t2.5 7q17 0 40.5 -1.5t65.5 -1.5h193h29.5t29.5 0.5t25 1t17 1.5q3 0 3 -3q-3 -12 -6 -29
t-5.5 -34.5t-4 -34.5t-2.5 -29q-2 -2 -8 -2.5t-8 1.5q-2 21 -4 35t-4 24q-5 18 -15 29t-42 13q-10 0 -33 0.5t-47.5 0.5h-45.5t-27 -1q-5 -1 -7.5 -5.5t-2.5 -8.5q-1 -9 -1 -29.5t-0.5 -45.5t-0.5 -52.5v-50.5v-39v-18q0 -8 3 -8q9 -1 31.5 -1h47t47.5 0.5t34 1.5
q24 2 31.5 12t11.5 21q3 8 5.5 17.5t4.5 19.5q2 2 9 1.5t8 -2.5q-2 -12 -4.5 -38.5t-2.5 -50.5q0 -32 1 -50.5t1 -29.5q-2 -3 -8.5 -3.5t-8.5 2.5q-2 11 -3 18.5t-3 15.5q-2 9 -9 21t-32 14q-11 1 -33.5 1.5t-47.5 0.5h-47t-32 -1q-2 0 -3 -3.5t-1 -4.5v-34v-63t0.5 -70.5
t1.5 -57.5q1 -20 8.5 -27t15.5 -9q15 -3 44 -4.5t83 -1.5q23 0 37.5 2t23.5 6t14.5 8.5t10.5 9.5q11 10 26.5 35.5t27.5 54.5q2 1 6.5 -2t6.5 -5q-2 -12 -7 -30.5t-11 -37t-12.5 -34.5t-10.5 -23q-2 -4 -4.5 -6t-8.5 -3t-17 -1.5t-30 -0.5t-36.5 0.5t-42.5 1t-62.5 1
t-95.5 0.5q-25 0 -43 -0.5t-32.5 -1t-27 -1t-26.5 -0.5q-2 2 -2 7.5t2 7.5q19 2 34 3t29 5q18 5 25.5 16t9.5 42q0 6 0.5 29t1 57.5t0.5 77.5v87v72.5t-0.5 64t-1 48t-0.5 25.5q-2 30 -7 40t-24 15q-9 2 -20 4t-26 4z" />
    <glyph glyph-name="Ecircumflex" unicode="&#xca;" horiz-adv-x="498" 
d="M244 751q4 4 12 4q4 -5 20 -18t35 -28.5t37.5 -29.5t27.5 -20q0 -3 -3 -8t-5 -5t-18 6.5t-35.5 14.5t-37 16.5t-23.5 11.5q-7 2 -10 0q-7 -4 -23.5 -12t-34 -16.5t-32 -14.5t-16.5 -6t-4.5 4t-1.5 9q9 6 24.5 18.5t32.5 26.5t32 26.5t23 20.5zM29 602q-2 2 -1.5 7t2.5 7
q17 0 40.5 -1.5t65.5 -1.5h193h29.5t29.5 0.5t25 1t17 1.5q3 0 3 -3q-3 -12 -6 -29t-5.5 -34.5t-4 -34.5t-2.5 -29q-2 -2 -8 -2.5t-8 1.5q-2 21 -4 35t-4 24q-5 18 -15 29t-42 13q-10 0 -33 0.5t-47.5 0.5h-45.5t-27 -1q-5 -1 -7.5 -5.5t-2.5 -8.5q-1 -9 -1 -29.5
t-0.5 -45.5t-0.5 -52.5v-50.5v-39v-18q0 -8 3 -8q9 -1 31.5 -1h47t47.5 0.5t34 1.5q24 2 31.5 12t11.5 21q3 8 5.5 17.5t4.5 19.5q2 2 9 1.5t8 -2.5q-2 -12 -4.5 -38.5t-2.5 -50.5q0 -32 1 -50.5t1 -29.5q-2 -3 -8.5 -3.5t-8.5 2.5q-2 11 -3 18.5t-3 15.5q-2 9 -9 21t-32 14
q-11 1 -33.5 1.5t-47.5 0.5h-47t-32 -1q-2 0 -3 -3.5t-1 -4.5v-34v-63t0.5 -70.5t1.5 -57.5q1 -20 8.5 -27t15.5 -9q15 -3 44 -4.5t83 -1.5q23 0 37.5 2t23.5 6t14.5 8.5t10.5 9.5q11 10 26.5 35.5t27.5 54.5q2 1 6.5 -2t6.5 -5q-2 -12 -7 -30.5t-11 -37t-12.5 -34.5
t-10.5 -23q-2 -4 -4.5 -6t-8.5 -3t-17 -1.5t-30 -0.5t-36.5 0.5t-42.5 1t-62.5 1t-95.5 0.5q-25 0 -43 -0.5t-32.5 -1t-27 -1t-26.5 -0.5q-2 2 -2 7.5t2 7.5q19 2 34 3t29 5q18 5 25.5 16t9.5 42q0 6 0.5 29t1 57.5t0.5 77.5v87v72.5t-0.5 64t-1 48t-0.5 25.5q-2 30 -7 40
t-24 15q-9 2 -20 4t-26 4z" />
    <glyph glyph-name="Edieresis" unicode="&#xcb;" horiz-adv-x="498" 
d="M363 697q0 -13 -5 -23t-13 -12q-3 -2 -14 -3t-15 1q-18 7 -18 32q0 11 4 18q5 5 14 9t18 4q8 0 14 -2.5t8 -4.5q4 -4 5.5 -10t1.5 -9zM215 697q0 -13 -5 -23t-13 -12q-3 -2 -14 -3t-15 1q-18 7 -18 32q0 11 4 18q5 5 14 9t18 4q8 0 14 -2.5t8 -4.5q4 -4 5.5 -10t1.5 -9z
M29 602q-2 2 -1.5 7t2.5 7q17 0 40.5 -1.5t65.5 -1.5h193h29.5t29.5 0.5t25 1t17 1.5q3 0 3 -3q-3 -12 -6 -29t-5.5 -34.5t-4 -34.5t-2.5 -29q-2 -2 -8 -2.5t-8 1.5q-2 21 -4 35t-4 24q-5 18 -15 29t-42 13q-10 0 -33 0.5t-47.5 0.5h-45.5t-27 -1q-5 -1 -7.5 -5.5t-2.5 -8.5
q-1 -9 -1 -29.5t-0.5 -45.5t-0.5 -52.5v-50.5v-39v-18q0 -8 3 -8q9 -1 31.5 -1h47t47.5 0.5t34 1.5q24 2 31.5 12t11.5 21q3 8 5.5 17.5t4.5 19.5q2 2 9 1.5t8 -2.5q-2 -12 -4.5 -38.5t-2.5 -50.5q0 -32 1 -50.5t1 -29.5q-2 -3 -8.5 -3.5t-8.5 2.5q-2 11 -3 18.5t-3 15.5
q-2 9 -9 21t-32 14q-11 1 -33.5 1.5t-47.5 0.5h-47t-32 -1q-2 0 -3 -3.5t-1 -4.5v-34v-63t0.5 -70.5t1.5 -57.5q1 -20 8.5 -27t15.5 -9q15 -3 44 -4.5t83 -1.5q23 0 37.5 2t23.5 6t14.5 8.5t10.5 9.5q11 10 26.5 35.5t27.5 54.5q2 1 6.5 -2t6.5 -5q-2 -12 -7 -30.5t-11 -37
t-12.5 -34.5t-10.5 -23q-2 -4 -4.5 -6t-8.5 -3t-17 -1.5t-30 -0.5t-36.5 0.5t-42.5 1t-62.5 1t-95.5 0.5q-25 0 -43 -0.5t-32.5 -1t-27 -1t-26.5 -0.5q-2 2 -2 7.5t2 7.5q19 2 34 3t29 5q18 5 25.5 16t9.5 42q0 6 0.5 29t1 57.5t0.5 77.5v87v72.5t-0.5 64t-1 48t-0.5 25.5
q-2 30 -7 40t-24 15q-9 2 -20 4t-26 4z" />
    <glyph glyph-name="Egrave" unicode="&#xc8;" horiz-adv-x="498" 
d="M196 770q5 -4 19.5 -19t31 -33t31.5 -35t22 -25q1 -1 -3 -6t-8 -5q-1 0 -11.5 6t-26 15.5t-33 20t-33 20.5t-26.5 17.5t-13 9.5q-1 1 -0.5 4t1.5 4q3 3 9 7t13.5 8t15 7.5t11.5 3.5zM29 602q-2 2 -1.5 7t2.5 7q17 0 40.5 -1.5t65.5 -1.5h193h29.5t29.5 0.5t25 1t17 1.5
q3 0 3 -3q-3 -12 -6 -29t-5.5 -34.5t-4 -34.5t-2.5 -29q-2 -2 -8 -2.5t-8 1.5q-2 21 -4 35t-4 24q-5 18 -15 29t-42 13q-10 0 -33 0.5t-47.5 0.5h-45.5t-27 -1q-5 -1 -7.5 -5.5t-2.5 -8.5q-1 -9 -1 -29.5t-0.5 -45.5t-0.5 -52.5v-50.5v-39v-18q0 -8 3 -8q9 -1 31.5 -1h47
t47.5 0.5t34 1.5q24 2 31.5 12t11.5 21q3 8 5.5 17.5t4.5 19.5q2 2 9 1.5t8 -2.5q-2 -12 -4.5 -38.5t-2.5 -50.5q0 -32 1 -50.5t1 -29.5q-2 -3 -8.5 -3.5t-8.5 2.5q-2 11 -3 18.5t-3 15.5q-2 9 -9 21t-32 14q-11 1 -33.5 1.5t-47.5 0.5h-47t-32 -1q-2 0 -3 -3.5t-1 -4.5v-34
v-63t0.5 -70.5t1.5 -57.5q1 -20 8.5 -27t15.5 -9q15 -3 44 -4.5t83 -1.5q23 0 37.5 2t23.5 6t14.5 8.5t10.5 9.5q11 10 26.5 35.5t27.5 54.5q2 1 6.5 -2t6.5 -5q-2 -12 -7 -30.5t-11 -37t-12.5 -34.5t-10.5 -23q-2 -4 -4.5 -6t-8.5 -3t-17 -1.5t-30 -0.5t-36.5 0.5t-42.5 1
t-62.5 1t-95.5 0.5q-25 0 -43 -0.5t-32.5 -1t-27 -1t-26.5 -0.5q-2 2 -2 7.5t2 7.5q19 2 34 3t29 5q18 5 25.5 16t9.5 42q0 6 0.5 29t1 57.5t0.5 77.5v87v72.5t-0.5 64t-1 48t-0.5 25.5q-2 30 -7 40t-24 15q-9 2 -20 4t-26 4z" />
    <glyph glyph-name="Iacute" unicode="&#xcd;" horiz-adv-x="277" 
d="M207 767q8 -1 24 -7t22 -12q1 -1 1 -3.5t-1 -3.5q-4 -5 -25.5 -20t-46 -31.5t-45 -29.5t-23.5 -13t-6 5t-2 6q3 4 17 20t31 34.5t32.5 34.5t21.5 20zM27 601q-2 2 -1.5 7.5t2.5 7.5q14 0 47.5 -1.5t68.5 -1.5q32 0 55 1.5t41 1.5q2 -2 2.5 -7.5t-1.5 -7.5
q-11 -2 -22.5 -3t-18.5 -3q-17 -5 -21.5 -17t-6.5 -35q-1 -16 -1.5 -41.5t-1 -56t-0.5 -64.5v-67v-72t0.5 -70t1 -58.5t0.5 -37.5q2 -23 6.5 -36.5t23.5 -18.5q20 -6 51 -9q2 -2 1.5 -7.5t-2.5 -7.5q-16 0 -42 1.5t-59 1.5q-18 0 -32 -0.5t-27.5 -1t-28 -1t-33.5 -0.5
q-2 2 -2 7.5t2 7.5q11 1 23.5 3t21.5 4q19 4 24 15t7 28q1 9 1.5 42t1 75.5t0.5 87v75.5v110.5t-2 88.5q-2 18 -5 32t-20 19q-8 2 -22 4.5t-32 4.5z" />
    <glyph glyph-name="Icircumflex" unicode="&#xce;" horiz-adv-x="277" 
d="M132 758q4 4 12 4q4 -5 20 -18t35 -28.5t37.5 -29.5t27.5 -20q0 -3 -3 -8t-5 -5t-18 6.5t-35.5 14.5t-37 16.5t-23.5 11.5q-7 2 -10 0q-7 -4 -23.5 -12t-34 -16.5t-32 -14.5t-16.5 -6t-4.5 4t-1.5 9q9 6 24.5 18.5t32.5 26.5t32 26.5t23 20.5zM27 601q-2 2 -1.5 7.5
t2.5 7.5q14 0 47.5 -1.5t68.5 -1.5q32 0 55 1.5t41 1.5q2 -2 2.5 -7.5t-1.5 -7.5q-11 -2 -22.5 -3t-18.5 -3q-17 -5 -21.5 -17t-6.5 -35q-1 -16 -1.5 -41.5t-1 -56t-0.5 -64.5v-67v-72t0.5 -70t1 -58.5t0.5 -37.5q2 -23 6.5 -36.5t23.5 -18.5q20 -6 51 -9q2 -2 1.5 -7.5
t-2.5 -7.5q-16 0 -42 1.5t-59 1.5q-18 0 -32 -0.5t-27.5 -1t-28 -1t-33.5 -0.5q-2 2 -2 7.5t2 7.5q11 1 23.5 3t21.5 4q19 4 24 15t7 28q1 9 1.5 42t1 75.5t0.5 87v75.5v110.5t-2 88.5q-2 18 -5 32t-20 19q-8 2 -22 4.5t-32 4.5z" />
    <glyph glyph-name="Idieresis" unicode="&#xcf;" horiz-adv-x="277" 
d="M245 699q0 -13 -5 -23t-13 -12q-3 -2 -14 -3t-15 1q-18 7 -18 32q0 11 4 18q5 5 14 9t18 4q8 0 14 -2.5t8 -4.5q4 -4 5.5 -10t1.5 -9zM97 699q0 -13 -5 -23t-13 -12q-3 -2 -14 -3t-15 1q-18 7 -18 32q0 11 4 18q5 5 14 9t18 4q8 0 14 -2.5t8 -4.5q4 -4 5.5 -10t1.5 -9z
M27 601q-2 2 -1.5 7.5t2.5 7.5q14 0 47.5 -1.5t68.5 -1.5q32 0 55 1.5t41 1.5q2 -2 2.5 -7.5t-1.5 -7.5q-11 -2 -22.5 -3t-18.5 -3q-17 -5 -21.5 -17t-6.5 -35q-1 -16 -1.5 -41.5t-1 -56t-0.5 -64.5v-67v-72t0.5 -70t1 -58.5t0.5 -37.5q2 -23 6.5 -36.5t23.5 -18.5
q20 -6 51 -9q2 -2 1.5 -7.5t-2.5 -7.5q-16 0 -42 1.5t-59 1.5q-18 0 -32 -0.5t-27.5 -1t-28 -1t-33.5 -0.5q-2 2 -2 7.5t2 7.5q11 1 23.5 3t21.5 4q19 4 24 15t7 28q1 9 1.5 42t1 75.5t0.5 87v75.5v110.5t-2 88.5q-2 18 -5 32t-20 19q-8 2 -22 4.5t-32 4.5z" />
    <glyph glyph-name="Igrave" unicode="&#xcc;" horiz-adv-x="277" 
d="M70 766q5 -4 19.5 -19t31 -33t31.5 -35t22 -25q1 -1 -3 -6t-8 -5q-1 0 -11.5 6t-26 15.5t-33 20t-33 20.5t-26.5 17.5t-13 9.5q-1 1 -0.5 4t1.5 4q3 3 9 7t13.5 8t15 7.5t11.5 3.5zM27 601q-2 2 -1.5 7.5t2.5 7.5q14 0 47.5 -1.5t68.5 -1.5q32 0 55 1.5t41 1.5
q2 -2 2.5 -7.5t-1.5 -7.5q-11 -2 -22.5 -3t-18.5 -3q-17 -5 -21.5 -17t-6.5 -35q-1 -16 -1.5 -41.5t-1 -56t-0.5 -64.5v-67v-72t0.5 -70t1 -58.5t0.5 -37.5q2 -23 6.5 -36.5t23.5 -18.5q20 -6 51 -9q2 -2 1.5 -7.5t-2.5 -7.5q-16 0 -42 1.5t-59 1.5q-18 0 -32 -0.5t-27.5 -1
t-28 -1t-33.5 -0.5q-2 2 -2 7.5t2 7.5q11 1 23.5 3t21.5 4q19 4 24 15t7 28q1 9 1.5 42t1 75.5t0.5 87v75.5v110.5t-2 88.5q-2 18 -5 32t-20 19q-8 2 -22 4.5t-32 4.5z" />
    <glyph glyph-name="Ntilde" unicode="&#xd1;" horiz-adv-x="697" 
d="M408 706q9 0 25 4t39 24q1 1 3 -5.5t1 -8.5q-5 -9 -15.5 -18t-23 -16.5t-26 -12.5t-25.5 -5q-10 0 -23 3t-36 9l-16 4t-17 2q-12 0 -26 -5t-31 -19q-2 -2 -5 5t-1 9q4 5 13.5 13t21.5 16t25 13.5t22 5.5q21 0 53 -9q13 -4 25 -6.5t17 -2.5zM8 601q-1 2 -0.5 7.5t2.5 7.5
q5 0 15.5 -0.5t23.5 -1t26.5 -1t25.5 -0.5h25t17 1q2 -5 10.5 -17t28.5 -37q29 -36 66.5 -81.5t78 -94.5t80 -97t73 -88.5t58 -69.5t33.5 -39l3 2v75v84.5v87t-0.5 82t-1.5 68.5t-2 48q-2 20 -7.5 33.5t-26.5 20.5q-13 4 -28.5 6t-32.5 4q-2 2 -1.5 7.5t2.5 7.5
q19 0 49 -1.5t65 -1.5q10 0 24 0.5t27.5 1t24.5 1t15 0.5q2 -2 2 -7.5t-2 -7.5q-14 -2 -21.5 -3.5t-17.5 -4.5q-19 -5 -25 -19.5t-7 -31.5q-2 -28 -3 -77.5t-1.5 -107.5t-0.5 -119t-1 -111q0 -34 0.5 -71.5t1.5 -60.5q-7 1 -24.5 1t-25.5 -1q-13 19 -45 60.5t-74 94.5
t-89 110.5t-88.5 109t-73 89.5t-42.5 52q-1 1 -2.5 0.5t-1.5 -1.5q0 -25 -0.5 -61.5t-0.5 -79v-86t0.5 -82t0.5 -69t1 -44.5q2 -38 12 -50t26 -17q11 -4 25 -5.5t28 -3.5q2 -1 1.5 -7.5t-2.5 -7.5q-14 0 -44.5 1.5t-68.5 1.5q-34 0 -58 -1.5t-39 -1.5q-2 2 -2 8t2 7
q14 2 22.5 3t18.5 4q17 4 28 17t13 52q1 17 2 58.5t2 100t2 130.5t2 151q0 7 -4 19t-14 23q-16 18 -35 22.5t-50 8.5z" />
    <glyph glyph-name="Oacute" unicode="&#xd3;" horiz-adv-x="716" 
d="M418 783q8 -1 24 -7t22 -12q1 -1 1 -3.5t-1 -3.5q-4 -5 -25.5 -20t-46 -31.5t-45 -29.5t-23.5 -13t-6 5t-2 6q3 4 17 20t31 34.5t32.5 34.5t21.5 20zM390 14q35 0 65.5 10t52.5 28q51 42 71.5 102t20.5 132q0 39 -7 78t-22 74.5t-38 66t-55 52.5q-29 21 -64 33t-79 12
q-29 0 -54 -6.5t-46 -17.5q-30 -17 -51 -42.5t-35 -57.5t-20.5 -69t-6.5 -76q0 -38 7.5 -78t23.5 -77.5t41 -70t60 -55.5q27 -18 60.5 -28t75.5 -10zM351 -18q-65 0 -121.5 26t-94.5 68q-44 49 -64.5 110.5t-20.5 126.5q0 54 14.5 100t40.5 85q21 30 51 55t65 42t73.5 26.5
t74.5 9.5q74 0 129.5 -26t93 -69.5t56 -100t18.5 -117.5q0 -63 -15 -111.5t-44 -91.5q-21 -33 -50 -57.5t-62.5 -41.5t-70 -25.5t-73.5 -8.5z" />
    <glyph glyph-name="Ocircumflex" unicode="&#xd4;" horiz-adv-x="716" 
d="M351 766q4 4 12 4q4 -5 20 -18t35 -28.5t37.5 -29.5t27.5 -20q0 -3 -3 -8t-5 -5t-18 6.5t-35.5 14.5t-37 16.5t-23.5 11.5q-7 2 -10 0q-7 -4 -23.5 -12t-34 -16.5t-32 -14.5t-16.5 -6t-4.5 4t-1.5 9q9 6 24.5 18.5t32.5 26.5t32 26.5t23 20.5zM390 14q35 0 65.5 10
t52.5 28q51 42 71.5 102t20.5 132q0 39 -7 78t-22 74.5t-38 66t-55 52.5q-29 21 -64 33t-79 12q-29 0 -54 -6.5t-46 -17.5q-30 -17 -51 -42.5t-35 -57.5t-20.5 -69t-6.5 -76q0 -38 7.5 -78t23.5 -77.5t41 -70t60 -55.5q27 -18 60.5 -28t75.5 -10zM351 -18q-65 0 -121.5 26
t-94.5 68q-44 49 -64.5 110.5t-20.5 126.5q0 54 14.5 100t40.5 85q21 30 51 55t65 42t73.5 26.5t74.5 9.5q74 0 129.5 -26t93 -69.5t56 -100t18.5 -117.5q0 -63 -15 -111.5t-44 -91.5q-21 -33 -50 -57.5t-62.5 -41.5t-70 -25.5t-73.5 -8.5z" />
    <glyph glyph-name="Odieresis" unicode="&#xd6;" horiz-adv-x="716" 
d="M464 714q0 -13 -5 -23t-13 -12q-3 -2 -14 -3t-15 1q-18 7 -18 32q0 11 4 18q5 5 14 9t18 4q8 0 14 -2.5t8 -4.5q4 -4 5.5 -10t1.5 -9zM316 714q0 -13 -5 -23t-13 -12q-3 -2 -14 -3t-15 1q-18 7 -18 32q0 11 4 18q5 5 14 9t18 4q8 0 14 -2.5t8 -4.5q4 -4 5.5 -10t1.5 -9z
M390 14q35 0 65.5 10t52.5 28q51 42 71.5 102t20.5 132q0 39 -7 78t-22 74.5t-38 66t-55 52.5q-29 21 -64 33t-79 12q-29 0 -54 -6.5t-46 -17.5q-30 -17 -51 -42.5t-35 -57.5t-20.5 -69t-6.5 -76q0 -38 7.5 -78t23.5 -77.5t41 -70t60 -55.5q27 -18 60.5 -28t75.5 -10z
M351 -18q-65 0 -121.5 26t-94.5 68q-44 49 -64.5 110.5t-20.5 126.5q0 54 14.5 100t40.5 85q21 30 51 55t65 42t73.5 26.5t74.5 9.5q74 0 129.5 -26t93 -69.5t56 -100t18.5 -117.5q0 -63 -15 -111.5t-44 -91.5q-21 -33 -50 -57.5t-62.5 -41.5t-70 -25.5t-73.5 -8.5z" />
    <glyph glyph-name="Ograve" unicode="&#xd2;" horiz-adv-x="716" 
d="M293 786q5 -4 19.5 -19t31 -33t31.5 -35t22 -25q1 -1 -3 -6t-8 -5q-1 0 -11.5 6t-26 15.5t-33 20t-33 20.5t-26.5 17.5t-13 9.5q-1 1 -0.5 4t1.5 4q3 3 9 7t13.5 8t15 7.5t11.5 3.5zM390 14q35 0 65.5 10t52.5 28q51 42 71.5 102t20.5 132q0 39 -7 78t-22 74.5t-38 66
t-55 52.5q-29 21 -64 33t-79 12q-29 0 -54 -6.5t-46 -17.5q-30 -17 -51 -42.5t-35 -57.5t-20.5 -69t-6.5 -76q0 -38 7.5 -78t23.5 -77.5t41 -70t60 -55.5q27 -18 60.5 -28t75.5 -10zM351 -18q-65 0 -121.5 26t-94.5 68q-44 49 -64.5 110.5t-20.5 126.5q0 54 14.5 100
t40.5 85q21 30 51 55t65 42t73.5 26.5t74.5 9.5q74 0 129.5 -26t93 -69.5t56 -100t18.5 -117.5q0 -63 -15 -111.5t-44 -91.5q-21 -33 -50 -57.5t-62.5 -41.5t-70 -25.5t-73.5 -8.5z" />
    <glyph glyph-name="Otilde" unicode="&#xd5;" horiz-adv-x="716" 
d="M410 719q9 0 25 4t39 24q1 1 3 -5.5t1 -8.5q-5 -9 -15.5 -18t-23 -16.5t-26 -12.5t-25.5 -5q-10 0 -23 3t-36 9l-16 4t-17 2q-12 0 -26 -5t-31 -19q-2 -2 -5 5t-1 9q4 5 13.5 13t21.5 16t25 13.5t22 5.5q21 0 53 -9q13 -4 25 -6.5t17 -2.5zM390 14q35 0 65.5 10t52.5 28
q51 42 71.5 102t20.5 132q0 39 -7 78t-22 74.5t-38 66t-55 52.5q-29 21 -64 33t-79 12q-29 0 -54 -6.5t-46 -17.5q-30 -17 -51 -42.5t-35 -57.5t-20.5 -69t-6.5 -76q0 -38 7.5 -78t23.5 -77.5t41 -70t60 -55.5q27 -18 60.5 -28t75.5 -10zM351 -18q-65 0 -121.5 26t-94.5 68
q-44 49 -64.5 110.5t-20.5 126.5q0 54 14.5 100t40.5 85q21 30 51 55t65 42t73.5 26.5t74.5 9.5q74 0 129.5 -26t93 -69.5t56 -100t18.5 -117.5q0 -63 -15 -111.5t-44 -91.5q-21 -33 -50 -57.5t-62.5 -41.5t-70 -25.5t-73.5 -8.5z" />
    <glyph glyph-name="Uacute" unicode="&#xda;" horiz-adv-x="663" 
d="M413 765q8 -1 24 -7t22 -12q1 -1 1 -3.5t-1 -3.5q-4 -5 -25.5 -20t-46 -31.5t-45 -29.5t-23.5 -13t-6 5t-2 6q3 4 17 20t31 34.5t32.5 34.5t21.5 20zM23 601q-2 2 -2 7.5t2 7.5q5 0 16 -0.5t26 -1t32 -1t34 -0.5q32 0 56.5 1.5t40.5 1.5q2 -2 2 -7.5t-2 -7.5
q-15 -3 -24 -4.5t-18 -4.5q-13 -5 -17.5 -14.5t-6.5 -41.5q-1 -31 -1.5 -77t-0.5 -93t0.5 -87.5t1.5 -60.5q2 -28 5 -48.5t8 -36.5t11.5 -28t15.5 -22q26 -32 69.5 -47.5t88.5 -15.5q36 0 68 8.5t56 30t39 60t17 98.5q1 28 2 63.5t1.5 75t0 81t-1.5 82.5q0 24 -3.5 38
t-9.5 21.5t-13.5 10.5t-16.5 5q-11 2 -19 3t-23 3q-2 2 -1.5 7.5t2.5 7.5q11 0 36 -1t69 -1q29 0 52.5 1t34.5 1q2 -2 2 -7.5t-2 -7.5q-11 -2 -20 -3.5t-17 -3.5q-19 -5 -25.5 -21t-7.5 -60q-2 -99 -3 -159t-2.5 -97t-4 -59.5t-7.5 -46.5q-10 -50 -33 -82t-54.5 -51.5
t-68 -27t-73.5 -7.5q-211 0 -232 182q-2 15 -3 45t-1.5 67t-0.5 78v77.5v65t-1 41.5q-1 20 -3.5 34t-19.5 20q-8 3 -24 5t-26 4z" />
    <glyph glyph-name="Ucircumflex" unicode="&#xdb;" horiz-adv-x="663" 
d="M336 758q4 4 12 4q4 -5 20 -18t35 -28.5t37.5 -29.5t27.5 -20q0 -3 -3 -8t-5 -5t-18 6.5t-35.5 14.5t-37 16.5t-23.5 11.5q-7 2 -10 0q-7 -4 -23.5 -12t-34 -16.5t-32 -14.5t-16.5 -6t-4.5 4t-1.5 9q9 6 24.5 18.5t32.5 26.5t32 26.5t23 20.5zM23 601q-2 2 -2 7.5t2 7.5
q5 0 16 -0.5t26 -1t32 -1t34 -0.5q32 0 56.5 1.5t40.5 1.5q2 -2 2 -7.5t-2 -7.5q-15 -3 -24 -4.5t-18 -4.5q-13 -5 -17.5 -14.5t-6.5 -41.5q-1 -31 -1.5 -77t-0.5 -93t0.5 -87.5t1.5 -60.5q2 -28 5 -48.5t8 -36.5t11.5 -28t15.5 -22q26 -32 69.5 -47.5t88.5 -15.5
q36 0 68 8.5t56 30t39 60t17 98.5q1 28 2 63.5t1.5 75t0 81t-1.5 82.5q0 24 -3.5 38t-9.5 21.5t-13.5 10.5t-16.5 5q-11 2 -19 3t-23 3q-2 2 -1.5 7.5t2.5 7.5q11 0 36 -1t69 -1q29 0 52.5 1t34.5 1q2 -2 2 -7.5t-2 -7.5q-11 -2 -20 -3.5t-17 -3.5q-19 -5 -25.5 -21
t-7.5 -60q-2 -99 -3 -159t-2.5 -97t-4 -59.5t-7.5 -46.5q-10 -50 -33 -82t-54.5 -51.5t-68 -27t-73.5 -7.5q-211 0 -232 182q-2 15 -3 45t-1.5 67t-0.5 78v77.5v65t-1 41.5q-1 20 -3.5 34t-19.5 20q-8 3 -24 5t-26 4z" />
    <glyph glyph-name="Udieresis" unicode="&#xdc;" horiz-adv-x="663" 
d="M453 704q0 -13 -5 -23t-13 -12q-3 -2 -14 -3t-15 1q-18 7 -18 32q0 11 4 18q5 5 14 9t18 4q8 0 14 -2.5t8 -4.5q4 -4 5.5 -10t1.5 -9zM305 704q0 -13 -5 -23t-13 -12q-3 -2 -14 -3t-15 1q-18 7 -18 32q0 11 4 18q5 5 14 9t18 4q8 0 14 -2.5t8 -4.5q4 -4 5.5 -10t1.5 -9z
M23 601q-2 2 -2 7.5t2 7.5q5 0 16 -0.5t26 -1t32 -1t34 -0.5q32 0 56.5 1.5t40.5 1.5q2 -2 2 -7.5t-2 -7.5q-15 -3 -24 -4.5t-18 -4.5q-13 -5 -17.5 -14.5t-6.5 -41.5q-1 -31 -1.5 -77t-0.5 -93t0.5 -87.5t1.5 -60.5q2 -28 5 -48.5t8 -36.5t11.5 -28t15.5 -22
q26 -32 69.5 -47.5t88.5 -15.5q36 0 68 8.5t56 30t39 60t17 98.5q1 28 2 63.5t1.5 75t0 81t-1.5 82.5q0 24 -3.5 38t-9.5 21.5t-13.5 10.5t-16.5 5q-11 2 -19 3t-23 3q-2 2 -1.5 7.5t2.5 7.5q11 0 36 -1t69 -1q29 0 52.5 1t34.5 1q2 -2 2 -7.5t-2 -7.5q-11 -2 -20 -3.5
t-17 -3.5q-19 -5 -25.5 -21t-7.5 -60q-2 -99 -3 -159t-2.5 -97t-4 -59.5t-7.5 -46.5q-10 -50 -33 -82t-54.5 -51.5t-68 -27t-73.5 -7.5q-211 0 -232 182q-2 15 -3 45t-1.5 67t-0.5 78v77.5v65t-1 41.5q-1 20 -3.5 34t-19.5 20q-8 3 -24 5t-26 4z" />
    <glyph glyph-name="Ugrave" unicode="&#xd9;" horiz-adv-x="663" 
d="M274 769q5 -4 19.5 -19t31 -33t31.5 -35t22 -25q1 -1 -3 -6t-8 -5q-1 0 -11.5 6t-26 15.5t-33 20t-33 20.5t-26.5 17.5t-13 9.5q-1 1 -0.5 4t1.5 4q3 3 9 7t13.5 8t15 7.5t11.5 3.5zM23 601q-2 2 -2 7.5t2 7.5q5 0 16 -0.5t26 -1t32 -1t34 -0.5q32 0 56.5 1.5t40.5 1.5
q2 -2 2 -7.5t-2 -7.5q-15 -3 -24 -4.5t-18 -4.5q-13 -5 -17.5 -14.5t-6.5 -41.5q-1 -31 -1.5 -77t-0.5 -93t0.5 -87.5t1.5 -60.5q2 -28 5 -48.5t8 -36.5t11.5 -28t15.5 -22q26 -32 69.5 -47.5t88.5 -15.5q36 0 68 8.5t56 30t39 60t17 98.5q1 28 2 63.5t1.5 75t0 81
t-1.5 82.5q0 24 -3.5 38t-9.5 21.5t-13.5 10.5t-16.5 5q-11 2 -19 3t-23 3q-2 2 -1.5 7.5t2.5 7.5q11 0 36 -1t69 -1q29 0 52.5 1t34.5 1q2 -2 2 -7.5t-2 -7.5q-11 -2 -20 -3.5t-17 -3.5q-19 -5 -25.5 -21t-7.5 -60q-2 -99 -3 -159t-2.5 -97t-4 -59.5t-7.5 -46.5
q-10 -50 -33 -82t-54.5 -51.5t-68 -27t-73.5 -7.5q-211 0 -232 182q-2 15 -3 45t-1.5 67t-0.5 78v77.5v65t-1 41.5q-1 20 -3.5 34t-19.5 20q-8 3 -24 5t-26 4z" />
    <glyph glyph-name="Ydieresis" unicode="&#x178;" horiz-adv-x="535" 
d="M394 702q0 -13 -5 -23t-13 -12q-3 -2 -14 -3t-15 1q-18 7 -18 32q0 11 4 18q5 5 14 9t18 4q8 0 14 -2.5t8 -4.5q4 -4 5.5 -10t1.5 -9zM246 702q0 -13 -5 -23t-13 -12q-3 -2 -14 -3t-15 1q-18 7 -18 32q0 11 4 18q5 5 14 9t18 4q8 0 14 -2.5t8 -4.5q4 -4 5.5 -10t1.5 -9z
M-13 601q-2 2 -1.5 7.5t2.5 7.5q22 0 51.5 -1.5t67.5 -1.5q10 0 23.5 0.5t25.5 1t22 1t15 0.5q3 -2 3 -7.5t-2 -7.5q-8 -1 -17 -2.5t-15 -3.5q-11 -3 -14 -10.5t6 -25.5q10 -22 29.5 -60t40.5 -77.5t39 -73.5t26 -48h4q13 23 32 56t38 68.5t36 68t26 54.5q8 20 4 31t-27 16
q-10 2 -18.5 3.5t-23.5 3.5q-2 2 -1.5 8t3.5 7q23 -1 49.5 -2t49.5 -1q29 0 50 0.5t51 2.5q2 -2 1.5 -7.5t-1.5 -7.5l-43 -8q-26 -5 -38 -21.5t-24 -36.5q-16 -27 -38.5 -65.5t-44.5 -77.5t-39.5 -71.5t-23.5 -46.5q-2 -5 -4 -15t-2 -15l2 -156q1 -32 7 -49t29 -22
q12 -2 19.5 -3.5t27.5 -3.5q1 -2 0.5 -7t-2.5 -6q-14 0 -49 1.5t-70 1.5q-38 0 -67 -1.5t-52 -1.5q-2 2 -2 6.5t2 6.5q17 2 31.5 4t25.5 4q22 5 27.5 20t6.5 39l2 141q0 11 -1.5 26t-4.5 22q-8 19 -22.5 48.5t-32 62.5t-35 66.5t-32.5 60.5q-16 29 -27 45.5t-19 25.5
t-16 12.5t-18 6.5t-20.5 4t-27.5 3z" />
    <glyph glyph-name="aacute" unicode="&#xe1;" horiz-adv-x="368" 
d="M219 578q4 1 12 2.5t16.5 2t15.5 1t9 -0.5t2.5 -3.5t-0.5 -3.5q-6 -9 -20.5 -29t-32 -42.5t-33.5 -43.5t-24 -31q-2 0 -6 3t-5 5q9 19 18.5 40.5t18.5 41t16.5 35t12.5 23.5zM237 187q0 2 -3 2q-19 -6 -40.5 -13.5t-40.5 -15t-33.5 -14t-19.5 -11.5q-2 -2 -4.5 -12.5
t-2.5 -15.5q0 -30 19 -51t52 -21q11 0 28 4.5t33 14.5q4 2 7 7.5t3 12.5q0 12 0.5 29t1 33.5t0.5 30.5v20zM238 262q0 14 -5 30.5t-13 27.5q-28 39 -81 39q-11 0 -18 -2t-13 -6q-8 -5 -20 -24t-23 -53q-2 -2 -10.5 4.5t-8.5 14.5q0 10 7 26t11 20q15 12 32 22t34 17.5
t31.5 12t24.5 4.5q54 0 85 -48q12 -19 16 -46t4 -51q0 -21 -0.5 -45t-1 -47t-1 -44t-0.5 -34q0 -14 7 -29.5t30 -15.5q14 0 21 1.5t15 4.5q0 -3 -1 -10t-3 -9q-17 -20 -37 -27t-34 -7q-29 0 -43 22q-3 5 -5 14t-3 14q0 2 -1.5 3t-2.5 0q-16 -10 -32.5 -19.5t-32 -17
t-28.5 -12t-21 -4.5q-27 0 -49 22q-14 15 -23 36t-9 46q0 3 1 9t2.5 13.5t3 14t3.5 10.5q10 6 36.5 15.5t56 19t56 19t38.5 15.5q2 1 3.5 4t1.5 4q1 10 0.5 22.5t-0.5 23.5z" />
    <glyph glyph-name="acircumflex" unicode="&#xe2;" horiz-adv-x="368" 
d="M174 539q-6 -11 -14.5 -25t-17.5 -27.5t-16.5 -24t-11.5 -13.5q-4 -4 -11.5 -6.5t-8.5 -2.5q-3 0 -3 3q6 10 17.5 29t24 41t24 43t16.5 34q1 2 7 4.5t9 2.5q4 -13 15 -35t23 -45t23.5 -42.5t16.5 -26.5q-2 -4 -13 -5.5t-14 -0.5q-2 1 -10 12.5t-17.5 26.5t-19 31
t-15.5 27q-2 2 -4 0zM237 187q0 2 -3 2q-19 -6 -40.5 -13.5t-40.5 -15t-33.5 -14t-19.5 -11.5q-2 -2 -4.5 -12.5t-2.5 -15.5q0 -30 19 -51t52 -21q11 0 28 4.5t33 14.5q4 2 7 7.5t3 12.5q0 12 0.5 29t1 33.5t0.5 30.5v20zM238 262q0 14 -5 30.5t-13 27.5q-28 39 -81 39
q-11 0 -18 -2t-13 -6q-8 -5 -20 -24t-23 -53q-2 -2 -10.5 4.5t-8.5 14.5q0 10 7 26t11 20q15 12 32 22t34 17.5t31.5 12t24.5 4.5q54 0 85 -48q12 -19 16 -46t4 -51q0 -21 -0.5 -45t-1 -47t-1 -44t-0.5 -34q0 -14 7 -29.5t30 -15.5q14 0 21 1.5t15 4.5q0 -3 -1 -10t-3 -9
q-17 -20 -37 -27t-34 -7q-29 0 -43 22q-3 5 -5 14t-3 14q0 2 -1.5 3t-2.5 0q-16 -10 -32.5 -19.5t-32 -17t-28.5 -12t-21 -4.5q-27 0 -49 22q-14 15 -23 36t-9 46q0 3 1 9t2.5 13.5t3 14t3.5 10.5q10 6 36.5 15.5t56 19t56 19t38.5 15.5q2 1 3.5 4t1.5 4q1 10 0.5 22.5
t-0.5 23.5z" />
    <glyph glyph-name="adieresis" unicode="&#xe4;" horiz-adv-x="368" 
d="M288 539q0 -13 -5 -23t-13 -12q-3 -2 -14 -3t-15 1q-18 7 -18 32q0 11 4 18q5 5 14 9t18 4q8 0 14 -2.5t8 -4.5q4 -4 5.5 -10t1.5 -9zM144 539q0 -13 -5 -23t-13 -12q-3 -2 -14 -3t-15 1q-18 7 -18 32q0 11 4 18q5 5 14 9t18 4q8 0 14 -2.5t8 -4.5q4 -4 5.5 -10t1.5 -9z
M237 187q0 2 -3 2q-19 -6 -40.5 -13.5t-40.5 -15t-33.5 -14t-19.5 -11.5q-2 -2 -4.5 -12.5t-2.5 -15.5q0 -30 19 -51t52 -21q11 0 28 4.5t33 14.5q4 2 7 7.5t3 12.5q0 12 0.5 29t1 33.5t0.5 30.5v20zM238 262q0 14 -5 30.5t-13 27.5q-28 39 -81 39q-11 0 -18 -2t-13 -6
q-8 -5 -20 -24t-23 -53q-2 -2 -10.5 4.5t-8.5 14.5q0 10 7 26t11 20q15 12 32 22t34 17.5t31.5 12t24.5 4.5q54 0 85 -48q12 -19 16 -46t4 -51q0 -21 -0.5 -45t-1 -47t-1 -44t-0.5 -34q0 -14 7 -29.5t30 -15.5q14 0 21 1.5t15 4.5q0 -3 -1 -10t-3 -9q-17 -20 -37 -27t-34 -7
q-29 0 -43 22q-3 5 -5 14t-3 14q0 2 -1.5 3t-2.5 0q-16 -10 -32.5 -19.5t-32 -17t-28.5 -12t-21 -4.5q-27 0 -49 22q-14 15 -23 36t-9 46q0 3 1 9t2.5 13.5t3 14t3.5 10.5q10 6 36.5 15.5t56 19t56 19t38.5 15.5q2 1 3.5 4t1.5 4q1 10 0.5 22.5t-0.5 23.5z" />
    <glyph glyph-name="agrave" unicode="&#xe0;" horiz-adv-x="368" 
d="M148 598q3 -8 10 -25.5t15.5 -39.5t17 -45t15.5 -42q-1 -2 -6 -4t-7 -1q-8 11 -22 32t-29 44t-28 43t-19 29v2q0 2 1 3q2 1 8.5 2t15 2t16.5 1t12 -1zM237 187q0 2 -3 2q-19 -6 -40.5 -13.5t-40.5 -15t-33.5 -14t-19.5 -11.5q-2 -2 -4.5 -12.5t-2.5 -15.5q0 -30 19 -51
t52 -21q11 0 28 4.5t33 14.5q4 2 7 7.5t3 12.5q0 12 0.5 29t1 33.5t0.5 30.5v20zM238 262q0 14 -5 30.5t-13 27.5q-28 39 -81 39q-11 0 -18 -2t-13 -6q-8 -5 -20 -24t-23 -53q-2 -2 -10.5 4.5t-8.5 14.5q0 10 7 26t11 20q15 12 32 22t34 17.5t31.5 12t24.5 4.5q54 0 85 -48
q12 -19 16 -46t4 -51q0 -21 -0.5 -45t-1 -47t-1 -44t-0.5 -34q0 -14 7 -29.5t30 -15.5q14 0 21 1.5t15 4.5q0 -3 -1 -10t-3 -9q-17 -20 -37 -27t-34 -7q-29 0 -43 22q-3 5 -5 14t-3 14q0 2 -1.5 3t-2.5 0q-16 -10 -32.5 -19.5t-32 -17t-28.5 -12t-21 -4.5q-27 0 -49 22
q-14 15 -23 36t-9 46q0 3 1 9t2.5 13.5t3 14t3.5 10.5q10 6 36.5 15.5t56 19t56 19t38.5 15.5q2 1 3.5 4t1.5 4q1 10 0.5 22.5t-0.5 23.5z" />
    <glyph glyph-name="aring" unicode="&#xe5;" horiz-adv-x="368" 
d="M172 551q-20 0 -30.5 -10.5t-10.5 -27.5t14 -26t31 -9t29 9.5t12 24.5q0 18 -10.5 28.5t-34.5 10.5zM176 579q28 0 43.5 -18.5t15.5 -44.5q0 -31 -17.5 -48.5t-45.5 -17.5q-8 0 -18.5 3.5t-19.5 11t-15.5 19.5t-6.5 29q0 29 18 47.5t46 18.5zM237 187q0 2 -3 2
q-19 -6 -40.5 -13.5t-40.5 -15t-33.5 -14t-19.5 -11.5q-2 -2 -4.5 -12.5t-2.5 -15.5q0 -30 19 -51t52 -21q11 0 28 4.5t33 14.5q4 2 7 7.5t3 12.5q0 12 0.5 29t1 33.5t0.5 30.5v20zM238 262q0 14 -5 30.5t-13 27.5q-28 39 -81 39q-11 0 -18 -2t-13 -6q-8 -5 -20 -24t-23 -53
q-2 -2 -10.5 4.5t-8.5 14.5q0 10 7 26t11 20q15 12 32 22t34 17.5t31.5 12t24.5 4.5q54 0 85 -48q12 -19 16 -46t4 -51q0 -21 -0.5 -45t-1 -47t-1 -44t-0.5 -34q0 -14 7 -29.5t30 -15.5q14 0 21 1.5t15 4.5q0 -3 -1 -10t-3 -9q-17 -20 -37 -27t-34 -7q-29 0 -43 22
q-3 5 -5 14t-3 14q0 2 -1.5 3t-2.5 0q-16 -10 -32.5 -19.5t-32 -17t-28.5 -12t-21 -4.5q-27 0 -49 22q-14 15 -23 36t-9 46q0 3 1 9t2.5 13.5t3 14t3.5 10.5q10 6 36.5 15.5t56 19t56 19t38.5 15.5q2 1 3.5 4t1.5 4q1 10 0.5 22.5t-0.5 23.5z" />
    <glyph glyph-name="atilde" unicode="&#xe3;" horiz-adv-x="368" 
d="M229 527q8 0 22 4.5t34 23.5q2 -2 2 -3q0 -3 -0.5 -7.5t-1.5 -5.5q-4 -7 -13 -15t-20 -15.5t-22.5 -12.5t-20.5 -5q-12 0 -24.5 3t-32.5 9q-8 2 -16.5 4t-16.5 2q-11 0 -24 -5.5t-28 -19.5q-1 -1 -3 1q-1 3 0 8t2 6q3 5 11.5 12.5t19 15t21.5 13t20 5.5q11 0 21.5 -2
t24.5 -6q12 -3 24.5 -6.5t20.5 -3.5zM237 187q0 2 -3 2q-19 -6 -40.5 -13.5t-40.5 -15t-33.5 -14t-19.5 -11.5q-2 -2 -4.5 -12.5t-2.5 -15.5q0 -30 19 -51t52 -21q11 0 28 4.5t33 14.5q4 2 7 7.5t3 12.5q0 12 0.5 29t1 33.5t0.5 30.5v20zM238 262q0 14 -5 30.5t-13 27.5
q-28 39 -81 39q-11 0 -18 -2t-13 -6q-8 -5 -20 -24t-23 -53q-2 -2 -10.5 4.5t-8.5 14.5q0 10 7 26t11 20q15 12 32 22t34 17.5t31.5 12t24.5 4.5q54 0 85 -48q12 -19 16 -46t4 -51q0 -21 -0.5 -45t-1 -47t-1 -44t-0.5 -34q0 -14 7 -29.5t30 -15.5q14 0 21 1.5t15 4.5
q0 -3 -1 -10t-3 -9q-17 -20 -37 -27t-34 -7q-29 0 -43 22q-3 5 -5 14t-3 14q0 2 -1.5 3t-2.5 0q-16 -10 -32.5 -19.5t-32 -17t-28.5 -12t-21 -4.5q-27 0 -49 22q-14 15 -23 36t-9 46q0 3 1 9t2.5 13.5t3 14t3.5 10.5q10 6 36.5 15.5t56 19t56 19t38.5 15.5q2 1 3.5 4t1.5 4
q1 10 0.5 22.5t-0.5 23.5z" />
    <glyph glyph-name="ccedilla" unicode="&#xe7;" horiz-adv-x="371" 
d="M356 65q-32 -37 -65.5 -53.5t-61.5 -21.5l-17 -24q14 -8 23.5 -14.5t17.5 -14.5q20 -18 20 -42q0 -18 -10.5 -33t-25 -25.5t-30 -16.5t-25.5 -6q-16 0 -27.5 7.5t-18.5 18.5q-2 10 3 15q14 -8 29 -11.5t28 -3.5q17 0 27.5 8.5t10.5 21.5t-13.5 28.5t-49.5 31.5v3v4
q7 9 13 18q5 8 11.5 16.5t12.5 16.5h-3q-46 0 -77 17t-54 49q-19 26 -28.5 59.5t-9.5 68.5q0 54 23.5 99t73.5 75q13 7 28.5 14.5t31.5 12.5t31.5 8.5t28.5 3.5q26 0 42 -3.5t30 -9.5q6 -3 16 -9.5t12 -14.5q0 -5 -2 -11q-5 -8 -13 -17t-13 -11t-9 0q-14 14 -39.5 29
t-64.5 15q-30 0 -52 -13t-36.5 -33t-22 -46t-7.5 -51q0 -42 9.5 -75.5t28.5 -54.5q24 -29 51.5 -41t62.5 -12q25 0 55.5 11.5t54.5 37.5q3 0 3 -3t-0.5 -9t-2.5 -9z" />
    <glyph glyph-name="eacute" unicode="&#xe9;" horiz-adv-x="378" 
d="M240 587q4 1 12 2.5t16.5 2t15.5 1t9 -0.5t2.5 -3.5t-0.5 -3.5q-6 -9 -20.5 -29t-32 -42.5t-33.5 -43.5t-24 -31q-2 0 -6 3t-5 5q9 19 18.5 40.5t18.5 41t16.5 35t12.5 23.5zM187 369q-36 0 -63 -31t-32 -92q0 -6 3 -6q11 -1 38.5 -0.5t57.5 1.5t55.5 2.5t34.5 3.5
q2 1 4 3t2 5q-2 18 -9 38t-19.5 37t-30 28t-41.5 11zM349 80q3 0 3 -2q1 -4 0 -9.5t-2 -7.5q-37 -38 -77 -55.5t-73 -17.5q-37 0 -65.5 12.5t-48.5 35.5q-28 32 -39 72.5t-11 78.5q0 62 22 106t62 70q9 6 22.5 12t27.5 10.5t27 7t22 2.5q34 0 57 -15t38 -36t22 -44.5
t10 -40.5q1 -2 3 -4t10 -3q1 -2 -0.5 -7t-3.5 -6q-16 -5 -47.5 -9t-68.5 -7t-75.5 -4.5t-68.5 -2.5q-3 0 -4.5 -3.5t-1.5 -7.5q0 -32 10 -63.5t27 -51.5q23 -29 52 -41t61 -12q29 0 55 8.5t55 34.5z" />
    <glyph glyph-name="ecircumflex" unicode="&#xea;" horiz-adv-x="378" 
d="M204 539q-6 -11 -14.5 -25t-17.5 -27.5t-16.5 -24t-11.5 -13.5q-4 -4 -11.5 -6.5t-8.5 -2.5q-3 0 -3 3q6 10 17.5 29t24 41t24 43t16.5 34q1 2 7 4.5t9 2.5q4 -13 15 -35t23 -45t23.5 -42.5t16.5 -26.5q-2 -4 -13 -5.5t-14 -0.5q-2 1 -10 12.5t-17.5 26.5t-19 31
t-15.5 27q-2 2 -4 0zM187 369q-36 0 -63 -31t-32 -92q0 -6 3 -6q11 -1 38.5 -0.5t57.5 1.5t55.5 2.5t34.5 3.5q2 1 4 3t2 5q-2 18 -9 38t-19.5 37t-30 28t-41.5 11zM349 80q3 0 3 -2q1 -4 0 -9.5t-2 -7.5q-37 -38 -77 -55.5t-73 -17.5q-37 0 -65.5 12.5t-48.5 35.5
q-28 32 -39 72.5t-11 78.5q0 62 22 106t62 70q9 6 22.5 12t27.5 10.5t27 7t22 2.5q34 0 57 -15t38 -36t22 -44.5t10 -40.5q1 -2 3 -4t10 -3q1 -2 -0.5 -7t-3.5 -6q-16 -5 -47.5 -9t-68.5 -7t-75.5 -4.5t-68.5 -2.5q-3 0 -4.5 -3.5t-1.5 -7.5q0 -32 10 -63.5t27 -51.5
q23 -29 52 -41t61 -12q29 0 55 8.5t55 34.5z" />
    <glyph glyph-name="edieresis" unicode="&#xeb;" horiz-adv-x="378" 
d="M318 539q0 -13 -5 -23t-13 -12q-3 -2 -14 -3t-15 1q-18 7 -18 32q0 11 4 18q5 5 14 9t18 4q8 0 14 -2.5t8 -4.5q4 -4 5.5 -10t1.5 -9zM174 539q0 -13 -5 -23t-13 -12q-3 -2 -14 -3t-15 1q-18 7 -18 32q0 11 4 18q5 5 14 9t18 4q8 0 14 -2.5t8 -4.5q4 -4 5.5 -10t1.5 -9z
M187 369q-36 0 -63 -31t-32 -92q0 -6 3 -6q11 -1 38.5 -0.5t57.5 1.5t55.5 2.5t34.5 3.5q2 1 4 3t2 5q-2 18 -9 38t-19.5 37t-30 28t-41.5 11zM349 80q3 0 3 -2q1 -4 0 -9.5t-2 -7.5q-37 -38 -77 -55.5t-73 -17.5q-37 0 -65.5 12.5t-48.5 35.5q-28 32 -39 72.5t-11 78.5
q0 62 22 106t62 70q9 6 22.5 12t27.5 10.5t27 7t22 2.5q34 0 57 -15t38 -36t22 -44.5t10 -40.5q1 -2 3 -4t10 -3q1 -2 -0.5 -7t-3.5 -6q-16 -5 -47.5 -9t-68.5 -7t-75.5 -4.5t-68.5 -2.5q-3 0 -4.5 -3.5t-1.5 -7.5q0 -32 10 -63.5t27 -51.5q23 -29 52 -41t61 -12
q29 0 55 8.5t55 34.5z" />
    <glyph glyph-name="egrave" unicode="&#xe8;" horiz-adv-x="378" 
d="M178 590q3 -8 10 -25.5t15.5 -39.5t17 -45t15.5 -42q-1 -2 -6 -4t-7 -1q-8 11 -22 32t-29 44t-28 43t-19 29v2q0 2 1 3q2 1 8.5 2t15 2t16.5 1t12 -1zM187 369q-36 0 -63 -31t-32 -92q0 -6 3 -6q11 -1 38.5 -0.5t57.5 1.5t55.5 2.5t34.5 3.5q2 1 4 3t2 5q-2 18 -9 38
t-19.5 37t-30 28t-41.5 11zM349 80q3 0 3 -2q1 -4 0 -9.5t-2 -7.5q-37 -38 -77 -55.5t-73 -17.5q-37 0 -65.5 12.5t-48.5 35.5q-28 32 -39 72.5t-11 78.5q0 62 22 106t62 70q9 6 22.5 12t27.5 10.5t27 7t22 2.5q34 0 57 -15t38 -36t22 -44.5t10 -40.5q1 -2 3 -4t10 -3
q1 -2 -0.5 -7t-3.5 -6q-16 -5 -47.5 -9t-68.5 -7t-75.5 -4.5t-68.5 -2.5q-3 0 -4.5 -3.5t-1.5 -7.5q0 -32 10 -63.5t27 -51.5q23 -29 52 -41t61 -12q29 0 55 8.5t55 34.5z" />
    <glyph glyph-name="iacute" unicode="&#xed;" horiz-adv-x="202" 
d="M146 579q4 1 12 2.5t16.5 2t15.5 1t9 -0.5t2.5 -3.5t-0.5 -3.5q-6 -9 -20.5 -29t-32 -42.5t-33.5 -43.5t-24 -31q-2 0 -6 3t-5 5q9 19 18.5 40.5t18.5 41t16.5 35t12.5 23.5zM191 12q0 -2 -0.5 -8t-2.5 -7q-14 0 -39.5 1.5t-46.5 1.5q-29 0 -52.5 -1.5t-34.5 -1.5
q-2 2 -2 7.5t2 7.5q11 2 22 3.5t19 5.5t12 11t6 30q1 9 1.5 28t0.5 42v48v46q0 30 -0.5 53t-0.5 36q0 5 -0.5 8.5t-4.5 9.5q-8 8 -18.5 12t-24.5 7q-2 2 -1.5 7.5t1.5 7.5q23 2 51.5 8.5t54.5 19.5q0 -11 -0.5 -30t-1 -42t-0.5 -48.5v-48.5v-89t1 -84q0 -26 21 -33
q9 -3 15 -4.5t23 -3.5z" />
    <glyph glyph-name="icircumflex" unicode="&#xee;" horiz-adv-x="202" 
d="M91 539q-6 -11 -14.5 -25t-17.5 -27.5t-16.5 -24t-11.5 -13.5q-4 -4 -11.5 -6.5t-8.5 -2.5q-3 0 -3 3q6 10 17.5 29t24 41t24 43t16.5 34q1 2 7 4.5t9 2.5q4 -13 15 -35t23 -45t23.5 -42.5t16.5 -26.5q-2 -4 -13 -5.5t-14 -0.5q-2 1 -10 12.5t-17.5 26.5t-19 31t-15.5 27
q-2 2 -4 0zM191 12q0 -2 -0.5 -8t-2.5 -7q-14 0 -39.5 1.5t-46.5 1.5q-29 0 -52.5 -1.5t-34.5 -1.5q-2 2 -2 7.5t2 7.5q11 2 22 3.5t19 5.5t12 11t6 30q1 9 1.5 28t0.5 42v48v46q0 30 -0.5 53t-0.5 36q0 5 -0.5 8.5t-4.5 9.5q-8 8 -18.5 12t-24.5 7q-2 2 -1.5 7.5t1.5 7.5
q23 2 51.5 8.5t54.5 19.5q0 -11 -0.5 -30t-1 -42t-0.5 -48.5v-48.5v-89t1 -84q0 -26 21 -33q9 -3 15 -4.5t23 -3.5z" />
    <glyph glyph-name="idieresis" unicode="&#xef;" horiz-adv-x="202" 
d="M205 539q0 -13 -5 -23t-13 -12q-3 -2 -14 -3t-15 1q-18 7 -18 32q0 11 4 18q5 5 14 9t18 4q8 0 14 -2.5t8 -4.5q4 -4 5.5 -10t1.5 -9zM61 539q0 -13 -5 -23t-13 -12q-3 -2 -14 -3t-15 1q-18 7 -18 32q0 11 4 18q5 5 14 9t18 4q8 0 14 -2.5t8 -4.5q4 -4 5.5 -10t1.5 -9z
M191 12q0 -2 -0.5 -8t-2.5 -7q-14 0 -39.5 1.5t-46.5 1.5q-29 0 -52.5 -1.5t-34.5 -1.5q-2 2 -2 7.5t2 7.5q11 2 22 3.5t19 5.5t12 11t6 30q1 9 1.5 28t0.5 42v48v46q0 30 -0.5 53t-0.5 36q0 5 -0.5 8.5t-4.5 9.5q-8 8 -18.5 12t-24.5 7q-2 2 -1.5 7.5t1.5 7.5
q23 2 51.5 8.5t54.5 19.5q0 -11 -0.5 -30t-1 -42t-0.5 -48.5v-48.5v-89t1 -84q0 -26 21 -33q9 -3 15 -4.5t23 -3.5z" />
    <glyph glyph-name="igrave" unicode="&#xec;" horiz-adv-x="202" 
d="M65 590q3 -8 10 -25.5t15.5 -39.5t17 -45t15.5 -42q-1 -2 -6 -4t-7 -1q-8 11 -22 32t-29 44t-28 43t-19 29v2q0 2 1 3q2 1 8.5 2t15 2t16.5 1t12 -1zM191 12q0 -2 -0.5 -8t-2.5 -7q-14 0 -39.5 1.5t-46.5 1.5q-29 0 -52.5 -1.5t-34.5 -1.5q-2 2 -2 7.5t2 7.5q11 2 22 3.5
t19 5.5t12 11t6 30q1 9 1.5 28t0.5 42v48v46q0 30 -0.5 53t-0.5 36q0 5 -0.5 8.5t-4.5 9.5q-8 8 -18.5 12t-24.5 7q-2 2 -1.5 7.5t1.5 7.5q23 2 51.5 8.5t54.5 19.5q0 -11 -0.5 -30t-1 -42t-0.5 -48.5v-48.5v-89t1 -84q0 -26 21 -33q9 -3 15 -4.5t23 -3.5z" />
    <glyph glyph-name="ntilde" unicode="&#xf1;" horiz-adv-x="458" 
d="M284 527q8 0 22 4.5t34 23.5q2 -2 2 -3q0 -3 -0.5 -7.5t-1.5 -5.5q-4 -7 -13 -15t-20 -15.5t-22.5 -12.5t-20.5 -5q-12 0 -24.5 3t-32.5 9q-8 2 -16.5 4t-16.5 2q-11 0 -24 -5.5t-28 -19.5q-1 -1 -3 1q-1 3 0 8t2 6q3 5 11.5 12.5t19 15t21.5 13t20 5.5q11 0 21.5 -2
t24.5 -6q12 -3 24.5 -6.5t20.5 -3.5zM18 12q11 2 20 3.5t17 4.5q11 5 14.5 16t4.5 23q2 28 2 72.5v95.5q0 43 -1 64t-2 26q-2 10 -10.5 15t-37.5 13q-1 2 0 7t3 6q25 4 55.5 15t48.5 22q3 0 3 -4q-2 -16 -2.5 -31t-1.5 -28q0 -2 1 -4t3 0q49 38 83.5 52.5t57.5 14.5
q29 0 50.5 -13.5t36.5 -36.5q14 -21 19 -49.5t5 -65.5v-45t0.5 -50t0.5 -48.5v-39.5q0 -11 3 -17t12 -9q11 -4 21 -5.5t22 -3.5q2 -2 1 -7.5t-3 -7.5q-11 0 -30 1.5t-54 1.5t-57.5 -1t-35.5 -2q-2 2 -2 7.5t2 7.5q31 3 42 7q12 4 16 11.5t5 17.5q1 17 1 47.5v62t-1 59.5
t-2 40q-2 12 -7.5 33t-20.5 35q-11 11 -26 18.5t-41 7.5q-52 0 -91 -39q-6 -6 -8.5 -14.5t-2.5 -28.5v-59.5v-56.5t0.5 -50.5t1.5 -39.5q1 -21 4.5 -29t11.5 -12q7 -3 20.5 -5t25.5 -4q1 -2 1 -8t-2 -8q-8 0 -28.5 1.5t-61.5 1.5t-58.5 -1.5t-27.5 -1.5q-2 2 -2 7.5t2 7.5z
" />
    <glyph glyph-name="oacute" unicode="&#xf3;" horiz-adv-x="455" 
d="M264 579q4 1 12 2.5t16.5 2t15.5 1t9 -0.5t2.5 -3.5t-0.5 -3.5q-6 -9 -20.5 -29t-32 -42.5t-33.5 -43.5t-24 -31q-2 0 -6 3t-5 5q9 19 18.5 40.5t18.5 41t16.5 35t12.5 23.5zM208 367q-12 0 -28.5 -4t-26.5 -12q-19 -12 -37 -43t-18 -90q0 -42 11 -78.5t31 -63.5
t47.5 -42.5t61.5 -15.5q16 0 35.5 5.5t33.5 19.5q24 24 32 54.5t8 72.5t-10 78t-29 62.5t-47 41.5t-64 15zM244 395q42 0 75 -15t55 -41.5t33.5 -61.5t11.5 -75q0 -52 -22.5 -100.5t-68.5 -77.5q-19 -13 -47.5 -24.5t-58.5 -11.5q-53 0 -88 19t-57 49t-31 66.5t-9 72.5
q0 57 23 96t61 65q26 17 58 28t65 11z" />
    <glyph glyph-name="ocircumflex" unicode="&#xf4;" horiz-adv-x="455" 
d="M219 539q-6 -11 -14.5 -25t-17.5 -27.5t-16.5 -24t-11.5 -13.5q-4 -4 -11.5 -6.5t-8.5 -2.5q-3 0 -3 3q6 10 17.5 29t24 41t24 43t16.5 34q1 2 7 4.5t9 2.5q4 -13 15 -35t23 -45t23.5 -42.5t16.5 -26.5q-2 -4 -13 -5.5t-14 -0.5q-2 1 -10 12.5t-17.5 26.5t-19 31
t-15.5 27q-2 2 -4 0zM208 367q-12 0 -28.5 -4t-26.5 -12q-19 -12 -37 -43t-18 -90q0 -42 11 -78.5t31 -63.5t47.5 -42.5t61.5 -15.5q16 0 35.5 5.5t33.5 19.5q24 24 32 54.5t8 72.5t-10 78t-29 62.5t-47 41.5t-64 15zM244 395q42 0 75 -15t55 -41.5t33.5 -61.5t11.5 -75
q0 -52 -22.5 -100.5t-68.5 -77.5q-19 -13 -47.5 -24.5t-58.5 -11.5q-53 0 -88 19t-57 49t-31 66.5t-9 72.5q0 57 23 96t61 65q26 17 58 28t65 11z" />
    <glyph glyph-name="odieresis" unicode="&#xf6;" horiz-adv-x="455" 
d="M333 539q0 -13 -5 -23t-13 -12q-3 -2 -14 -3t-15 1q-18 7 -18 32q0 11 4 18q5 5 14 9t18 4q8 0 14 -2.5t8 -4.5q4 -4 5.5 -10t1.5 -9zM189 539q0 -13 -5 -23t-13 -12q-3 -2 -14 -3t-15 1q-18 7 -18 32q0 11 4 18q5 5 14 9t18 4q8 0 14 -2.5t8 -4.5q4 -4 5.5 -10t1.5 -9z
M208 367q-12 0 -28.5 -4t-26.5 -12q-19 -12 -37 -43t-18 -90q0 -42 11 -78.5t31 -63.5t47.5 -42.5t61.5 -15.5q16 0 35.5 5.5t33.5 19.5q24 24 32 54.5t8 72.5t-10 78t-29 62.5t-47 41.5t-64 15zM244 395q42 0 75 -15t55 -41.5t33.5 -61.5t11.5 -75q0 -52 -22.5 -100.5
t-68.5 -77.5q-19 -13 -47.5 -24.5t-58.5 -11.5q-53 0 -88 19t-57 49t-31 66.5t-9 72.5q0 57 23 96t61 65q26 17 58 28t65 11z" />
    <glyph glyph-name="ograve" unicode="&#xf2;" horiz-adv-x="455" 
d="M193 590q3 -8 10 -25.5t15.5 -39.5t17 -45t15.5 -42q-1 -2 -6 -4t-7 -1q-8 11 -22 32t-29 44t-28 43t-19 29v2q0 2 1 3q2 1 8.5 2t15 2t16.5 1t12 -1zM208 367q-12 0 -28.5 -4t-26.5 -12q-19 -12 -37 -43t-18 -90q0 -42 11 -78.5t31 -63.5t47.5 -42.5t61.5 -15.5
q16 0 35.5 5.5t33.5 19.5q24 24 32 54.5t8 72.5t-10 78t-29 62.5t-47 41.5t-64 15zM244 395q42 0 75 -15t55 -41.5t33.5 -61.5t11.5 -75q0 -52 -22.5 -100.5t-68.5 -77.5q-19 -13 -47.5 -24.5t-58.5 -11.5q-53 0 -88 19t-57 49t-31 66.5t-9 72.5q0 57 23 96t61 65
q26 17 58 28t65 11z" />
    <glyph glyph-name="otilde" unicode="&#xf5;" horiz-adv-x="455" 
d="M284 527q8 0 22 4.5t34 23.5q2 -2 2 -3q0 -3 -0.5 -7.5t-1.5 -5.5q-4 -7 -13 -15t-20 -15.5t-22.5 -12.5t-20.5 -5q-12 0 -24.5 3t-32.5 9q-8 2 -16.5 4t-16.5 2q-11 0 -24 -5.5t-28 -19.5q-1 -1 -3 1q-1 3 0 8t2 6q3 5 11.5 12.5t19 15t21.5 13t20 5.5q11 0 21.5 -2
t24.5 -6q12 -3 24.5 -6.5t20.5 -3.5zM208 367q-12 0 -28.5 -4t-26.5 -12q-19 -12 -37 -43t-18 -90q0 -42 11 -78.5t31 -63.5t47.5 -42.5t61.5 -15.5q16 0 35.5 5.5t33.5 19.5q24 24 32 54.5t8 72.5t-10 78t-29 62.5t-47 41.5t-64 15zM244 395q42 0 75 -15t55 -41.5
t33.5 -61.5t11.5 -75q0 -52 -22.5 -100.5t-68.5 -77.5q-19 -13 -47.5 -24.5t-58.5 -11.5q-53 0 -88 19t-57 49t-31 66.5t-9 72.5q0 57 23 96t61 65q26 17 58 28t65 11z" />
    <glyph glyph-name="uacute" unicode="&#xfa;" horiz-adv-x="446" 
d="M258 579q4 1 12 2.5t16.5 2t15.5 1t9 -0.5t2.5 -3.5t-0.5 -3.5q-6 -9 -20.5 -29t-32 -42.5t-33.5 -43.5t-24 -31q-2 0 -6 3t-5 5q9 19 18.5 40.5t18.5 41t16.5 35t12.5 23.5zM8 360q-1 2 0 8t3 7q14 0 31.5 1.5t34.5 4t31 5t21 5.5q-1 -6 -2 -14t-1.5 -27.5t-1 -55.5
t-0.5 -97q0 -26 1 -55.5t5 -44.5q6 -25 25 -45t62 -20q31 0 50.5 9.5t36.5 23.5q12 9 14 31q0 7 0.5 37t0 66.5t-1 71t-1.5 51.5q-1 8 -4 16.5t-16 12.5q-10 3 -27 4.5t-39 3.5q-2 2 -1 8.5t3 7.5q17 0 38.5 1.5t42.5 4t38 5t26 5.5q-2 -14 -3 -42t-1 -62l1 -201
q0 -36 6.5 -44t24.5 -8q11 0 16 0.5t13 2.5q1 -2 1 -8.5t-2 -8.5q-13 -3 -29 -8t-31 -10t-28.5 -10.5t-22.5 -9.5q-2 -1 -4 1.5t-2 6.5q0 10 0.5 27.5t0.5 29.5q0 2 -2 3.5t-4 -0.5q-44 -37 -76 -49.5t-53 -12.5q-37 0 -59.5 12t-34.5 31.5t-16 43.5t-4 49v44v53.5v53
t-1 42.5q-1 12 -3 21t-10 13q-6 3 -19 5t-27 4z" />
    <glyph glyph-name="ucircumflex" unicode="&#xfb;" horiz-adv-x="446" 
d="M213 539q-6 -11 -14.5 -25t-17.5 -27.5t-16.5 -24t-11.5 -13.5q-4 -4 -11.5 -6.5t-8.5 -2.5q-3 0 -3 3q6 10 17.5 29t24 41t24 43t16.5 34q1 2 7 4.5t9 2.5q4 -13 15 -35t23 -45t23.5 -42.5t16.5 -26.5q-2 -4 -13 -5.5t-14 -0.5q-2 1 -10 12.5t-17.5 26.5t-19 31
t-15.5 27q-2 2 -4 0zM8 360q-1 2 0 8t3 7q14 0 31.5 1.5t34.5 4t31 5t21 5.5q-1 -6 -2 -14t-1.5 -27.5t-1 -55.5t-0.5 -97q0 -26 1 -55.5t5 -44.5q6 -25 25 -45t62 -20q31 0 50.5 9.5t36.5 23.5q12 9 14 31q0 7 0.5 37t0 66.5t-1 71t-1.5 51.5q-1 8 -4 16.5t-16 12.5
q-10 3 -27 4.5t-39 3.5q-2 2 -1 8.5t3 7.5q17 0 38.5 1.5t42.5 4t38 5t26 5.5q-2 -14 -3 -42t-1 -62l1 -201q0 -36 6.5 -44t24.5 -8q11 0 16 0.5t13 2.5q1 -2 1 -8.5t-2 -8.5q-13 -3 -29 -8t-31 -10t-28.5 -10.5t-22.5 -9.5q-2 -1 -4 1.5t-2 6.5q0 10 0.5 27.5t0.5 29.5
q0 2 -2 3.5t-4 -0.5q-44 -37 -76 -49.5t-53 -12.5q-37 0 -59.5 12t-34.5 31.5t-16 43.5t-4 49v44v53.5v53t-1 42.5q-1 12 -3 21t-10 13q-6 3 -19 5t-27 4z" />
    <glyph glyph-name="udieresis" unicode="&#xfc;" horiz-adv-x="446" 
d="M316 539q0 -13 -5 -23t-13 -12q-3 -2 -14 -3t-15 1q-18 7 -18 32q0 11 4 18q5 5 14 9t18 4q8 0 14 -2.5t8 -4.5q4 -4 5.5 -10t1.5 -9zM172 539q0 -13 -5 -23t-13 -12q-3 -2 -14 -3t-15 1q-18 7 -18 32q0 11 4 18q5 5 14 9t18 4q8 0 14 -2.5t8 -4.5q4 -4 5.5 -10t1.5 -9z
M8 360q-1 2 0 8t3 7q14 0 31.5 1.5t34.5 4t31 5t21 5.5q-1 -6 -2 -14t-1.5 -27.5t-1 -55.5t-0.5 -97q0 -26 1 -55.5t5 -44.5q6 -25 25 -45t62 -20q31 0 50.5 9.5t36.5 23.5q12 9 14 31q0 7 0.5 37t0 66.5t-1 71t-1.5 51.5q-1 8 -4 16.5t-16 12.5q-10 3 -27 4.5t-39 3.5
q-2 2 -1 8.5t3 7.5q17 0 38.5 1.5t42.5 4t38 5t26 5.5q-2 -14 -3 -42t-1 -62l1 -201q0 -36 6.5 -44t24.5 -8q11 0 16 0.5t13 2.5q1 -2 1 -8.5t-2 -8.5q-13 -3 -29 -8t-31 -10t-28.5 -10.5t-22.5 -9.5q-2 -1 -4 1.5t-2 6.5q0 10 0.5 27.5t0.5 29.5q0 2 -2 3.5t-4 -0.5
q-44 -37 -76 -49.5t-53 -12.5q-37 0 -59.5 12t-34.5 31.5t-16 43.5t-4 49v44v53.5v53t-1 42.5q-1 12 -3 21t-10 13q-6 3 -19 5t-27 4z" />
    <glyph glyph-name="ugrave" unicode="&#xf9;" horiz-adv-x="446" 
d="M177 590q3 -8 10 -25.5t15.5 -39.5t17 -45t15.5 -42q-1 -2 -6 -4t-7 -1q-8 11 -22 32t-29 44t-28 43t-19 29v2q0 2 1 3q2 1 8.5 2t15 2t16.5 1t12 -1zM8 360q-1 2 0 8t3 7q14 0 31.5 1.5t34.5 4t31 5t21 5.5q-1 -6 -2 -14t-1.5 -27.5t-1 -55.5t-0.5 -97q0 -26 1 -55.5
t5 -44.5q6 -25 25 -45t62 -20q31 0 50.5 9.5t36.5 23.5q12 9 14 31q0 7 0.5 37t0 66.5t-1 71t-1.5 51.5q-1 8 -4 16.5t-16 12.5q-10 3 -27 4.5t-39 3.5q-2 2 -1 8.5t3 7.5q17 0 38.5 1.5t42.5 4t38 5t26 5.5q-2 -14 -3 -42t-1 -62l1 -201q0 -36 6.5 -44t24.5 -8q11 0 16 0.5
t13 2.5q1 -2 1 -8.5t-2 -8.5q-13 -3 -29 -8t-31 -10t-28.5 -10.5t-22.5 -9.5q-2 -1 -4 1.5t-2 6.5q0 10 0.5 27.5t0.5 29.5q0 2 -2 3.5t-4 -0.5q-44 -37 -76 -49.5t-53 -12.5q-37 0 -59.5 12t-34.5 31.5t-16 43.5t-4 49v44v53.5v53t-1 42.5q-1 12 -3 21t-10 13q-6 3 -19 5
t-27 4z" />
    <glyph glyph-name="ydieresis" unicode="&#xff;" horiz-adv-x="384" 
d="M316 539q0 -13 -5 -23t-13 -12q-3 -2 -14 -3t-15 1q-18 7 -18 32q0 11 4 18q5 5 14 9t18 4q8 0 14 -2.5t8 -4.5q4 -4 5.5 -10t1.5 -9zM172 539q0 -13 -5 -23t-13 -12q-3 -2 -14 -3t-15 1q-18 7 -18 32q0 11 4 18q5 5 14 9t18 4q8 0 14 -2.5t8 -4.5q4 -4 5.5 -10t1.5 -9z
M-11 369q-2 2 -1 8t3 7q13 0 29 -1.5t53 -1.5q27 0 52 1.5t30 1.5q2 -2 2.5 -7.5t-1.5 -7.5q-11 -2 -19 -4t-15 -4q-10 -4 -7 -14q2 -9 10 -32t19 -53t23 -62t22.5 -59t17.5 -45.5t8 -19.5h2q13 29 27.5 64t27.5 70t22.5 67t13.5 55q2 8 -0.5 16.5t-19.5 13.5
q-6 2 -15.5 3.5t-21.5 3.5q-2 2 -1 7.5t3 7.5q7 0 31.5 -1.5t47.5 -1.5q25 0 39.5 1t34.5 2q2 -2 2 -7.5t-2 -7.5q-20 -3 -28 -6q-12 -3 -20.5 -10.5t-15.5 -25.5q-27 -75 -54 -143.5t-56.5 -134.5t-62 -131t-70.5 -134q-8 -14 -18.5 -30t-15.5 -26l-5 -2q-9 2 -19.5 9.5
t-15.5 13.5q0 2 -1 4.5t0 4.5q13 17 33 44.5t42.5 60.5t44 69.5t37.5 71.5q1 -1 -2 6t-4 9q-7 20 -19 52.5t-25.5 69t-27.5 73t-26 65.5q-17 43 -26.5 60t-25.5 22q-7 2 -14.5 4t-21.5 4z" />
    <glyph glyph-name="uni2264" unicode="&#x2264;" horiz-adv-x="460" 
d="M40 -9q-1 0 -1.5 3t-0.5 5l10 36q6 -2 32.5 -2h64.5h280q2 0 2 -5q0 -2 -1.5 -7.5t-3.5 -11.5t-4.5 -11t-4.5 -5zM384 392q-5 -4 -21.5 -13.5t-40.5 -22.5t-51.5 -27.5t-54 -27.5t-49 -24.5t-34.5 -17.5q-2 -1 -2 -3.5t1 -2.5q7 -4 28 -14t49 -24t59.5 -29.5t59.5 -29.5
t48 -25.5t25 -16.5q2 -2 -3.5 -14.5t-13.5 -20.5q-2 -4 -7 -2q-9 6 -31 18.5t-52.5 28.5t-65.5 34t-69 34t-63.5 29.5t-49.5 21.5q0 2 4 11.5t6 11.5l52.5 25t66.5 32.5t70.5 35.5t65.5 34t52 28t29 18q4 0 4 -3q0 -2 -1.5 -8.5t-3 -14t-4 -14t-3.5 -7.5z" />
    <glyph glyph-name="uni2265" unicode="&#x2265;" horiz-adv-x="460" 
d="M40 -9q-1 0 -1.5 3t-0.5 5l10 36q6 -2 32.5 -2h64.5h280q2 0 2 -5q0 -2 -1.5 -7.5t-3.5 -11.5t-4.5 -11t-4.5 -5zM71 123q4 4 21 13.5t41 22.5t51.5 27.5t54 27.5t48.5 24.5t35 17.5q2 1 2 3.5t-1 2.5q-7 4 -28 14t-49 24t-59.5 29.5t-59.5 29.5t-48 25.5t-25 16.5
q-2 2 3.5 14.5t13.5 20.5q2 4 7 2q8 -6 30.5 -18.5t53 -28.5t65.5 -34t69 -34t64 -30t49 -21q0 -2 -4 -11.5t-6 -11.5q-22 -10 -53 -25t-66 -32.5t-70.5 -35.5t-65.5 -34t-52 -28.5t-29 -17.5q-4 0 -4 3q0 1 1.5 7.5t3 14t3.5 14t4 8.5z" />
    <glyph glyph-name="uni2248" unicode="&#x2248;" horiz-adv-x="618" 
d="M222 220q23 0 49 -8t64 -25q25 -11 47.5 -19t36.5 -8q26 0 62 15t72 52q1 1 5 -1t6 -6q0 -5 -3 -20.5t-5 -19.5q-8 -14 -24.5 -29.5t-37.5 -29t-46 -22.5t-50 -9q-26 0 -53.5 11.5t-62.5 25.5q-26 11 -48 18t-45 7q-16 0 -36 -8t-39 -19.5t-35 -23.5t-24 -20q-2 -1 -5 1
t-4 5q0 3 1.5 10t3.5 15t4.5 14t3.5 8q11 13 31 28t43 28t47 21.5t42 8.5zM231 418q23 0 48 -9t63 -25q25 -11 46.5 -19.5t42.5 -8.5q26 0 61 16.5t71 53.5q1 1 6 -1.5t5 -5.5q0 -4 0.5 -14.5t-9.5 -26.5q-8 -14 -24.5 -30t-38 -30t-48 -23.5t-54.5 -9.5q-23 0 -50 11
t-62 28q-26 12 -47 18t-44 6q-16 0 -36 -8t-39 -19t-34.5 -22.5t-23.5 -19.5q-2 -1 -5 1.5t-4 4.5q0 3 1.5 10t3.5 15t4.5 14t3.5 8q11 13 31 28t43 28t47 21.5t42 8.5z" />
    <glyph glyph-name="uni2260" unicode="&#x2260;" horiz-adv-x="460" 
d="M39 124q-2 0 -2.5 3t-0.5 5q1 5 4.5 17t5.5 17q6 -2 32.5 -2h64.5h45l57 114l-206 -1q-2 2 -2.5 4.5t-0.5 3.5q1 5 4.5 17t5.5 17q6 -2 32.5 -2h64.5h122l40 79q2 1 7.5 1.5t10.5 1.5q6 1 14 1q2 0 3 -1.5t0 -2.5l-40 -79h121l3 -5q0 -1 -2 -6t-4 -11t-5 -11t-5 -5h-128
l-57 -115h200q2 0 2 -6q0 -4 -5.5 -17.5t-8.5 -14.5l-208 -1l-50 -96l-4 -1q-4 0 -13.5 5.5t-9.5 6.5l4 7.5t10 19.5l13.5 27l15.5 31z" />
    <glyph glyph-name="uni221E" unicode="&#x221e;" horiz-adv-x="638" 
d="M468 301q-20 0 -37 -8.5t-32 -21t-28 -26.5t-23 -26q-2 -2 0 -6q40 -52 72.5 -78.5t69.5 -26.5q29 0 47.5 20t18.5 60q0 52 -26.5 82.5t-61.5 30.5zM149 301q-37 0 -52.5 -26.5t-15.5 -59.5q0 -46 28.5 -77.5t71.5 -31.5q30 0 56 20t65 65q2 2 0 6q-45 54 -81 79t-72 25z
M184 334q38 0 72 -26t77 -77q45 54 81 79.5t68 25.5q22 0 42 -8.5t35.5 -24.5t24.5 -39t9 -52q0 -23 -11.5 -48t-30 -45.5t-42 -34t-48.5 -13.5q-20 0 -37.5 7.5t-34.5 21t-35 33.5t-40 45q-27 -31 -47 -52t-37 -34t-34 -19t-37 -6q-18 0 -38.5 8t-37 24t-27.5 40t-11 56
q0 22 10 47t28.5 45t44 33.5t56.5 13.5z" />
    <glyph glyph-name="uni25CA" unicode="&#x25ca;" horiz-adv-x="487" 
d="M104 307q-4 -8 -1 -16q16 -29 34.5 -62.5t38.5 -69t39.5 -72t37.5 -71.5q2 0 2.5 -0.5t2.5 -0.5q29 59 62 121t66 126q3 9 0 14q-14 28 -35.5 66.5t-43.5 78t-41.5 75.5t-29.5 58h-4q-15 -31 -32.5 -65.5t-34.5 -67.5t-33 -63t-28 -51zM258 624q6 -17 20.5 -46t32.5 -64
t38 -72t38 -69t31.5 -55.5t18.5 -30.5q-10 -16 -25 -42.5t-32.5 -58.5t-35.5 -66.5t-34 -66t-29 -57.5t-21 -41q-3 -2 -13 -6t-14 -4q-77 151 -126 237t-57 97q18 26 43.5 71t51.5 94t49.5 96l38.5 77q7 3 12 4t13 3z" />
    <glyph glyph-name="uni222B" unicode="&#x222b;" horiz-adv-x="307" 
d="M273 685q29 0 46 -18q0 -3 -2.5 -11t-6 -16.5t-7 -16t-6.5 -10.5q-11 8 -28.5 14t-32.5 6q-36 0 -57.5 -43t-16.5 -124q4 -116 16 -228t14 -229q1 -43 -12.5 -84t-37.5 -70q-22 -26 -51 -42t-51 -16q-12 0 -28.5 5.5t-30.5 19.5q0 3 2.5 13t7 20.5t8.5 19t7 10.5
q3 -4 12 -9.5t20 -11t23 -9.5t22 -4q13 0 26 5t22 19t13.5 38.5t1.5 64.5q-3 58 -8 110.5t-9.5 104t-8.5 103.5t-5 110q-1 60 14 115t38 88q23 34 53.5 55t52.5 21z" />
    <glyph glyph-name="uni2202" unicode="&#x2202;" horiz-adv-x="464" 
d="M109 173q0 -30 9 -57t25.5 -47t40.5 -32t54 -12q31 0 52 18.5t34 48.5t18.5 69t5.5 80q0 9 -7 22.5t-18 22.5q-41 34 -102 34q-51 0 -81.5 -40.5t-30.5 -106.5zM406 323q0 -64 -8.5 -122t-34.5 -102q-13 -23 -31.5 -43t-40.5 -34.5t-46.5 -23t-49.5 -8.5q-31 0 -57 12
t-45 33t-29.5 50.5t-10.5 65.5q0 34 10 64t36 59q9 11 26.5 24.5t39 25t44.5 19.5t43 8q35 0 57.5 -7t36.5 -15q2 -2 3.5 0.5t1.5 3.5q-2 64 -17 117t-41.5 90.5t-63 58.5t-81.5 21q-26 0 -55 -10t-52 -25q-2 2 -1.5 9t2.5 9q32 27 73.5 42t79.5 15q41 0 72.5 -16t55 -43
t39.5 -62t26 -72.5t14 -75t4 -68.5z" />
    <glyph glyph-name="uni220F" unicode="&#x220f;" horiz-adv-x="628" 
d="M495 613q30 0 60.5 1.5t43.5 1.5q1 -2 1 -7.5t-2 -7.5q-14 -3 -25 -4.5t-22 -4.5q-17 -5 -21.5 -16.5t-5.5 -40.5q-1 -21 -2 -81t-1 -146v-52.5t0.5 -64t0.5 -67t0.5 -62.5t1.5 -50t2 -29q2 -20 7 -31.5t20 -17.5q9 -3 23 -5.5t32 -4.5q0 -3 -0.5 -8t-3.5 -7
q-15 0 -27.5 0.5t-25 0.5t-25.5 0.5t-30 0.5q-35 0 -61.5 -0.5t-45.5 -1.5q-2 2 -2 7.5t2 7.5q14 2 28 3.5t22 6.5q12 6 16.5 18t5.5 29q0 5 0.5 33t0.5 70.5v95.5v107v95v86t-0.5 66t-0.5 35q-1 13 -4.5 15t-10.5 3q-9 1 -24.5 1h-34h-39.5h-41h-82t-41 -2q-13 -2 -13 -13
q0 -9 -0.5 -36t-1 -65.5t-1 -85t-0.5 -93.5v-103v-88.5t0.5 -67t1.5 -38.5q2 -26 5 -41t21 -21q11 -3 20 -5t34 -5q2 -2 0.5 -7.5t-3.5 -7.5q-35 1 -58 2t-51 1q-14 0 -31.5 -0.5t-34 -1t-31 -1t-23.5 -0.5q-2 2 -2 7.5t2 7.5q16 2 32 4.5t25 5.5q22 8 26 25.5t6 51.5
q0 14 0.5 52t0.5 85v94.5v79.5v74t-0.5 70t-1 54.5t-0.5 27.5q-2 19 -5.5 28t-14.5 14q-10 5 -27.5 7t-33.5 4q-2 3 -2 8t2 7q8 0 22.5 -0.5t31 -1l33 -1t28.5 -0.5h355z" />
    <glyph glyph-name="uni221A" unicode="&#x221a;" horiz-adv-x="508" 
d="M44 221q40 20 74.5 41t54.5 35q5 3 10.5 -1.5t8.5 -11.5q5 -10 15 -33.5t23 -55t27.5 -67t27.5 -69t24 -61.5t18 -44q4 -2 6 1q17 86 38 194t42.5 219.5t41.5 217.5t35 190q2 3 13 10t16 9h4.5t2.5 -2q-12 -56 -29 -141t-36.5 -182t-39.5 -197.5t-37.5 -187.5t-30 -152
t-16.5 -92q0 -1 -6 -7.5t-7 -6.5q-3 0 -4 1q-17 42 -41 101t-48.5 118t-46.5 108t-34 71q-3 5 -9.5 6.5t-8.5 0.5q-17 -4 -41 -13.5t-44 -16.5q-2 2 -3.5 9t0.5 9z" />
    <glyph glyph-name="uni2211" unicode="&#x2211;" horiz-adv-x="498" 
d="M356 612q32 0 54 0.5t33 3.5q-6 -19 -12 -48t-9 -73q-2 -3 -8 -3t-7 2q-2 22 -4.5 34.5t-5.5 24.5t-7.5 18t-10.5 9t-14.5 4t-20.5 2q-8 0 -26.5 0.5t-42.5 1t-50.5 0.5h-48.5h-37t-16 -1q-1 0 -1 -2v-3q2 -6 14 -25.5t29 -47t37.5 -59.5t40 -62.5t36.5 -56l27 -40.5
q1 -1 0.5 -4t-1.5 -5q-10 -12 -27 -35.5t-38.5 -52.5t-44 -60.5t-42 -59.5t-33.5 -49t-19 -29q-2 -2 -1 -4.5t3 -2.5q3 -1 18 -2t43.5 -2t72 -1.5t104.5 -0.5q23 0 38.5 0.5t26 4t17.5 10.5t14 20q4 7 9.5 18t16.5 36q2 1 7 -1.5t7 -4.5q-3 -13 -8.5 -32.5t-12 -39
t-13 -36.5t-12.5 -25q-5 -7 -35 -7q-72 0 -143.5 2t-145.5 2h-46.5t-34.5 -2q-1 0 -2 2.5t-1 4.5q2 8 7 17t9 16q14 14 33 38t40.5 52.5t43.5 58t40.5 56t32 47t18.5 29.5q1 1 0 6q-6 12 -21 38t-35 59.5t-43 71t-45 72t-41 63.5t-31 45q-1 2 0.5 5.5t3.5 5.5q10 0 18 -0.5
t19.5 -1t29 -0.5h46.5z" />
    <glyph glyph-name="uni2206" unicode="&#x2206;" horiz-adv-x="615" 
d="M285 532q-10 -28 -26 -69t-35 -88t-39 -96.5t-37.5 -92.5t-31 -77t-20.5 -51q-3 -7 5 -9q13 -2 44 -3.5t68 -2t73.5 -0.5h62.5h41h41.5t33.5 0.5t18 1.5q3 0 3.5 3t-0.5 5q-5 13 -20 49.5t-35 84.5t-42.5 102.5t-43 103.5t-35.5 86.5l-21 52.5q-2 2 -4 0zM287 614
q2 0 7.5 -0.5t13.5 -0.5q7 0 12 0.5t7 0.5q2 -7 6.5 -21t12.5 -34q18 -43 42 -100.5t50.5 -121t54 -128t52.5 -120.5q11 -23 19.5 -40t18.5 -34q-1 -4 -5 -10.5t-8 -8.5q-27 0 -45.5 0.5t-44 1.5t-67 1.5t-113.5 0.5h-115t-67.5 -0.5t-42.5 -1.5t-39 -2l-5 16q9 14 28.5 55
t43.5 95.5t50 116t49.5 118t41.5 101t25 63.5l8 22q3 9 5.5 17.5t4.5 13.5z" />
    <glyph glyph-name="Omega" unicode="&#x2126;" horiz-adv-x="754" 
d="M49 127q2 -23 5 -37t8.5 -21.5t14.5 -10.5t24 -3q12 0 33 -0.5t43.5 -0.5t41.5 0.5t28 1.5q4 2 1 5q-32 21 -60.5 49t-50.5 63.5t-35 77t-13 89.5q0 85 33 144t90 97q39 26 83 38t95 12q66 0 118.5 -23.5t89 -62t56 -88.5t19.5 -103q0 -51 -14 -94t-38 -79t-55 -65.5
t-65 -53.5q-2 -2 0 -4q13 -2 33.5 -2.5t43 -1t44 -0.5h36.5q11 0 19.5 3t17 10.5t17 21.5t19.5 36q2 1 7 -0.5t6 -4.5q-3 -12 -9.5 -31.5t-15 -38.5t-16.5 -34t-12 -19q-45 0 -87 1.5t-86 1.5h-48t-36 -2q-1 2 0 8t2.5 13t3.5 12.5t4 7.5q33 24 61.5 52.5t50.5 63t34.5 77
t12.5 94.5q0 49 -15.5 99t-46 90.5t-75.5 66.5t-104 26q-51 0 -89 -20t-63.5 -54.5t-38 -80t-12.5 -96.5q0 -103 41.5 -186.5t116.5 -138.5q1 -3 -1 -8t-4.5 -10.5t-6 -10t-5.5 -5.5q-2 0 -9 0.5t-22.5 0.5t-42.5 0.5t-70 0.5q-44 0 -81.5 -1t-52.5 -1q-5 2 -3 9
q3 12 5.5 27t4.5 31.5t3.5 32.5t2.5 29q2 2 7 2t7 -2z" />
    <glyph glyph-name="pi" unicode="&#x3c0;" horiz-adv-x="419" 
d="M163 386q26 0 50 -0.5t49 -1t53 -1t62 -0.5q7 0 22.5 3.5t26.5 14.5q2 1 5 -2.5t4 -5.5q-2 -9 -7.5 -18t-11.5 -17t-11.5 -14t-8.5 -8t-12.5 -3.5t-20 -2t-21.5 -0.5h-17q-7 0 -7 -4q-1 -4 -2.5 -25t-2.5 -48.5t-2 -56t-1 -47.5q0 -29 2.5 -47.5t8 -29t13.5 -14.5t20 -4
q17 0 29.5 5.5t27.5 18.5q3 -3 3 -5q1 -5 0 -9t-2 -6q-15 -31 -41.5 -53t-51.5 -22q-9 0 -17 3.5t-13.5 14t-9 29.5t-3.5 51q0 28 2 64t4.5 71.5t5 66.5t3.5 48q-19 1 -38 1.5t-34 0.5h-25h-10q-1 0 -3 -1.5t-2 -4.5q-1 -8 -2 -28.5t-2.5 -47.5t-3.5 -57t-5 -58t-6 -51
t-7 -35q-7 -21 -15.5 -34.5t-17 -20.5t-15.5 -9.5t-10 -2.5q-7 0 -16 4t-17.5 9.5t-14.5 11.5t-8 11q-2 2 -1.5 6.5t1.5 5.5q16 6 32 11.5t29 13t22 18t12 27.5q3 19 5.5 45.5t4 57.5t2.5 64.5t1 65.5q-2 0 -8.5 0.5t-19.5 0.5q-42 0 -70 -12t-49 -49q-2 -1 -7 5t-5 9
q14 24 28.5 42t34.5 30.5t47 19t65 6.5z" />
    <glyph glyph-name="fi" unicode="&#xfb01;" horiz-adv-x="426" 
d="M15 12q11 2 20.5 3t15.5 3q13 3 17.5 12t4.5 26q0 16 0.5 45.5t1 67.5t1 82t0.5 90q0 2 -1 5t-3 3l-51 3q0 7 6 15q6 1 21.5 5t22.5 8q2 0 3.5 3t1.5 5q0 43 5 81.5t17 72.5t33.5 62.5t54.5 52.5q21 15 46.5 25t42.5 10q33 0 55.5 -14t30.5 -31q2 -6 0 -11q-1 -3 -4 -8.5
t-7.5 -11t-9.5 -10t-9 -5.5q-3 -1 -9 1l-7.5 6t-10.5 10q-16 16 -33.5 25.5t-41.5 9.5q-12 0 -23 -4t-24 -15q-30 -26 -40.5 -84t-10.5 -150v-13q0 -1 1 -3.5t3 -2.5h135q26 0 49 2t40 8q-1 -11 -2 -32.5t-1.5 -48t-0.5 -55v-51.5v-78t1 -73q0 -26 21 -33q9 -3 17 -4.5
t25 -3.5q2 -2 0.5 -8t-3.5 -7q-7 0 -18 0.5t-23.5 1t-25.5 1t-23 0.5q-29 0 -51 -1.5t-33 -1.5q-2 2 -2 7.5t2 7.5q11 2 20.5 3.5t17.5 5.5t12 12t6 31q2 19 2 59v83v66v37t-0.5 19t-1.5 12q-2 10 -8 10h-156q-1 0 -2.5 -3.5t-1.5 -5.5v-75.5v-81.5t0.5 -74.5t1.5 -54.5
q1 -15 6.5 -24.5t19.5 -12.5q10 -2 18.5 -3t21.5 -3q2 -2 1.5 -8t-2.5 -7q-11 0 -37.5 1.5t-56.5 1.5q-17 0 -43.5 -1.5t-43.5 -1.5q-2 1 -2.5 7t1.5 8z" />
    <glyph glyph-name="fl" unicode="&#xfb02;" horiz-adv-x="426" 
d="M15 12q23 3 34 6q13 3 18.5 11t5.5 25q0 16 0.5 45t1 66.5t1 81.5t0.5 90q0 2 -1 5t-3 3l-51 2q0 4 2.5 10t4.5 9q6 1 20.5 4.5t22.5 8.5q5 3 5 8q0 47 5 86.5t17 72.5t33.5 60.5t54.5 50.5q21 14 43.5 21.5t39.5 7.5q13 0 26 -3t22 -7q7 -2 12 0q7 2 13.5 6.5t14.5 10.5
q2 0 4 -2t2 -3q-2 -8 -3 -16t-2 -19t-1.5 -27t-0.5 -40q0 -19 -0.5 -51t-0.5 -69.5v-77v-73.5q0 -113 1 -177t2 -81t5 -24.5t15 -12.5q12 -4 20 -5t21 -3q2 -2 1 -8t-3 -7q-17 0 -36 1.5t-48 1.5q-33 0 -58.5 -1.5t-34.5 -1.5q-2 3 -1.5 7.5t1.5 6.5q15 2 24.5 4t18.5 5
q8 3 11 11.5t4 13.5q1 12 2 31.5t1.5 51t0.5 77.5v113v38.5t0.5 53.5t0.5 59.5t-0.5 57t-0.5 45.5t-1 25q0 4 -2 10t-4 8q-11 17 -28.5 25.5t-36.5 8.5q-14 0 -26.5 -3t-24.5 -14q-17 -14 -26.5 -39.5t-14 -57t-6 -66.5t-1.5 -69v-13q0 -1 1 -3.5t3 -2.5q7 0 22 0.5t30.5 1
t29 1t16.5 0.5q-2 -8 -4.5 -20.5t-3.5 -19.5q-7 0 -20 0.5t-27 0.5h-26.5h-17.5q-1 0 -2.5 -2t-1.5 -4v-75.5v-81t0.5 -73.5t1.5 -54q2 -31 28 -37l15 -3t24 -3q1 -2 1 -7.5t-2 -7.5q-17 0 -41 1.5t-54 1.5q-17 0 -44 -1.5t-44 -1.5q-1 2 -1.5 7.5t1.5 7.5z" />
    <glyph glyph-name="uni00A0" unicode="&#xa0;" horiz-adv-x="160" 
 />
    <glyph glyph-name="quotedbl" unicode="&#x22;" horiz-adv-x="243" 
d="M200 630q0 -13 -1.5 -35.5t-4 -45t-5 -40.5t-4.5 -24q-5 -14 -7.5 -22.5t-7.5 -13.5q-2 -2 -5 -2t-4 1v53.5t-1 53.5t-2 44.5t-4 27.5q3 4 8.5 10.5t11.5 12.5t11 10.5t7 4.5h6q2 -4 2 -14v-21zM90 624q0 -14 -1.5 -36.5t-4 -45.5t-5 -41.5t-4.5 -24.5q-5 -14 -8 -21
t-7 -12q-1 -2 -4.5 -2.5t-4.5 1.5v54.5t-1 55.5t-2 46.5t-4 28.5q1 2 6 6.5t11 10t12 10t9 5.5q3 3 6 -2q2 -4 2 -13v-20z" />
    <glyph glyph-name="exclam" unicode="!" horiz-adv-x="255" 
d="M147 70q17 0 27 -10q8 -8 10.5 -16.5t2.5 -16.5q0 -5 -2.5 -13t-8.5 -14q-11 -12 -31 -12q-6 0 -13.5 2.5t-13.5 7.5q-11 12 -11 31q0 16 12 30q13 11 28 11zM160 613q3 0 11 -1.5t8 -5.5q0 -8 -2 -42t-5 -89.5t-7.5 -130.5t-9.5 -166q-2 -2 -9.5 -0.5t-9.5 3.5
q-5 70 -10 138t-9 123t-6.5 93t-2.5 50q0 5 3 11.5t8 8.5q9 3 23 5.5t18 2.5z" />
    <glyph glyph-name="Lslash" unicode="&#x141;" horiz-adv-x="505" 
d="M18 12q17 2 29.5 3.5t23.5 3.5q16 4 24 12t10 33q0 9 0.5 20t1 31t1 53t0.5 86l-67 -29q-2 2 -4.5 10.5t-1.5 11.5q11 4 34 14t39 17v65v123t-1 61q-1 19 -2 30.5t-4.5 19t-10 11t-18.5 6.5q-9 2 -25 4l-24 3q-2 1 -1 7.5t3 7.5q16 0 42.5 -1.5t68.5 -1.5q37 0 64 1.5
t40 1.5q2 -1 2.5 -7.5t-2.5 -7.5q-15 -2 -23.5 -3.5t-18.5 -3.5q-18 -5 -21.5 -15t-4.5 -29q0 -12 -0.5 -37.5t-0.5 -59.5t-0.5 -72.5t-0.5 -76.5l167 72q2 -2 4 -10t1 -12l-173 -74v-55.5t0.5 -60.5t1 -57.5t1.5 -45.5q1 -12 6 -19t10 -10q7 -4 30.5 -6t52.5 -2.5t57.5 0
t43.5 1.5q16 1 28.5 9t24.5 22q11 13 26.5 41t29.5 63q2 2 8 0t7 -5q-3 -15 -8.5 -36t-12 -42t-13 -40t-11.5 -29q-4 -5 -11 -8.5t-20 -3.5q-19 0 -60 0.5t-86 1.5t-84.5 1.5t-55.5 0.5q-15 0 -33 -0.5t-34.5 -1t-29.5 -1t-19 -0.5q-2 2 -2 7.5t2 7.5z" />
    <glyph glyph-name="lslash" unicode="&#x142;" horiz-adv-x="205" 
d="M134 367v-110.5t0.5 -89.5t1 -64t1.5 -34q2 -23 5.5 -33t14.5 -15q16 -7 43 -9q2 -2 1 -7.5t-3 -7.5q-17 0 -38.5 1.5t-49.5 1.5q-13 0 -27 -0.5t-27 -1t-23 -1t-14 -0.5q-2 2 -2.5 7.5t1.5 7.5q12 2 23.5 3.5t20.5 6.5q8 5 11.5 11.5t4.5 21.5v26.5v51.5t0.5 64.5
t0.5 64.5v51.5v26.5l-57 -31q-2 2 -2 12t2 11q8 4 26.5 13.5t30.5 16.5v59v76t-0.5 69.5t-1.5 40.5q-2 12 -4 18.5t-11 9.5q-11 4 -42 7q-2 2 -1.5 7t1.5 6q29 3 59.5 13t59.5 24q4 -2 4 -5q-5 -14 -7 -39t-2 -74v-184q6 3 16.5 8.5t20.5 11t18 10t10 6.5q2 -2 2.5 -11
t-0.5 -11z" />
    <glyph glyph-name="Eth" unicode="&#xd0;" horiz-adv-x="680" 
d="M172 78q1 -11 5.5 -21t16.5 -17q14 -8 46 -13t78 -5q41 0 82.5 11t76.5 44q37 34 59 87t22 140q0 76 -25.5 137.5t-87.5 105.5q-35 25 -86 35.5t-117 10.5q-16 0 -32.5 -1.5t-24.5 -3.5q-4 -2 -8 -6t-5 -16q-1 -9 -1.5 -35t-0.5 -60v-72v-71h67.5t62.5 0.5t47 0.5h21
q0 -2 -1 -11t-3 -14h-194v-68.5v-66.5t0.5 -55t1.5 -36zM27 601q-2 2 -1 8t3 7q9 0 23.5 -0.5t30 -1t30 -1t24.5 -0.5q25 0 46 0.5t43 1.5t45.5 1.5t52.5 0.5q66 0 120.5 -17.5t94.5 -52.5q48 -42 69.5 -99.5t21.5 -126.5q0 -56 -13.5 -100t-34.5 -77t-46.5 -56.5
t-50.5 -38.5q-46 -28 -97 -42t-114 -14q-21 0 -38.5 0.5t-36 1t-41 1.5t-54.5 1h-14.5h-23.5h-25.5h-21.5q-2 1 -2 8t2 7q15 2 28.5 4t24.5 5q6 2 11.5 4t10 7.5t7.5 14.5t4 25q2 48 2.5 110t0.5 122q-27 0 -49 -0.5t-39 -0.5q1 7 2 15t3 10h83v50v60.5t-0.5 56.5t-1.5 39
q-2 31 -6.5 42.5t-24.5 16.5q-9 2 -20 4t-28 4z" />
    <glyph glyph-name="onehalf" unicode="&#xbd;" horiz-adv-x="690" 
d="M484 317q-21 0 -41.5 -9.5t-41.5 -33.5q-2 0 -5.5 4t-2.5 6q7 10 18 22.5t25.5 24t32.5 19t38 7.5q43 0 70.5 -29t27.5 -77q0 -64 -68 -135q-14 -15 -23 -24.5t-17.5 -18l-17 -17l-21.5 -21.5q-3 -3 1 -3q10 -1 29 -2t40 -1.5t40 -0.5t27 1t20.5 10.5t26.5 44.5
q3 2 7.5 0t5.5 -4q-1 -7 -4.5 -19.5t-8 -25.5t-9 -24.5t-8.5 -15.5q-2 -4 -9 -6t-18 -2q-39 0 -81 1.5t-84 1.5h-20t-17 -1q-5 3 -3 10q21 18 34 30t24 22.5t22 23t28 31.5q30 35 43 66.5t13 60.5q0 15 -4 30t-13 27t-23 19.5t-33 7.5zM509 631q1 1 9 0.5t12 -2.5v-2
q-3 -4 -20.5 -34t-44.5 -76.5t-61 -105t-69.5 -120t-70.5 -121t-63 -108t-47.5 -81.5t-24.5 -41l-4 -1q-4 5 -7.5 9t-2.5 6t18 32t45 77.5t63 108t71 123t71 123t63 107.5t45 76t18 30zM218 249q1 -1 0.5 -7t-2.5 -7q-15 0 -35 1t-49 1q-27 0 -46 -1.5t-35 -1.5q-1 1 -1.5 7
t1.5 7q9 1 17 2t17 3q13 3 17.5 11t5.5 25q1 26 1.5 59t0.5 75v80t-2 41q-1 6 -3 11t-10 7q-10 2 -37 4q-2 2 -1 6.5t2 5.5q23 2 50 9.5t43 17.5h3q1 -1 2 -1h1q-1 -8 -1.5 -20.5t-1 -32.5t-0.5 -49v-70v-32t0.5 -42.5t1 -40.5t0.5 -25q1 -20 5 -26.5t15 -10.5q8 -2 18 -3
t23 -3z" />
    <glyph glyph-name="Thorn" unicode="&#xde;" horiz-adv-x="494" 
d="M25 12q14 2 24 3t19 3q8 2 14.5 4t11.5 8t8.5 18.5t4.5 36.5q0 11 0.5 28.5t0.5 45v66.5v95v56v65.5t-0.5 58.5t-0.5 35q-1 26 -7 40t-25 19q-10 2 -20 3.5t-25 3.5q-2 2 -1 8t3 7q25 0 51 -1.5t55 -1.5q32 0 56 1.5t42 1.5q2 -2 2 -7.5t-2 -7.5l-42 -7q-16 -5 -19 -14.5
t-5 -32.5l-1 -68q0 -5 4 -5q20 1 50 2t53 1q15 0 32 -1.5t35 -6t34.5 -11.5t30.5 -17q23 -20 37.5 -49t14.5 -73q0 -62 -28.5 -98.5t-65.5 -55.5q-23 -12 -53 -18t-57 -6q-26 0 -36.5 2t-18.5 5q-3 3 -4.5 7.5t-1.5 6.5q0 3 2 3q8 -2 18 -3t27 -1q26 0 51 6t41 15
q36 23 47 54t11 67q0 80 -43 116.5t-134 36.5q-8 0 -21 -1.5t-18 -3.5q-6 -2 -7 -13v-211v-63t2 -96q1 -29 10.5 -37t32.5 -13q11 -2 22 -3t22 -3q2 -2 1 -7.5t-2 -7.5q-9 0 -23 0.5t-30 1t-32.5 1t-30.5 0.5q-17 0 -34.5 -0.5t-34 -1t-29 -1t-18.5 -0.5q-2 2 -2 8t2 7z" />
    <glyph glyph-name="onequarter" unicode="&#xbc;" horiz-adv-x="690" 
d="M403 124h20.5t30 -0.5t33.5 -0.5h32q4 0 4 3l1 163l-1 1h-1q-7 -8 -25 -32.5t-38 -51.5t-36.5 -50.5t-19.5 -28.5v-3zM519 631q1 1 9 0.5t12 -2.5v-2q-3 -4 -20.5 -34t-44.5 -76.5t-61 -105t-69.5 -120t-70.5 -121t-63 -108t-47.5 -81.5t-24.5 -41l-4 -1q-4 5 -7.5 9
t-2.5 6t18 32t45 77.5t63 108t71 123t71 123t63 107.5t45 76t18 30zM221 249q1 -1 0.5 -7t-2.5 -7q-15 0 -35 1t-49 1q-27 0 -46 -1.5t-35 -1.5q-1 1 -1.5 7t1.5 7q9 1 17 2t17 3q13 3 17.5 11t5.5 25q1 26 1.5 59t0.5 75v80t-2 41q-1 6 -3 11t-10 7q-10 2 -37 4
q-2 2 -1 6.5t2 5.5q23 2 50 9.5t43 17.5h3q1 -1 2 -1h1q-1 -8 -1.5 -20.5t-1 -32.5t-0.5 -49v-70v-32t0.5 -42.5t1 -40.5t0.5 -25q1 -20 5 -26.5t15 -10.5q8 -2 18 -3t23 -3zM637 93q-11 0 -31.5 0.5t-38.5 0.5q-2 0 -2 -3l1 -118q-7 0 -21.5 -2.5t-23.5 -4.5l2 124
q0 3 -3 3h-72q-37 0 -58 -0.5t-29 -0.5q0 2 1.5 9.5t2.5 9.5q10 12 26 32.5t34.5 45t38 50.5t36.5 49t29.5 40t16.5 24q1 1 9 1.5t10 0.5v-228q0 -2 1 -2h21.5t23.5 0.5t20 1t12 0.5q-2 -6 -4 -17.5t-2 -15.5z" />
    <glyph glyph-name="brokenbar" unicode="&#xa6;" horiz-adv-x="251" 
d="M149 127v-355h-48v355h48zM149 631v-348h-48v348h48z" />
    <glyph glyph-name="thorn" unicode="&#xfe;" horiz-adv-x="449" 
d="M217 350q-23 0 -44 -8.5t-38 -18.5q-3 -2 -7 -7t-5 -10q-1 -6 -1 -36.5v-67.5t0.5 -72t0.5 -51q0 -12 3 -19t8 -12q15 -12 36.5 -18.5t51.5 -6.5q28 0 49.5 8.5t40.5 28.5t29.5 53t10.5 73q0 38 -9 66t-24 48q-21 27 -45.5 38.5t-56.5 11.5zM1 -259l20 5t20 6
q13 5 17.5 14t5.5 29q1 14 1.5 38t1 72.5t0.5 128.5v206v98.5t-1 111.5t-2 98.5t-2 59.5q-2 17 -3.5 22t-8.5 9q-8 5 -22.5 6.5t-30.5 2.5q-1 2 -0.5 8t2.5 7q36 2 71 11.5t58 17.5q1 0 2 -2t1 -4q-3 -4 -4.5 -12.5t-3 -29t-2 -56.5t-0.5 -94v-53.5t0.5 -46.5t0.5 -35.5
v-19.5t5 -2q40 26 78.5 42t57.5 16q38 0 64 -14.5t45 -37.5q24 -29 31.5 -63t7.5 -56q0 -66 -26 -113t-66 -74q-25 -18 -63 -32t-75 -17q-11 -1 -29 1.5t-29 4.5v-73v-52.5t0.5 -38.5t1.5 -31q2 -25 7 -32t23 -10q10 -2 21 -2.5t28 -2.5q0 -2 -0.5 -8t-2.5 -8
q-11 -1 -28 -0.5t-24 0.5q-55 -1 -93 -6t-55 -6q-2 3 -1.5 9t1.5 8z" />
    <glyph glyph-name="threequarters" unicode="&#xbe;" horiz-adv-x="690" 
d="M414 124h20.5t30 -0.5t33.5 -0.5h32q4 0 4 3l1 163l-1 1h-1q-7 -8 -25 -32.5t-38 -51.5t-36.5 -50.5t-19.5 -28.5v-3zM542 631q1 1 9 0.5t12 -2.5v-2q-3 -4 -20.5 -34t-44.5 -76.5t-61 -105t-69.5 -120t-70.5 -121t-63 -108t-47.5 -81.5t-24.5 -41l-4 -1q-4 5 -7.5 9
t-2.5 6t18 32t45 77.5t63 108t71 123t71 123t63 107.5t45 76t18 30zM167 607q34 0 58 -22.5t25 -56.5q0 -33 -18.5 -55t-38.5 -34q-2 -2 0 -3q18 -4 34.5 -11.5t29.5 -19t21 -28t8 -37.5q0 -33 -16.5 -57t-42.5 -42q-20 -15 -49.5 -22.5t-49.5 -7.5q-22 0 -34 2.5t-23 7.5
q-6 3 -11 8t-9 15q-4 11 -5.5 26.5t-1.5 20.5q1 2 5 3t5 1q7 -17 12.5 -27t16.5 -18t25.5 -13.5t41.5 -5.5q15 0 30.5 5t27.5 15.5t19.5 26.5t7.5 39q0 17 -5 33t-15.5 29t-28.5 20.5t-43 7.5q-5 0 -9.5 -0.5t-15.5 -2.5q-2 2 1 9t5 9q48 9 64.5 33t16.5 52q0 26 -17.5 44.5
t-47.5 18.5q-22 0 -38.5 -8t-34.5 -26q-2 0 -5 4t-2 6q17 22 45.5 41.5t61.5 19.5zM648 93q-11 0 -31.5 0.5t-38.5 0.5q-2 0 -2 -3l1 -118q-7 0 -21.5 -2.5t-23.5 -4.5l2 124q0 3 -3 3h-72q-37 0 -58 -0.5t-29 -0.5q0 2 1.5 9.5t2.5 9.5q10 12 26 32.5t34.5 45t38 50.5
t36.5 49t29.5 40t16.5 24q1 1 9 1.5t10 0.5v-228q0 -2 1 -2h21.5t23.5 0.5t20 1t12 0.5q-2 -6 -4 -17.5t-2 -15.5z" />
    <glyph glyph-name="minus" unicode="&#x2212;" horiz-adv-x="458" 
d="M40 201q-1 0 -1.5 3t-0.5 5l10 33q6 -2 32.5 -1.5t64.5 0.5h281q4 -2 2 -8q0 -2 -2 -6.5t-4 -9.5t-5 -9.5t-5 -4.5z" />
    <glyph glyph-name="eth" unicode="&#xf0;" horiz-adv-x="446" 
d="M307 547q21 -26 39.5 -59t33 -69.5t22.5 -76.5t8 -81q0 -94 -24.5 -154t-76.5 -95q-20 -12 -43 -17.5t-47 -5.5q-42 0 -75.5 14.5t-57.5 41t-37 64t-13 84.5q0 59 24 98t61 65q20 14 53 26.5t68 12.5t54.5 -5t39.5 -13q-8 36 -23.5 74t-47.5 76l-112 -53q-1 0 -2 3
t-1.5 7t0 8t2.5 5l99 49q-37 46 -84.5 77t-106.5 51q-1 2 1 8t4 7q9 0 32.5 -7t55 -22t68 -38.5t71.5 -57.5l94 45q1 0 2 -10.5t-1 -11.5zM234 8q21 0 42 10t37.5 35t27 66t10.5 103q0 26 -4 55.5t-12 40.5q-23 32 -53.5 43.5t-65.5 11.5q-18 0 -38.5 -7.5t-38 -26.5
t-29.5 -50t-12 -78q0 -48 11.5 -86t31 -64t43.5 -39.5t50 -13.5z" />
    <glyph glyph-name="multiply" unicode="&#xd7;" horiz-adv-x="460" 
d="M370 397q1 1 6 3t12.5 3l15 2t13.5 1q1 -1 2 -2.5t0 -2.5q-18 -24 -39.5 -49t-43.5 -49.5t-42.5 -47.5t-38.5 -42v-3v-3q12 -14 34.5 -37.5t46.5 -48.5t46 -47t33 -31v-4.5t-2 -3.5q-3 -1 -11 -0.5t-17.5 1t-18 2.5t-11.5 4q-6 4 -22 19.5t-35.5 35.5t-39.5 41t-35 37
q-2 2 -4 0q-20 -23 -40.5 -45t-38 -40.5t-30 -31t-15.5 -14.5q-8 -5 -26.5 -8.5t-26.5 -3.5q-1 1 -1.5 3t0.5 3q6 5 27.5 27.5t47 49t48 51.5t30.5 34q3 5 0 8q-20 22 -44 49.5t-45.5 52.5t-38 43.5t-20.5 24.5q0 3 2.5 8t6.5 10t7 9.5t5 6.5q3 3 6 1q2 -4 21.5 -27
t45 -51.5t50.5 -56.5t39 -42q19 21 42 47t44 50t36.5 41.5t18.5 22.5z" />
    <glyph glyph-name="Scaron" unicode="&#x160;" horiz-adv-x="443" 
d="M244 669q-4 -4 -12 -4q-4 4 -20 17.5t-35 29t-37.5 29.5t-27.5 20q0 3 3 8t5 5t18 -6.5t35.5 -14.5t37 -16.5t23.5 -11.5q7 -2 10 0q7 4 23.5 12t34 16t32 14.5t16.5 6.5t4.5 -4t1.5 -9q-9 -6 -24.5 -18.5t-32.5 -26.5t-32 -27t-23 -20zM52 151q12 -46 28 -75.5t39 -44.5
q19 -14 43 -19.5t57 -5.5q23 0 44 7t36.5 22t25 37t9.5 52q0 27 -9 48t-26 39.5t-42.5 36.5t-58.5 38q-28 17 -53 36t-43.5 41t-29.5 47.5t-11 57.5q0 37 14.5 67.5t39 51.5t58.5 32.5t73 11.5q44 0 75 -6t61 -9q-5 -24 -9.5 -57.5t-7.5 -68.5q-2 -2 -8.5 -2.5t-8.5 1.5
q-2 26 -4.5 43.5t-7.5 29.5t-11.5 19.5t-15.5 12.5q-30 17 -77 17q-28 0 -49 -9t-35.5 -24.5t-22 -36t-7.5 -42.5q-1 -44 19 -72t49 -50q29 -20 60.5 -38t53.5 -32q16 -11 33 -24.5t31.5 -31t23.5 -40t9 -51.5q0 -36 -14 -68.5t-41 -57t-65.5 -38.5t-86.5 -14
q-41 0 -78.5 9.5t-53.5 20.5q-4 5 -7.5 23t-6.5 39t-5 41.5t-3 31.5q2 3 8 4.5t8 -0.5z" />
    <glyph glyph-name="Yacute" unicode="&#xdd;" horiz-adv-x="535" 
d="M359 763q8 -1 24 -7t22 -12q1 -1 1 -3.5t-1 -3.5q-4 -5 -25.5 -20t-46 -31.5t-45 -29.5t-23.5 -13t-6 5t-2 6q3 4 17 20t31 34.5t32.5 34.5t21.5 20zM-13 601q-2 2 -1.5 7.5t2.5 7.5q22 0 51.5 -1.5t67.5 -1.5q10 0 23.5 0.5t25.5 1t22 1t15 0.5q3 -2 3 -7.5t-2 -7.5
q-8 -1 -17 -2.5t-15 -3.5q-11 -3 -14 -10.5t6 -25.5q10 -22 29.5 -60t40.5 -77.5t39 -73.5t26 -48h4q13 23 32 56t38 68.5t36 68t26 54.5q8 20 4 31t-27 16q-10 2 -18.5 3.5t-23.5 3.5q-2 2 -1.5 8t3.5 7q23 -1 49.5 -2t49.5 -1q29 0 50 0.5t51 2.5q2 -2 1.5 -7.5t-1.5 -7.5
l-43 -8q-26 -5 -38 -21.5t-24 -36.5q-16 -27 -38.5 -65.5t-44.5 -77.5t-39.5 -71.5t-23.5 -46.5q-2 -5 -4 -15t-2 -15l2 -156q1 -32 7 -49t29 -22q12 -2 19.5 -3.5t27.5 -3.5q1 -2 0.5 -7t-2.5 -6q-14 0 -49 1.5t-70 1.5q-38 0 -67 -1.5t-52 -1.5q-2 2 -2 6.5t2 6.5
q17 2 31.5 4t25.5 4q22 5 27.5 20t6.5 39l2 141q0 11 -1.5 26t-4.5 22q-8 19 -22.5 48.5t-32 62.5t-35 66.5t-32.5 60.5q-16 29 -27 45.5t-19 25.5t-16 12.5t-18 6.5t-20.5 4t-27.5 3z" />
    <glyph glyph-name="Zcaron" unicode="&#x17d;" horiz-adv-x="550" 
d="M279 655q-4 -4 -12 -4q-4 4 -20 17.5t-35 29t-37.5 29.5t-27.5 20q0 3 3 8t5 5t18 -6.5t35.5 -14.5t37 -16.5t23.5 -11.5q7 -2 10 0q7 4 23.5 12t34 16t32 14.5t16.5 6.5t4.5 -4t1.5 -9q-9 -6 -24.5 -18.5t-32.5 -26.5t-32 -27t-23 -20zM540 156q-2 -10 -7 -32.5
t-11.5 -47t-13.5 -45.5t-13 -28q-2 -2 -8.5 -4.5t-29.5 -2.5q-129 0 -215 1.5t-114 1.5q-23 0 -49.5 -0.5t-44.5 -2.5q-2 1 -2 4.5t1 5.5q26 36 61.5 86.5t73.5 107.5t76.5 115.5t71.5 110.5t57.5 92.5t35.5 62.5q4 6 0 6h-55h-78.5t-80 -0.5t-59.5 -1.5q-17 -1 -29 -6.5
t-23 -20.5q-10 -14 -21.5 -38.5t-22.5 -53.5q-2 -2 -9.5 1t-7.5 5q6 27 13.5 66.5t12.5 82.5q0 2 2 3t4 0q12 -8 35 -9.5t53 -1.5h198q42 0 82 0.5t68 3.5q2 0 3 -2t1 -4q-12 -21 -38.5 -64.5t-61 -98.5t-74 -116.5t-76 -118.5t-67.5 -104.5t-49 -74.5q-3 -5 1 -5
q13 -2 47 -3t75.5 -2t83.5 -1t71 1q9 0 22 3.5t27 16.5q17 14 34 44.5t35 72.5q2 0 7.5 -1.5t7.5 -3.5z" />
    <glyph glyph-name="scaron" unicode="&#x161;" horiz-adv-x="310" 
d="M167 493q6 11 15 25t18 27.5t17 24.5t12 14q4 4 11.5 6.5t8.5 2.5q3 0 3 -3q-6 -10 -17.5 -29t-24 -41t-24 -43t-16.5 -34q-1 -2 -7 -4.5t-9 -2.5q-5 13 -15.5 35t-22.5 45t-23.5 42t-16.5 27q2 4 13 5.5t14 0.5q2 -2 9.5 -13t17 -26.5t18.5 -31.5t15 -27q2 -2 4 0z
M265 386q-6 -26 -7.5 -46t-3.5 -47q-1 -2 -7.5 -2.5t-8.5 1.5q-4 35 -11.5 51.5t-21.5 23.5q-11 5 -22 7t-23 2q-24 0 -44 -16.5t-20 -48.5q0 -13 3 -24.5t12 -22.5t25 -22.5t42 -24.5q30 -15 49.5 -29t30.5 -27.5t15 -28t4 -30.5q0 -24 -10 -45t-28.5 -36t-44 -24t-55.5 -9
q-22 0 -48 5t-45 13q-3 7 -5.5 21t-5 29t-3.5 29t-1 21q1 2 7.5 4t8.5 0q10 -44 26.5 -64t34.5 -29q11 -5 21.5 -7t21.5 -2q30 0 50.5 17.5t20.5 46.5q0 30 -16 49t-58 42q-30 16 -50 31t-31.5 30t-16 30.5t-4.5 33.5q0 21 8.5 40.5t25 34t41 23.5t56.5 9q16 0 29.5 -1.5
t24.5 -3.5q8 -2 19 -3t15 -1z" />
    <glyph glyph-name="yacute" unicode="&#xfd;" horiz-adv-x="384" 
d="M257 579q4 1 12 2.5t16.5 2t15.5 1t9 -0.5t2.5 -3.5t-0.5 -3.5q-6 -9 -20.5 -29t-32 -42.5t-33.5 -43.5t-24 -31q-2 0 -6 3t-5 5q9 19 18.5 40.5t18.5 41t16.5 35t12.5 23.5zM-11 369q-2 2 -1 8t3 7q13 0 29 -1.5t53 -1.5q27 0 52 1.5t30 1.5q2 -2 2.5 -7.5t-1.5 -7.5
q-11 -2 -19 -4t-15 -4q-10 -4 -7 -14q2 -9 10 -32t19 -53t23 -62t22.5 -59t17.5 -45.5t8 -19.5h2q13 29 27.5 64t27.5 70t22.5 67t13.5 55q2 8 -0.5 16.5t-19.5 13.5q-6 2 -15.5 3.5t-21.5 3.5q-2 2 -1 7.5t3 7.5q7 0 31.5 -1.5t47.5 -1.5q25 0 39.5 1t34.5 2q2 -2 2 -7.5
t-2 -7.5q-20 -3 -28 -6q-12 -3 -20.5 -10.5t-15.5 -25.5q-27 -75 -54 -143.5t-56.5 -134.5t-62 -131t-70.5 -134q-8 -14 -18.5 -30t-15.5 -26l-5 -2q-9 2 -19.5 9.5t-15.5 13.5q0 2 -1 4.5t0 4.5q13 17 33 44.5t42.5 60.5t44 69.5t37.5 71.5q1 -1 -2 6t-4 9q-7 20 -19 52.5
t-25.5 69t-27.5 73t-26 65.5q-17 43 -26.5 60t-25.5 22q-7 2 -14.5 4t-21.5 4z" />
    <glyph glyph-name="zcaron" unicode="&#x17e;" horiz-adv-x="341" 
d="M180 493q6 11 15 25t18 27.5t17 24.5t12 14q4 4 11.5 6.5t8.5 2.5q3 0 3 -3q-6 -10 -17.5 -29t-24 -41t-24 -43t-16.5 -34q-1 -2 -7 -4.5t-9 -2.5q-5 13 -15.5 35t-22.5 45t-23.5 42t-16.5 27q2 4 13 5.5t14 0.5q2 -2 9.5 -13t17 -26.5t18.5 -31.5t15 -27q2 -2 4 0z
M309 384q1 0 2 -3.5t1 -5.5q-20 -35 -46.5 -80t-54.5 -92.5t-55 -92t-47 -77.5q-2 -3 -1 -5t3 -2q12 -2 32 -3.5t42 -2t40.5 -0.5h27.5q4 0 11 3t16 12.5t19 26.5t22 44q2 2 8 2.5t8 0.5l2 -2q-9 -37 -19 -60t-15 -36q-5 -11 -11 -14t-9 -3q-25 0 -62.5 1t-75 2.5t-69 2
t-44.5 0.5q-2 1 -3 5t-1 6q19 29 46.5 73t57.5 92.5t57.5 95.5t46.5 82q2 5 -1 5h-32t-42.5 -0.5t-40 -1t-25.5 -1.5t-13.5 -3t-14 -9.5t-16 -23t-19.5 -42.5q-2 -1 -8.5 0.5t-8.5 4.5q8 29 14 57.5t10 49.5q13 -5 28.5 -7t35.5 -2h136q20 0 38 0.5t30 2.5z" />
    <glyph glyph-name="twodotenleader" unicode="&#x2025;" horiz-adv-x="500" 
d="M376 76q8 0 14.5 -3t11.5 -7q8 -8 10.5 -16.5t2.5 -16.5q0 -5 -3 -14t-9 -14q-11 -12 -30 -12q-14 0 -25 11q-12 12 -12 30q0 17 13 30q12 12 27 12zM125 76q8 0 14.5 -3t11.5 -7q8 -8 10.5 -16.5t2.5 -16.5q0 -5 -3 -14t-9 -14q-11 -12 -30 -12q-14 0 -25 11
q-12 12 -12 30q0 17 13 30q12 12 27 12z" />
    <glyph glyph-name="onedotenleader" unicode="&#x2024;" horiz-adv-x="500" 
d="M250 76q8 0 14.5 -3t11.5 -7q8 -8 10.5 -16.5t2.5 -16.5q0 -5 -3 -14t-9 -14q-11 -12 -30 -12q-14 0 -25 11q-12 12 -12 30q0 17 13 30q12 12 27 12z" />
    <glyph glyph-name="u2014.db" horiz-adv-x="750" 
d="M49 203h29.5t75 0.5t105 0.5h120h120.5h105.5h75.5h30v-2q-1 -8 -2.5 -15.5t-3.5 -8.5t-30.5 -1t-74.5 -0.5t-104.5 -0.5h-119.5h-120h-105.5t-76 0.5t-32.5 0.5l-1 2q0 4 3.5 13.5t5.5 10.5z" />
    <glyph glyph-name="u2014.d" horiz-adv-x="1000" 
d="M49 203h40.5t103 0.5t145 0.5h166.5h166h145h104h41v-2q-1 -8 -2.5 -15.5t-3.5 -8.5t-41.5 -1t-103 -0.5t-144.5 -0.5h-165.5h-165.5h-145t-104.5 0.5t-43.5 0.5l-1 2q0 4 3.5 13.5t5.5 10.5z" />
    <glyph glyph-name="colonmonetary" unicode="&#x20a1;" horiz-adv-x="440" 
d="M265 -1q0 4 -3 4q-11 0 -24.5 2t-24.5 5q-3 0 -3 -3l-8 -81q-2 -2 -8.5 -4t-11.5 0l8 92q0 1 -1 3t-2 2q-38 14 -65.5 41t-44.5 63.5t-25 81.5t-8 94q0 56 13 105.5t38.5 88t61.5 63.5t83 32l6 70q2 2 10.5 4.5t10.5 1.5l-7 -72q9 1 24.5 1.5t26.5 -0.5l5 65q1 2 10.5 5
t11.5 1l-7 -74q17 -2 36 -6t29 -4q0 -19 -0.5 -44.5t1.5 -52.5q-1 -2 -7 -3.5t-7 -0.5q-6 42 -17.5 60t-34.5 28q-1 1 -2 0t-1 -2l-41 -539q8 0 18 2q22 6 43.5 24t46.5 65q2 0 6.5 -2.5t4.5 -4.5q-5 -16 -11 -31.5t-12.5 -27.5t-12 -20t-9.5 -10q-14 -8 -34 -12.5t-40 -5.5
q-3 0 -3 -4l-5 -74q-3 -2 -10 -3.5t-10 0.5zM213 41q10 -7 26 -10t26 -4l44 541q0 4 -3 4q-9 2 -22 2t-22 -1q-4 0 -4 -3zM109 308q0 -97 19.5 -158t64.5 -99l45 515q0 3 -3 2q-67 -20 -96.5 -88.5t-29.5 -171.5z" />
    <glyph glyph-name="R_p" horiz-adv-x="835" 
d="M161 533q-3 -2 -4.5 -5.5t-1.5 -6.5q-1 -11 -1.5 -40t-1 -64t-0.5 -70v-57q0 -8 6 -9q3 0 15 -1t27 -1.5t30.5 0t24.5 2.5t22 9t25 20.5t20.5 34t8.5 49.5q0 65 -35.5 104t-111.5 39q-14 0 -23 -4zM629 304q-25 0 -44 -7.5t-35 -19.5q-9 -7 -9 -19q-1 -7 -1.5 -30.5
t-0.5 -51t0.5 -52t0.5 -31.5q1 -22 6 -32.5t16 -18.5q23 -17 66 -17q30 0 51.5 11.5t35 31t19.5 45.5t6 56q0 58 -27.5 96.5t-83.5 38.5zM23 545q-2 2 -1.5 7.5t2.5 7.5q8 0 20 -0.5t25.5 -1t26 -1t21.5 -0.5q45 0 72 0.5t51 0.5q38 0 66.5 -11t48 -30t29 -44t9.5 -52
q0 -53 -30.5 -91.5t-75.5 -55.5q-5 -3 -2 -6q13 -21 31.5 -49.5t38.5 -58t39.5 -56.5t35.5 -45q19 -21 31 -31t26 -16v34v93.5t-0.5 62t-1 40.5t-1.5 28q-1 10 -2.5 17t-7.5 12q-5 3 -16.5 7t-24.5 6q-1 2 0 6.5t2 5.5q11 1 25 4.5t29 9t28.5 11t23.5 9.5q2 1 2.5 -1
t-0.5 -4q-2 -8 -2 -27.5v-33.5q0 -1 1 -1h2q41 31 75 44.5t54 13.5q29 0 52 -13t38.5 -34.5t24 -48t8.5 -53.5q0 -49 -23.5 -91.5t-56.5 -68.5q-31 -25 -66.5 -37t-64.5 -12q-8 0 -19.5 2t-22.5 4q-1 0 -2 -1l-1 -2v-65t0.5 -46.5t1 -33.5t1.5 -26q2 -17 6 -25.5t20 -11.5
q8 -2 20 -2.5t25 -1.5q2 -2 1.5 -7.5t-2.5 -7.5q-81 -1 -125.5 -5.5t-58.5 -4.5q-2 2 -1.5 7.5t1.5 7.5q8 2 17.5 3.5t15.5 3.5q12 4 16.5 13.5t5.5 27.5q1 8 1.5 28t1 45.5t0.5 52.5v48q-21 0 -41.5 2t-35.5 9q-18 8 -41 34q-15 19 -33.5 46t-37 55t-36 54.5t-30.5 44.5
q-6 8 -15.5 12.5t-14.5 5.5q-11 2 -23 1.5t-23 -0.5q-2 0 -3 -2.5t-1 -4.5v-43.5v-52v-50t1 -35.5q1 -29 6.5 -37t17.5 -12q9 -3 18.5 -5t26.5 -4q2 -2 1.5 -7.5t-2.5 -7.5q-4 0 -14.5 0.5t-24.5 1t-30 1t-30 0.5q-28 0 -57 -1.5t-40 -1.5q-2 2 -2 8.5t2 6.5q11 2 22.5 3
t18.5 3q16 4 20.5 15t5.5 37q0 9 0.5 34.5t1 56.5t0.5 61v48v55t-0.5 73t-0.5 67.5v39.5q-2 17 -7.5 24t-18.5 10q-9 2 -19.5 3.5t-24.5 2.5z" />
    <glyph glyph-name="figuredash" unicode="&#x2012;" horiz-adv-x="260" 
d="M40 277q12 0 38.5 0.5t56 1.5t55.5 2t37 1l1 -5q-1 -8 -3 -20.5t-6 -13.5q-2 -1 -15.5 -1.5t-32 -1t-41 -1t-42 -1t-35 -1t-20.5 -0.5l-1 6q0 1 1 6.5t1.5 11.5t2 11t3.5 5z" />
    <glyph glyph-name="onethird" unicode="&#x2153;" horiz-adv-x="690" 
d="M514 359q34 0 58 -22.5t25 -56.5q0 -33 -18.5 -55t-38.5 -34q-2 -2 0 -3q18 -4 34.5 -11.5t29.5 -19t21 -28t8 -37.5q0 -33 -16.5 -57t-42.5 -42q-20 -15 -49.5 -22.5t-49.5 -7.5q-22 0 -34 2.5t-23 7.5q-6 3 -11 8t-9 15q-4 11 -5.5 26.5t-1.5 20.5q1 2 5 3t5 1
q7 -17 12.5 -27t16.5 -18t25.5 -13.5t41.5 -5.5q15 0 30.5 5t27.5 15.5t19.5 26.5t7.5 39q0 17 -5 33t-15.5 29t-28.5 20.5t-43 7.5q-5 0 -9.5 -0.5t-15.5 -2.5q-2 2 1 9t5 9q48 9 64.5 33t16.5 52q0 26 -17.5 44.5t-47.5 18.5q-22 0 -38.5 -8t-34.5 -26q-2 0 -5 4t-2 6
q17 22 45.5 41.5t61.5 19.5zM521 631q1 1 9 0.5t12 -2.5v-2q-3 -4 -20.5 -34t-44.5 -76.5t-61 -105t-69.5 -120t-70.5 -121t-63 -108t-47.5 -81.5t-24.5 -41l-4 -1q-4 5 -7.5 9t-2.5 6t18 32t45 77.5t63 108t71 123t71 123t63 107.5t45 76t18 30zM227 249q1 -1 0.5 -7
t-2.5 -7q-15 0 -35 1t-49 1q-27 0 -46 -1.5t-35 -1.5q-1 1 -1.5 7t1.5 7q9 1 17 2t17 3q13 3 17.5 11t5.5 25q1 26 1.5 59t0.5 75v80t-2 41q-1 6 -3 11t-10 7q-10 2 -37 4q-2 2 -1 6.5t2 5.5q23 2 50 9.5t43 17.5h3q1 -1 2 -1h1q-1 -8 -1.5 -20.5t-1 -32.5t-0.5 -49v-70v-32
t0.5 -42.5t1 -40.5t0.5 -25q1 -20 5 -26.5t15 -10.5q8 -2 18 -3t23 -3z" />
    <glyph glyph-name="twothirds" unicode="&#x2154;" horiz-adv-x="690" 
d="M539 359q34 0 58 -22.5t25 -56.5q0 -33 -18.5 -55t-38.5 -34q-2 -2 0 -3q18 -4 34.5 -11.5t29.5 -19t21 -28t8 -37.5q0 -33 -16.5 -57t-42.5 -42q-20 -15 -49.5 -22.5t-49.5 -7.5q-22 0 -34 2.5t-23 7.5q-6 3 -11 8t-9 15q-4 11 -5.5 26.5t-1.5 20.5q1 2 5 3t5 1
q7 -17 12.5 -27t16.5 -18t25.5 -13.5t41.5 -5.5q15 0 30.5 5t27.5 15.5t19.5 26.5t7.5 39q0 17 -5 33t-15.5 29t-28.5 20.5t-43 7.5q-5 0 -9.5 -0.5t-15.5 -2.5q-2 2 1 9t5 9q48 9 64.5 33t16.5 52q0 26 -17.5 44.5t-47.5 18.5q-22 0 -38.5 -8t-34.5 -26q-2 0 -5 4t-2 6
q17 22 45.5 41.5t61.5 19.5zM549 631q1 1 9 0.5t12 -2.5v-2q-3 -4 -20.5 -34t-44.5 -76.5t-61 -105t-69.5 -120t-70.5 -121t-63 -108t-47.5 -81.5t-24.5 -41l-4 -1q-4 5 -7.5 9t-2.5 6t18 32t45 77.5t63 108t71 123t71 123t63 107.5t45 76t18 30zM130 565q-21 0 -41.5 -9.5
t-41.5 -33.5q-2 0 -5.5 4t-2.5 6q7 10 18 22.5t25.5 24t32.5 19t38 7.5q43 0 70.5 -29t27.5 -77q0 -64 -68 -135q-14 -15 -23 -24.5t-17.5 -18l-17 -17l-21.5 -21.5q-3 -3 1 -3q10 -1 29 -2t40 -1.5t40 -0.5t27 1t20.5 10.5t26.5 44.5q3 2 7.5 0t5.5 -4q-1 -7 -4.5 -19.5
t-8 -25.5t-9 -24.5t-8.5 -15.5q-2 -4 -9 -6t-18 -2q-39 0 -81 1.5t-84 1.5h-20t-17 -1q-5 3 -3 10q21 18 34 30t24 22.5t22 23t28 31.5q30 35 43 66.5t13 60.5q0 15 -4 30t-13 27t-23 19.5t-33 7.5z" />
    <glyph glyph-name="oneeighth" unicode="&#x215b;" horiz-adv-x="690" 
d="M526 -3q24 0 44.5 13.5t20.5 42.5q0 33 -22.5 55.5t-70.5 50.5q-3 3 -6 0q-26 -18 -38 -38.5t-12 -44.5q0 -32 21.5 -55.5t62.5 -23.5zM515 341q-29 0 -43.5 -19t-14.5 -43q0 -29 19 -49t57 -40q4 -2 6 0q24 17 34 37.5t10 38.5q0 34 -19.5 54.5t-48.5 20.5zM527 356
q40 0 66.5 -24t26.5 -61q0 -23 -14.5 -42.5t-53.5 -45.5q-2 -1 -1.5 -3t2.5 -2q42 -26 61 -47t19 -53q0 -20 -10 -38t-27 -31.5t-38.5 -21.5t-43.5 -8q-32 0 -53.5 9t-34.5 22.5t-19 29t-6 29.5q0 10 2 19t10 20t23.5 25t42.5 32q3 2 1 4q-38 26 -49.5 48.5t-11.5 45.5
q0 18 8.5 35t23.5 31q13 11 32.5 19t43.5 8zM522 631q1 1 9 0.5t12 -2.5v-2q-3 -4 -20.5 -34t-44.5 -76.5t-61 -105t-69.5 -120t-70.5 -121t-63 -108t-47.5 -81.5t-24.5 -41l-4 -1q-4 5 -7.5 9t-2.5 6t18 32t45 77.5t63 108t71 123t71 123t63 107.5t45 76t18 30zM227 249
q1 -1 0.5 -7t-2.5 -7q-15 0 -35 1t-49 1q-27 0 -46 -1.5t-35 -1.5q-1 1 -1.5 7t1.5 7q9 1 17 2t17 3q13 3 17.5 11t5.5 25q1 26 1.5 59t0.5 75v80t-2 41q-1 6 -3 11t-10 7q-10 2 -37 4q-2 2 -1 6.5t2 5.5q23 2 50 9.5t43 17.5h3q1 -1 2 -1h1q-1 -8 -1.5 -20.5t-1 -32.5
t-0.5 -49v-70v-32t0.5 -42.5t1 -40.5t0.5 -25q1 -20 5 -26.5t15 -10.5q8 -2 18 -3t23 -3z" />
    <glyph glyph-name="threeeighths" unicode="&#x215c;" horiz-adv-x="690" 
d="M538 -3q24 0 44.5 13.5t20.5 42.5q0 33 -22.5 55.5t-70.5 50.5q-3 3 -6 0q-26 -18 -38 -38.5t-12 -44.5q0 -32 21.5 -55.5t62.5 -23.5zM527 341q-29 0 -43.5 -19t-14.5 -43q0 -29 19 -49t57 -40q4 -2 6 0q24 17 34 37.5t10 38.5q0 34 -19.5 54.5t-48.5 20.5zM539 356
q40 0 66.5 -24t26.5 -61q0 -23 -14.5 -42.5t-53.5 -45.5q-2 -1 -1.5 -3t2.5 -2q42 -26 61 -47t19 -53q0 -20 -10 -38t-27 -31.5t-38.5 -21.5t-43.5 -8q-32 0 -53.5 9t-34.5 22.5t-19 29t-6 29.5q0 10 2 19t10 20t23.5 25t42.5 32q3 2 1 4q-38 26 -49.5 48.5t-11.5 45.5
q0 18 8.5 35t23.5 31q13 11 32.5 19t43.5 8zM544 631q1 1 9 0.5t12 -2.5v-2q-3 -4 -20.5 -34t-44.5 -76.5t-61 -105t-69.5 -120t-70.5 -121t-63 -108t-47.5 -81.5t-24.5 -41l-4 -1q-4 5 -7.5 9t-2.5 6t18 32t45 77.5t63 108t71 123t71 123t63 107.5t45 76t18 30zM177 607
q34 0 58 -22.5t25 -56.5q0 -33 -18.5 -55t-38.5 -34q-2 -2 0 -3q18 -4 34.5 -11.5t29.5 -19t21 -28t8 -37.5q0 -33 -16.5 -57t-42.5 -42q-20 -15 -49.5 -22.5t-49.5 -7.5q-22 0 -34 2.5t-23 7.5q-6 3 -11 8t-9 15q-4 11 -5.5 26.5t-1.5 20.5q1 2 5 3t5 1q7 -17 12.5 -27
t16.5 -18t25.5 -13.5t41.5 -5.5q15 0 30.5 5t27.5 15.5t19.5 26.5t7.5 39q0 17 -5 33t-15.5 29t-28.5 20.5t-43 7.5q-5 0 -9.5 -0.5t-15.5 -2.5q-2 2 1 9t5 9q48 9 64.5 33t16.5 52q0 26 -17.5 44.5t-47.5 18.5q-22 0 -38.5 -8t-34.5 -26q-2 0 -5 4t-2 6q17 22 45.5 41.5
t61.5 19.5z" />
    <glyph glyph-name="fiveeighths" unicode="&#x215d;" horiz-adv-x="690" 
d="M531 -3q24 0 44.5 13.5t20.5 42.5q0 33 -22.5 55.5t-70.5 50.5q-3 3 -6 0q-26 -18 -38 -38.5t-12 -44.5q0 -32 21.5 -55.5t62.5 -23.5zM520 341q-29 0 -43.5 -19t-14.5 -43q0 -29 19 -49t57 -40q4 -2 6 0q24 17 34 37.5t10 38.5q0 34 -19.5 54.5t-48.5 20.5zM532 356
q40 0 66.5 -24t26.5 -61q0 -23 -14.5 -42.5t-53.5 -45.5q-2 -1 -1.5 -3t2.5 -2q42 -26 61 -47t19 -53q0 -20 -10 -38t-27 -31.5t-38.5 -21.5t-43.5 -8q-32 0 -53.5 9t-34.5 22.5t-19 29t-6 29.5q0 10 2 19t10 20t23.5 25t42.5 32q3 2 1 4q-38 26 -49.5 48.5t-11.5 45.5
q0 18 8.5 35t23.5 31q13 11 32.5 19t43.5 8zM537 631q1 1 9 0.5t12 -2.5v-2q-3 -4 -20.5 -34t-44.5 -76.5t-61 -105t-69.5 -120t-70.5 -121t-63 -108t-47.5 -81.5t-24.5 -41l-4 -1q-4 5 -7.5 9t-2.5 6t18 32t45 77.5t63 108t71 123t71 123t63 107.5t45 76t18 30zM249 607
q1 0 3 -1.5t2 -3.5q0 -4 -4 -12t-10 -15.5t-12.5 -13t-12.5 -5.5q-28 0 -46.5 2.5t-28.5 2.5q-3 0 -4.5 -2t-2.5 -4q-2 -3 -5.5 -10.5t-7 -16t-6.5 -17t-4 -12.5q0 -5 2 -6q9 -5 24.5 -13t32 -17t33 -18.5t28.5 -18.5q28 -20 39.5 -41.5t11.5 -49.5q0 -26 -13 -48t-34 -39
t-47.5 -26.5t-53.5 -9.5q-26 0 -45.5 9.5t-29.5 20.5q-10 10 -10 23q0 5 3.5 14t6.5 14q3 3 6 1q6 -8 15 -18t21 -18.5t28 -14t38 -5.5q38 0 55 21.5t17 50.5q0 31 -13 51t-45 41q-28 18 -57 33t-41 26q-3 5 -1 10q2 6 7.5 20t12 30.5t13.5 31.5t11 24q3 6 8 13t13 8
q11 1 31 1h43q12 0 17.5 1t11.5 7z" />
    <glyph glyph-name="seveneighths" unicode="&#x215e;" horiz-adv-x="690" 
d="M528 -3q24 0 44.5 13.5t20.5 42.5q0 33 -22.5 55.5t-70.5 50.5q-3 3 -6 0q-26 -18 -38 -38.5t-12 -44.5q0 -32 21.5 -55.5t62.5 -23.5zM517 341q-29 0 -43.5 -19t-14.5 -43q0 -29 19 -49t57 -40q4 -2 6 0q24 17 34 37.5t10 38.5q0 34 -19.5 54.5t-48.5 20.5zM529 356
q40 0 66.5 -24t26.5 -61q0 -23 -14.5 -42.5t-53.5 -45.5q-2 -1 -1.5 -3t2.5 -2q42 -26 61 -47t19 -53q0 -20 -10 -38t-27 -31.5t-38.5 -21.5t-43.5 -8q-32 0 -53.5 9t-34.5 22.5t-19 29t-6 29.5q0 10 2 19t10 20t23.5 25t42.5 32q3 2 1 4q-38 26 -49.5 48.5t-11.5 45.5
q0 18 8.5 35t23.5 31q13 11 32.5 19t43.5 8zM513 631q1 1 9 0.5t12 -2.5v-2q-3 -4 -20.5 -34t-44.5 -76.5t-61 -105t-69.5 -120t-70.5 -121t-63 -108t-47.5 -81.5t-24.5 -41l-4 -1q-4 5 -7.5 9t-2.5 6t18 32t45 77.5t63 108t71 123t71 123t63 107.5t45 76t18 30zM307 600
q1 -1 1.5 -4t0.5 -5q-5 -15 -18 -45t-30.5 -68t-37 -79.5t-37 -78.5t-30.5 -65.5t-18 -40.5q-1 -1 -4 -1q-3 1 -9.5 4t-7.5 5q-1 0 -1 2v4q9 17 23 44.5t30 59t32.5 65t30.5 63.5t24.5 54.5t14.5 37.5q0 3 -2 3q-13 0 -35.5 0.5t-46.5 0.5t-46 -0.5t-33 -1.5
q-15 -1 -24.5 -11.5t-20.5 -33.5q-2 -2 -7.5 0.5t-5.5 4.5q6 19 12 44.5t10 45.5q8 -4 22 -4.5t31 -0.5h118h36t28 1z" />
    <glyph glyph-name="zero.ak" horiz-adv-x="440" 
d="M237 604q22 0 40 -5.5t30.5 -13t21 -15.5t13.5 -13q10 -13 22 -32.5t21.5 -48.5t16 -68.5t6.5 -92.5q0 -107 -24 -174.5t-64 -106.5q-15 -15 -31 -24t-30 -13.5t-26 -6t-20 -1.5q-34 0 -59 11t-44 30q-14 13 -27.5 34.5t-25 52.5t-18.5 72t-7 94q0 79 15 140.5t52 109.5
q29 36 65.5 53.5t72.5 17.5zM212 580q-28 0 -50 -18.5t-37.5 -52t-24 -80t-8.5 -101.5q0 -56 3.5 -94.5t9 -66.5t13 -48t16.5 -39l160 445q1 8 0 11q-14 26 -33.5 35t-48.5 9zM147 58q30 -43 83 -43q22 0 43 9.5t37.5 39.5t26.5 85.5t10 147.5q0 29 -2.5 58.5t-6.5 57
t-10.5 51t-13.5 41.5l-1.5 3t-2.5 -2z" />
    <glyph glyph-name="Euro" unicode="&#x20ac;" horiz-adv-x="440" 
d="M24 255q1 7 2.5 13t3.5 8h33q-1 11 -0.5 24.5t0.5 24.5h-33q1 7 2 13.5t3 8.5h29q6 65 31.5 123t70.5 93q26 20 60.5 31.5t78.5 11.5q19 0 33.5 -1t26.5 -2.5t23 -3t25 -2.5q-4 -27 -5.5 -52.5t-0.5 -58.5q-2 -2 -7.5 -3t-6.5 0q-3 23 -6.5 38t-8 24.5t-10 14.5t-12.5 10
q-25 17 -69 17q-35 0 -63 -17t-48 -47.5t-32.5 -74t-16.5 -95.5q0 -6 3 -6h49t58 0.5t49 0.5h24q1 -2 -0.5 -11t-3.5 -11h-177q-3 0 -3 -5v-20t1 -21q0 -4 4 -4h46.5t55.5 0.5t47.5 0.5h23.5q1 -2 -0.5 -10t-3.5 -11h-169q-3 0 -3 -5q3 -53 15.5 -96t34 -74t51.5 -48t67 -17
q15 0 33.5 4t30.5 15q20 17 31.5 35.5t19.5 34.5q3 1 7.5 -2t4.5 -5q-13 -38 -28 -62.5t-25 -30.5q-14 -7 -35 -11.5t-50 -4.5q-45 0 -83.5 15t-68 47.5t-48 82.5t-21.5 121h-40z" />
    <glyph glyph-name="franc" unicode="&#x20a3;" horiz-adv-x="440" 
d="M46 149q1 7 1.5 14t2.5 9h62q0 26 0.5 58.5t0.5 71.5q0 78 -0.5 134t-1.5 78q-1 23 -3.5 35t-18.5 20q-15 7 -49 11q-2 2 -1.5 8t2.5 7q12 0 37 -1.5t62 -1.5h182q32 0 49.5 0.5t31.5 4.5q3 0 5 -4q-7 -18 -10 -44t-5 -63q-1 -3 -7.5 -3.5t-8.5 1.5q-2 23 -4 35.5
t-4 20.5q-4 15 -14.5 20.5t-26.5 6.5q-12 1 -31.5 1.5t-40.5 0.5h-41t-32 -1q-6 0 -8.5 -5.5t-2.5 -10.5q-1 -13 -1.5 -41t-0.5 -62v-69v-62q0 -4 2 -4h27h37.5h37.5t28 1q24 2 32.5 6t12.5 14q2 5 4.5 14t4.5 26q1 1 8.5 1.5t7.5 -1.5q-1 -8 -2 -26t-1 -50q0 -7 0.5 -17
t1 -20.5t1 -19.5t0.5 -13q-1 -2 -8 -3t-8 0q-1 8 -3.5 19.5t-5.5 19.5q-5 13 -12 15.5t-18 3.5q-13 1 -33.5 2t-41.5 1.5t-40 0.5h-30q-2 0 -2 -5v-108q0 -3 3 -3q34 0 58.5 0.5t28.5 0.5q0 -2 -0.5 -10.5t-2.5 -13.5h-84q-3 0 -3 -4v-39t1 -30q1 -23 5 -37t25 -19
q11 -3 22.5 -4.5t31.5 -3.5q2 -2 2 -7t-2 -8q-19 0 -48.5 1.5t-67.5 1.5q-35 0 -59.5 -1.5t-45.5 -1.5q-2 2 -2 7.5t1 7.5q33 3 46 7q10 3 16 6.5t9.5 9.5t4.5 15.5t2 24.5q0 5 0.5 14t0.5 19.5v21v19.5h-66z" />
    <glyph glyph-name="lira" unicode="&#x20a4;" horiz-adv-x="440" 
d="M281 -25q-23 0 -45 7t-60 21q-52 20 -76 20q-12 0 -27.5 -7.5t-38.5 -31.5q-6 0 -8 4q0 1 1 6.5t2 12t2.5 12t3.5 6.5q10 8 15.5 12.5t13.5 9.5q8 6 16.5 13t15 24t11 48.5t3.5 85.5h-12h-20.5t-22 0.5t-16.5 0.5q-2 0 -2.5 3t1.5 5l11 18q6 0 22.5 -0.5t37.5 -0.5v63
l-63 1q-2 0 -2 2.5t1 4.5l11 19q4 0 22 -0.5t32 -0.5q1 34 4 60t9 47.5t14 39.5t20 35q18 27 39 44t40 27t33.5 14t20.5 4q38 0 57.5 -12.5t19.5 -19.5q-1 -7 -6 -20t-11 -24q-3 -1 -5 0q-15 14 -38 27t-51 13q-22 0 -34 -11.5t-20 -26.5q-6 -12 -12 -34.5t-10 -49.5
t-6.5 -56t-2.5 -54q0 -4 2 -4h37.5t40.5 0.5t38 1t31 1.5q2 0 2 -3t-1 -5q-10 -13 -31 -17q-19 -2 -53 -3t-63 -1q-3 0 -3 -4q0 -14 -0.5 -30t-1.5 -23q0 -5 3 -5q35 0 74.5 0.5t68.5 2.5q2 0 2.5 -4t-1.5 -5q-7 -8 -14.5 -11.5t-18.5 -5.5q-6 -1 -20.5 -2t-31.5 -1.5
t-34 -0.5h-28q-3 0 -3 -5q-1 -11 -4.5 -28.5t-10 -38t-18 -42t-27.5 -40.5q20 4 48 0t57 -11q9 -2 21 -5t25 -6t25 -5t21 -2q17 0 31.5 2t27 12t24 29t23.5 54q2 4 5 1q2 -2 3.5 -9t1.5 -11q-13 -40 -33 -66.5t-40.5 -42t-38 -22t-26.5 -6.5z" />
    <glyph glyph-name="uni20A7" unicode="&#x20a7;" horiz-adv-x="440" 
d="M322 426q2 0 3 2t1 4q-3 42 -17 69.5t-35 43t-46 22t-50 6.5q-23 0 -29 -5.5t-6 -24.5v-112q0 -5 5 -5h174zM142 273q0 -2 2 -3t4 -1q15 -2 27 -3t32 -1q66 0 92 38t27 99q0 2 -1 4t-3 2h-175q-5 0 -5 -4v-131zM391 408q-4 0 -4 -4q-4 -40 -21.5 -69t-41.5 -49
q-31 -24 -66.5 -33.5t-72.5 -9.5q-11 0 -20.5 0.5t-17.5 1.5q-2 0 -3.5 -2t-1.5 -3l1 -167q0 -26 5.5 -39t31.5 -17l39 -5q2 -2 2 -7.5t-2 -7.5q-31 0 -52 1.5t-51 1.5q-29 0 -50.5 -1.5t-49.5 -1.5q-2 3 -1.5 7.5t1.5 7.5q9 2 21 3t19 3q17 3 22.5 16.5t5.5 41.5
q0 83 0.5 164t0.5 164q0 4 -3 4h-50q-1 2 0.5 9.5t3.5 8.5h46q3 0 3 4l-1 96q0 23 -5 32t-21 14q-8 2 -18.5 4t-23.5 3q-2 2 -2 7.5t2 7.5q14 0 39.5 -1t53.5 -1q14 0 45.5 1t63.5 1q26 0 55 -6.5t54 -24.5t42 -49.5t19 -82.5q0 -5 4 -5h32q0 -4 -1.5 -11t-3.5 -7h-28z" />
    <glyph glyph-name="uni20B4" unicode="&#x20b4;" horiz-adv-x="440" 
d="M141 248h-32.5t-30.5 -0.5t-23.5 -0.5h-12.5q1 10 3.5 14.5t3.5 7.5q9 0 34 -0.5t79 -0.5q17 14 29.5 24.5t30.5 26.5q-49 0 -79.5 -0.5t-48 -0.5t-25.5 -0.5t-12 -0.5q1 10 3.5 14.5t3.5 7.5h11.5t22.5 -0.5t50.5 -0.5h94.5q49 43 67.5 74t18.5 60q0 15 -6 34
t-19.5 35.5t-36.5 27.5t-57 11q-27 0 -44 -8t-29.5 -22t-23 -35t-24.5 -46q0 -1 -4 -1q-4 1 -10.5 7t-4.5 11q8 29 15.5 48t14.5 24q24 17 61 31.5t81 14.5q28 0 54.5 -8t46.5 -23.5t32 -40t12 -57.5q0 -15 -3.5 -29.5t-12.5 -30.5t-26 -34.5t-44 -42.5q42 0 70.5 0.5
t33.5 0.5q2 -5 0 -10.5t-5 -10.5q-8 0 -34.5 0.5t-85.5 0.5q-20 -17 -32 -28.5t-26 -22.5h85.5t48.5 0.5t24 0.5h10q2 -5 0 -10.5t-5 -10.5h-9.5t-21 0.5t-52.5 0.5h-103q-37 -31 -60 -62.5t-23 -60.5q0 -46 36.5 -77t99.5 -31q47 0 83.5 26t68.5 92q2 1 6.5 -1t5.5 -7
q-14 -33 -28.5 -56t-31.5 -40q-20 -17 -49.5 -31t-80.5 -14q-77 0 -123.5 34t-46.5 100q0 33 20.5 62.5t64.5 64.5z" />
    <glyph glyph-name="u0025.d" horiz-adv-x="431" 
d="M332 577q2 2 10.5 6t12.5 5q4 0 4 -4q-6 -8 -25.5 -36.5t-45.5 -68.5t-56 -86t-57.5 -88t-49.5 -75t-31 -47q-2 -2 -4 0q-1 2 -4.5 7.5t-2.5 10.5zM315 392q-12 0 -20 -7.5t-12.5 -18.5t-6.5 -24t-2 -25q0 -53 17.5 -74t36.5 -21q27 0 36 22.5t9 53.5q0 16 -4 32.5
t-11.5 30t-18 22.5t-24.5 9zM103 548q-12 0 -20 -7.5t-12.5 -19t-6.5 -24.5t-2 -25q0 -26 5 -44.5t13 -29.5t17.5 -16t18.5 -5q27 0 36 23t9 53q0 16 -4 32.5t-11.5 30.5t-18 23t-24.5 9zM338 411q16 0 29 -8t21.5 -21t13 -29t4.5 -32q0 -40 -11.5 -61.5t-22.5 -31.5
q-30 -27 -66 -27q-32 0 -50 28t-18 64q0 32 8 52t22 36q12 11 31 20.5t39 9.5zM127 567q16 0 28.5 -8t21 -21t13 -29t4.5 -32q0 -41 -11.5 -62t-22.5 -31q-30 -29 -66 -29q-32 0 -50.5 28.5t-18.5 64.5q0 32 9 52.5t23 34.5q12 13 31 22.5t39 9.5z" />
    <glyph glyph-name="uni2116" unicode="&#x2116;" horiz-adv-x="762" 
d="M578 193q51 1 85 4t54 11q2 -2 1 -6.5t-2 -5.5q-8 -14 -22 -18t-29 -7q-14 -3 -37.5 -5t-49 -3.5t-48.5 -2.5t-35 -1q-2 0 -2.5 2.5t0.5 4.5q7 10 21.5 18.5t18.5 8.5h45zM599 532q-20 0 -32.5 -11.5t-19.5 -28.5t-9 -38t-2 -40q0 -72 23 -108t57 -36q17 0 28.5 10
t18.5 27t10 39.5t3 47.5t-4.5 50t-13.5 44.5t-23.5 31.5t-35.5 12zM615 552q28 0 48.5 -12t33.5 -31.5t19.5 -44t6.5 -49.5q0 -45 -11.5 -82.5t-46.5 -62.5q-23 -17 -41 -22t-38 -5q-18 0 -36 9t-32.5 27.5t-24 46.5t-9.5 67q0 40 10 67.5t21 42.5q40 49 100 49zM97 594
q3 0 10 -4.5t14 -15.5q15 -24 36 -60t45 -78t50 -87t50.5 -88t46 -81t37.5 -65h2q0 14 -0.5 43.5t-0.5 69t-0.5 87t-0.5 98.5q0 52 10 89t23.5 60t28 33.5t22.5 10.5q4 0 8.5 -4.5t5.5 -6.5q2 -4 0 -6q-19 -7 -32 -18.5t-21 -34t-11.5 -60t-3.5 -96.5v-59t0.5 -74.5
t0.5 -73.5v-55q0 -42 1.5 -69t5.5 -47q-2 -2 -8 -4.5t-12 -4.5t-11 -3t-6 -1q-33 65 -63.5 122.5t-60.5 112t-60.5 108t-63.5 109.5h-2v-76t0.5 -70t0.5 -60v-45q0 -57 -9 -96t-21.5 -63.5t-26.5 -36t-23 -11.5q-17 1 -26.5 13t-12.5 25q-2 4 -0.5 12t3.5 11q5 -1 20 -2.5
t19 -1.5q14 0 23.5 6.5t15 23t7.5 46t2 76.5v35.5v52.5t-0.5 60t-1 59t-1 49.5t-1.5 30.5q-2 9 -9.5 26t-21.5 37q-14 22 -25.5 28t-24.5 9q-2 2 -1.5 6.5t1.5 6.5z" />
    <glyph glyph-name="uni212E" unicode="&#x212e;" horiz-adv-x="817" 
d="M646 524q0 12 -10 22q-44 44 -102 69.5t-124 25.5q-68 0 -126 -26.5t-102 -71.5q-10 -10 -10 -23v-180q0 -5 5 -5h464q5 0 5 5v184zM177 316q-5 0 -5 -4v-183q0 -10 9 -21q43 -46 102 -72.5t127 -26.5q72 0 134 30t106 81h55q-51 -60 -128 -95.5t-168 -35.5
q-77 0 -145 26.5t-119 72t-80.5 106.5t-29.5 131t29.5 131t80.5 106.5t119 72t145 26.5t145 -26.5t118.5 -72t80 -106.5t29.5 -131v-9h-605z" />
    <glyph glyph-name="u212E.d" horiz-adv-x="528" 
d="M269 574q-30 0 -53 -12t-40 -30.5t-28.5 -42t-19 -46t-11 -41.5t-3.5 -30q0 -7 5 -7q37 -1 81 -2t84 -1t70.5 1t41.5 5q17 5 20.5 14t3.5 20q0 29 -9.5 59.5t-28 55.5t-47 41t-66.5 16zM300 604q43 0 76.5 -17.5t56.5 -45t35.5 -62t12.5 -68.5q0 -16 -1.5 -27t-3.5 -16
q-9 -9 -26 -14t-39.5 -8t-48.5 -4t-53 -2q-16 0 -45 -0.5t-59.5 -0.5h-56.5h-36q-2 0 -2 -5q-1 -62 8.5 -116.5t34 -95t66 -64.5t103.5 -24q50 0 87.5 20.5t68.5 51.5q3 0 3 -3q1 -4 -1 -11.5t-3 -8.5q-13 -19 -34 -36.5t-47.5 -31t-58 -21.5t-65.5 -8q-57 0 -99 25
t-69 66.5t-40.5 94.5t-13.5 109q0 96 36 171.5t109 118.5q33 20 62 26.5t43 6.5z" />
    <glyph glyph-name="Q.d" horiz-adv-x="716" 
d="M334 603q-56 0 -96.5 -23.5t-66 -61t-37.5 -85t-12 -95.5q0 -74 19.5 -134.5t56 -104t89 -67.5t118.5 -24q42 0 77.5 22t61.5 60.5t41 89t15 107.5q0 71 -19 129.5t-54 100t-84 64t-109 22.5zM368 631q67 0 122 -23t94.5 -64.5t61 -99t21.5 -125.5q0 -63 -16 -115
t-44.5 -92t-68 -69.5t-87.5 -47.5q23 -9 53 -24.5t63.5 -34t69.5 -38.5t70 -38q74 -39 131 -64.5t103 -39.5t85 -19.5t78 -5.5q51 0 107.5 13.5t114.5 56.5q2 0 4.5 -7t0.5 -10q-39 -32 -79 -52.5t-78.5 -32.5t-74.5 -16.5t-67 -4.5q-65 0 -136 20t-166 74
q-97 55 -163.5 96.5t-111.5 67.5q-40 23 -70 32.5t-66 16.5q-75 14 -126.5 44.5t-83 73t-45.5 95t-14 112.5q0 53 15 101.5t38 83.5q21 32 51.5 57.5t65.5 43t73 26.5t75 9z" />
    <glyph glyph-name="W.d" horiz-adv-x="899" 
d="M-29 616q19 0 51.5 -1.5t75.5 -1.5q28 0 46 0.5t37 2.5q1 -2 1.5 -7t-1.5 -6l-18 -4t-15 -4q-10 -4 -11.5 -9.5t3.5 -19.5q11 -27 27 -64.5t34 -80t37.5 -88t38 -89t35.5 -82.5t30 -69q1 -2 3 -2t4 2q6 12 17 34.5t24 51t27 59.5t26 60q3 9 1 14l-80 180
q-15 29 -24.5 46.5t-17.5 28t-17 15.5t-23 9q-14 5 -51 10q-1 2 -0.5 7.5t1.5 7.5q10 0 20 -0.5t22.5 -1t30 -1t42.5 -0.5t52 0.5t43 2.5q1 -2 1.5 -7.5t-1.5 -7.5q-27 -4 -33 -7q-9 -4 -10.5 -11t4.5 -22q6 -16 16 -38.5t21 -48t22 -50.5t21 -45q1 -3 4 0q26 53 45.5 98.5
t30.5 76.5q13 31 -15 38q-8 2 -21 4.5t-26 4.5q0 2 0.5 7.5t2.5 7.5q19 0 46 -1.5t48 -1.5q32 0 57 1.5t42 1.5q2 -2 2 -7.5t-2 -7.5q-17 -2 -27.5 -4.5t-16.5 -4.5q-12 -4 -20.5 -9t-17 -14t-17 -24t-20.5 -39q-6 -12 -14.5 -29.5t-19 -38.5t-21 -44t-20.5 -45q-2 -5 -1 -9
q13 -32 30 -70.5t33 -75t29.5 -66t20.5 -43.5q2 -4 6 0q5 12 19 45.5t32.5 78.5t39.5 96.5t40 99.5t34 88t22 61q6 18 0 27.5t-28 13.5l-37 6q-2 2 -1.5 8t2.5 7q8 0 34.5 -1.5t58.5 -1.5q34 0 62.5 1.5t43.5 1.5q2 -2 2 -7.5t-2 -7.5q-17 -2 -27 -4t-18 -4q-10 -3 -17.5 -7
t-15 -13t-16.5 -25.5t-22 -44.5q-12 -27 -30.5 -69.5t-39.5 -93t-43.5 -104t-42 -101.5t-34.5 -85.5t-21 -56.5q-18 3 -36 0q-9 26 -22.5 59t-29 69t-31.5 73.5t-31 73.5q-2 3 -6 -1q-18 -39 -36 -77.5t-34 -74t-29 -67t-22 -55.5q-19 3 -37 0q-11 32 -27 74.5t-34.5 89
t-38.5 95t-38.5 92.5t-34.5 81.5t-27 61.5q-15 33 -25 52.5t-19.5 31t-19 16t-22.5 7.5q-10 2 -21 3.5t-25 3.5q-1 2 -1 7.5t2 7.5z" />
    <glyph glyph-name="a.e" horiz-adv-x="511" 
d="M237 187q0 2 -3 2q-19 -6 -40.5 -13.5t-40.5 -15t-33.5 -14t-19.5 -11.5q-2 -2 -4.5 -12.5t-2.5 -15.5q0 -30 19 -51t52 -21q11 0 28 4.5t33 14.5q4 2 7 7.5t3 12.5q0 12 0.5 29t1 33.5t0.5 30.5v20zM438 108q2 2 8 6.5t13 9.5t13.5 9t9.5 6q4 -5 6.5 -15t2.5 -20
q0 -22 -10.5 -39t-31.5 -38q-25 -24 -59 -33t-61 -9q-22 0 -42 3t-40 18q-6 6 -8.5 16.5t-3.5 15.5q0 2 -1.5 3t-2.5 0q-16 -10 -32.5 -19.5t-32 -17t-28.5 -12t-21 -4.5q-27 0 -49 22q-14 15 -23 36t-9 46q0 3 1 9t2.5 13.5t3 14t3.5 10.5q10 6 36.5 15.5t56 19t56 19
t38.5 15.5q2 1 3.5 4t1.5 4q1 10 0.5 22.5t-0.5 23.5q0 14 -5 30.5t-13 27.5q-28 39 -81 39q-11 0 -18 -2t-13 -6q-8 -5 -20 -24t-23 -53q-2 -2 -10.5 4.5t-8.5 14.5q0 10 7 26t11 20q15 12 32 22t34 17.5t31.5 12t24.5 4.5q54 0 85 -48q12 -19 16 -46t4 -51q0 -21 -0.5 -45
t-0.5 -48.5t-0.5 -47.5t-0.5 -41q0 -17 5 -25t14 -13q10 -6 29 -9.5t37 -3.5q34 0 53 13t19 39q0 16 -8 39z" />
    <glyph glyph-name="d.e" horiz-adv-x="606" 
d="M220 362q-22 0 -44.5 -7.5t-39.5 -24.5q-25 -25 -34 -57t-9 -70q0 -42 11 -73.5t30 -53t44 -32t52 -10.5q25 0 47 6t41 23q8 7 10 20q1 9 1.5 37.5t1 62t0.5 64.5t-1 45q-1 16 -3.5 25t-18.5 21q-32 24 -88 24zM532 108q2 2 8 6.5t13 9.5t13.5 9t9.5 6q4 -5 6.5 -15
t2.5 -20q0 -22 -10.5 -39t-31.5 -38q-25 -24 -59 -33t-61 -9q-22 0 -42 3t-40 18q-6 8 -9 19.5t-5 19.5q0 4 -4 2q-15 -11 -33 -21.5t-36.5 -18.5t-37 -13.5t-33.5 -5.5q-26 0 -54.5 12.5t-48.5 37.5q-44 53 -44 137q0 45 18 86.5t50 69.5t79 46t92 18q16 0 30.5 -2.5
t21.5 -4.5q3 0 3 3v101.5t-0.5 66t-1.5 39t-2 21.5q-2 12 -5.5 19t-14.5 10t-23.5 5t-23.5 3q-1 2 0 7.5t2 6.5q49 0 81.5 7t52.5 15q2 -1 2.5 -3.5t0.5 -4.5q-6 -11 -7 -26.5t-3 -52.5q-1 -20 -1.5 -54.5t-1 -76t-1 -87.5t-0.5 -90v-229q0 -17 5 -25t14 -13q10 -6 28.5 -10
t36.5 -4q34 0 53 13.5t19 39.5q0 16 -8 39z" />
    <glyph glyph-name="e.e" horiz-adv-x="615" 
d="M542 382q5 3 20.5 1t20.5 -5q5 -6 7.5 -17t2.5 -18q0 -30 -10 -52.5t-36.5 -37.5t-73.5 -22t-121 -7l-243 1q-15 0 -17.5 -2t-2.5 -11q0 -31 8.5 -64t30.5 -60q19 -23 47.5 -37t61.5 -14q30 0 56.5 8.5t55.5 34.5q3 0 3 -2q1 -2 0 -8.5t-2 -8.5q-36 -40 -76.5 -56.5
t-77.5 -16.5q-36 0 -63 13.5t-46 34.5q-28 31 -39.5 71.5t-11.5 78.5q0 57 20.5 102.5t58.5 71.5q26 17 51.5 26t46.5 9q28 0 50.5 -11t38.5 -30t25 -46t10 -58h19t24 -0.5t23 -0.5h18q52 0 80.5 6.5t41.5 16.5t15 22.5t2 23.5q0 15 -6 32.5t-12 31.5zM178 368
q-29 0 -55.5 -29t-31.5 -85q0 -4 3 -4q9 0 35.5 0.5t56.5 0.5t56 0.5t34 0.5q5 2 5 7q-4 48 -31.5 78.5t-71.5 30.5z" />
    <glyph glyph-name="g.e" horiz-adv-x="522" 
d="M474 479q2 2 3 3.5t4 1.5t10 -2.5t14 -8t12.5 -14t5.5 -20.5q0 -36 -20 -58t-43 -33q-20 -9 -45.5 -14t-66.5 -5h-10.5t-13.5 1q-2 0 -3 -1.5t0 -3.5q3 -8 8.5 -28.5t5.5 -40.5q0 -51 -17.5 -81t-40.5 -49q-15 -12 -42 -24.5t-60 -17.5q-10 -2 -15 -4t-8 -4
q-10 -5 -17 -10.5t-7 -12.5q0 -17 13.5 -25t23.5 -10q13 -2 36 -3.5t48 -3.5t48 -4.5t35 -6.5t24 -11.5t21.5 -19.5t15.5 -27.5t6 -35.5q-1 -54 -32 -97t-81 -70q-30 -17 -56.5 -22.5t-51.5 -5.5q-29 0 -59 8.5t-51 25.5q-23 20 -34.5 42t-11.5 49q0 5 2.5 18t5.5 17
q8 13 34.5 39t60.5 53v1l-1 2q-29 10 -45.5 29t-16.5 34q0 3 2 11q6 3 15 8t18.5 11t18 11.5t13.5 9.5q4 4 -1 6q-17 7 -33.5 19.5t-29 30.5t-20 42.5t-7.5 54.5q0 32 12.5 63.5t40.5 54.5q11 9 26.5 17t31.5 14t31 9.5t27 3.5q22 0 40.5 -4.5t36.5 -10.5q22 -8 52 -13.5
t68 -5.5q43 0 63.5 12t20.5 39q0 23 -4 38t-10 29zM217 -247q37 0 62.5 10t41.5 25.5t22.5 35.5t6.5 41q0 35 -17.5 54t-37.5 27q-14 5 -45 10t-66 5q-18 0 -28 -2.5t-15 -6.5q-26 -17 -44.5 -42t-18.5 -54q0 -15 8 -34t28 -36q23 -18 48.5 -25.5t54.5 -7.5zM170 366
q-20 0 -35 -9t-25 -24.5t-15 -36t-5 -43.5q0 -24 7.5 -48t22.5 -44t36.5 -32.5t49.5 -12.5q27 0 47 20q12 12 21 34.5t9 55.5q0 22 -6 46.5t-19.5 45.5t-35 34.5t-52.5 13.5z" />
    <glyph glyph-name="h.e" horiz-adv-x="603" 
d="M13 12q11 2 19 3t15 3q13 4 17 14t5 32q0 7 0.5 32t1 53t0.5 52v30v171t-1 111t-2 66.5t-2 37.5q-2 11 -6 17.5t-15 8.5q-8 2 -17 2t-22 2q-2 2 -1.5 7t1.5 6q42 4 71.5 12.5t52.5 19.5q3 -3 3 -7q-2 -4 -3.5 -9t-2 -14.5t-1 -24t-1.5 -38.5q-1 -27 -1 -67v-80t0.5 -73.5
t0.5 -45.5q0 -3 4 -1q43 34 77 48.5t63 14.5q54 0 83.5 -41t29.5 -114v-47v-55t0.5 -54t0.5 -44q0 -4 3 -8t8 -5q4 -1 14 -2t21.5 -1.5t23.5 -1t21 -0.5q34 0 53 8.5t19 41.5q0 8 -2 25.5t-9 42.5q2 1 8.5 0.5t14 -2.5t13.5 -4.5t8 -4.5q6 -8 6 -27q0 -17 -8 -38.5
t-31 -40.5q-21 -17 -46.5 -21t-56.5 -4q-16 0 -43.5 0.5t-53.5 1.5q-23 0 -41 -1t-26 -2q-2 2 -2 7.5t2 7.5q21 5 32 11q9 5 11.5 15.5t3.5 39.5q0 17 0.5 43t0 54.5t-2 55.5t-4.5 46q-2 10 -7.5 23.5t-16.5 25t-29 19.5t-44 8q-23 0 -48.5 -11t-43.5 -28q-3 -3 -4.5 -6.5
t-1.5 -11.5v-61v-71t0.5 -63t1.5 -38q2 -24 8 -32.5t20 -12.5q9 -2 16 -3t19 -3q2 -2 1 -7t-3 -7q-3 0 -13.5 0.5t-24.5 0.5t-29.5 0.5t-28.5 0.5q-20 0 -44 -1.5t-36 -1.5q-2 2 -1.5 7.5t2.5 7.5z" />
    <glyph glyph-name="m.e" horiz-adv-x="850" 
d="M770 123q0 1 7 3.5t16 5t16.5 4t9.5 1.5q6 -8 8.5 -18.5t2.5 -19.5q0 -50 -37.5 -77t-112.5 -27q-8 0 -28.5 0.5t-45 1l-49 1t-40.5 -0.5q-2 2 -2 7.5t2 7.5q17 3 26 4.5t20 6.5q10 4 11.5 20.5t1.5 51.5v52v50.5t-1 42.5t-3 30q-3 15 -9 30t-17.5 26t-28.5 18t-41 7
q-22 0 -45.5 -9.5t-48.5 -32.5q-2 -1 -2.5 -4t-0.5 -5q2 -14 3 -29.5t1 -38.5v-46v-52.5t0.5 -50.5t1.5 -39q1 -19 15 -24q9 -3 17.5 -4.5t25.5 -3.5q2 -2 1 -7.5t-3 -7.5q-19 0 -39 1.5t-49 1.5q-25 0 -48.5 -1.5t-34.5 -1.5q-2 2 -2 7.5t2 7.5q14 2 21 3.5t17 4.5
q9 3 12 11t5 30q1 17 1.5 48.5t0 65.5t-1.5 62.5t-3 39.5q-2 10 -7.5 23t-16 24t-26.5 19t-40 8q-14 0 -36 -6.5t-42 -22.5q-8 -7 -15 -14.5t-7 -18.5v-57v-67.5t0.5 -64.5t0.5 -48q0 -11 3 -19.5t15 -12.5q8 -2 18 -4t24 -4q2 -2 1 -8t-3 -7q-14 0 -36.5 1.5t-48.5 1.5
q-36 0 -55 -1.5t-36 -1.5q-2 2 -2 8t2 7q28 4 39 8q13 4 16 16.5t4 28.5q1 21 1.5 48.5t1 57.5t0.5 60v57q0 5 -1.5 16.5t-7.5 19.5q-8 9 -21 13t-23 6q-1 2 0.5 7.5t3.5 6.5q26 2 55.5 14.5t46.5 23.5q3 0 3 -3v-10.5t-0.5 -17.5t-0.5 -19v-15q0 -2 1.5 -3t2.5 0
q41 32 76 50t58 18q35 0 61 -19.5t39 -48.5q1 -2 3.5 -2t3.5 1q38 29 75 49t67 20q57 0 84 -40t29 -112q0 -20 0.5 -49t0.5 -59v-57v-42q0 -3 2.5 -6.5t6.5 -4.5q15 -3 34 -4.5t33 -1.5q41 0 59 9.5t18 42.5q0 10 -4 24t-12 28z" />
    <glyph glyph-name="n.e" horiz-adv-x="605" 
d="M525 123q0 1 7 3.5t16 5t16.5 4t9.5 1.5q6 -8 8.5 -18.5t2.5 -19.5q0 -50 -37.5 -77t-112.5 -27q-8 0 -28.5 0.5t-45.5 1t-50.5 1t-43.5 -0.5q-2 2 -2 7.5t2 7.5q31 3 42 7q12 4 16 11.5t5 17.5q1 17 1 47.5v62t-1 59.5t-2 40q-2 12 -7.5 33t-20.5 35q-11 11 -26 18.5
t-41 7.5q-52 0 -91 -39q-6 -6 -8.5 -14.5t-2.5 -28.5v-59.5v-56.5t0.5 -50.5t1.5 -39.5q1 -21 4.5 -29t11.5 -12q7 -3 20.5 -5t25.5 -4q1 -2 1 -8t-2 -8q-8 0 -28.5 1.5t-61.5 1.5t-58.5 -1.5t-27.5 -1.5q-2 2 -2 7.5t2 7.5q11 2 20 3.5t17 4.5q11 5 14.5 16t4.5 23
q2 28 2 72.5v95.5q0 43 -1 64t-2 26q-2 10 -10.5 15t-37.5 13q-1 2 0 7t3 6q25 4 55.5 15t48.5 22q3 0 3 -4q-2 -16 -2.5 -31t-1.5 -28q0 -2 1 -4t3 0q49 38 83.5 52.5t57.5 14.5q29 0 50.5 -13.5t36.5 -36.5q14 -21 19 -49.5t5 -65.5v-47t0.5 -54t0.5 -52v-41
q0 -3 2.5 -6.5t6.5 -4.5q15 -3 36 -4.5t35 -1.5q41 0 57.5 9.5t16.5 41.5q0 10 -4.5 24.5t-12.5 28.5z" />
    <glyph glyph-name="r.e" horiz-adv-x="503" 
d="M19 12q8 1 19 3.5t18 4.5t11 7t6 17q1 6 2 26t1.5 47t0.5 58v60v47.5t-2 27.5q0 3 -1 8t-6 10.5t-15 11t-29 9.5q0 2 0.5 6.5t2.5 5.5q10 1 24 4.5t28.5 8.5t27.5 10.5t20 10.5q2 0 4 -3v-78q0 -1 1.5 -1.5t3.5 1.5q7 8 20 22t29.5 27t34 22.5t33.5 9.5q21 0 39.5 -8
t38.5 -19q22 -11 41.5 -19.5t35.5 -8.5q22 0 30 12t8 27q0 6 -1 14.5t-6 17.5q1 2 5.5 7t10.5 9.5t11.5 8t7.5 3.5q6 -7 6 -30q0 -19 -13 -43t-33 -38q-21 -16 -38 -21.5t-36 -5.5q-14 0 -33.5 7.5t-48.5 22.5q-23 12 -36 15.5t-23 3.5q-20 0 -41.5 -17.5t-36.5 -39.5
q-5 -8 -8 -21.5t-3 -26.5v-51.5t0.5 -58t1 -51.5t1.5 -31q1 -27 19 -32q14 -5 27.5 -6.5t26.5 -2.5q2 -2 1 -7.5t-3 -7.5q-4 0 -14 0.5t-23.5 1t-28 1t-26.5 0.5q-10 0 -23.5 -0.5l-27 -1t-25 -1t-17.5 -0.5q-2 2 -2 8t2 7z" />
    <glyph glyph-name="longs" unicode="&#x17f;" horiz-adv-x="203" 
d="M21 347q0 4 2.5 10t4.5 9q6 1 20.5 4.5t22.5 8.5q4 2 4 6q0 51 5 90.5t17.5 71.5t33 58t51.5 49q20 15 45.5 26.5t40.5 11.5q29 0 49.5 -11.5t25.5 -25.5v-6q-1 -3 -5 -10t-8.5 -13.5t-9.5 -12.5t-7 -8q-2 0 -2 -0.5t-2 -0.5q-6 5 -14.5 12t-20 14t-24.5 11.5t-28 4.5
q-12 0 -24 -3.5t-24 -15.5q-16 -15 -25 -43.5t-13.5 -66.5t-5.5 -82.5t-1 -90.5v-76v-82.5t0.5 -75.5t1.5 -55q1 -15 7 -24t21 -13q9 -2 20.5 -3.5t17.5 -2.5q1 -2 0.5 -7.5t-2.5 -7.5q-17 0 -40 1.5t-53 1.5q-17 0 -44 -1.5t-44 -1.5q-2 2 -2 7.5t2 7.5q9 1 18.5 2.5
t15.5 3.5q24 7 24 38q0 17 0.5 46t1 66t1 80t0.5 89q0 2 -1 5t-3 3z" />
    <glyph glyph-name="t.e" horiz-adv-x="488" 
d="M417 486q3 3 8.5 6t11.5 6t11.5 5.5t8.5 2.5q6 -5 11 -19t5 -28q0 -32 -19 -56t-42 -37q-35 -19 -114 -19h-169q-2 0 -3 -2t-1 -4q0 -23 -0.5 -54.5t-0.5 -63t0.5 -60t0.5 -44.5q1 -25 3 -36.5t4 -17.5q8 -18 22.5 -26.5t33.5 -8.5q21 0 33 4.5t23 12.5q1 -1 0 -8t-2 -9
q-17 -21 -39.5 -31t-46.5 -10q-23 0 -43 9t-31 33q-8 17 -10 40.5t-2 71.5v48t0.5 55t0.5 52.5v39.5q0 5 -4 6q-13 2 -27 2.5t-25 1.5q0 4 2.5 12t5.5 11q10 2 25 4.5t20 4.5q3 1 3 5v77q4 3 11.5 9t15 13.5t14 15t8.5 11.5q2 1 6 0t5 -2q-1 -5 -2 -12t-2 -20t-1.5 -34.5
t-0.5 -55.5q0 -5 5 -5q14 0 44.5 -1t66.5 -1.5t70.5 -0.5t56.5 1q28 1 49 10.5t21 32.5q0 18 -6.5 35.5t-14.5 27.5z" />
    <glyph glyph-name="t.z" horiz-adv-x="518" 
d="M444 131q2 3 8 8t13 9.5t14 8t12 4.5q4 -5 5.5 -14.5t1.5 -17.5q0 -24 -10 -44.5t-25 -36.5t-33.5 -28t-35.5 -19q-35 -14 -71.5 -20.5t-81.5 -6.5q-16 0 -38.5 2.5t-45.5 10t-43 21.5t-31 37q-5 11 -9 32t-4 66v48t0.5 55t0.5 52.5v39.5q0 5 -4 6q-3 1 -9.5 1.5t-14 1
t-15.5 1t-13 0.5q0 3 3.5 12t4.5 11q9 2 24.5 4.5t20.5 4.5q3 1 3 5v77q4 3 11.5 9t15 13.5t14 15t8.5 11.5q2 1 6 0t5 -2q-1 -5 -2 -12t-2 -20.5t-1.5 -35t-0.5 -55.5q0 -5 4 -5h33.5t38 1t32.5 1.5t18 1.5q-2 -8 -4.5 -20.5t-3.5 -20.5q-23 0 -56.5 0.5t-56.5 0.5
q-2 0 -3.5 -2t-1.5 -4q0 -23 -0.5 -49.5t-0.5 -53t0.5 -51t0.5 -42.5q0 -24 3 -40t9 -28t14.5 -20.5t19.5 -16.5t28.5 -13t36 -8t36 -4.5t29.5 -1.5q35 0 60 4.5t42.5 11.5t27.5 15.5t15 16.5q3 5 6.5 12t3.5 15q0 13 -1.5 20.5t-10.5 24.5z" />
    </font>
</defs>
</svg>
