<?xml version="1.0" standalone="no"?>
<!DOCTYPE svg PUBLIC "-//W3C//DTD SVG 1.1//EN" "http://www.w3.org/Graphics/SVG/1.1/DTD/svg11.dtd" >
<svg xmlns="http://www.w3.org/2000/svg" xmlns:xlink="http://www.w3.org/1999/xlink" version="1.1">
<metadata>
Created by FontForge 20150318 at Mon Jun  1 07:03:13 2015
 By uniteet7
Copyright \(c\) 1999  Manfred Klein. All rights reserved.
</metadata>
<defs>
<font id="Klill-Light" horiz-adv-x="522" >
  <font-face 
    font-family="Klill"
    font-weight="300"
    font-stretch="normal"
    units-per-em="1000"
    panose-1="2 0 4 4 3 0 0 2 0 4"
    ascent="800"
    descent="-200"
    x-height="478"
    cap-height="697"
    bbox="-188 -228 1031 915"
    underline-thickness="50"
    underline-position="-75"
    unicode-range="U+0005-2122"
  />
<missing-glyph horiz-adv-x="500" 
 />
    <glyph glyph-name=".notdef" horiz-adv-x="500" 
 />
    <glyph glyph-name="breve" horiz-adv-x="300" 
d="M297 680q-11 -44 -34 -74t-52 -45t-61 -15t-61 14.5t-52 44.5t-34 75h49q13 -38 40.5 -57.5t57.5 -19.5t57 19.5t41 57.5h49z" />
    <glyph glyph-name="dotaccent" horiz-adv-x="300" 
d="M188 614q0 -19 -12 -28.5t-26 -9.5t-26 9.5t-12 28.5t12 28t26 9t26 -9t12 -28z" />
    <glyph glyph-name="ring" horiz-adv-x="300" 
d="M248 628q0 32 -14.5 53.5t-36.5 32.5t-47 11t-47 -11t-36.5 -32.5t-14.5 -53.5t14.5 -53.5t36.5 -32.5t47 -11t47 11t36.5 32.5t14.5 53.5zM209 628h-1q0 -29 -18.5 -43.5t-40.5 -14.5q-21 0 -39.5 14.5t-18.5 43.5t18.5 43.5t40.5 14.5t40.5 -14.5t18.5 -43.5z" />
    <glyph glyph-name="hungarumlaut" unicode="&#xa;" horiz-adv-x="300" 
d="M310 696l-133 -158h-55l96 156zM180 696l-133 -158h-54l95 156z" />
    <glyph glyph-name="ogonek" horiz-adv-x="300" 
d="M246 -160q-39 -33 -94 -33q-50 0 -75.5 27.5t-22.5 64.5t38 73.5t108 54.5l25 -14q-45 -21 -69.5 -44t-33 -44t-2.5 -37t22.5 -23.5t41.5 -4t55 22.5z" />
    <glyph glyph-name="caron" horiz-adv-x="300" 
d="M300 695h-62l-88 -103l-88 103h-62l117 -162h67z" />
    <glyph glyph-name="dotlessi" unicode="&#xd;" horiz-adv-x="227" 
d="M144 1v491q-15 -6 -30.5 -11t-30.5 -10v-481z" />
    <glyph glyph-name="fraction" horiz-adv-x="173" 
d="M361 702h-58l-491 -729h57z" />
    <glyph glyph-name="fi" horiz-adv-x="512" 
d="M468 586q0 18 -11.5 27.5t-26.5 9.5q-14 0 -25.5 -9t-11.5 -28q0 -18 11.5 -27t25.5 -9q15 0 26.5 9t11.5 27zM453 1v497q-12 -8 -26 -12.5t-28 -6.5l-7 5v-494zM381 665q-17 17 -41 32t-50 15q-82 0 -127.5 -46t-45.5 -128v-59h-65l-8 -57h73v-432l62 11v422h119v57
h-119q0 35 0.5 67.5t10 57t33 39.5t68.5 15q9 0 19.5 -6t20 -14.5t17.5 -18t14 -16.5z" />
    <glyph glyph-name="fl" horiz-adv-x="512" 
d="M461 1v714q-29 -11 -63 -18v-707zM348 641l-9 62q-8 4 -17.5 6.5t-18.5 2.5q-80 0 -129 -40.5t-49 -123.5v-69h-66l-8 -57h75v-432l62 11v422h118v57h-119q0 33 0.5 64t10 54.5t31.5 38t65 14.5q14 0 27 -3t27 -7z" />
    <glyph glyph-name="Lslash" horiz-adv-x="451" 
d="M451 58h-297v258l139 95v64l-139 -95v317l-66 -7v-357l-87 -60v-64l88 60v-274h352q-2 17 2 32t8 31z" />
    <glyph glyph-name="lslash" horiz-adv-x="227" 
d="M226 412v62l-83 -63v296q-17 0 -30.5 -2.5t-30.5 -8.5v-332l-81 -62v-62l81 62v-312l61 11v348z" />
    <glyph glyph-name="Zcaron" horiz-adv-x="618" 
d="M456 885h-62l-88 -103l-88 103h-62l117 -162h67zM598 57h-463l453 617l-5 15h-533l-10 -63h433l-453 -618l6 -13h563z" />
    <glyph glyph-name="zcaron" horiz-adv-x="470" 
d="M389 695h-62l-88 -103l-89 103h-62l118 -162h66zM452 55h-322l322 410l-4 13h-392l-8 -61h292l-322 -409l5 -13h420z" />
    <glyph glyph-name="space" unicode=" " horiz-adv-x="286" 
 />
    <glyph glyph-name="exclam" unicode="!" horiz-adv-x="222" 
d="M150 708l-75 -6l9 -526l52 4zM148 34q0 19 -12 28t-26 9t-26 -9t-12 -28t12 -28.5t26 -9.5t26 9.5t12 28.5z" />
    <glyph glyph-name="quotedbl" unicode="&#x22;" horiz-adv-x="328" 
d="M257 428h-58q-4 66 -6 131.5t0 131.5h70q2 -67 0 -131.5t-6 -131.5zM137 573q0 -36 -3 -72.5t-5 -72.5h-58q-4 66 -6 131.5t0 131.5h70q1 -14 1 -29v-30v-59h1z" />
    <glyph glyph-name="numbersign" unicode="#" horiz-adv-x="602" 
d="M553 485h-89l37 211h-61l-37 -212h-151l37 212h-61l-37 -212h-127l-2 -58h118l-27 -159h-102l-2 -58h93l-37 -214h61l37 215h151l-37 -215h61l37 215h123l2 58h-114l27 159h98zM392 427l-27 -160h-151l27 160h151z" />
    <glyph glyph-name="dollar" unicode="$" horiz-adv-x="533" 
d="M298 14q36 4 68 17.5t56 35t38 52t14 69.5q0 55 -25.5 87.5t-64 52.5t-83 32.5t-83 28t-64 38.5t-25.5 64q0 29 12.5 49.5t32.5 33.5t45 19t50 6q45 0 87 -18t75 -49l21 54q-32 30 -72 47t-83 21l1 47l-55 2l-1 -49q-35 -3 -66.5 -16t-55.5 -34.5t-38.5 -51.5t-14.5 -67
q0 -55 25.5 -87t64 -52t83.5 -32t83.5 -27t64 -39t25.5 -66q0 -28 -12.5 -49t-32 -35.5t-44.5 -21.5t-50 -7q-17 0 -45.5 9t-57.5 22.5t-54.5 29t-35.5 28.5l-23 -56q35 -41 83.5 -62.5t101.5 -25.5v-98l55 -2v100z" />
    <glyph glyph-name="percent" unicode="%" horiz-adv-x="788" 
d="M746 160q0 35 -13.5 66t-37 54.5t-54.5 37t-66 13.5t-65.5 -13.5t-54 -37t-37 -54.5t-13.5 -65q0 -35 13.5 -66t36.5 -54.5t54.5 -37.5t66.5 -14t66 13.5t54 37t36.5 54.5t13.5 66zM383 523q0 35 -13.5 66t-37 54.5t-54.5 37t-66 13.5t-65.5 -13.5t-54 -37t-37 -54.5
t-13.5 -65q0 -35 13.5 -66.5t36.5 -55t54.5 -37.5t66.5 -14t66 14t54 37.5t36.5 54.5t13.5 66zM662 692h-61q-114 -183 -236 -358.5t-245 -352.5h61zM692 158q0 -38 -17.5 -63t-43 -37.5t-56 -12t-56 13.5t-43 38.5t-17.5 62.5q0 38 17.5 63.5t43 38.5t56 13.5t56 -12.5
t43 -39t17.5 -66zM329 521q0 -23 -9 -44t-24.5 -36.5t-36.5 -25t-44 -9.5q-24 0 -45.5 9.5t-38 25t-26 37t-9.5 45.5q0 38 17.5 63.5t43 38.5t56 13.5t56 -12.5t43 -39t17.5 -66z" />
    <glyph glyph-name="ampersand" unicode="&#x26;" horiz-adv-x="635" 
d="M606 8l-133 148q32 38 59 79t53 83l-59 20q-42 -71 -93 -135l-145 163q25 15 50 34.5t45 43.5t32.5 52t12.5 59t-12 56t-32 43t-46.5 27.5t-56.5 9.5q-33 0 -62 -11t-50.5 -31t-34.5 -47.5t-13 -61.5q0 -47 22 -88t52 -75q-30 -18 -59.5 -40.5t-52 -50.5t-36.5 -60.5
t-14 -70.5t13.5 -69t37.5 -53t56.5 -34t69.5 -12q33 0 63.5 10.5t58.5 27.5t53 39t47 45l107 -119zM249 410q-23 24 -44 58.5t-21 69.5q0 41 26 68t68 27q17 0 33 -6t28 -17t19.5 -25.5t7.5 -32.5q0 -24 -11 -45.5t-28 -39.5t-37.5 -32.5t-40.5 -24.5zM391 156
q-18 -19 -37.5 -38t-41.5 -34.5t-46.5 -25t-52.5 -9.5q-50 0 -81.5 30t-31.5 81q0 30 12.5 55.5t32.5 46.5t44 38t48 31z" />
    <glyph glyph-name="quotesingle" unicode="'" horiz-adv-x="244" 
d="M151 428h-58q-4 66 -6 131.5t0 131.5h70q2 -67 0 -131.5t-6 -131.5z" />
    <glyph glyph-name="parenleft" unicode="(" horiz-adv-x="355" 
d="M311 -156q-68 52 -112.5 118t-67.5 139.5t-22.5 150.5t22.5 150.5t67.5 139.5t112.5 118l-40 30q-75 -53 -124.5 -123.5t-74.5 -150.5t-24.5 -164t25 -164t74.5 -150.5t124 -123.5z" />
    <glyph glyph-name="parenright" unicode=")" horiz-adv-x="355" 
d="M84 -186q74 53 124 123.5t74.5 150.5t24.5 164t-24.5 164t-74.5 150.5t-124 123.5l-40 -30q67 -52 112 -118t67.5 -139.5t22.5 -150.5t-22 -150.5t-67.5 -139.5t-112.5 -118z" />
    <glyph glyph-name="asterisk" unicode="*" horiz-adv-x="479" 
d="M425 429l-29 -52q-33 25 -67.5 46.5t-69.5 44.5l9 -164h-57l9 164q-35 -23 -69.5 -44.5t-67.5 -46.5l-29 52l146 73l-146 73l29 52q33 -25 67.5 -46.5t69.5 -44.5l-9 164h57l-9 -164q35 23 69.5 44.5t67.5 46.5l29 -52l-146 -73z" />
    <glyph glyph-name="plus" unicode="+" horiz-adv-x="652" 
d="M588 274v59h-233v229h-59v-230h-232v-59h233v-232h59v233h232z" />
    <glyph glyph-name="comma" unicode="," horiz-adv-x="236" 
d="M177 58l-52 20l-66 -173l52 -20z" />
    <glyph glyph-name="hyphen" unicode="-" horiz-adv-x="345" 
d="M300 211v55h-255v-56z" />
    <glyph glyph-name="period" unicode="." horiz-adv-x="227" 
d="M151 34q0 18 -11.5 27.5t-26.5 9.5q-14 0 -25.5 -9t-11.5 -28q0 -18 11.5 -27.5t25.5 -9.5q15 0 26.5 9t11.5 28z" />
    <glyph glyph-name="slash" unicode="/" horiz-adv-x="302" 
d="M294 702h-58l-228 -720h58z" />
    <glyph glyph-name="zero" unicode="0" 
d="M484 339q0 51 -10.5 113.5t-36.5 118t-69 93t-107 37.5q-42 0 -75 -17t-58 -46t-42 -66t-27.5 -76.5t-15.5 -79.5t-5 -73q0 -51 11 -113.5t36.5 -117.5t68.5 -92.5t107 -37.5q63 0 106 37t69 91.5t37 116.5t11 112zM417 343q0 -23 -3 -54t-10.5 -64t-19.5 -65
t-29.5 -57.5t-40.5 -41.5t-53 -16t-53 15.5t-40.5 40.5t-29.5 57t-19 64.5t-10.5 63.5t-3.5 53q0 23 3 54t10.5 64t19 65.5t29 58t41 41.5t53.5 16t53 -15.5t40.5 -40.5t29.5 -57t19.5 -65t10.5 -63.5t3 -53.5z" />
    <glyph glyph-name="one" unicode="1" 
d="M387 -5v56h-86v658l-166 -83l11 -62l89 49v-563h-93v-55h245z" />
    <glyph glyph-name="two" unicode="2" 
d="M486 57h-306q40 43 78 87.5t76 89.5q21 25 42.5 54t39.5 61.5t29 66t11 67.5q0 46 -16.5 86t-45.5 69t-68.5 46t-85.5 17q-34 0 -66.5 -11t-60.5 -31.5t-48 -48.5t-29 -61l49 -28q15 46 43.5 73t62.5 37.5t69 5.5t63.5 -23.5t47 -50t18.5 -72.5q0 -32 -9 -61.5t-23.5 -57
t-33 -53t-37.5 -49.5q-55 -69 -114.5 -133.5t-122.5 -127.5v-14h431z" />
    <glyph glyph-name="three" unicode="3" 
d="M57 65q16 -21 38 -36.5t47 -26t51.5 -15.5t52.5 -5q62 0 107 23.5t72 60t35.5 81t-1.5 87t-39 77.5t-78 53q45 19 71.5 51.5t34.5 70t-1.5 76t-35 69.5t-66.5 50.5t-96 19.5q-49 0 -95.5 -19.5t-80.5 -55.5l24 -54q29 30 67.5 48.5t81.5 18.5q40 0 71.5 -17.5t49.5 -44.5
t19.5 -58.5t-16.5 -59t-59.5 -47.5t-109.5 -23v-59q39 0 74.5 -5t62.5 -21t43 -44.5t16 -74.5q0 -35 -12 -61t-33 -44t-49.5 -27t-61.5 -9q-44 0 -83.5 19.5t-66.5 53.5z" />
    <glyph glyph-name="four" unicode="4" 
d="M498 282h-107v430l-17 -2l-350 -473v-14h301v-235l66 11v225h102zM325 282h-203l203 277v-277z" />
    <glyph glyph-name="five" unicode="5" 
d="M51 60q35 -41 87.5 -59.5t104.5 -18.5q75 0 125.5 33.5t76 84t26 109t-24 109t-75.5 84t-127 33.5q-37 0 -68 -10v202h242l9 61h-316v-348q27 16 57.5 25.5t62.5 9.5q59 0 97.5 -24.5t57.5 -61.5t18 -79.5t-19.5 -79.5t-54.5 -61.5t-89 -24.5q-46 0 -89 21t-74 54z" />
    <glyph glyph-name="six" unicode="6" 
d="M333 712q-53 -40 -104 -93.5t-91.5 -115t-65.5 -129.5t-25 -137q0 -49 14 -95t41 -81.5t67.5 -57t94.5 -21.5q69 0 116 33t70.5 82.5t24 107t-22 107t-68 82.5t-114.5 33q-38 0 -72 -15.5t-60 -41.5q34 92 98 167t141 133zM408 208q0 -53 -22 -90.5t-55 -56.5t-71 -18.5
t-71 22.5t-55 67.5t-22 116.5q0 33 22 59.5t55 41t71 16.5t71 -13.5t55 -50.5t22 -94z" />
    <glyph glyph-name="seven" unicode="7" 
d="M488 688h-445l-7 -62h360l-263 -630q17 2 34 0t33 -6z" />
    <glyph glyph-name="eight" unicode="8" 
d="M163 356q-48 -20 -75 -55.5t-35 -77.5t2.5 -84.5t37.5 -77.5t69.5 -57t99.5 -22q56 0 98.5 22t69.5 56.5t37.5 77.5t3 85t-34 78t-73.5 57q43 25 66 60t28 73t-6.5 76t-36.5 67.5t-62.5 48t-85.5 18.5q-52 0 -91.5 -19t-65.5 -50t-37 -69t-5.5 -76.5t29.5 -73t67 -57.5z
M391 509q0 -43 -19 -71.5t-48 -42.5t-63 -14q-33 0 -62 14t-48 41.5t-19 68.5q0 44 19 74t48 44.5t62.5 15t62.5 -14t48 -43.5t19 -72zM406 185q0 -47 -21.5 -78t-53.5 -46.5t-70 -15.5t-70 15t-53.5 45.5t-21.5 75.5q0 49 21.5 81t53.5 48t70 16t70 -16t53.5 -47.5
t21.5 -77.5z" />
    <glyph glyph-name="nine" unicode="9" 
d="M187 -29q53 41 105 93.5t92.5 113.5t65.5 128t25 138q0 51 -13.5 97.5t-40.5 82t-68.5 56.5t-96.5 21q-69 0 -115 -33t-69 -82t-24 -107t21.5 -107t68 -82t113.5 -33q36 0 70.5 14t61.5 38q-17 -44 -43 -84.5t-57.5 -78t-67 -71t-71.5 -61.5zM407 434q0 -34 -21.5 -60
t-54.5 -40.5t-70.5 -15.5t-70.5 14.5t-54.5 49.5t-21.5 89q0 31 9 61t26.5 54t43.5 38.5t61 14.5q45 0 75 -17.5t47 -46.5t24 -66t7 -75z" />
    <glyph glyph-name="colon" unicode=":" horiz-adv-x="236" 
d="M164 334q0 -18 -11.5 -27.5t-26 -10t-26 8.5t-11.5 29q0 19 11.5 28.5t26 9t26 -10t11.5 -27.5zM156 34q0 -19 -12 -28t-26 -9t-26 9t-12 28q0 18 11.5 27.5t26 10t26 -9t11.5 -28.5h1z" />
    <glyph glyph-name="semicolon" unicode=";" horiz-adv-x="236" 
d="M184 334q0 18 -11.5 27.5t-26 10t-26 -9t-11.5 -28.5t11.5 -28.5t26 -9t26 10t11.5 27.5zM169 58l-52 20l-66 -173l51 -20z" />
    <glyph glyph-name="less" unicode="&#x3c;" horiz-adv-x="652" 
d="M589 44v65l-442 192l442 192v65l-526 -231v-52z" />
    <glyph glyph-name="equal" unicode="=" horiz-adv-x="652" 
d="M588 383v59h-524v-60zM588 160v60h-524v-60h524z" />
    <glyph glyph-name="greater" unicode="&#x3e;" horiz-adv-x="652" 
d="M589 275v52l-526 231v-65l442 -192l-442 -192v-65z" />
    <glyph glyph-name="question" unicode="?" horiz-adv-x="385" 
d="M218 182q-13 44 -8.5 74t19.5 54t36 45t40.5 46.5t33 59t13.5 81.5t-18 83t-46.5 55t-64 25.5t-71 -4t-67.5 -34t-53 -64.5l37 -36h9q20 47 55 66.5t69.5 15.5t59.5 -31t25 -73q0 -45 -13.5 -74.5t-32.5 -52t-40 -42.5t-35 -46.5t-17.5 -64t11.5 -94.5zM234 34
q0 18 -11.5 27.5t-26.5 9.5q-14 0 -25.5 -9t-11.5 -28t11.5 -28t25.5 -9q15 0 26.5 9.5t11.5 27.5z" />
    <glyph glyph-name="at" unicode="@" horiz-adv-x="822" 
d="M477 71q3 -13 8.5 -25.5t13.5 -23t19.5 -17t26.5 -6.5q54 0 98 30.5t75.5 76.5t48.5 100t17 102q0 73 -29.5 133.5t-78.5 104.5t-113.5 68.5t-134.5 24.5q-79 0 -143.5 -27t-114 -72.5t-81 -105.5t-44 -125t-4.5 -131.5t39 -125.5t86 -107t136 -75q32 -11 66 -17.5
t69 -7.5l12 54q-75 -1 -139.5 23.5t-111.5 70t-74 108.5t-27 139q0 69 25.5 132t70.5 110.5t106 75.5t132 28q57 0 110.5 -20.5t94 -57.5t65 -87t24.5 -110q0 -50 -15.5 -94t-38.5 -77.5t-48 -55t-45 -26.5t-29.5 8t-0.5 48l87 343h-67l-15 -62q-23 47 -59.5 66.5t-78 16.5
t-83 -26t-75.5 -61.5t-55 -90t-21 -111.5q0 -71 31 -117.5t76.5 -63t96.5 -2t92 64.5zM521 298q0 -33 -12 -74t-34.5 -77t-54 -60.5t-70.5 -24.5q-26 0 -44.5 11t-30.5 29t-17.5 40.5t-5.5 45.5q0 34 12 74t34 75t53.5 58.5t70.5 23.5q24 0 42 -11t31 -28t19.5 -39t6.5 -43z
" />
    <glyph glyph-name="A" unicode="A" horiz-adv-x="689" 
d="M691 -4l-332 704h-20l-341 -704l70 -9l124 263h308l125 -263zM469 311h-248l124 260z" />
    <glyph glyph-name="B" unicode="B" horiz-adv-x="538" 
d="M57 -5h194q70 0 118.5 22.5t76 57.5t34.5 77.5t-5.5 82.5t-44.5 72.5t-81 47.5q42 23 62.5 61.5t20.5 86.5q0 54 -17 89t-46 56t-67.5 30t-80 11.5t-84 1t-80.5 -1.5v-694zM362 500h-1q0 -51 -24 -76.5t-60 -36t-78 -10.5h-76v250q38 0 80 0.5t77.5 -10t58.5 -37
t23 -80.5zM123 316q27 0 58.5 1t63.5 -1t61.5 -8.5t52.5 -22t36.5 -41t13.5 -64.5q0 -36 -14.5 -59.5t-38.5 -37t-54.5 -19.5t-62.5 -7.5t-62.5 -0.5t-53.5 1v259z" />
    <glyph glyph-name="C" unicode="C" horiz-adv-x="639" 
d="M598 109q-45 -29 -95 -46t-103 -17q-72 0 -126 25.5t-90 67t-53.5 94.5t-17.5 108q0 56 18 109t54 94.5t89.5 67t124.5 25.5q53 0 102 -17t94 -43l-6 78q-41 23 -88.5 35t-94.5 12q-75 0 -141.5 -27.5t-116 -76t-78.5 -114.5t-29 -142q0 -80 27.5 -146t76 -113.5
t115.5 -74t146 -26.5q48 0 96 13.5t90 36.5z" />
    <glyph glyph-name="D" unicode="D" horiz-adv-x="698" 
d="M65 -5h211q89 0 156.5 30t112 78.5t67 111t23 127.5t-22 127.5t-67 111t-111.5 78.5t-156 30h-213v-694zM131 627h137q66 0 120 -19.5t93 -56.5t60 -90t21 -120q0 -66 -23 -118.5t-63 -89.5t-95 -56.5t-119 -19.5h-131v570z" />
    <glyph glyph-name="E" unicode="E" horiz-adv-x="517" 
d="M459 58h-335v257h295v62h-295v250h323l-7 62h-382v-694h395z" />
    <glyph glyph-name="F" unicode="F" horiz-adv-x="436" 
d="M387 627l-7 62h-331v-697l67 7v322l227 -1l2 64h-230v243h272z" />
    <glyph glyph-name="G" unicode="G" horiz-adv-x="715" 
d="M663 61v285h-238l-11 -63h183v-184q-38 -27 -84 -40t-92 -13q-63 0 -117.5 22.5t-94.5 62t-63 94t-23 118.5q0 63 22 117t61.5 93.5t93 62t116.5 22.5q58 0 112 -22t100 -55l23 63q-51 40 -114 59t-127 19q-76 0 -141.5 -27.5t-113.5 -76t-75.5 -114t-27.5 -141.5
q0 -77 28 -143t77 -114.5t115.5 -76t143.5 -27.5q66 0 129.5 19.5t117.5 59.5z" />
    <glyph glyph-name="H" unicode="H" horiz-adv-x="715" 
d="M632 -1v698l-67 -7v-313h-416v320l-66 -7v-698l67 7v317h416v-324z" />
    <glyph glyph-name="I" unicode="I" horiz-adv-x="237" 
d="M151 -1v698l-65 -7v-698z" />
    <glyph glyph-name="J" unicode="J" horiz-adv-x="321" 
d="M-20 -88q19 -13 41 -18.5t45 -5.5q47 0 78.5 17t50 45.5t26 66t7.5 78.5v602l-66 -7v-570q0 -28 -2.5 -57.5t-12.5 -54t-31 -40.5t-57 -16q-18 0 -35 7t-31 18z" />
    <glyph glyph-name="K" unicode="K" horiz-adv-x="538" 
d="M510 8l-331 346l302 330l-78 14l-305 -335v334l-66 -7v-698l67 7v342l333 -351z" />
    <glyph glyph-name="L" unicode="L" horiz-adv-x="451" 
d="M407 58h-296v639l-66 -7v-695h351q0 17 4 32t7 31z" />
    <glyph glyph-name="M" unicode="M" horiz-adv-x="802" 
d="M747 -1l-69 699h-34l-242 -445l-244 445h-33l-70 -698l65 -9l46 550l236 -415l231 415l48 -549z" />
    <glyph glyph-name="N" unicode="N" horiz-adv-x="741" 
d="M660 -14h-29l-483 571v-557l-67 -7v703l30 2q119 -146 241 -285.5t241 -284.5v562l67 7v-711z" />
    <glyph glyph-name="O" unicode="O" horiz-adv-x="823" 
d="M777 342q0 76 -29 142t-78.5 114.5t-116.5 76t-142 27.5q-76 0 -142.5 -27.5t-116 -76t-78 -114.5t-28.5 -142q0 -77 29 -142.5t78.5 -114t116 -76t142.5 -27.5q75 0 141.5 27.5t116 76t78.5 114.5t29 142zM706 342q0 -61 -23 -115t-63 -94t-94 -63.5t-115 -23.5
q-62 0 -115.5 23t-93 63.5t-62.5 94t-23 115.5q0 61 23 115t62.5 94.5t93.5 63.5t116 23q61 0 114.5 -23.5t93.5 -64t63 -94t23 -114.5z" />
    <glyph glyph-name="P" unicode="P" horiz-adv-x="499" 
d="M120 270q49 0 106.5 10.5t106 35t81 65.5t32.5 103q0 55 -17.5 94t-49 64t-74.5 36.5t-94 11.5q-40 0 -79 -1t-79 0v-697l67 7v271zM375 484h-1q0 -44 -27 -73t-66.5 -46t-83.5 -24.5t-78 -8.5v295h107q32 0 59 -10t47 -29t31.5 -45t11.5 -59z" />
    <glyph glyph-name="Q" unicode="Q" horiz-adv-x="823" 
d="M777 342q0 76 -29 142t-78.5 114.5t-116.5 76t-142 27.5q-76 0 -142.5 -27.5t-116 -76t-78 -114.5t-28.5 -142q0 -77 29 -142.5t78.5 -114t116 -76t142.5 -27.5q75 0 141.5 27.5t116 76t78.5 114.5t29 142zM625 -150l-218 131l-28 -48l217 -130zM706 342q0 -61 -23 -115
t-63 -94t-94 -63.5t-115 -23.5q-62 0 -115.5 23t-93 63.5t-62.5 94t-23 115.5q0 61 23 115t62.5 94.5t93.5 63.5t116 23q61 0 114.5 -23.5t93.5 -64t63 -94t23 -114.5z" />
    <glyph glyph-name="R" unicode="R" horiz-adv-x="531" 
d="M498 9q-51 80 -106.5 156t-119.5 146q51 14 84 47t47.5 75t9.5 87.5t-31 83t-73.5 61.5t-117.5 24h-155v-697l66 7v309h60q19 0 43 -19t50 -49t52 -66.5t49 -71.5t41 -65t28 -46zM102 627h89q67 0 109 -35t42 -105q0 -33 -11.5 -57t-31.5 -40t-47 -23.5t-57 -7.5h-93v268
z" />
    <glyph glyph-name="S" unicode="S" horiz-adv-x="507" 
d="M48 76q30 -39 72 -61.5t87.5 -29t90.5 2.5t80.5 33.5t57.5 65t22 95.5q0 61 -25 97.5t-62 58.5t-81 36t-81 31t-62 42t-25 70q0 30 11.5 53t31 38t45 22.5t53.5 7.5q42 0 80 -18.5t69 -45.5l22 61q-30 31 -70 47.5t-82.5 19.5t-84 -8t-74 -34.5t-52.5 -60.5t-20 -86
q0 -60 25 -95.5t62.5 -57t81 -35t81 -31t62.5 -44t25 -73.5q0 -30 -11.5 -54t-31 -41.5t-45.5 -26.5t-54 -9q-51 0 -94 26.5t-76 62.5z" />
    <glyph glyph-name="T" unicode="T" horiz-adv-x="531" 
d="M520 627v62h-500l-9 -63h225v-634l66 7v628h218z" />
    <glyph glyph-name="U" unicode="U" horiz-adv-x="677" 
d="M71 690v-434q0 -62 19 -112.5t54 -86.5t85 -55.5t112 -19.5q64 0 113.5 21.5t83 59t51 89.5t17.5 114v431l-66 -7v-412q0 -48 -12 -90t-37 -73.5t-62.5 -50t-89.5 -18.5q-50 0 -87.5 17t-63 46.5t-38.5 70t-13 87.5v430z" />
    <glyph glyph-name="V" unicode="V" horiz-adv-x="625" 
d="M629 688l-70 9l-250 -565l-244 565l-68 -9l305 -705h13z" />
    <glyph glyph-name="W" unicode="W" horiz-adv-x="954" 
d="M960 685l-69 13l-200 -541l-206 541h-10l-209 -545l-203 545l-69 -13l264 -702h14l208 548l202 -548h13z" />
    <glyph glyph-name="X" unicode="X" horiz-adv-x="644" 
d="M650 9l-288 348l252 320l-71 16l-223 -284l-232 284l-70 -16l260 -317l-285 -353l76 -16l252 313l255 -314z" />
    <glyph glyph-name="Y" unicode="Y" horiz-adv-x="564" 
d="M575 688l-75 9l-211 -320l-226 320l-74 -9l264 -375l-56 -321l66 7l56 295z" />
    <glyph glyph-name="Z" unicode="Z" horiz-adv-x="618" 
d="M598 58l-9 -62h-563l-6 12l453 618h-433l10 63h533l5 -15l-453 -616h463z" />
    <glyph glyph-name="bracketleft" unicode="[" horiz-adv-x="312" 
d="M258 -185v57h-145v761h145v56h-204v-874h204z" />
    <glyph glyph-name="backslash" unicode="\" horiz-adv-x="302" 
d="M329 -18l-295 720h-61l295 -720h61z" />
    <glyph glyph-name="bracketright" unicode="]" horiz-adv-x="312" 
d="M258 -185v874h-204v-57h145v-761h-145v-56h204z" />
    <glyph glyph-name="asciicircum" unicode="^" horiz-adv-x="652" 
d="M569 334l-225 358h-37l-224 -358l57 -16l186 298l186 -298z" />
    <glyph glyph-name="underscore" unicode="_" 
d="M520 -228h-518v72h518v-72z" />
    <glyph glyph-name="grave" unicode="`" horiz-adv-x="300" 
d="M252 539l-113 155l-93 2l153 -158z" />
    <glyph glyph-name="a" unicode="a" horiz-adv-x="458" 
d="M407 4q-3 59 -3 116v117q0 48 -0.5 93.5t-13.5 81.5t-45.5 57.5t-96.5 21.5q-39 0 -76 -12t-71 -30l-12 -71q32 22 72 38.5t79 16.5q42 0 71.5 -21t29.5 -66v-58q-84 26 -143.5 14t-95 -46t-46.5 -80.5t3 -89t53 -72.5t104 -30q36 0 69 16t57 42l5 -59zM341 198
q0 -17 -0.5 -35t-0.5 -35q0 -4 -3 -10.5t-5 -9.5q-22 -38 -59 -53.5t-72.5 -10.5t-61.5 28.5t-26 62.5q0 29 12.5 51t32.5 37t45.5 22.5t51.5 7.5q10 0 24.5 -4t28 -11.5t23.5 -17.5t10 -22z" />
    <glyph glyph-name="b" unicode="b" horiz-adv-x="583" 
d="M53 697v-552q0 -9 7 -26t12 -26q25 -48 68.5 -75t94.5 -33.5t103.5 7.5t95 46.5t69.5 84t27 120.5q0 59 -20 106t-53 79.5t-76 49t-89 15t-92 -22.5t-85 -63v307q-15 -5 -30.5 -9t-31.5 -8zM467 242h-1q0 -52 -20 -90t-51.5 -63t-70.5 -35.5t-76.5 -7t-70 22.5t-51.5 53
q-4 7 -7.5 15t-3.5 16v137q0 8 5 19t8 18q20 43 53.5 68.5t71 34t75.5 0t69 -32.5t50.5 -63t19.5 -92z" />
    <glyph glyph-name="c" unicode="c" horiz-adv-x="481" 
d="M442 30l-21 57q-29 -20 -63.5 -30.5t-69.5 -10.5q-62 0 -103 28.5t-61.5 71t-20.5 92.5t20.5 92.5t62.5 71t104 28.5q35 0 67.5 -11.5t61.5 -29.5l22 59q-35 19 -73.5 31t-78.5 12q-82 0 -137 -37.5t-83.5 -94t-29.5 -122t26.5 -122t83 -94t139.5 -37.5q39 0 80.5 12
t73.5 34z" />
    <glyph glyph-name="d" unicode="d" horiz-adv-x="583" 
d="M528 -4v718q-15 -5 -30.5 -9t-31.5 -8v-268q-32 30 -72.5 46t-84.5 16q-54 0 -100.5 -19.5t-80.5 -53.5t-53.5 -80.5t-19.5 -100.5q0 -53 19 -99t52 -80.5t78.5 -54t99.5 -19.5q45 0 88 16.5t75 48.5v-61zM467 164q0 -11 -4 -20.5t-9 -18.5q-20 -37 -53 -56t-70 -22.5
t-75 8t-68.5 36t-49.5 61.5t-19 85q0 51 20 89.5t52 63t70.5 34.5t76.5 4t70 -28t50 -62q2 -5 5.5 -14t3.5 -15v-145z" />
    <glyph glyph-name="e" unicode="e" horiz-adv-x="512" 
d="M477 316l-375 -121q8 -33 25 -60.5t41 -47t54 -30.5t64 -11q51 0 96 24.5t83 56.5v-74q-42 -38 -90 -55t-96 -15.5t-92 20.5t-78 52.5t-54 80.5t-20 105q0 76 30 129t75.5 82.5t100.5 35.5t104 -11t85.5 -57.5t46.5 -103.5zM391 349q-12 35 -37.5 55t-57.5 25t-66 -3.5
t-62.5 -31.5t-47.5 -59.5t-21 -86.5z" />
    <glyph glyph-name="f" unicode="f" horiz-adv-x="281" 
d="M295 640l-9 61q-22 11 -45 11q-81 0 -130 -42.5t-49 -126.5v-64h-67l-9 -57h76v-432l62 11v422h115v57h-115q0 34 0.5 65t10.5 54.5t32.5 37.5t66.5 14q16 0 31 -3t30 -8z" />
    <glyph glyph-name="g" unicode="g" 
d="M490 432h-98q31 -35 42.5 -75t5.5 -78t-30 -72.5t-63 -58.5q46 -22 72.5 -58t34 -78t-3 -84.5t-37 -77t-69 -56t-99.5 -21.5t-99.5 22t-69.5 57t-37.5 78t-2.5 84.5t35.5 76.5t75.5 55q-44 23 -68 57.5t-30 73t5 76.5t37 69t66 50t93 19q48 0 89 -21v6l151 16v-60z
M375 299q0 32 -11 56.5t-29.5 41t-42 24.5t-47.5 8t-47.5 -8.5t-42 -25t-29.5 -42t-11 -58.5q0 -30 11 -52.5t29.5 -37.5t41.5 -23t47 -8q25 0 48.5 7.5t41.5 23t29 39t11 55.5h1zM390 -24q0 45 -21.5 76t-54 47t-70.5 16q-37 0 -69.5 -15.5t-54 -47.5t-21.5 -80
q0 -34 12.5 -59.5t33 -42.5t46.5 -25.5t53 -8.5t53.5 8.5t47 26t33 44t12.5 61.5z" />
    <glyph glyph-name="h" unicode="h" horiz-adv-x="517" 
d="M452 1v298q0 87 -46 139.5t-136 52.5q-46 0 -81.5 -20.5t-61.5 -56.5v300q-15 -5 -30.5 -9t-31.5 -9v-706l62 11v322q0 3 3 11t5 11q24 48 66.5 70.5t84.5 18t73 -38t31 -97.5v-308z" />
    <glyph glyph-name="i" unicode="i" horiz-adv-x="227" 
d="M151 609q0 18 -11.5 27.5t-26.5 9.5q-14 0 -25.5 -9t-11.5 -28q0 -18 11.5 -27.5t25.5 -9.5q15 0 26.5 9t11.5 28zM147 1v490q-15 -5 -30.5 -10t-30.5 -10v-481z" />
    <glyph glyph-name="j" unicode="j" horiz-adv-x="227" 
d="M167 609q0 18 -11.5 27.5t-26 10t-26 -9t-11.5 -28.5t11.5 -28.5t26 -9t26 10t11.5 27.5zM-6 -211q48 0 80.5 15t52 42.5t28 64.5t8.5 80v500q-16 -5 -31 -10t-31 -10v-478q0 -36 -4.5 -64.5t-18 -47.5t-38.5 -27.5t-66 -4.5z" />
    <glyph glyph-name="k" unicode="k" horiz-adv-x="430" 
d="M410 14l-252 232l226 226l-64 17l-234 -231v450l-62 -11v-707l62 11v228l267 -238z" />
    <glyph glyph-name="l" unicode="l" horiz-adv-x="321" 
d="M298 63l-1 -61q-32 -11 -65 -13.5t-61.5 7t-49 32.5t-26.5 62h-1q-2 153 -1 303t1 303q15 5 30.5 9t30.5 9v-579q0 -23 2.5 -40t11 -28t23.5 -16t41 -5q17 0 33 5t32 12z" />
    <glyph glyph-name="m" unicode="m" horiz-adv-x="797" 
d="M728 1v298q0 37 -9 71.5t-28 61.5t-48.5 43t-71.5 16q-52 0 -91 -23.5t-66 -67.5q-23 46 -59.5 68.5t-77 23.5t-80 -19t-67.5 -59v77q-31 -9 -61 -15v-486l63 11v316q0 5 3 13t5 13q14 34 36.5 55.5t47.5 30t51 4.5t46.5 -20t33.5 -45t13 -70v-308l62 11v316q0 5 3 12.5
l5 12.5q15 34 37.5 55.5t48 30.5t51 5t46 -20.5t33 -45t12.5 -69.5v-308z" />
    <glyph glyph-name="n" unicode="n" horiz-adv-x="517" 
d="M452 1v298q0 87 -46 139.5t-136 52.5q-46 0 -82 -20.5t-62 -56.5v77q-31 -9 -61 -15v-486l62 11v322q0 2 4 11.5t5 11.5q20 40 54.5 63.5t79.5 23.5q63 0 91.5 -38t28.5 -97v-308z" />
    <glyph glyph-name="o" unicode="o" horiz-adv-x="571" 
d="M534 237q0 52 -19 98.5t-52.5 81t-79 54.5t-98.5 20t-98.5 -20t-78.5 -54.5t-52 -81t-19 -98.5t19 -98t52.5 -80.5t78.5 -54.5t98 -20q52 0 97.5 20t79.5 54.5t53 80.5t19 98zM470 237h-1q0 -38 -14 -73t-38.5 -61.5t-58.5 -42t-73 -15.5t-72.5 15.5t-58.5 42t-39 61.5
t-14 73t14 73t38.5 61.5t58.5 42.5t73 16t73 -15.5t59 -42t39 -61.5t14 -74z" />
    <glyph glyph-name="p" unicode="p" horiz-adv-x="583" 
d="M119 45q33 -31 77 -46t89 -15q50 0 94 20.5t77 55.5t52 80t19 95q0 55 -18 102t-51 81t-79 53.5t-102 19.5q-45 0 -86 -17.5t-73 -49.5v61l-62 -9v-689l63 11v247zM461 233h-1q0 -48 -19 -85t-49.5 -61t-68 -34t-74 -5.5t-69 25t-51.5 58.5q-2 5 -6 13t-4 13v155
q0 8 2.5 15t5.5 14q16 37 47 58.5t68 28t76 -2.5t70.5 -33.5t52 -64t20.5 -94.5z" />
    <glyph glyph-name="q" unicode="q" horiz-adv-x="583" 
d="M528 -202v689l-62 -8v-59q-31 32 -72.5 51.5t-86.5 19.5q-54 0 -100.5 -20.5t-80 -56t-52.5 -82.5t-19 -101q0 -52 18.5 -97t51 -78.5t77 -52.5t97.5 -19q46 0 89 17t78 45v-259zM467 311l-1 -149q0 -5 -2.5 -11t-4.5 -10q-20 -41 -53 -64.5t-70.5 -30t-76.5 2.5
t-70 32.5t-50.5 61.5t-19.5 88q0 53 19.5 92.5t50.5 64.5t69 35.5t75.5 5t70 -27t52.5 -59.5q3 -6 7 -15t4 -16z" />
    <glyph glyph-name="r" unicode="r" horiz-adv-x="328" 
d="M308 460q-29 30 -62 31.5t-64 -14t-57.5 -42.5t-41.5 -54v104l-62 -9v-486l62 11v271q0 22 13 49.5t33 51.5t45 40t49 16q19 0 30.5 -8t24.5 -20z" />
    <glyph glyph-name="s" unicode="s" horiz-adv-x="394" 
d="M36 47q32 -29 72 -46.5t84 -17.5q31 0 60.5 10t53 28.5t37.5 45t14 60.5q0 42 -18.5 68t-46.5 42t-60 26t-60 21.5t-46.5 27t-18.5 43.5q0 21 9 35.5t23.5 23.5t32.5 13t36 4q33 0 63.5 -15t55.5 -36l19 57q-39 35 -90.5 46.5t-98 0.5t-79 -44t-32.5 -85
q0 -42 18.5 -67.5t46.5 -41t60.5 -26t60.5 -22t46.5 -28.5t18.5 -46q0 -21 -9.5 -35.5t-24 -24.5t-33 -14.5t-36.5 -4.5q-36 0 -69.5 15t-60.5 38z" />
    <glyph glyph-name="t" unicode="t" horiz-adv-x="312" 
d="M306 63q-16 -7 -32.5 -12t-33.5 -5q-26 0 -41 5t-23.5 16t-11 28t-2.5 40v288h132v57h-132v156l-62 -44v-113h-86l-8 -57h95v-306q0 -45 18 -73.5t47 -42.5t65 -13.5t73 15.5z" />
    <glyph glyph-name="u" unicode="u" horiz-adv-x="517" 
d="M452 0v481l-62 -9v-185q0 -23 1 -45.5t-1 -45.5q-2 -30 -12 -58t-28 -49.5t-43.5 -34t-58.5 -12.5q-35 0 -58.5 11t-37.5 30.5t-19.5 46t-5.5 58.5v293l-62 -9v-295q0 -89 43.5 -141t136.5 -52q45 0 81.5 22t62.5 58v-68q17 -2 31.5 0t31.5 4z" />
    <glyph glyph-name="v" unicode="v" horiz-adv-x="458" 
d="M463 480q-14 2 -31.5 5.5t-31.5 1.5l-169 -377l-175 377q-16 -2 -30.5 -4t-31.5 -2l227 -497h21z" />
    <glyph glyph-name="w" unicode="w" horiz-adv-x="765" 
d="M770 480q-13 2 -30.5 5.5t-29.5 1.5l-161 -369l-161 369h-16l-159 -369l-157 369q-16 -2 -30.5 -4t-31.5 -2l213 -497h16l156 375l161 -375h17z" />
    <glyph glyph-name="x" unicode="x" horiz-adv-x="484" 
d="M479 8l-197 237l192 227q-17 4 -33 9t-33 5l-168 -196l-168 197l-66 -16l193 -226l-194 -238q17 -4 34 -9t34 -5l167 204l173 -205z" />
    <glyph glyph-name="y" unicode="y" horiz-adv-x="453" 
d="M460 480l-63 7l-162 -335l-179 334l-64 -6l209 -393l-141 -292l61 -8z" />
    <glyph glyph-name="z" unicode="z" horiz-adv-x="470" 
d="M452 56l-9 -60h-420l-5 12l322 409h-292l8 61h392l4 -13l-322 -409h322z" />
    <glyph glyph-name="braceleft" unicode="{" horiz-adv-x="355" 
d="M291 -185v61h-28q-32 0 -43.5 22.5t-13 58t1 79t-1.5 85.5t-20 77t-54 54q37 19 52.5 54t19.5 77t2 85.5t0 79.5t14 58.5t44 22.5h27v60h-35q-42 0 -65 -17t-34 -44.5t-13 -63.5t-1 -73.5t1 -73.5t-6.5 -65.5t-23.5 -48t-50 -21.5v-60q33 -2 50 -21t23.5 -48t6.5 -66
q0 -36 -1 -73.5t1 -73t13 -63.5t34.5 -45t65.5 -17h34z" />
    <glyph glyph-name="bar" unicode="|" horiz-adv-x="244" 
d="M153 -131v855h-62v-855h62z" />
    <glyph glyph-name="braceright" unicode="}" horiz-adv-x="355" 
d="M291 222v60q-34 2 -51 21t-24 48t-6.5 65.5t1 74t-1 73t-12.5 63.5t-34 45t-65 17h-34v-61h28q31 0 42.5 -22.5t13 -58t-0.5 -79t2 -85t19.5 -77t54.5 -54.5q-38 -19 -54 -54t-20 -77t-1.5 -85.5t0.5 -79.5t-13.5 -58.5t-43.5 -22.5h-27v-60h35q42 0 65 17t33.5 44.5
t12.5 63.5t1 73.5t-1.5 73.5t6.5 65.5t24 48t51 21.5z" />
    <glyph glyph-name="asciitilde" unicode="~" horiz-adv-x="652" 
d="M577 306q-8 -16 -23 -30t-33 -24.5t-37.5 -16.5t-37.5 -6q-35 0 -66 11.5t-60 25.5t-56.5 25t-54.5 11t-55 -16.5t-58 -58.5l-21 59q8 16 23 30t33 24.5t37.5 16.5t37.5 6q36 0 66.5 -11.5t59 -25.5t55 -25.5t53.5 -11.5t55.5 16.5t60.5 58.5z" />
    <glyph glyph-name="quotesinglbase" unicode="&#x201a;" horiz-adv-x="281" 
d="M258 640l-10 61q-20 11 -44 11q-81 0 -130.5 -42t-49.5 -127v-553l63 11v531q0 42 12.5 68.5t35.5 39t54 12t69 -11.5z" />
    <glyph glyph-name="florin" unicode="&#x192;" horiz-adv-x="550" 
d="M533 717q-77 21 -120.5 10t-67.5 -44.5t-35.5 -85t-23.5 -111.5h-99l-5 -61h92l-86 -425q-8 -38 -16.5 -70.5t-25 -51t-44 -19t-73.5 24.5q-2 -16 -4.5 -31.5t-7.5 -30.5q22 -11 45.5 -17.5t48.5 -6.5q35 0 58.5 13.5t39 36t24.5 50.5t15 57l97 471h117l7 61h-114
q4 21 8.5 52t14.5 60t27 50t46 21q37 0 71 -17z" />
    <glyph glyph-name="quotedblbase" unicode="&#x201e;" horiz-adv-x="387" 
d="M335 58l-52 20l-66 -173l52 -20zM170 58l-52 20l-66 -173l52 -20z" />
    <glyph glyph-name="ellipsis" unicode="&#x2026;" horiz-adv-x="1022" 
d="M884 30q0 19 -12 28t-26 9t-26 -9t-12 -28t12 -28.5t26 -9.5t26 9.5t12 28.5zM549 30h-1q0 19 -11.5 28.5t-26 9t-26 -10t-11.5 -27.5q0 -19 12 -28.5t26 -9.5t26 9.5t12 28.5zM214 30h-1q0 19 -11.5 28.5t-26 9t-26 -10t-11.5 -27.5q0 -19 12 -28.5t26 -9.5t26 9.5
t12 28.5z" />
    <glyph glyph-name="dagger" unicode="&#x2020;" horiz-adv-x="517" 
d="M465 392v74l-189 -18l21 245h-77l21 -245l-189 18v-74l189 18q-5 -43 -10.5 -85.5t-5.5 -86.5q0 -113 2.5 -225t2.5 -225h57q2 113 3.5 225t1.5 225q0 44 -5.5 86.5t-10.5 85.5z" />
    <glyph glyph-name="daggerdbl" unicode="&#x2021;" horiz-adv-x="512" 
d="M461 6v74l-187 -18q5 46 11 91.5t6 91.5q0 47 -6 92.5t-11 91.5l187 -18v74l-187 -18l20 226h-75l20 -226l-188 18v-74l188 18q-5 -46 -11 -91.5t-6 -92.5q0 -46 6 -91.5t11 -91.5l-188 18v-74l187 18l-22 -236h81l-22 236z" />
    <glyph glyph-name="circumflex" unicode="&#x2c6;" horiz-adv-x="300" 
d="M300 535l-116 161h-67l-117 -162h62l88 103l88 -103z" />
    <glyph glyph-name="perthousand" unicode="&#x2030;" horiz-adv-x="1048" 
d="M1031 154q0 34 -13 64.5t-35.5 53t-53 35.5t-64.5 13t-64 -13t-52.5 -35.5t-35.5 -52.5t-13 -64t13 -64t35.5 -52.5t52.5 -36t64 -13.5t64 13t52.5 35.5t36 52.5t13.5 64zM348 528h-1q0 34 -13 64t-35 52.5t-52 36t-64 13.5t-64 -13t-52.5 -35.5t-36 -52.5t-13.5 -64
t13.5 -64t36 -53t52.5 -36.5t64 -13.5t64 13.5t52.5 36t35.5 52.5t13 64zM601 692h-60q-115 -183 -237 -358.5t-245 -352.5h61zM670 154q0 34 -13 64.5t-35.5 53t-53 35.5t-64.5 13t-64 -13t-52.5 -35.5t-35.5 -52.5t-13 -64t13 -64t35.5 -52.5t52.5 -36t64 -13.5t64 13
t52.5 35.5t36 52.5t13.5 64zM976 151q0 -22 -9 -41.5t-24 -34.5t-34.5 -23.5t-41.5 -8.5q-23 0 -43.5 8.5t-36.5 23.5t-25.5 35t-9.5 43q0 36 16.5 61t41.5 37t54 12t54 -12t41.5 -37t16.5 -63zM293 525h-1q0 -22 -8.5 -42t-23.5 -35t-34.5 -23.5t-41.5 -8.5q-23 0 -43.5 9
t-36.5 24t-25.5 35t-9.5 43t9 43.5t25 35.5t36.5 24t43.5 9t43 -9.5t35 -25t23.5 -36.5t8.5 -43zM615 151q0 -22 -9 -41.5t-24 -34.5t-34.5 -23.5t-41.5 -8.5q-23 0 -43.5 8.5t-36.5 23.5t-25.5 35t-9.5 43q0 36 16.5 61t41.5 37t54 12t54 -12t41.5 -37t16.5 -63z" />
    <glyph glyph-name="Scaron" unicode="&#x160;" horiz-adv-x="507" 
d="M403 885h-62l-88 -103l-88 103h-62l117 -162h67zM48 76q30 -39 72 -61.5t87.5 -29t90.5 2.5t80.5 33.5t57.5 65t22 95.5q0 61 -25 97.5t-62 58.5t-81 36t-81 31t-62 42t-25 70q0 30 11.5 53t31 38t45 22.5t53.5 7.5q42 0 80 -18.5t69 -45.5l22 61q-30 31 -70 47.5
t-82.5 19.5t-84 -8t-74 -34.5t-52.5 -60.5t-20 -86q0 -60 25 -95.5t62.5 -57t81 -35t81 -31t62.5 -44t25 -73.5q0 -30 -11.5 -54t-31 -41.5t-45.5 -26.5t-54 -9q-51 0 -94 26.5t-76 62.5z" />
    <glyph glyph-name="guilsinglleft" unicode="&#x2039;" horiz-adv-x="302" 
d="M265 408l-56 20l-171 -187l169 -187l56 20l-149 167z" />
    <glyph glyph-name="OE" unicode="&#x152;" horiz-adv-x="970" 
d="M936 58h-316v257h276v62h-276v250h304l-7 62h-363v-60q-29 34 -75.5 51t-90.5 17q-74 0 -138.5 -27.5t-112.5 -75t-75.5 -112t-27.5 -138.5q0 -75 27 -140t74 -113.5t112 -76t140 -27.5q48 0 93.5 16.5t76.5 54.5v-63h373zM556 494q0 -76 -0.5 -151t-0.5 -151
q0 -33 -14 -59t-37 -45t-52.5 -29t-59.5 -10q-62 0 -115 23t-91 62.5t-59.5 93t-21.5 115.5q0 59 22 112t61 93t91 63.5t112 23.5q29 0 58.5 -10t53 -29t38.5 -45t15 -57z" />
    <glyph glyph-name="quoteleft" unicode="&#x2018;" horiz-adv-x="227" 
d="M172 658l-51 20l-66 -173l51 -20z" />
    <glyph glyph-name="quoteright" unicode="&#x2019;" horiz-adv-x="227" 
d="M172 658l-51 20l-66 -173l51 -20z" />
    <glyph glyph-name="quotedblleft" unicode="&#x201c;" horiz-adv-x="387" 
d="M335 658l-52 20l-66 -173l52 -20zM170 658l-52 20l-66 -173l52 -20z" />
    <glyph glyph-name="quotedblright" unicode="&#x201d;" horiz-adv-x="387" 
d="M335 658l-52 20l-66 -173l52 -20zM170 658l-52 20l-66 -173l52 -20z" />
    <glyph glyph-name="bullet" unicode="&#x2022;" 
d="M413 342q0 -31 -12 -58.5t-33 -48.5t-48.5 -33t-58.5 -12t-58.5 12t-48.5 33t-33 48.5t-12 58.5t12 58.5t33 48.5t48.5 33t58.5 12t58.5 -12t48.5 -33t33 -48.5t12 -58.5z" />
    <glyph glyph-name="endash" unicode="&#x2013;" 
d="M519 227v47h-516v-48z" />
    <glyph glyph-name="emdash" unicode="&#x2014;" horiz-adv-x="1022" 
d="M1019 227v47h-1016v-48z" />
    <glyph glyph-name="tilde" unicode="&#x2dc;" horiz-adv-x="300" 
d="M314 665h-43q-5 -27 -17 -37.5t-29 -10.5q-16 0 -35.5 7.5t-40 16t-40.5 16t-37 7.5q-23 0 -39 -9t-26 -24t-15 -34t-6 -39h43q4 27 16 37.5t28 10.5t35.5 -7.5t40 -16t41 -16t38.5 -7.5q23 0 39 9t26.5 24t15 34t5.5 39z" />
    <glyph glyph-name="trademark" unicode="&#x2122;" horiz-adv-x="987" 
d="M884 292v397h-101l-103 -296l-108 296h-98v-398h62v323l121 -323h40l123 323v-323zM427 633v56h-324v-57h131v-341h64v342h129z" />
    <glyph glyph-name="scaron" unicode="&#x161;" horiz-adv-x="394" 
d="M343 695h-62l-88 -103l-89 103h-62l118 -162h66zM36 47q32 -29 72 -46.5t84 -17.5q31 0 60.5 10t53 28.5t37.5 45t14 60.5q0 42 -18.5 68t-46.5 42t-60 26t-60 21.5t-46.5 27t-18.5 43.5q0 21 9 35.5t23.5 23.5t32.5 13t36 4q33 0 63.5 -15t55.5 -36l19 57
q-39 35 -90.5 46.5t-98 0.5t-79 -44t-32.5 -85q0 -42 18.5 -67.5t46.5 -41t60.5 -26t60.5 -22t46.5 -28.5t18.5 -46q0 -21 -9.5 -35.5t-24 -24.5t-33 -14.5t-36.5 -4.5q-36 0 -69.5 15t-60.5 38z" />
    <glyph glyph-name="guilsinglright" unicode="&#x203a;" horiz-adv-x="302" 
d="M264 241l-171 187l-56 -20l151 -167l-149 -167l56 -20z" />
    <glyph glyph-name="oe" unicode="&#x153;" horiz-adv-x="939" 
d="M896 312q-8 53 -32.5 90.5t-59.5 59t-76.5 27.5t-83 -4.5t-79.5 -36.5t-65 -68q-35 52 -82.5 79t-98.5 32t-100 -10.5t-88 -48.5t-63 -82.5t-24 -112.5q0 -65 25 -114.5t65.5 -82.5t90.5 -47t101 -7.5t97.5 34.5t78.5 81q27 -54 74.5 -82.5t102 -34t109 12t95.5 56.5v74
q-34 -32 -78 -56.5t-92 -24.5q-33 0 -61.5 11.5t-51 32t-37.5 47.5t-22 58q15 5 44 16t65 24t74.5 26.5t73 25t61 18.5t37.5 7zM809 350l-272 -101q2 47 19.5 83t43.5 59.5t57 33.5t61 5t54.5 -24.5t36.5 -55.5zM472 237q0 -38 -14 -73t-38.5 -61.5t-58 -42t-72.5 -15.5
t-72 16t-57.5 42.5t-38 61t-13.5 72.5t13.5 73t38 61.5t58 42.5t72.5 16t72.5 -16t57.5 -42.5t38 -61.5t14 -73z" />
    <glyph glyph-name="Ydieresis" unicode="&#x178;" horiz-adv-x="564" 
d="M409 799q0 19 -12 28t-26 9t-26 -9t-12 -28t12 -28.5t26 -9.5t26 9.5t12 28.5zM234 799h-1q0 19 -11.5 28.5t-26 9t-26 -10t-11.5 -27.5q0 -19 12 -28.5t26 -9.5t26 9.5t12 28.5zM575 688l-75 9l-211 -320l-226 320l-74 -9l264 -375l-56 -321l66 7l56 295z" />
    <glyph glyph-name="exclamdown" unicode="&#xa1;" horiz-adv-x="222" 
d="M149 434q0 18 -11.5 27.5t-26.5 9.5q-14 0 -25.5 -9t-11.5 -28q0 -18 11.5 -27.5t25.5 -9.5q15 0 26.5 9t11.5 28zM147 -203l-8 527l-53 -4l-13 -528q20 2 36.5 5t37.5 0z" />
    <glyph glyph-name="cent" unicode="&#xa2;" horiz-adv-x="481" 
d="M406 129q-31 -27 -70.5 -38t-79.5 -7l-34 -170l-53 -7l38 188q-52 18 -83 55.5t-43 82.5t-4.5 93t33.5 87.5t71 65.5t107 27l29 149l53 7l-33 -165q18 -5 34.5 -14t32.5 -19l-21 -59q-14 11 -28 19.5t-30 13.5l-58 -293q37 -1 62.5 8t55.5 32zM275 445q-39 -2 -67 -19.5
t-45 -44t-22.5 -58.5t1.5 -63.5t26 -58.5t51 -43z" />
    <glyph glyph-name="sterling" unicode="&#xa3;" horiz-adv-x="548" 
d="M503 598q-16 28 -32.5 49t-37 35.5t-46 21.5t-58.5 7q-42 0 -75 -15.5t-55.5 -42t-34.5 -62t-12 -75.5q0 -36 -0.5 -71.5t-0.5 -71.5h-75l-13 -63h86l-1 -258h-101l1 -57h447v56l-281 1v259h122v63h-119l1 142q0 27 6.5 52t20 44.5t35 31t51.5 11.5q44 0 72 -23t50 -58z
" />
    <glyph glyph-name="currency" unicode="&#xa4;" horiz-adv-x="639" 
d="M638 109q-66 -42 -140 -55.5t-141.5 4t-119.5 67t-74 132.5h354v47h-362q-3 20 -2.5 41.5t2.5 41.5h362v47h-352q14 46 40.5 83.5t62.5 64t79.5 41t91.5 14.5q53 0 102 -17t94 -43l-6 78q-78 43 -162.5 46.5t-160 -27t-133 -92.5t-80.5 -149h-92v-47h83
q-2 -20 -2.5 -41.5t1.5 -41.5h-82v-47h89q13 -61 44 -109.5t73.5 -83.5t95 -55t108 -24.5t112.5 7.5t109 41z" />
    <glyph glyph-name="currency" unicode="&#x20ac;" horiz-adv-x="639" 
d="M638 109q-66 -42 -140 -55.5t-141.5 4t-119.5 67t-74 132.5h354v47h-362q-3 20 -2.5 41.5t2.5 41.5h362v47h-352q14 46 40.5 83.5t62.5 64t79.5 41t91.5 14.5q53 0 102 -17t94 -43l-6 78q-78 43 -162.5 46.5t-160 -27t-133 -92.5t-80.5 -149h-92v-47h83
q-2 -20 -2.5 -41.5t1.5 -41.5h-82v-47h89q13 -61 44 -109.5t73.5 -83.5t95 -55t108 -24.5t112.5 7.5t109 41z" />
    <glyph glyph-name="yen" unicode="&#xa5;" horiz-adv-x="550" 
d="M553 705l-79 9l-198 -361l-199 361l-80 -9l190 -332h-135v-61h170l17 -30v-40h-177v-61h177v-189l73 7v183h173v61h-173v40l17 30h166v61h-131z" />
    <glyph glyph-name="brokenbar" unicode="&#xa6;" horiz-adv-x="244" 
d="M153 362v362h-62v-363zM153 -131v362h-62v-362h62z" />
    <glyph glyph-name="section" unicode="&#xa7;" horiz-adv-x="470" 
d="M328 42q39 20 68 55.5t29 81.5t-20 84.5t-50 71t-65.5 61.5t-65.5 57t-50 55.5t-20 58.5q0 35 25.5 57.5t59.5 22.5q26 0 53.5 -13t47.5 -28l36 35q-44 40 -89 52.5t-83.5 4.5t-67 -33t-40 -60t-1.5 -76t47 -81q-39 -20 -68 -55.5t-29 -81.5q0 -47 20 -85.5t50 -71
t65.5 -61.5t65.5 -56.5t50 -55t20 -58.5q0 -17 -7.5 -32t-19.5 -25.5t-27.5 -16.5t-31.5 -6q-26 0 -53.5 17t-45.5 34l-39 -34q44 -45 89 -60.5t83.5 -8.5t67.5 32t40.5 60.5t2.5 77t-47 81.5zM177 404q26 -16 58.5 -41t60.5 -55.5t47 -64t19 -67.5q0 -33 -19 -56t-50 -33
q-27 16 -59 41.5t-60 55.5t-47 64t-19 68t18.5 56t50.5 32z" />
    <glyph glyph-name="dieresis" unicode="&#xa8;" horiz-adv-x="300" 
d="M275 609q0 18 -11.5 27.5t-26.5 9.5q-14 0 -25.5 -9t-11.5 -28q0 -18 11.5 -27.5t25.5 -9.5q15 0 26.5 9t11.5 28zM100 609q0 18 -11.5 27.5t-26.5 9.5q-14 0 -25.5 -9t-11.5 -28q0 -18 11.5 -27.5t25.5 -9.5q15 0 26.5 9t11.5 28z" />
    <glyph glyph-name="copyright" unicode="&#xa9;" horiz-adv-x="822" 
d="M783 350q0 76 -29.5 144t-80 118t-118.5 79.5t-144 29.5q-77 0 -144.5 -29.5t-118 -80t-80 -118t-29.5 -144.5t29.5 -144.5t80 -117.5t118 -79.5t144.5 -29.5t144.5 29.5t118 80t80 118t29.5 144.5zM721 349h-1q0 -63 -24.5 -119.5t-66.5 -99t-98 -67.5t-120 -25
t-120.5 25t-98.5 67.5t-66.5 99t-24.5 120.5q0 63 24.5 119.5t67 99t99 67.5t119.5 25q64 0 120.5 -25t98.5 -67.5t66.5 -99t24.5 -120.5zM593 275l-58 9q-8 -38 -30 -62.5t-50.5 -34t-60 -4t-58 26t-43.5 56t-17 87.5q0 46 16.5 79t42 52.5t56 25.5t59 -2t51.5 -29.5
t32 -56.5l60 7q-14 54 -47 87t-75.5 45.5t-88 4.5t-83.5 -35t-62.5 -72.5t-24.5 -108.5q0 -66 25 -113.5t63.5 -75t84.5 -35t88.5 6.5t75.5 49t44 93z" />
    <glyph glyph-name="ordfeminine" unicode="&#xaa;" horiz-adv-x="296" 
d="M264 417v198q0 22 -8.5 38.5t-23 26.5t-33 15t-38.5 5q-26 0 -50 -7.5t-47 -18.5l-8 -47q23 14 48.5 24t52.5 10q24 0 43.5 -11.5t19.5 -38.5v-33q-55 16 -93.5 8t-61.5 -28.5t-30 -49t2.5 -55t35.5 -44.5t68 -18q22 0 43 9t37 24l3 -25zM220 521v-41q0 -20 -22.5 -33
t-49.5 -15t-49.5 10t-22.5 42q0 26 19.5 43t44.5 23t48.5 -1t31.5 -28z" />
    <glyph glyph-name="guillemotleft" unicode="&#xab;" horiz-adv-x="494" 
d="M451 408l-56 20l-171 -187l169 -187l56 20l-150 167zM272 408l-56 20l-171 -187l169 -187l56 20l-150 167z" />
    <glyph glyph-name="logicalnot" unicode="&#xac;" horiz-adv-x="652" 
d="M588 146v291h-524v-60h465v-232z" />
    <glyph glyph-name="registered" unicode="&#xae;" horiz-adv-x="822" 
d="M783 350q0 76 -29.5 144t-80 118t-118.5 79.5t-144 29.5q-77 0 -144.5 -29.5t-118 -80t-80 -118t-29.5 -144.5t29.5 -144.5t80 -117.5t118 -79.5t144.5 -29.5t144.5 29.5t118 80t80 118t29.5 144.5zM721 349h-1q0 -64 -24.5 -120.5t-66.5 -99t-98 -67t-120 -24.5
t-120.5 25t-98.5 67.5t-66.5 99t-24.5 120.5t24.5 120.5t66.5 99t98.5 67t120.5 24.5t120.5 -25t98.5 -67.5t66.5 -99t24.5 -120.5zM591 138q-13 23 -26 48.5t-27 49.5t-31 46.5t-38 39.5q45 8 73.5 37.5t28.5 77.5q0 35 -12 58t-32.5 36.5t-48 19t-57.5 5.5h-157v-417h62
q-1 45 -1 89v89h54q26 -14 46 -34t36 -43.5t29.5 -49t26.5 -50.5zM507 437h-1q0 -33 -20.5 -48t-49.5 -19.5t-60 -2.5t-52 2v134h88q18 0 35 -2t30.5 -9t21.5 -20t8 -35z" />
    <glyph glyph-name="macron" unicode="&#xaf;" horiz-adv-x="300" 
d="M295 582v58h-290v-59z" />
    <glyph glyph-name="degree" unicode="&#xb0;" horiz-adv-x="422" 
d="M358 556q0 30 -11.5 57t-31.5 47t-47 31.5t-57 11.5t-57 -11.5t-47 -31.5t-31.5 -47t-11.5 -57t11.5 -57t31.5 -47t47 -31.5t57 -11.5t57 11.5t47 31.5t31.5 47t11.5 57zM305 556h-1q0 -31 -14 -52t-34.5 -31t-45.5 -10q-24 0 -44.5 10.5t-34.5 31t-14 51.5t14 51.5
t35 31t45 10.5t45 -10.5t35 -31t14 -51.5z" />
    <glyph glyph-name="plusminus" unicode="&#xb1;" horiz-adv-x="652" 
d="M588 296v60h-232v207h-60v-208h-232v-60h233v-206h60v207h231zM588 -5v61h-524v-61h524z" />
    <glyph glyph-name="twosuperior" unicode="&#xb2;" horiz-adv-x="329" 
d="M308 341h-194q21 20 50.5 48t57 59.5t46.5 64.5t19 64q0 29 -12 52t-31.5 39.5t-44.5 25t-52 8.5q-35 0 -66.5 -14.5t-49.5 -46.5q-3 -5 -6 -12t-3 -13q0 -15 6 -25t15 -17t20.5 -12t23.5 -11h9v9l-9 2l-2 2q-14 3 -23 13.5t-11 24.5q15 35 46.5 49.5t63.5 10.5t56 -25
t24 -55q0 -32 -25 -70.5t-60 -76t-72 -70t-60 -52.5v-11h278z" />
    <glyph glyph-name="threesuperior" unicode="&#xb3;" horiz-adv-x="329" 
d="M33 346l21 29q22 -23 55 -33.5t64 -7t53.5 22t22.5 54.5q0 27 -11.5 43t-30 24t-41 10t-43.5 2v37q56 0 83.5 16t33.5 37.5t-7.5 43t-39 32.5t-61 6t-74.5 -37l-17 33q27 26 69 36.5t81.5 3.5t67.5 -31.5t28 -68.5q0 -32 -19.5 -54t-47.5 -33q47 -18 64.5 -54t7.5 -72
t-45 -63t-93 -27q-34 0 -66.5 12.5t-54.5 38.5z" />
    <glyph glyph-name="acute" unicode="&#xb4;" horiz-adv-x="300" 
d="M253 696l-92 -2l-112 -156h53z" />
    <glyph glyph-name="mu" unicode="&#xb5;" horiz-adv-x="550" 
d="M468 0v481l-63 -9q0 -69 2.5 -138t-1.5 -138q-2 -30 -12 -58t-28 -49t-43.5 -34t-57.5 -13q-35 0 -58.5 11t-37.5 30.5t-19.5 46t-5.5 58.5v293l-62 -9v-653h63v207q24 -23 55.5 -32t63.5 -9q45 0 80.5 21.5t60.5 57.5v-68q17 -2 31.5 0t31.5 4z" />
    <glyph glyph-name="paragraph" unicode="&#xb6;" horiz-adv-x="647" 
d="M558 -196q0 227 -0.5 451t-0.5 451h-232q-48 0 -91 -11t-75.5 -35t-51 -62t-18.5 -91q0 -47 16 -84.5t44.5 -63.5t67 -40t84.5 -14v-501h70v835h117v-835h70z" />
    <glyph glyph-name="periodcentered" unicode="&#xb7;" horiz-adv-x="227" 
d="M151 249q0 18 -11.5 27.5t-26.5 9.5q-14 0 -25.5 -9t-11.5 -28q0 -18 11.5 -27.5t25.5 -9.5q15 0 26.5 9t11.5 28z" />
    <glyph glyph-name="periodcentered" unicode="&#xe000;" horiz-adv-x="227" 
d="M151 249q0 18 -11.5 27.5t-26.5 9.5q-14 0 -25.5 -9t-11.5 -28q0 -18 11.5 -27.5t25.5 -9.5q15 0 26.5 9t11.5 28z" />
    <glyph glyph-name="periodcentered" unicode="&#x2219;" horiz-adv-x="227" 
d="M151 249q0 18 -11.5 27.5t-26.5 9.5q-14 0 -25.5 -9t-11.5 -28q0 -18 11.5 -27.5t25.5 -9.5q15 0 26.5 9t11.5 28z" />
    <glyph glyph-name="cedilla" unicode="&#xb8;" horiz-adv-x="300" 
d="M59 -181l11 41q28 -11 53 -11q36 0 50 14t10 29t-23.5 24.5t-50.5 0.5l-13 11l49 87h44l-34 -55q3 1 5.5 1.5t5.5 0.5q30 0 48.5 -15.5t24 -37.5t-2.5 -45.5t-29.5 -39.5t-58.5 -19.5t-89 14.5z" />
    <glyph glyph-name="onesuperior" unicode="&#xb9;" horiz-adv-x="329" 
d="M219 306v401l-111 -49l10 -20l55 27v-366z" />
    <glyph glyph-name="ordmasculine" unicode="&#xba;" horiz-adv-x="366" 
d="M346 545q0 51 -24 85t-60.5 51t-78.5 17t-78.5 -17t-60.5 -51t-24 -85q0 -33 13.5 -61.5t36 -49t52 -32t61.5 -11.5t61.5 11.5t52 32.5t36 49t13.5 61zM301 545q0 -37 -17.5 -61.5t-43.5 -37t-57 -13t-57 12t-43.5 37.5t-17.5 62q0 38 17.5 63t43.5 37.5t57 12t57 -13
t43.5 -37.5t17.5 -62z" />
    <glyph glyph-name="guillemotright" unicode="&#xbb;" horiz-adv-x="494" 
d="M449 241l-171 187l-56 -20l152 -167l-150 -167l56 -20zM270 241l-171 187l-56 -20l152 -167l-150 -167l56 -20z" />
    <glyph glyph-name="onequarter" unicode="&#xbc;" horiz-adv-x="814" 
d="M720 160h-69v241l-13 -2l-226 -265v-11h194v-132l46 7v126h64zM655 702h-58l-491 -729h57zM204 306v401l-111 -49l10 -20l55 27v-366zM606 159h-124l124 150v-150z" />
    <glyph glyph-name="onehalf" unicode="&#xbd;" horiz-adv-x="814" 
d="M735 34h-194q21 20 51 48t57 59.5t46.5 64.5t19.5 64q0 29 -12 52t-31.5 39.5t-44.5 25t-52 8.5q-35 0 -67.5 -14.5t-49.5 -46.5q-2 -5 -5.5 -12.5t-3.5 -12.5q0 -16 6 -26t15.5 -17t21 -12t23.5 -10h8l1 9l-10 2l-2 2q-14 3 -22.5 13.5t-10.5 24.5q15 36 46.5 50
t63.5 9.5t56 -25t24 -54.5q0 -21 -12 -45.5t-31 -50t-43 -50.5t-48 -48t-46.5 -42.5l-37.5 -32.5v-11h279zM625 702h-58l-491 -729h57zM195 306v401l-111 -49l10 -20l55 27v-366z" />
    <glyph glyph-name="threequarters" unicode="&#xbe;" horiz-adv-x="814" 
d="M764 160h-69v241l-14 -2l-225 -265v-11h193v-132l46 7v126h65zM694 702h-59l-491 -729h58zM50 346q22 -26 54.5 -38.5t66.5 -12.5q58 0 93 27t45 63t-7.5 72t-64.5 54q28 11 47.5 33t19.5 54q0 30 -13 50.5t-34.5 33t-48 16.5t-54 1t-53 -13.5t-43.5 -27.5l17 -33
q39 32 74.5 37t61 -6t39 -32.5t7.5 -43t-33.5 -37.5t-83.5 -16v-37q21 0 43.5 -2t41 -10t30 -24t11.5 -43q0 -36 -22.5 -54.5t-53.5 -22t-64 7t-55 33.5zM649 159h-124l124 150v-150z" />
    <glyph glyph-name="questiondown" unicode="&#xbf;" horiz-adv-x="385" 
d="M247 438q0 22 -14.5 33.5t-32.5 11.5q-17 0 -31.5 -11.5t-14.5 -34.5t14.5 -34t31.5 -11q18 0 32.5 11.5t14.5 34.5zM343 -128l-16 59h-11q-20 -48 -55 -67.5t-69.5 -15t-59.5 31t-25 72.5q0 52 20.5 86.5t45.5 62t45.5 55t20.5 66.5q0 29 -7 56t-15 54l-40 -17
q4 -15 7 -30.5t3 -31.5q0 -27 -10.5 -47.5t-27 -40t-35 -39t-35 -43.5t-27 -55t-10.5 -73q0 -45 17 -78.5t44 -54.5t60.5 -29.5t67 -3t63.5 26t49 56.5z" />
    <glyph glyph-name="Agrave" unicode="&#xc0;" horiz-adv-x="689" 
d="M434 729l-114 155l-93 2l153 -158zM691 -4l-336 704h-20l-337 -704l70 -9l124 263h308l125 -263zM469 311h-248l124 260z" />
    <glyph glyph-name="Aacute" unicode="&#xc1;" horiz-adv-x="689" 
d="M504 886l-92 -2l-113 -156h54zM691 -4l-336 704h-20l-337 -704l70 -9l124 263h308l125 -263zM469 311h-248l124 260z" />
    <glyph glyph-name="Acircumflex" unicode="&#xc2;" horiz-adv-x="689" 
d="M495 725l-117 161h-66l-118 -162h62l89 103l88 -103zM691 -4l-336 704h-20l-337 -704l70 -9l124 263h308l125 -263zM469 311h-248l124 260z" />
    <glyph glyph-name="Atilde" unicode="&#xc3;" horiz-adv-x="689" 
d="M511 855h-44q-4 -27 -15 -37.5t-28 -10.5q-16 0 -36.5 7t-41 16t-40.5 16.5t-37 7.5q-23 0 -39 -9t-26.5 -24t-15.5 -34t-6 -39h44q4 27 16 37.5t28 10.5t35.5 -7.5t40 -16t41 -16t37.5 -7.5q23 0 39 9t26.5 24t15.5 34t6 39zM691 -4l-336 704h-20l-337 -704l70 -9
l124 263h308l125 -263zM469 311h-248l124 260z" />
    <glyph glyph-name="Adieresis" unicode="&#xc4;" horiz-adv-x="689" 
d="M468 739q0 19 -12 28t-26 9t-26 -9t-12 -28t12 -28.5t26 -9.5t26 9.5t12 28.5zM293 739h-1q0 19 -11.5 28.5t-26 9t-26 -10t-11.5 -27.5q0 -19 12 -28.5t26 -9.5t26 9.5t12 28.5zM691 -4l-336 704h-20l-337 -704l70 -9l124 263h308l125 -263zM469 311h-248l124 260z" />
    <glyph glyph-name="Aring" unicode="&#xc5;" horiz-adv-x="689" 
d="M443 818q0 32 -14.5 53.5t-36.5 32.5t-47 11t-47 -11t-36.5 -32.5t-14.5 -53.5t14.5 -53.5t36.5 -32.5t47 -11t47 11t36.5 32.5t14.5 53.5zM691 -4l-336 704h-20l-337 -704l70 -9l124 263h308l125 -263zM404 818h-1q0 -29 -18.5 -43.5t-40.5 -14.5q-21 0 -39.5 14.5
t-18.5 43.5t18.5 43.5t40.5 14.5t40.5 -14.5t18.5 -43.5zM469 310h-248l124 261z" />
    <glyph glyph-name="AE" unicode="&#xc6;" horiz-adv-x="927" 
d="M907 58h-328v257h288v62h-288v250h316l-7 62h-409l-462 -694h78l213 321h206v-321h387zM514 625l-1 -247h-163z" />
    <glyph glyph-name="Ccedilla" unicode="&#xc7;" horiz-adv-x="639" 
d="M598 109q-45 -29 -95 -46t-103 -17q-72 0 -126 25.5t-90 67t-53.5 94.5t-17.5 108q0 56 18 109t54 94.5t89.5 67t124.5 25.5q53 0 102 -17t94 -43l-6 78q-40 23 -88.5 35t-94.5 12q-75 0 -141.5 -27.5t-116 -76t-78.5 -114.5t-29 -142q0 -71 22.5 -132.5t64 -108.5
t99.5 -77.5t129 -38.5l-33 -58l13 -11q30 10 49.5 0.5t24 -24.5t-9 -29.5t-50.5 -14.5q-26 0 -53 11l-11 -41q52 -18 88.5 -14.5t58.5 19.5t30 39.5t2.5 45.5t-24 37.5t-48.5 15.5q-3 0 -5.5 -0.5t-5.5 -1.5l14 24q51 -2 101.5 11t94.5 38z" />
    <glyph glyph-name="Egrave" unicode="&#xc8;" horiz-adv-x="517" 
d="M340 729l-114 155l-93 2l153 -158zM459 57h-335v258h295v62h-295v250h323l-7 62h-382v-694h395z" />
    <glyph glyph-name="Eacute" unicode="&#xc9;" horiz-adv-x="517" 
d="M410 886l-92 -2l-113 -156h54zM459 57h-335v258h295v62h-295v250h323l-7 62h-382v-694h395z" />
    <glyph glyph-name="Ecircumflex" unicode="&#xca;" horiz-adv-x="517" 
d="M401 725l-117 161h-66l-118 -162h62l89 103l88 -103zM459 57h-335v258h295v62h-295v250h323l-7 62h-382v-694h395z" />
    <glyph glyph-name="Edieresis" unicode="&#xcb;" horiz-adv-x="517" 
d="M374 799q0 19 -12 28t-26 9t-26 -9t-12 -28t12 -28.5t26 -9.5t26 9.5t12 28.5zM199 799h-1q0 19 -11.5 28.5t-26 9t-26 -10t-11.5 -27.5q0 -19 12 -28.5t26 -9.5t26 9.5t12 28.5zM459 57h-335v258h295v62h-295v250h323l-7 62h-382v-694h395z" />
    <glyph glyph-name="Igrave" unicode="&#xcc;" horiz-adv-x="237" 
d="M221 729l-114 155l-93 2l153 -158zM163 -1v698l-65 -7v-698z" />
    <glyph glyph-name="Iacute" unicode="&#xcd;" horiz-adv-x="237" 
d="M222 886l-92 -2l-113 -156h54zM95 -1v698l-66 -7v-698z" />
    <glyph glyph-name="Icircumflex" unicode="&#xce;" horiz-adv-x="237" 
d="M269 725l-117 161h-66l-118 -162h62l89 103l88 -103zM150 -1v698l-65 -7v-698z" />
    <glyph glyph-name="Idieresis" unicode="&#xcf;" horiz-adv-x="237" 
d="M244 799q0 19 -12 28t-26 9t-26 -9t-12 -28t12 -28.5t26 -9.5t26 9.5t12 28.5zM69 799h-1q0 19 -11.5 28.5t-26 9t-26 -10t-11.5 -27.5q0 -19 12 -28.5t26 -9.5t26 9.5t12 28.5zM153 -1v698l-66 -7v-698z" />
    <glyph glyph-name="Eth" unicode="&#xd0;" horiz-adv-x="698" 
d="M107 -5h211q77 0 142.5 24.5t113 70t74.5 109.5t27 142q0 82 -26 145t-72.5 106.5t-112 67t-143.5 28.5q-54 3 -107 3t-107 1v-317h-84v-62h84v-318zM173 627h137q66 0 120 -19.5t93 -56.5t60 -90t21 -120q0 -66 -23 -118.5t-63 -89.5t-95 -56.5t-119 -19.5h-131v257h194
v62h-194v251z" />
    <glyph glyph-name="Ntilde" unicode="&#xd1;" horiz-adv-x="741" 
d="M541 855q-1 -20 -6 -39t-15.5 -34t-26.5 -24t-39 -9q-18 0 -38 7.5t-40.5 16t-40 16t-35.5 7.5t-28 -10.5t-16 -37.5h-44q1 20 6 39t15.5 34t26.5 24t39 9q17 0 37 -7.5t41 -16t40.5 -16t36.5 -7.5t28 10.5t15 37.5h44zM660 -14h-29l-483 571v-557l-67 -7v703l30 2
q119 -146 241 -285.5t241 -284.5v562l67 7v-711z" />
    <glyph glyph-name="Ograve" unicode="&#xd2;" horiz-adv-x="823" 
d="M499 729l-113 155l-93 2l153 -158zM777 342q0 76 -29 142t-78.5 114.5t-116.5 76t-142 27.5q-76 0 -142.5 -27.5t-116 -76t-78 -114.5t-28.5 -142q0 -77 29 -142.5t78.5 -114t116 -76t142.5 -27.5q75 0 141.5 27.5t116 76t78.5 114.5t29 142zM706 342q0 -61 -23 -115
t-63 -94t-94 -63.5t-115 -23.5q-62 0 -115.5 23t-93 63.5t-62.5 94t-23 115.5q0 61 23 115t62.5 94.5t93.5 63.5t116 23q61 0 114.5 -23.5t93.5 -64t63 -94t23 -114.5z" />
    <glyph glyph-name="Oacute" unicode="&#xd3;" horiz-adv-x="823" 
d="M569 886l-92 -2l-112 -156h53zM777 342q0 76 -29 142t-78.5 114.5t-116.5 76t-142 27.5q-76 0 -142.5 -27.5t-116 -76t-78 -114.5t-28.5 -142q0 -77 29 -142.5t78.5 -114t116 -76t142.5 -27.5q75 0 141.5 27.5t116 76t78.5 114.5t29 142zM706 342q0 -61 -23 -115t-63 -94
t-94 -63.5t-115 -23.5q-62 0 -115.5 23t-93 63.5t-62.5 94t-23 115.5q0 61 23 115t62.5 94.5t93.5 63.5t116 23q61 0 114.5 -23.5t93.5 -64t63 -94t23 -114.5z" />
    <glyph glyph-name="Ocircumflex" unicode="&#xd4;" horiz-adv-x="823" 
d="M560 725l-116 161h-67l-117 -162h62l88 103l88 -103zM777 342q0 76 -29 142t-78.5 114.5t-116.5 76t-142 27.5q-76 0 -142.5 -27.5t-116 -76t-78 -114.5t-28.5 -142q0 -77 29 -142.5t78.5 -114t116 -76t142.5 -27.5q75 0 141.5 27.5t116 76t78.5 114.5t29 142zM706 342
q0 -61 -23 -115t-63 -94t-94 -63.5t-115 -23.5q-62 0 -115.5 23t-93 63.5t-62.5 94t-23 115.5q0 61 23 115t62.5 94.5t93.5 63.5t116 23q61 0 114.5 -23.5t93.5 -64t63 -94t23 -114.5z" />
    <glyph glyph-name="Otilde" unicode="&#xd5;" horiz-adv-x="823" 
d="M576 855h-43q-5 -27 -17 -37.5t-29 -10.5q-16 0 -35.5 7.5t-40 16t-40.5 16t-37 7.5q-23 0 -39 -9t-26 -24t-15 -34t-6 -39h43q4 27 16 37.5t28 10.5t35.5 -7.5t40 -16t41 -16t38.5 -7.5q23 0 39 9t26.5 24t15 34t5.5 39zM777 342q0 76 -29 142t-78.5 114.5t-116.5 76
t-142 27.5q-76 0 -142.5 -27.5t-116 -76t-78 -114.5t-28.5 -142q0 -77 29 -142.5t78.5 -114t116 -76t142.5 -27.5q75 0 141.5 27.5t116 76t78.5 114.5t29 142zM706 342q0 -61 -23 -115t-63 -94t-94 -63.5t-115 -23.5q-62 0 -115.5 23t-93 63.5t-62.5 94t-23 115.5
q0 61 23 115t62.5 94.5t93.5 63.5t116 23q61 0 114.5 -23.5t93.5 -64t63 -94t23 -114.5z" />
    <glyph glyph-name="Odieresis" unicode="&#xd6;" horiz-adv-x="823" 
d="M533 741q0 18 -11.5 27.5t-26.5 9.5q-14 0 -25.5 -9t-11.5 -28q0 -18 11.5 -27.5t25.5 -9.5q15 0 26.5 9t11.5 28zM358 741q0 18 -11.5 27.5t-26.5 9.5q-14 0 -25.5 -9t-11.5 -28q0 -18 11.5 -27.5t25.5 -9.5q15 0 26.5 9t11.5 28zM777 342q0 76 -29 142t-78.5 114.5
t-116.5 76t-142 27.5q-76 0 -142.5 -27.5t-116 -76t-78 -114.5t-28.5 -142q0 -77 29 -142.5t78.5 -114t116 -76t142.5 -27.5q75 0 141.5 27.5t116 76t78.5 114.5t29 142zM706 342q0 -61 -23 -115t-63 -94t-94 -63.5t-115 -23.5q-62 0 -115.5 23t-93 63.5t-62.5 94t-23 115.5
q0 61 23 115t62.5 94.5t93.5 63.5t116 23q61 0 114.5 -23.5t93.5 -64t63 -94t23 -114.5z" />
    <glyph glyph-name="multiply" unicode="&#xd7;" horiz-adv-x="652" 
d="M558 112l-189 189l189 189l-43 43l-189 -189l-189 189l-43 -43l189 -189l-189 -189l43 -43l189 189l189 -189z" />
    <glyph glyph-name="Oslash" unicode="&#xd8;" horiz-adv-x="823" 
d="M203 44q46 -32 99.5 -47t109.5 -15q82 0 149 30t115 80t74.5 114.5t27 133t-26 137t-85.5 125.5l65 80l-48 32l-62 -75q-46 33 -100 48t-110 15q-83 0 -150 -30t-114.5 -80t-74 -115t-27 -134t26.5 -137.5t86 -125.5l-73 -89l48 -32zM621 549q46 -46 67 -101t19 -111
t-24 -108.5t-61 -93t-92.5 -65t-118.5 -24.5q-44 0 -86.5 12t-78.5 38zM577 586l-375 -453q-47 45 -67.5 100.5t-19 111.5t23.5 109t61 93.5t93 65.5t119 25q44 0 87 -12.5t78 -39.5z" />
    <glyph glyph-name="Ugrave" unicode="&#xd9;" horiz-adv-x="677" 
d="M427 729l-113 155l-93 2l153 -158zM71 690v-434q0 -62 19 -112.5t54 -86.5t85 -55.5t112 -19.5q64 0 113.5 21.5t83 59t51 89.5t17.5 114v431l-66 -7v-412q0 -48 -12 -90t-37 -73.5t-62.5 -50t-89.5 -18.5q-50 0 -87.5 17t-63 46.5t-38.5 70t-13 87.5v430z" />
    <glyph glyph-name="Uacute" unicode="&#xda;" horiz-adv-x="677" 
d="M497 886l-92 -2l-112 -156h53zM71 690v-434q0 -62 19 -112.5t54 -86.5t85 -55.5t112 -19.5q64 0 113.5 21.5t83 59t51 89.5t17.5 114v431l-66 -7v-412q0 -48 -12 -90t-37 -73.5t-62.5 -50t-89.5 -18.5q-50 0 -87.5 17t-63 46.5t-38.5 70t-13 87.5v430z" />
    <glyph glyph-name="Ucircumflex" unicode="&#xdb;" horiz-adv-x="677" 
d="M488 725l-116 161h-67l-117 -162h62l88 103l88 -103zM71 690v-434q0 -62 19 -112.5t54 -86.5t85 -55.5t112 -19.5q64 0 113.5 21.5t83 59t51 89.5t17.5 114v431l-66 -7v-412q0 -48 -12 -90t-37 -73.5t-62.5 -50t-89.5 -18.5q-50 0 -87.5 17t-63 46.5t-38.5 70t-13 87.5
v430z" />
    <glyph glyph-name="Udieresis" unicode="&#xdc;" horiz-adv-x="677" 
d="M461 739q0 18 -11.5 27.5t-26.5 9.5q-14 0 -25.5 -9t-11.5 -28q0 -18 11.5 -27.5t25.5 -9.5q15 0 26.5 9t11.5 28zM286 739q0 18 -11.5 27.5t-26.5 9.5q-14 0 -25.5 -9t-11.5 -28q0 -18 11.5 -27.5t25.5 -9.5q15 0 26.5 9t11.5 28zM71 690v-434q0 -62 19 -112.5t54 -86.5
t85 -55.5t112 -19.5q64 0 113.5 21.5t83 59t51 89.5t17.5 114v431l-66 -7v-412q0 -48 -12 -90t-37 -73.5t-62.5 -50t-89.5 -18.5q-50 0 -87.5 17t-63 46.5t-38.5 70t-13 87.5v430z" />
    <glyph glyph-name="Yacute" unicode="&#xdd;" horiz-adv-x="564" 
d="M445 886l-92 -2l-113 -156h54zM575 688l-75 9l-211 -320l-226 320l-74 -9l264 -375l-56 -321l66 7l56 295z" />
    <glyph glyph-name="Thorn" unicode="&#xde;" horiz-adv-x="499" 
d="M120 141h89q52 0 95.5 12.5t75 39t49 66.5t17.5 95q0 54 -17.5 93t-49 64.5t-74.5 37.5t-93 12q-23 0 -46.5 -0.5t-46.5 -0.5v137l-66 -7v-698l67 7v142zM375 354h-1q0 -60 -23.5 -91t-60 -44.5t-82 -14.5t-89.5 -1v295h107q32 0 59 -10.5t47 -29t31.5 -45t11.5 -59.5z
" />
    <glyph glyph-name="germandbls" unicode="&#xdf;" horiz-adv-x="550" 
d="M135 102q14 -23 27.5 -44.5t31 -37.5t39.5 -25.5t52 -9.5q59 0 101.5 25t67.5 63.5t33 85.5t-2.5 91.5t-40 81t-77.5 53.5q37 24 57.5 62.5t20.5 82.5q0 58 -28.5 98.5t-71.5 61.5t-92.5 21.5t-92.5 -21.5t-71.5 -67t-28.5 -116v-518l61 7v464q0 34 3.5 69t16.5 62.5
t38.5 45t69.5 17.5q62 0 97.5 -33t35.5 -96q0 -32 -11 -54.5t-29.5 -37t-44 -21.5t-54.5 -7l-1 -47q66 -3 107 -27.5t60.5 -59t19 -74t-17.5 -73t-49.5 -55.5t-75.5 -22q-36 0 -58.5 20t-30.5 54z" />
    <glyph glyph-name="agrave" unicode="&#xe0;" horiz-adv-x="458" 
d="M339 539l-114 155l-93 2l153 -158zM407 4q-3 59 -3 116v117q0 48 -0.5 93.5t-13.5 81.5t-45.5 57.5t-96.5 21.5q-39 0 -76 -12t-71 -30l-12 -71q32 22 72 38.5t79 16.5q42 0 71.5 -21t29.5 -66v-58q-84 26 -143.5 14t-95 -46t-46.5 -80.5t3 -89t53 -72.5t104 -30
q36 0 69 16t57 42l5 -59zM341 198q0 -17 -0.5 -35t-0.5 -35q0 -4 -3 -10.5t-5 -9.5q-22 -38 -59 -53.5t-72.5 -10.5t-61.5 28.5t-26 62.5q0 29 12.5 51t32.5 37t45.5 22.5t51.5 7.5q10 0 24.5 -4t28 -11.5t23.5 -17.5t10 -22z" />
    <glyph glyph-name="aacute" unicode="&#xe1;" horiz-adv-x="458" 
d="M409 696l-92 -2l-113 -156h54zM407 4q-3 59 -3 116v117q0 48 -0.5 93.5t-13.5 81.5t-45.5 57.5t-96.5 21.5q-39 0 -76 -12t-71 -30l-12 -71q32 22 72 38.5t79 16.5q42 0 71.5 -21t29.5 -66v-58q-84 26 -143.5 14t-95 -46t-46.5 -80.5t3 -89t53 -72.5t104 -30q36 0 69 16
t57 42l5 -59zM341 198q0 -17 -0.5 -35t-0.5 -35q0 -4 -3 -10.5t-5 -9.5q-22 -38 -59 -53.5t-72.5 -10.5t-61.5 28.5t-26 62.5q0 29 12.5 51t32.5 37t45.5 22.5t51.5 7.5q10 0 24.5 -4t28 -11.5t23.5 -17.5t10 -22z" />
    <glyph glyph-name="acircumflex" unicode="&#xe2;" horiz-adv-x="458" 
d="M400 535l-117 161h-66l-118 -162h62l89 103l88 -103zM407 4q-3 59 -3 116v117q0 48 -0.5 93.5t-13.5 81.5t-45.5 57.5t-96.5 21.5q-39 0 -76 -12t-71 -30l-12 -71q32 22 72 38.5t79 16.5q42 0 71.5 -21t29.5 -66v-58q-84 26 -143.5 14t-95 -46t-46.5 -80.5t3 -89
t53 -72.5t104 -30q36 0 69 16t57 42l5 -59zM341 198q0 -17 -0.5 -35t-0.5 -35q0 -4 -3 -10.5t-5 -9.5q-22 -38 -59 -53.5t-72.5 -10.5t-61.5 28.5t-26 62.5q0 29 12.5 51t32.5 37t45.5 22.5t51.5 7.5q10 0 24.5 -4t28 -11.5t23.5 -17.5t10 -22z" />
    <glyph glyph-name="atilde" unicode="&#xe3;" horiz-adv-x="458" 
d="M411 665h-43q-5 -27 -17 -37.5t-29 -10.5q-16 0 -35.5 7.5t-40 16t-40.5 16t-37 7.5q-23 0 -39 -9t-26 -24t-15 -34t-6 -39h43q4 27 16 37.5t28 10.5t35.5 -7.5t40 -16t41 -16t38.5 -7.5q23 0 39 9t26.5 24t15 34t5.5 39zM402 4q-3 59 -3 116v117q0 48 -0.5 93.5
t-13.5 81.5t-45.5 57.5t-96.5 21.5q-39 0 -76 -12t-71 -30l-12 -71q32 22 72.5 38.5t79.5 16.5q42 0 71 -21t29 -66v-58q-83 27 -142 15t-94.5 -46t-47 -81t2.5 -89.5t53 -72.5t104 -30q36 0 69 16t57 42l4 -59zM336 128q0 -4 -3.5 -10t-5.5 -10q-24 -40 -61.5 -55t-72 -9
t-59.5 29.5t-25 61.5q0 29 12.5 51t32.5 37t45.5 22.5t51.5 7.5q10 0 24.5 -4t28 -11.5t23 -17.5t9.5 -22v-70z" />
    <glyph glyph-name="adieresis" unicode="&#xe4;" horiz-adv-x="458" 
d="M373 609q0 19 -12 28t-26 9t-26 -9t-12 -28t12 -28.5t26 -9.5t26 9.5t12 28.5zM198 609h-1q0 19 -11.5 28.5t-26 9t-26 -10t-11.5 -27.5q0 -19 12 -28.5t26 -9.5t26 9.5t12 28.5zM407 4q-3 59 -3 116v117q0 48 -0.5 93.5t-13.5 81.5t-45.5 57.5t-96.5 21.5q-39 0 -76 -12
t-71 -30l-12 -71q32 22 72 38.5t79 16.5q42 0 71.5 -21t29.5 -66v-58q-84 26 -143.5 14t-95 -46t-46.5 -80.5t3 -89t53 -72.5t104 -30q36 0 69 16t57 42l5 -59zM341 198q0 -17 -0.5 -35t-0.5 -35q0 -4 -3 -10.5t-5 -9.5q-22 -38 -59 -53.5t-72.5 -10.5t-61.5 28.5t-26 62.5
q0 29 12.5 51t32.5 37t45.5 22.5t51.5 7.5q10 0 24.5 -4t28 -11.5t23.5 -17.5t10 -22z" />
    <glyph glyph-name="aring" unicode="&#xe5;" horiz-adv-x="458" 
d="M348 628q0 32 -14.5 53.5t-36.5 32.5t-47 11t-47 -11t-36.5 -32.5t-14.5 -53.5t14.5 -53.5t36.5 -32.5t47 -11t47 11t36.5 32.5t14.5 53.5zM407 4q-3 59 -3 116v117q0 48 -0.5 93.5t-13.5 81.5t-45.5 57.5t-96.5 21.5q-39 0 -76 -12t-71 -30l-12 -71q32 22 72 38.5
t79 16.5q42 0 71.5 -21t29.5 -66v-58q-84 26 -143.5 14t-95 -46t-46.5 -80.5t3 -89t53 -72.5t104 -30q36 0 69 16t57 42l5 -59zM309 628h-1q0 -29 -18.5 -43.5t-40.5 -14.5q-21 0 -39.5 14.5t-18.5 43.5t18.5 43.5t40.5 14.5t40.5 -14.5t18.5 -43.5zM341 128
q0 -4 -3.5 -10.5t-5.5 -9.5q-24 -39 -61 -54t-72 -9.5t-60.5 29t-25.5 61.5q0 29 12.5 51t32.5 37t45.5 22.5t51.5 7.5q10 0 24.5 -4t28 -11.5t23.5 -17.5t10 -22v-70z" />
    <glyph glyph-name="ae" unicode="&#xe6;" horiz-adv-x="800" 
d="M757 312q-5 3 -30 -3.5t-61 -18t-77 -26.5t-79 -29t-67 -25t-40 -15q7 -31 22.5 -58t37.5 -47.5t50.5 -32t61.5 -11.5q49 0 91.5 24.5t77.5 56.5v-74q-41 -36 -89.5 -53.5t-98 -15t-95 25t-79.5 66.5q-31 -43 -78.5 -67t-101.5 -24q-61 0 -98.5 29.5t-51.5 71.5t-3.5 88
t46.5 80t97.5 46.5t150.5 -12.5v58q0 23 -9 39.5t-23.5 27t-33.5 15.5t-40 5q-40 0 -81.5 -16.5t-73.5 -38.5l12 71q34 18 76.5 30t84 10.5t77.5 -19.5t58 -60q42 54 100.5 72t114.5 3.5t98.5 -59t53.5 -114.5zM670 350q-12 35 -36 55t-53.5 25t-60.5 -4.5t-57 -32.5
t-43.5 -59.5t-19.5 -84.5zM343 198q0 12 -10.5 22t-24.5 17.5t-29 11.5t-25 4q-27 0 -53.5 -7t-47.5 -22t-34 -37t-13 -52q0 -40 27 -63t64.5 -27.5t75.5 10.5t61 53q2 3 5 9.5t3 10.5q0 17 0.5 35t0.5 35z" />
    <glyph glyph-name="ccedilla" unicode="&#xe7;" horiz-adv-x="481" 
d="M442 30l-21 57q-29 -20 -63.5 -30.5t-69.5 -10.5q-62 0 -103 28.5t-61.5 71t-20.5 92.5t20.5 92.5t62.5 71t104 28.5q35 0 67.5 -12t61.5 -29l22 59q-35 19 -73.5 31t-78.5 12q-78 0 -131.5 -34.5t-83.5 -87t-34.5 -114.5t16.5 -118t68 -97.5t121 -52.5l-34 -60l13 -11
q30 10 49.5 0.5t24 -24.5t-9 -29.5t-50.5 -14.5q-26 0 -53 11l-11 -41q52 -18 89 -14.5t58.5 19.5t29.5 39.5t2.5 45.5t-24 37.5t-48.5 15.5q-3 0 -5.5 -0.5t-5.5 -1.5l15 25q39 0 82 11.5t75 34.5z" />
    <glyph glyph-name="egrave" unicode="&#xe8;" horiz-adv-x="512" 
d="M350 539l-54 -1l-153 158l93 -2zM477 316l-375 -121q8 -33 25 -60.5t41 -47t54 -30.5t64 -11q51 0 96 24.5t83 56.5v-74q-42 -38 -90 -55t-96 -15.5t-92 20.5t-78 52.5t-54 80.5t-20 105q0 76 30 129t75.5 82.5t100.5 35.5t104 -11t85.5 -57.5t46.5 -103.5zM391 349
q-12 35 -37.5 55t-57.5 25t-66 -3.5t-62.5 -31.5t-47.5 -59.5t-21 -86.5z" />
    <glyph glyph-name="eacute" unicode="&#xe9;" horiz-adv-x="512" 
d="M420 696l-92 -2l-113 -156h54zM477 316q-10 63 -46 103.5t-85.5 57.5t-104 11t-100.5 -35.5t-76 -82.5t-30 -129q0 -58 20 -105t54 -80.5t78 -52.5t91.5 -20.5t96 15.5t90.5 55v74q-38 -32 -83 -56.5t-96 -24.5q-35 0 -64.5 11t-53.5 30.5t-41 47t-25 60.5zM391 349
l-292 -101q2 50 21 86.5t47.5 59.5t62.5 31.5t66 3.5t57.5 -25t37.5 -55z" />
    <glyph glyph-name="ecircumflex" unicode="&#xea;" horiz-adv-x="512" 
d="M411 535l-62 -1l-88 103l-89 -103h-62l118 162h66zM477 316l-375 -121q8 -33 25 -60.5t41 -47t54 -30.5t64 -11q51 0 96 24.5t83 56.5v-74q-42 -38 -90 -55t-96 -15.5t-92 20.5t-78 52.5t-54 80.5t-20 105q0 76 30 129t75.5 82.5t100.5 35.5t104 -11t85.5 -57.5
t46.5 -103.5zM391 349q-12 35 -37.5 55t-57.5 25t-66 -3.5t-62.5 -31.5t-47.5 -59.5t-21 -86.5z" />
    <glyph glyph-name="edieresis" unicode="&#xeb;" horiz-adv-x="512" 
d="M384 609q0 -19 -12 -28.5t-26 -9.5t-26 9.5t-12 28.5t12 28t26 9t26 -9t12 -28zM209 609q0 -19 -12 -28.5t-26 -9.5t-26 9.5t-12 28.5q0 18 11.5 27.5t26 10t26 -9t11.5 -28.5h1zM477 316l-375 -121q8 -33 25 -60.5t41 -47t54 -30.5t64 -11q51 0 96 24.5t83 56.5v-74
q-42 -38 -90 -55t-96 -15.5t-92 20.5t-78 52.5t-54 80.5t-20 105q0 76 30 129t75.5 82.5t100.5 35.5t104 -11t85.5 -57.5t46.5 -103.5zM391 349q-12 35 -37.5 55t-57.5 25t-66 -3.5t-62.5 -31.5t-47.5 -59.5t-21 -86.5z" />
    <glyph glyph-name="igrave" unicode="&#xec;" horiz-adv-x="227" 
d="M216 539l-114 155l-93 2l153 -158zM162 1v491q-15 -6 -30.5 -11t-31.5 -10v-481z" />
    <glyph glyph-name="iacute" unicode="&#xed;" horiz-adv-x="227" 
d="M217 696l-92 -2l-113 -156h54zM93 1v491q-15 -6 -30.5 -11t-31.5 -10v-481z" />
    <glyph glyph-name="icircumflex" unicode="&#xee;" horiz-adv-x="227" 
d="M264 535l-117 161h-66l-118 -162h62l89 103l88 -103zM148 1v491q-15 -6 -30.5 -11t-30.5 -10v-481z" />
    <glyph glyph-name="idieresis" unicode="&#xef;" horiz-adv-x="227" 
d="M239 609q0 19 -12 28t-26 9t-26 -9t-12 -28t12 -28.5t26 -9.5t26 9.5t12 28.5zM64 609h-1q0 19 -11.5 28.5t-26 9t-26 -10t-11.5 -27.5q0 -19 12 -28.5t26 -9.5t26 9.5t12 28.5zM151 1v491q-15 -6 -30.5 -11t-31.5 -10v-481z" />
    <glyph glyph-name="eth" unicode="&#xf0;" horiz-adv-x="580" 
d="M411 449q-54 40 -120 40q-54 0 -101 -19.5t-81.5 -54t-54 -81t-19.5 -100.5q0 -55 20 -101t54.5 -79.5t81.5 -52t101 -18.5q58 0 105 22t80 59.5t50.5 87t17.5 105.5q0 54 -14.5 102t-40 91.5t-59 82t-72.5 72.5l121 48l-25 46l-144 -58q-29 20 -60 36.5t-63 29.5
l-35 -39q24 -12 47.5 -24.5t45.5 -28.5l-123 -49l23 -46l150 60q35 -26 65 -58.5t50 -72.5zM482 246h-1q0 -70 -28.5 -115t-71.5 -67t-92.5 -21.5t-92.5 23t-71.5 67t-28.5 109.5q0 62 28.5 104t71.5 63.5t93 22.5t93 -19t71.5 -62t28.5 -105z" />
    <glyph glyph-name="ntilde" unicode="&#xf1;" horiz-adv-x="517" 
d="M430 665h-43q-5 -27 -17 -37.5t-29 -10.5q-16 0 -35.5 7.5t-40 16t-40.5 16t-37 7.5q-23 0 -39 -9t-26 -24t-15 -34t-6 -39h43q4 27 16 37.5t28 10.5t35.5 -7.5t40 -16t41 -16t38.5 -7.5q23 0 39 9t26.5 24t15 34t5.5 39zM452 1v298q0 87 -46 139.5t-136 52.5
q-46 0 -82 -20.5t-62 -56.5v78q-14 -6 -29.5 -10t-31.5 -6v-486l62 11v322q0 2 3.5 11t5.5 12q24 48 66.5 70.5t84.5 17.5t72.5 -38.5t30.5 -97.5v-308z" />
    <glyph glyph-name="ograve" unicode="&#xf2;" horiz-adv-x="571" 
d="M373 539l-114 155l-93 2l153 -158zM534 237q0 52 -19 98.5t-52.5 81t-79 54.5t-98.5 20t-98.5 -20t-78.5 -54.5t-52 -81t-19 -98.5t19 -98t52.5 -80.5t78.5 -54.5t98 -20q52 0 97.5 20t79.5 54.5t53 80.5t19 98zM470 237h-1q0 -38 -14 -73t-38.5 -61.5t-58.5 -42
t-73 -15.5t-72.5 15.5t-58.5 42t-39 61.5t-14 73t14 73t38.5 61.5t58.5 42.5t73 16t73 -15.5t59 -42t39 -61.5t14 -74z" />
    <glyph glyph-name="oacute" unicode="&#xf3;" horiz-adv-x="571" 
d="M443 696l-92 -2l-113 -156h54zM534 237q0 52 -19 98.5t-52.5 81t-79 54.5t-98.5 20t-98.5 -20t-78.5 -54.5t-52 -81t-19 -98.5t19 -98t52.5 -80.5t78.5 -54.5t98 -20q52 0 97.5 20t79.5 54.5t53 80.5t19 98zM470 237h-1q0 -38 -14 -73t-38.5 -61.5t-58.5 -42t-73 -15.5
t-72.5 15.5t-58.5 42t-39 61.5t-14 73t14 73t38.5 61.5t58.5 42.5t73 16t73 -15.5t59 -42t39 -61.5t14 -74z" />
    <glyph glyph-name="ocircumflex" unicode="&#xf4;" horiz-adv-x="571" 
d="M434 535l-117 161h-66l-118 -162h62l89 103l88 -103zM534 237q0 52 -19 98.5t-52.5 81t-79 54.5t-98.5 20t-98.5 -20t-78.5 -54.5t-52 -81t-19 -98.5t19 -98t52.5 -80.5t78.5 -54.5t98 -20q52 0 97.5 20t79.5 54.5t53 80.5t19 98zM470 237h-1q0 -38 -14 -73t-38.5 -61.5
t-58.5 -42t-73 -15.5t-72.5 15.5t-58.5 42t-39 61.5t-14 73t14 73t38.5 61.5t58.5 42.5t73 16t73 -15.5t59 -42t39 -61.5t14 -74z" />
    <glyph glyph-name="otilde" unicode="&#xf5;" horiz-adv-x="571" 
d="M450 665h-44q-4 -27 -15 -37.5t-28 -10.5q-16 0 -36.5 7t-41 16t-41 16.5t-36.5 7.5q-23 0 -39 -9t-26.5 -24t-15.5 -34t-6 -39h44q4 27 16 37.5t28 10.5t35.5 -7.5t40 -16t41 -16t37.5 -7.5q23 0 39 9t26.5 24t15.5 34t6 39zM534 237q0 52 -19 98.5t-52.5 81t-79 54.5
t-98.5 20t-98.5 -20t-78.5 -54.5t-52 -81t-19 -98.5t19 -98t52.5 -80.5t78.5 -54.5t98 -20q52 0 97.5 20t79.5 54.5t53 80.5t19 98zM470 237h-1q0 -38 -14 -73t-38.5 -61.5t-58.5 -42t-73 -15.5t-72.5 15.5t-58.5 42t-39 61.5t-14 73t14 73t38.5 61.5t58.5 42.5t73 16
t73 -15.5t59 -42t39 -61.5t14 -74z" />
    <glyph glyph-name="odieresis" unicode="&#xf6;" horiz-adv-x="571" 
d="M407 609q0 19 -12 28t-26 9t-26 -9t-12 -28t12 -28.5t26 -9.5t26 9.5t12 28.5zM232 609h-1q0 19 -11.5 28.5t-26 9t-26 -10t-11.5 -27.5q0 -19 12 -28.5t26 -9.5t26 9.5t12 28.5zM534 237q0 52 -19 98.5t-52.5 81t-79 54.5t-98.5 20t-98.5 -20t-78.5 -54.5t-52 -81
t-19 -98.5t19 -98t52.5 -80.5t78.5 -54.5t98 -20q52 0 97.5 20t79.5 54.5t53 80.5t19 98zM470 237h-1q0 -38 -14 -73t-38.5 -61.5t-58.5 -42t-73 -15.5t-72.5 15.5t-58.5 42t-39 61.5t-14 73t14 73t38.5 61.5t58.5 42.5t73 16t73 -15.5t59 -42t39 -61.5t14 -74z" />
    <glyph glyph-name="divide" unicode="&#xf7;" horiz-adv-x="652" 
d="M354 473q0 -19 -12 -28.5t-26 -9.5t-26 9.5t-12 28.5t12 28t26 9t26 -9t12 -28zM588 271h-524v60h524v-60zM354 153q0 -19 -12 -28.5t-26 -9.5t-26 9.5t-12 28.5t12 28t26 9t26 -9t12 -28z" />
    <glyph glyph-name="oslash" unicode="&#xf8;" horiz-adv-x="571" 
d="M151 23q29 -20 64 -29.5t70 -9.5q56 0 101.5 21.5t78.5 56.5t51 80.5t18.5 94t-17.5 95.5t-57 86l63 79l-45 30l-59 -75q-29 20 -64 29.5t-70 9.5q-56 0 -101.5 -21.5t-78 -57t-50.5 -81t-19 -94t17 -95.5t57 -85l-66 -83l45 -29zM470 237h-1q0 -35 -12 -67t-33 -57
t-48.5 -42.5t-58.5 -24t-64 -0.5t-64 27l231 294q25 -26 37.5 -60t12.5 -70zM381 402l-231 -294q-39 45 -46 100.5t12.5 105t63 83t105.5 33.5q26 0 50.5 -7t45.5 -21z" />
    <glyph glyph-name="ugrave" unicode="&#xf9;" horiz-adv-x="517" 
d="M347 539l-113 155l-93 2l153 -158zM452 0v481l-62 -9v-185q0 -23 1 -45.5t-1 -45.5q-2 -30 -12 -58t-28 -49.5t-43.5 -34t-58.5 -12.5q-35 0 -58.5 11t-37.5 30.5t-19.5 46t-5.5 58.5v293l-62 -9v-295q0 -89 43.5 -141t136.5 -52q45 0 81.5 22t62.5 58v-68q17 -2 31.5 0
t31.5 4z" />
    <glyph glyph-name="uacute" unicode="&#xfa;" horiz-adv-x="517" 
d="M417 696l-92 -2l-112 -156h53zM452 0v481l-62 -9v-185q0 -23 1 -45.5t-1 -45.5q-2 -30 -12 -58t-28 -49.5t-43.5 -34t-58.5 -12.5q-35 0 -58.5 11t-37.5 30.5t-19.5 46t-5.5 58.5v293l-62 -9v-295q0 -89 43.5 -141t136.5 -52q45 0 81.5 22t62.5 58v-68q17 -2 31.5 0
t31.5 4z" />
    <glyph glyph-name="ucircumflex" unicode="&#xfb;" horiz-adv-x="517" 
d="M408 535l-116 161h-67l-117 -162h62l88 103l88 -103zM452 0v481l-62 -9v-185q0 -23 1 -45.5t-1 -45.5q-2 -30 -12 -58t-28 -49.5t-43.5 -34t-58.5 -12.5q-35 0 -58.5 11t-37.5 30.5t-19.5 46t-5.5 58.5v293l-62 -9v-295q0 -89 43.5 -141t136.5 -52q45 0 81.5 22t62.5 58
v-68q17 -2 31.5 0t31.5 4z" />
    <glyph glyph-name="udieresis" unicode="&#xfc;" horiz-adv-x="517" 
d="M381 609q0 18 -11.5 27.5t-26.5 9.5q-14 0 -25.5 -9t-11.5 -28q0 -18 11.5 -27.5t25.5 -9.5q15 0 26.5 9t11.5 28zM206 609q0 18 -11.5 27.5t-26.5 9.5q-14 0 -25.5 -9t-11.5 -28q0 -18 11.5 -27.5t25.5 -9.5q15 0 26.5 9t11.5 28zM452 0v481l-62 -9v-185q0 -23 1 -45.5
t-1 -45.5q-2 -30 -12 -58t-28 -49.5t-43.5 -34t-58.5 -12.5q-35 0 -58.5 11t-37.5 30.5t-19.5 46t-5.5 58.5v293l-62 -9v-295q0 -89 43.5 -141t136.5 -52q45 0 81.5 22t62.5 58v-68q17 -2 31.5 0t31.5 4z" />
    <glyph glyph-name="yacute" unicode="&#xfd;" horiz-adv-x="453" 
d="M382 696l-92 -2l-112 -156h53zM460 480q-14 2 -31.5 5.5t-31.5 1.5l-162 -335l-179 334q-17 -2 -32 -3.5t-32 -1.5l209 -394l-142 -294q14 2 31 0t31 -6z" />
    <glyph glyph-name="thorn" unicode="&#xfe;" horiz-adv-x="583" 
d="M118 45q34 -31 78 -46t89 -15q50 0 94.5 20.5t77.5 55.5t52 80t19 95q0 55 -18.5 102t-51.5 81t-79 53.5t-102 19.5q-45 0 -86.5 -17.5t-73.5 -49.5v283q-33 0 -62 -11v-909l63 11v247zM462 233h-1q0 -48 -19 -84.5t-49.5 -61t-68 -35t-74.5 -6t-69.5 25.5t-52.5 59
q-2 5 -6 13t-4 13v155q0 8 2.5 15t5.5 14q16 37 47.5 58.5t68.5 28t76 -2.5t71 -33.5t52.5 -64t20.5 -94.5z" />
    <glyph glyph-name="ydieresis" unicode="&#xff;" horiz-adv-x="453" 
d="M346 609q0 18 -11.5 27.5t-26.5 9.5q-14 0 -25.5 -9t-11.5 -28q0 -18 11.5 -27.5t25.5 -9.5q15 0 26.5 9t11.5 28zM171 609q0 18 -11.5 27.5t-26.5 9.5q-14 0 -25.5 -9t-11.5 -28q0 -18 11.5 -27.5t25.5 -9.5q15 0 26.5 9t11.5 28zM460 480q-14 2 -31.5 5.5t-31.5 1.5
l-162 -335l-179 334q-17 -2 -32 -3.5t-32 -1.5l209 -394l-142 -294q14 2 31 0t31 -6z" />
  </font>
</defs>
</svg>
